M48
;Layer_Color=9474304
;FILE_FORMAT=2:5
INCH,LZ
;TYPE=PLATED
T1F00S00C0.01220
T2F00S00C0.03000
T3F00S00C0.04000
T4F00S00C0.12598
%
T01
X0005Y0002
X001
X0015
X002
X0025
X003
X0035
X0025Y0012
Y0022
X002
X0015
X001
X0005
X00075Y0027
X001Y0032
X0015
X0025
X0005
X00075Y0017
X001Y0012
X0015
X0005
X00075Y0007
X004Y0002
X0045
X005
X006
X0065
X007
X0075
X008
X0085
X009
X0095
X01
X0105
X011
X0115
X012
X0125
X013
X0135
X014
X0145
X015
X0155
X016
X0165
X017
X0175
X018
X0185
X019
X01875Y0007
X019Y0012
X0185
X01875Y0017
X01825
X01775
X01725
X01675
X01625
X01575
X01525
X01475
X01425
X01375
X01325
X01275
X01225
X01175
X01125
X01075
X01025
X00975
X01Y0012
X0105
X01025Y0007
X00975
X009Y0012
Y0022
X0089Y0026
X0087Y0032
X008
X0075
X007
X0065
X006
X0055
X005
X0045
X00475Y0027
X00525
X00575
X00625
X00675
X00725
X007Y0022
X0065
X006
X0055
X005
X0045
X00475Y0017
X0045Y0012
X0065
X007
X00725Y0017
X00675
X00625
X00675Y0007
X00725
X00825Y0017
X008Y0022
X00975Y0026
X0107Y00265
X0105Y0032
X011
X0115
X012
X0125
X0135
X0145
X01475Y0027
X01525
X01575
X01625
X01675
X01725
X01775
X01825
X01875
X019Y0022
X0185
X018
X0175
X017
X0165
X016
X0155
X015
X0142Y00265
X0145Y0012
X0155
X0165
X0175
X018Y00325
X0185Y0032
X0135Y0012
X0125
X0115
X0195
X01975Y0017
X02075
X02125
X02175
X02225
X02275
X02325
X0235Y0012
X0245
X02475Y0017
X02525
X02575
X02625
X02675
X0265Y0022
X0255
X025
X0245
X02475Y0027
X02425
X02375
X0234Y0026
X0235Y0032
X024
X0245
X025
X023
X0225Y0022
Y0012
Y0002
X023
X0235
X024
X0245
X025
X0255
X02575Y0007
X026Y0012
X0255
X0215
Y0022
X021
X0205
X02015Y0026
X0205Y0012
Y0002
X021
X0215
X022
X02
X0195
X01925Y0007
X02075Y0037
X02175
X02275
X02375
X02475
Y0047
X02435Y0049
X02575Y0047
X02625
X02675
X0265Y0052
X026
X02625Y0057
X02675
X0265Y0062
X026
Y0072
X0265
X02675Y0077
X0265Y0082
X026
X0255
X025
X02525Y0087
X02575
X026Y0092
X0265
X02675Y0097
X0265Y0102
X02675Y0107
X02625Y0109
X026Y01055
X02675Y0117
Y0127
X02625
X0265Y0132
X02675Y0137
X02625
X02575
X02525
X0255Y0142
X026
X0265
X02675Y0147
X02625
X02575
X02525
X02475
X025Y0152
X0255
X026
X0265
X02575Y0157
X02525
X02475
Y0163
Y0167
X02525
X02575
X0255Y0172
X02575Y0177
X02525
X02475
X02375
X02325
X02275
X02225
X0225Y0172
X023
X0235
X024
X02375Y0167
X02325
X02275
X02225
X02175
X022Y0172
Y0162
X0225
X023
X02325Y0157
X02375
X0235Y01595
X024Y0162
Y0152
X02375Y0147
X02325
X02275
X02225
X02175
X022Y0152
X0225
X023
X02275Y0157
X02225
X02175
X021Y0152
X0205
X02075Y0147
X021Y0142
X0205
X02075Y0137
X02175
X02225
X02275
X02325
X02375
X0235Y0142
X023
X0225
X022
X02225Y0127
X02275
X02325
X02375
X02425
X02475
X0245Y0122
X024
X0235
X023
X0225
X022
X02175Y0127
X02075
X021Y0122
X0205
X0195
X01945Y0126
X01975Y0127
Y0137
X01925
X0195Y0142
X01975Y0147
X01925Y0157
X0195Y0162
X02
X01975Y0167
X01925
X0195Y0172
X02
X01975Y0177
X01925
X02125
X0255Y0162
X025Y0142
X0255Y0122
X0245Y0092
X024
X0235
X023
X0225
X022
X0218Y00845
X0219Y008
X022Y0072
X02175Y0067
X02125
X02075
X02035Y007
X021Y0072
X0207Y0077
X02075Y0082
X021Y0092
X0205
X02
X0201Y01005
X0215Y01065
X02175Y01125
X0215Y01155
X02155Y0119
X0226Y01025
Y0083
X023Y0082
X0235
X02425Y00815
Y0087
X02675
Y0067
X0265Y0042
X026
X02675Y0037
X02175Y0047
X02075
X01975
X0195Y0052
X01975Y0057
X01925
X02Y0062
X021
X0215
X022
X0225
X0193Y00695
X01875Y00705
X019Y00755
Y0062
X0185
X018
X0175
X017
X0165
X01675Y0067
X01725
X0175Y0072
X017
X01725Y0077
X01675
X01615Y00795
X01575Y0077
X016Y0072
X01575Y0067
X0155Y0062
X01575Y0057
X01625
X01675
X01725
X01775
X01825
X01875
X019Y0052
X018Y0082
X0175
X0169Y0085
X0157Y00845
X015Y0082
X0145
X01475Y0077
X015Y0072
X0145
X01475Y0067
X0145Y0062
X01315Y00705
X01105
X01125Y0077
Y0087
X0108Y00915
X01135Y0095
X01285
X0125Y01065
X01305Y01125
X0128Y01165
X01215Y01195
X012Y0123
X0123Y0128
X01255Y01395
X012Y0142
X01225Y0147
X01275
X0125Y0152
X012
X01225Y0157
X01175
X01125
X0115Y0162
X011
X01125Y0167
X01175
X01225
X01275
X013Y0162
X0125
Y0172
X012
X0115
X011
X01125Y0177
X01175
X01225
X0125Y0182
X012
X0115
X011
X0105
X01
X01025Y0187
X01075
X01125
X01175
X01225
X01315Y0177
X01385Y0163
X0134Y01575
X0131Y01525
X0132Y01425
X01315Y0137
X0149Y01425
X01575Y0137
X017Y0142
X01725Y0147
X01675
X017Y0152
X0165
X016
X01625Y0157
X01675
X01725
X017Y0162
X0165
X016
X01625Y0167
X01675
X01725
X017Y0172
X0165
X016
X01625Y0177
X01675
X01725
X017Y0182
X0165
X01575Y0177
Y0167
Y0157
X01875
X019Y0162
X0185
X01875Y0167
X019Y0172
X0185
X01875Y0177
X019Y0152
X0185
X0181Y0129
X01675Y0127
X017Y0122
X01725Y0117
X017Y0112
X0165
X01605Y01115
X0159Y01035
X01615Y00995
X0153
X01505Y0094
X0145Y0092
X0139Y009
X01445Y01005
X01745Y0103
X0176Y0095
X01805Y0107
X01865Y01045
X019Y0122
X01115Y0116
X0112Y011
X0105Y0112
X01025Y0107
X0105Y0102
X00975Y0097
X00925
X0095Y0092
X0085
X00825Y0097
X0085Y0102
X009
X00875Y0107
X0085Y0112
X00865Y01155
X009Y0122
X008
X0075
Y0132
X007
X00675Y0134
X00575Y01325
X0055Y0142
X00525Y0147
X00475
X0045Y0142
X00465Y01355
X0045Y0132
X0055Y0122
X006
X0065
Y0112
X007
X0075
X00725Y0107
X00675
X00625
X0065Y0102
X007
X0075
X00725Y0097
X00675
X00625
X0065Y0092
X007
X0075
X00725Y0087
X00675
X00625
X0065Y0082
X007
X0075
X0085
X00825Y0087
X00925Y0077
X00975Y0067
X00875
X00825
X00775
X00725
X00675
X00625
X00575
X0057Y00705
X00575Y0077
X00625
X00675
X007Y0062
X0075
X008
X0085
X009
X00875Y0057
X00825
X00775
X00725
Y0047
X00675
X00625
X00575
X00525
X00475
X00425
X0045Y0052
X005
X0055
X006
X0065
Y0062
X006
X0055
X005
X0045
X00475Y0067
X00525
X00475Y0077
X0045Y0092
X00475Y0097
X00525
Y01065
X0055Y0112
X0045
Y0102
X006
X0095Y01075
X0097Y0117
X0103Y01175
X01085Y01275
X01075Y0137
X00975
X00925
X009Y01355
X0086Y0134
X00825Y0137
X00775Y0139
X008Y0142
Y0152
X00795Y01605
X00825Y01635
X0089Y0165
X009Y0172
X00875Y0177
X0085Y0182
X008
X007
X0065
X006
X0055
X00575Y0187
X00625
X00675
X00525
X005Y0172
X0047Y01695
X0054Y01675
X00509Y01625
X0051Y01565
X00575Y0157
X00625
X00715Y0162
X0075Y0172
X00585Y0175
X00975Y0177
X00985Y01695
X0099Y01645
Y0159
X00975Y0147
X01Y0142
X011Y0151
X0106Y01675
X01075Y0177
X00975Y0187
X008Y01305
X0105Y0082
X0115Y0062
X01175Y0057
X01225
X0125Y0052
X012
X0115
X01175Y0047
X01225
X01275
X0125Y0042
X012
X01305Y00405
X0136Y0044
X01375Y0037
X01075
X00925
X009Y0042
X00875Y0047
X00825
X0085Y0052
X009
X008
X0075Y0042
X007
X0065
X006
X0055
X005
X0045
X00475Y0037
X00525
X00575
X00625
X00675
X00725
X00775
X00825
X00425
X00375
X00325
X00275
X00225
Y0047
X00275
Y0057
X00225
Y0067
X00275
X003Y0072
X0025
X002
X00175Y0067
X00125
Y0057
X00075
X001Y0052
X0005
X00075Y0047
X00125
X00175
X001Y0042
X0005
X00075Y0037
X00125
X0005Y0062
X00055Y00795
X00075Y0087
X001Y0092
X0015
X002
X0025
X003
X0025Y0102
X002
X0015
X001
X0005
X00075Y0107
X00125
X00175
X00225
X00275
X00175Y0117
X00125
X00075
X001Y0122
X0005
X00075Y0127
X00125
X00175
X002Y0142
X0025
X003
X002Y0152
X0015
X001
X0005
X00075Y0157
X001Y0162
X0015
X002
Y0172
X0015
X001
X0005
X00075Y0177
X00125
X00175
Y0187
X00225
X00125
X00075
X001Y0182
X0005
X00075Y0167
X0005Y0162
X00075Y0147
X0005Y0142
X00075Y0137
X0005Y0132
Y0112
X001
X00075Y0097
X0005Y0092
Y0192
X001
X00125Y0197
X00175
X00075
X001Y0202
X0005
X0045
X005
X00475Y0197
X005Y0192
X0055
X0065
X007
X008
X009
X0095
X01
X0105
X011
X0115
X012
X014
X01725Y0197
X0175Y0202
X017
X0185
Y0192
X0195
X02
X0215
X0225
X0235
X024
X02435
X0255
X02575Y0197
X0255Y0202
X0235
X0225
X0215
X0205
X0195
T02
X011Y001
X012
X013
X014
X015
X016
X017
X018
X02
X021
X022
X023
X024
X025
X019Y02
X018
X0164
X0154
X0144
X0134
X0124
X0114
X0104
X0094
X0084
X0074
X02
X021
X022
X023
X024
X025
T03
X0203Y0042
X0213
X0223
X0233
X0243
X0253
T04
X0055Y001
X026Y003
X006Y02
M30
