G04 Layer_Color=8388736*
%FSLAX25Y25*%
%MOIN*%
G70*
G01*
G75*
%ADD49R,0.13320X0.05800*%
%ADD50R,0.03753X0.03162*%
%ADD51R,0.03162X0.03753*%
%ADD52R,0.03359X0.04540*%
%ADD53R,0.03320X0.03162*%
%ADD54R,0.06115X0.05328*%
%ADD55R,0.04343X0.04737*%
%ADD56R,0.03162X0.03320*%
%ADD57R,0.03950X0.03950*%
%ADD58R,0.03910X0.04304*%
%ADD59O,0.01784X0.03556*%
%ADD60O,0.01784X0.04343*%
%ADD61O,0.03556X0.01784*%
%ADD62O,0.04343X0.01784*%
%ADD63R,0.06902X0.06902*%
%ADD64R,0.08674X0.08674*%
%ADD65O,0.01784X0.04147*%
%ADD66O,0.04147X0.01784*%
%ADD67R,0.04540X0.03359*%
%ADD68C,0.08200*%
%ADD69R,0.06800X0.06800*%
%ADD70C,0.06800*%
%ADD71C,0.13398*%
D49*
X234500Y74500D02*
D03*
X249500D02*
D03*
Y64500D02*
D03*
X234500D02*
D03*
X249500Y54500D02*
D03*
X234500D02*
D03*
Y117000D02*
D03*
X249500D02*
D03*
Y107000D02*
D03*
X234500D02*
D03*
X249500Y97000D02*
D03*
X234500D02*
D03*
X34500Y112500D02*
D03*
X19500D02*
D03*
Y122500D02*
D03*
X34500D02*
D03*
X19500Y132500D02*
D03*
X34500D02*
D03*
Y77500D02*
D03*
X19500D02*
D03*
Y87500D02*
D03*
X34500D02*
D03*
X19500Y97500D02*
D03*
X34500D02*
D03*
Y42500D02*
D03*
X19500D02*
D03*
Y52500D02*
D03*
X34500D02*
D03*
X19500Y62500D02*
D03*
X34500D02*
D03*
Y7500D02*
D03*
X19500D02*
D03*
Y17500D02*
D03*
X34500D02*
D03*
X19500Y27500D02*
D03*
X34500D02*
D03*
Y147500D02*
D03*
X19500D02*
D03*
Y157500D02*
D03*
X34500D02*
D03*
X19500Y167500D02*
D03*
X34500D02*
D03*
Y182500D02*
D03*
X19500D02*
D03*
Y192500D02*
D03*
X34500D02*
D03*
X19500Y202500D02*
D03*
X34500D02*
D03*
D50*
X88736Y140862D02*
D03*
X93264D02*
D03*
X132236Y104980D02*
D03*
X136764D02*
D03*
X55028Y101500D02*
D03*
X50500D02*
D03*
X70764Y139362D02*
D03*
X66236D02*
D03*
X116972Y109980D02*
D03*
X121500D02*
D03*
X116972Y114980D02*
D03*
X121500D02*
D03*
X93264Y159862D02*
D03*
X88736D02*
D03*
D51*
X85250Y21236D02*
D03*
Y25764D02*
D03*
X77000Y21236D02*
D03*
Y25764D02*
D03*
X64700Y178564D02*
D03*
Y174036D02*
D03*
X83900Y174036D02*
D03*
Y178564D02*
D03*
X148500Y104264D02*
D03*
Y99736D02*
D03*
X197157Y72681D02*
D03*
Y68154D02*
D03*
X179657Y72681D02*
D03*
Y68154D02*
D03*
X189657Y93154D02*
D03*
Y97681D02*
D03*
X169657Y93154D02*
D03*
Y97681D02*
D03*
X89000Y81709D02*
D03*
Y86236D02*
D03*
X109500Y81197D02*
D03*
Y85724D02*
D03*
X93500Y25764D02*
D03*
Y21236D02*
D03*
D52*
X74340Y178367D02*
D03*
X78080Y169312D02*
D03*
X70600D02*
D03*
X197157Y78154D02*
D03*
X193417Y87209D02*
D03*
X200897D02*
D03*
X179657Y78154D02*
D03*
X175917Y87209D02*
D03*
X183397D02*
D03*
X100240Y85528D02*
D03*
X103980Y76472D02*
D03*
X96500D02*
D03*
X79000Y85528D02*
D03*
X82740Y76472D02*
D03*
X75260D02*
D03*
D53*
X142500Y104980D02*
D03*
Y108445D02*
D03*
X59700Y148335D02*
D03*
Y151800D02*
D03*
X129600Y123280D02*
D03*
Y126745D02*
D03*
X114200Y41340D02*
D03*
Y44805D02*
D03*
D54*
X56500Y85055D02*
D03*
Y91945D02*
D03*
D55*
X162843Y116980D02*
D03*
X168157D02*
D03*
Y135980D02*
D03*
X162843D02*
D03*
D56*
X190232Y125500D02*
D03*
X186768D02*
D03*
X107900Y64272D02*
D03*
X111365D02*
D03*
X100232Y37972D02*
D03*
X96768D02*
D03*
X97000Y33000D02*
D03*
X100465D02*
D03*
D57*
X85250Y7547D02*
D03*
Y13453D02*
D03*
X77000Y7547D02*
D03*
Y13453D02*
D03*
X93500D02*
D03*
Y7547D02*
D03*
D58*
X161949Y122980D02*
D03*
Y128610D02*
D03*
X157500Y122980D02*
D03*
Y128610D02*
D03*
D59*
X74043Y156905D02*
D03*
X66957D02*
D03*
Y145095D02*
D03*
X74043D02*
D03*
D60*
X72272Y156512D02*
D03*
X70500D02*
D03*
X68728D02*
D03*
Y145488D02*
D03*
X70500D02*
D03*
X72272D02*
D03*
D61*
X64595Y154543D02*
D03*
Y147457D02*
D03*
X76406D02*
D03*
Y154543D02*
D03*
D62*
X64988Y152772D02*
D03*
Y151000D02*
D03*
Y149228D02*
D03*
X76012D02*
D03*
Y151000D02*
D03*
Y152772D02*
D03*
D63*
X70500Y151000D02*
D03*
D64*
X101500Y51472D02*
D03*
X142500Y122500D02*
D03*
D65*
X96579Y59051D02*
D03*
X98547D02*
D03*
X100516D02*
D03*
X102484D02*
D03*
X104453D02*
D03*
X106421D02*
D03*
Y43894D02*
D03*
X104453D02*
D03*
X102484D02*
D03*
X100516D02*
D03*
X98547D02*
D03*
X96579D02*
D03*
X147815Y115020D02*
D03*
X146043D02*
D03*
X144272D02*
D03*
X142500D02*
D03*
X140728D02*
D03*
X138957D02*
D03*
X137185D02*
D03*
Y129980D02*
D03*
X138957D02*
D03*
X140728D02*
D03*
X142500D02*
D03*
X144272D02*
D03*
X146043D02*
D03*
X147815D02*
D03*
D66*
X109079Y56394D02*
D03*
Y54425D02*
D03*
Y52457D02*
D03*
Y50488D02*
D03*
Y48520D02*
D03*
Y46551D02*
D03*
X93921D02*
D03*
Y48520D02*
D03*
Y50488D02*
D03*
Y52457D02*
D03*
Y54425D02*
D03*
Y56394D02*
D03*
X135020Y117185D02*
D03*
Y118957D02*
D03*
Y120728D02*
D03*
Y122500D02*
D03*
Y124272D02*
D03*
Y126043D02*
D03*
Y127815D02*
D03*
X149980D02*
D03*
Y126043D02*
D03*
Y124272D02*
D03*
Y122500D02*
D03*
Y120728D02*
D03*
Y118957D02*
D03*
Y117185D02*
D03*
D67*
X93367Y150400D02*
D03*
X84312Y146660D02*
D03*
Y154140D02*
D03*
D68*
X253000Y42000D02*
D03*
X243000D02*
D03*
X233000D02*
D03*
X223000D02*
D03*
X213000D02*
D03*
X203000D02*
D03*
D69*
X250000Y200000D02*
D03*
X200000Y10000D02*
D03*
X164000Y200000D02*
D03*
X180000Y10000D02*
D03*
D70*
X220000Y200000D02*
D03*
X210000D02*
D03*
X200000D02*
D03*
X190000D02*
D03*
X180000D02*
D03*
X240000D02*
D03*
X230000D02*
D03*
X250000Y10000D02*
D03*
X240000D02*
D03*
X230000D02*
D03*
X220000D02*
D03*
X210000D02*
D03*
X74000Y200000D02*
D03*
X84000D02*
D03*
X94000D02*
D03*
X104000D02*
D03*
X114000D02*
D03*
X124000D02*
D03*
X134000D02*
D03*
X144000D02*
D03*
X154000D02*
D03*
X160000Y10000D02*
D03*
X170000D02*
D03*
X110000D02*
D03*
X120000D02*
D03*
X130000D02*
D03*
X140000D02*
D03*
X150000D02*
D03*
D71*
X60000Y200000D02*
D03*
X55000Y10000D02*
D03*
X260000Y30000D02*
D03*
M02*
