G04 Layer_Color=16711935*
%FSLAX25Y25*%
%MOIN*%
G70*
G01*
G75*
%ADD53R,0.01143X0.01537*%
%ADD59C,0.05000*%
%ADD60R,0.03600X0.03600*%
%ADD61C,0.03600*%
%ADD62C,0.10198*%
%ADD63C,0.00500*%
%ADD64R,0.05474X0.12561*%
%ADD65R,0.05474X0.03506*%
%ADD66R,0.02718X0.01537*%
%ADD67R,0.01537X0.02718*%
D53*
X40181Y63500D02*
D03*
X34866D02*
D03*
X40181Y57500D02*
D03*
X34866D02*
D03*
X40181Y97500D02*
D03*
X34866D02*
D03*
X40181Y103000D02*
D03*
X34866D02*
D03*
X40157Y113500D02*
D03*
X34843D02*
D03*
X40157Y119500D02*
D03*
X34843D02*
D03*
X40181Y164500D02*
D03*
X34866D02*
D03*
X40181Y158500D02*
D03*
X34866D02*
D03*
D59*
X253000Y42000D02*
D03*
X243000D02*
D03*
X233000D02*
D03*
X223000D02*
D03*
X213000D02*
D03*
X203000D02*
D03*
D60*
X250000Y200000D02*
D03*
X200000Y10000D02*
D03*
X164000Y200000D02*
D03*
X180000Y10000D02*
D03*
D61*
X220000Y200000D02*
D03*
X210000D02*
D03*
X200000D02*
D03*
X190000D02*
D03*
X180000D02*
D03*
X240000D02*
D03*
X230000D02*
D03*
X250000Y10000D02*
D03*
X240000D02*
D03*
X230000D02*
D03*
X220000D02*
D03*
X210000D02*
D03*
X74000Y200000D02*
D03*
X84000D02*
D03*
X94000D02*
D03*
X104000D02*
D03*
X114000D02*
D03*
X124000D02*
D03*
X134000D02*
D03*
X144000D02*
D03*
X154000D02*
D03*
X160000Y10000D02*
D03*
X170000D02*
D03*
X110000D02*
D03*
X120000D02*
D03*
X130000D02*
D03*
X140000D02*
D03*
X150000D02*
D03*
D62*
X60000Y200000D02*
D03*
X55000Y10000D02*
D03*
X260000Y30000D02*
D03*
D63*
Y147000D02*
D03*
X265000Y137000D02*
D03*
Y97000D02*
D03*
X260000Y87000D02*
D03*
X265000Y77000D02*
D03*
Y57000D02*
D03*
X260000Y47000D02*
D03*
X265000Y37000D02*
D03*
Y17000D02*
D03*
X255000Y177000D02*
D03*
Y157000D02*
D03*
X250000Y147000D02*
D03*
Y47000D02*
D03*
Y27000D02*
D03*
X255000Y17000D02*
D03*
X240000Y167000D02*
D03*
Y147000D02*
D03*
Y127000D02*
D03*
Y27000D02*
D03*
X235000Y177000D02*
D03*
X230000Y167000D02*
D03*
Y147000D02*
D03*
Y127000D02*
D03*
X235000Y17000D02*
D03*
X225000Y177000D02*
D03*
X220000Y167000D02*
D03*
X225000Y157000D02*
D03*
X220000Y147000D02*
D03*
X225000Y137000D02*
D03*
X220000Y127000D02*
D03*
Y107000D02*
D03*
X225000Y77000D02*
D03*
Y17000D02*
D03*
X210000Y147000D02*
D03*
Y127000D02*
D03*
Y67000D02*
D03*
Y47000D02*
D03*
X215000Y17000D02*
D03*
X200000Y167000D02*
D03*
Y47000D02*
D03*
X195000Y177000D02*
D03*
X190000Y167000D02*
D03*
X195000Y157000D02*
D03*
Y137000D02*
D03*
Y57000D02*
D03*
X190000Y27000D02*
D03*
Y7000D02*
D03*
X185000Y177000D02*
D03*
Y157000D02*
D03*
Y57000D02*
D03*
X180000Y27000D02*
D03*
X185000Y17000D02*
D03*
X175000Y197000D02*
D03*
X170000Y167000D02*
D03*
Y147000D02*
D03*
Y67000D02*
D03*
X175000Y57000D02*
D03*
X170000Y27000D02*
D03*
X175000Y17000D02*
D03*
X165000Y177000D02*
D03*
X160000Y167000D02*
D03*
X165000Y157000D02*
D03*
Y57000D02*
D03*
X160000Y27000D02*
D03*
X165000Y17000D02*
D03*
X150000Y67000D02*
D03*
Y27000D02*
D03*
X155000Y17000D02*
D03*
X145000Y77000D02*
D03*
Y17000D02*
D03*
X130000Y167000D02*
D03*
Y147000D02*
D03*
X135000Y17000D02*
D03*
X120000Y187000D02*
D03*
X125000Y177000D02*
D03*
X120000Y167000D02*
D03*
Y47000D02*
D03*
X125000Y17000D02*
D03*
X110000Y187000D02*
D03*
X115000Y177000D02*
D03*
X110000Y167000D02*
D03*
X115000Y157000D02*
D03*
Y57000D02*
D03*
Y17000D02*
D03*
X100000Y187000D02*
D03*
X105000Y177000D02*
D03*
X100000Y147000D02*
D03*
Y107000D02*
D03*
X105000Y17000D02*
D03*
X100000Y7000D02*
D03*
X95000Y137000D02*
D03*
X90000Y107000D02*
D03*
X95000Y97000D02*
D03*
X90000Y47000D02*
D03*
X80000Y67000D02*
D03*
X85000Y57000D02*
D03*
X70000Y187000D02*
D03*
Y107000D02*
D03*
X75000Y97000D02*
D03*
X70000Y87000D02*
D03*
Y67000D02*
D03*
X75000Y57000D02*
D03*
X70000Y47000D02*
D03*
X75000Y37000D02*
D03*
X70000Y27000D02*
D03*
Y7000D02*
D03*
X60000Y187000D02*
D03*
Y107000D02*
D03*
X65000Y97000D02*
D03*
Y77000D02*
D03*
X60000Y67000D02*
D03*
Y47000D02*
D03*
X65000Y37000D02*
D03*
X60000Y27000D02*
D03*
X65000Y17000D02*
D03*
X50000Y167000D02*
D03*
X55000Y77000D02*
D03*
X50000Y67000D02*
D03*
Y47000D02*
D03*
X55000Y37000D02*
D03*
X50000Y27000D02*
D03*
X45000Y197000D02*
D03*
Y77000D02*
D03*
Y37000D02*
D03*
Y17000D02*
D03*
X35000Y37000D02*
D03*
X20000Y107000D02*
D03*
X25000Y37000D02*
D03*
X10000Y187000D02*
D03*
X15000Y177000D02*
D03*
X10000Y167000D02*
D03*
Y127000D02*
D03*
Y107000D02*
D03*
Y67000D02*
D03*
Y47000D02*
D03*
X15000Y37000D02*
D03*
X10000Y27000D02*
D03*
Y7000D02*
D03*
D64*
X14098Y79772D02*
D03*
Y138000D02*
D03*
D65*
X38902Y70717D02*
D03*
Y79772D02*
D03*
Y88827D02*
D03*
Y128945D02*
D03*
Y138000D02*
D03*
Y147055D02*
D03*
D66*
X178858Y154957D02*
D03*
Y137240D02*
D03*
Y143146D02*
D03*
Y149051D02*
D03*
Y160862D02*
D03*
Y166768D02*
D03*
Y172673D02*
D03*
Y178579D02*
D03*
D67*
X185945Y183500D02*
D03*
X191850D02*
D03*
X197756D02*
D03*
X203661D02*
D03*
X209567D02*
D03*
X215472D02*
D03*
X221378D02*
D03*
X227284D02*
D03*
X233189D02*
D03*
X239094D02*
D03*
X245000D02*
D03*
X250905D02*
D03*
X256811D02*
D03*
Y132319D02*
D03*
X250905D02*
D03*
X245000D02*
D03*
X239094D02*
D03*
X233189D02*
D03*
X227284D02*
D03*
X221378D02*
D03*
X215472D02*
D03*
X209567D02*
D03*
X203661D02*
D03*
X197756D02*
D03*
X191850D02*
D03*
X185945D02*
D03*
M02*
