M48
;Layer_Color=9474304
;FILE_FORMAT=2:5
INCH,LZ
;TYPE=PLATED
T1F00S00C0.01181
T2F00S00C0.01220
T3F00S00C0.03000
T4F00S00C0.04000
T5F00S00C0.12598
%
T01
X001Y0007
Y0027
X005
X006
X007
X0065Y0017
X007Y0007
X01
X0105Y0017
X0115
X0125
X0135
X0145
X0155
X0165
X0175
X0185
X019Y0027
X018
X017
X016
X015
X019Y0007
X0045Y0017
X0215
X0225
X0235
X024Y0027
X025
X0255Y0017
X0265
Y0037
X026Y0047
X025
X0265Y0057
Y0077
X026Y0087
X0265Y0097
Y0137
X026Y0147
X025
X024
X023
X022
X021
Y0127
X022
X023
X024
X0225Y0137
Y0157
X023Y0167
X024
X0235Y0177
X0225
X022Y0167
X02
X0195Y0177
Y0157
Y0137
X022Y0107
X0225Y0077
X021Y0067
Y0047
X02
X0195Y0057
X0255Y0157
Y0177
X0185
X019Y0167
X0185Y0157
X0165
X017Y0167
X016
X0165Y0177
X017Y0147
X013
Y0167
X012
X011
X0115Y0177
X0125
X012Y0187
X011
X01
X0105Y0177
X0115Y0157
X01Y0147
X0095Y0137
X01Y0107
X009
X0095Y0097
X0075
X0065
X007Y0107
X006
X007Y0087
X0065Y0077
X0055
X0045
X005Y0067
X006
X007
X008
X0085Y0057
X0075
X007Y0047
X006
X005
X0055Y0037
X0065
X0075
X009Y0047
X012
X0115Y0057
X015Y0067
X0145Y0077
X017Y0067
X0175Y0057
X0185
X0165
X0045Y0037
X005Y0167
X006Y0187
X007
X001
X0015Y0177
X001Y0167
Y0127
Y0107
X002
X001Y0067
Y0047
X0015Y0037
X0025
X0035
X0045Y0197
X0175
T02
X0089Y0026
X0087Y0032
X00975Y0026
X0107Y00265
X0142
X018Y00325
X02015Y0026
X0234
X02435Y0049
X02425Y00815
X0226Y0083
X0218Y00845
X0219Y008
X02075Y0082
X0207Y0077
X02035Y007
X0193Y00695
X0201Y01005
X0215Y01065
X02175Y01125
X0215Y01155
X02155Y0119
X0226Y01025
X026Y01055
X02625Y0109
X02475Y0163
X0235Y01595
X01945Y0126
X0181Y0129
X01805Y0107
X01865Y01045
X01745Y0103
X0176Y0095
X0169Y0085
X0157Y00845
X01615Y00795
Y00995
X0159Y01035
X01605Y01115
X0153Y00995
X01505Y0094
X01445Y01005
X0139Y009
X01285Y0095
X01135
X0108Y00915
X0112Y011
X01115Y0116
X0103Y01175
X0097Y0117
X0095Y01075
X00865Y01155
X0086Y0134
X009Y01355
X008Y01305
X00775Y0139
X00675Y0134
X00575Y01325
X00465Y01355
X0051Y01565
X00509Y01625
X0054Y01675
X0047Y01695
X00585Y0175
X00715Y0162
X00795Y01605
X00825Y01635
X0089Y0165
X0099Y01645
X00985Y01695
X0106Y01675
X0099Y0159
X011Y0151
X0131Y01525
X0134Y01575
X01385Y0163
X01315Y0177
X0132Y01425
X01315Y0137
X01255Y01395
X0123Y0128
X012Y0123
X01215Y01195
X0128Y01165
X01305Y01125
X0125Y01065
X01085Y01275
X0149Y01425
X01315Y00705
X01105
X01305Y00405
X0136Y0044
X01875Y00705
X019Y00755
X0057Y00705
X00525Y01065
X00055Y00795
X02435Y0192
T03
X011Y001
X012
X013
X014
X015
X016
X017
X018
X02
X021
X022
X023
X024
X025
X019Y02
X018
X0164
X0154
X0144
X0134
X0124
X0114
X0104
X0094
X0084
X0074
X02
X021
X022
X023
X024
X025
T04
X0203Y0042
X0213
X0223
X0233
X0243
X0253
T05
X0055Y001
X026Y003
X006Y02
M30
