G04 Layer_Color=8388736*
%FSLAX25Y25*%
%MOIN*%
G70*
G01*
G75*
%ADD50R,0.10120X0.02600*%
%ADD51R,0.00159X0.01340*%
%ADD52R,0.02915X0.02128*%
%ADD53R,0.01143X0.01537*%
%ADD54R,0.00750X0.00750*%
%ADD55R,0.00710X0.01104*%
%ADD56R,0.03702X0.03702*%
%ADD57R,0.05474X0.05474*%
%ADD58R,0.01340X0.00159*%
%ADD59C,0.05000*%
%ADD60R,0.03600X0.03600*%
%ADD61C,0.03600*%
%ADD62C,0.10198*%
%ADD63C,0.00500*%
D50*
X234500Y74500D02*
D03*
X249500D02*
D03*
Y64500D02*
D03*
X234500D02*
D03*
X249500Y54500D02*
D03*
X234500D02*
D03*
Y117000D02*
D03*
X249500D02*
D03*
Y107000D02*
D03*
X234500D02*
D03*
X249500Y97000D02*
D03*
X234500D02*
D03*
X34500Y112500D02*
D03*
X19500D02*
D03*
Y122500D02*
D03*
X34500D02*
D03*
X19500Y132500D02*
D03*
X34500D02*
D03*
Y77500D02*
D03*
X19500D02*
D03*
Y87500D02*
D03*
X34500D02*
D03*
X19500Y97500D02*
D03*
X34500D02*
D03*
Y42500D02*
D03*
X19500D02*
D03*
Y52500D02*
D03*
X34500D02*
D03*
X19500Y62500D02*
D03*
X34500D02*
D03*
Y7500D02*
D03*
X19500D02*
D03*
Y17500D02*
D03*
X34500D02*
D03*
X19500Y27500D02*
D03*
X34500D02*
D03*
Y147500D02*
D03*
X19500D02*
D03*
Y157500D02*
D03*
X34500D02*
D03*
X19500Y167500D02*
D03*
X34500D02*
D03*
Y182500D02*
D03*
X19500D02*
D03*
Y192500D02*
D03*
X34500D02*
D03*
X19500Y202500D02*
D03*
X34500D02*
D03*
D51*
X74340Y178367D02*
D03*
X78080Y169312D02*
D03*
X70600D02*
D03*
X197157Y78154D02*
D03*
X193417Y87209D02*
D03*
X200897D02*
D03*
X179657Y78154D02*
D03*
X175917Y87209D02*
D03*
X183397D02*
D03*
X100240Y85528D02*
D03*
X103980Y76472D02*
D03*
X96500D02*
D03*
X79000Y85528D02*
D03*
X82740Y76472D02*
D03*
X75260D02*
D03*
D52*
X56500Y85055D02*
D03*
Y91945D02*
D03*
D53*
X162843Y116980D02*
D03*
X168157D02*
D03*
Y135980D02*
D03*
X162843D02*
D03*
D54*
X85250Y7547D02*
D03*
Y13453D02*
D03*
X77000Y7547D02*
D03*
Y13453D02*
D03*
X93500D02*
D03*
Y7547D02*
D03*
D55*
X161949Y122980D02*
D03*
Y128610D02*
D03*
X157500Y122980D02*
D03*
Y128610D02*
D03*
D56*
X70500Y151000D02*
D03*
D57*
X101500Y51472D02*
D03*
X142500Y122500D02*
D03*
D58*
X93367Y150400D02*
D03*
X84312Y146660D02*
D03*
Y154140D02*
D03*
D59*
X253000Y42000D02*
D03*
X243000D02*
D03*
X233000D02*
D03*
X223000D02*
D03*
X213000D02*
D03*
X203000D02*
D03*
D60*
X250000Y200000D02*
D03*
X200000Y10000D02*
D03*
X164000Y200000D02*
D03*
X180000Y10000D02*
D03*
D61*
X220000Y200000D02*
D03*
X210000D02*
D03*
X200000D02*
D03*
X190000D02*
D03*
X180000D02*
D03*
X240000D02*
D03*
X230000D02*
D03*
X250000Y10000D02*
D03*
X240000D02*
D03*
X230000D02*
D03*
X220000D02*
D03*
X210000D02*
D03*
X74000Y200000D02*
D03*
X84000D02*
D03*
X94000D02*
D03*
X104000D02*
D03*
X114000D02*
D03*
X124000D02*
D03*
X134000D02*
D03*
X144000D02*
D03*
X154000D02*
D03*
X160000Y10000D02*
D03*
X170000D02*
D03*
X110000D02*
D03*
X120000D02*
D03*
X130000D02*
D03*
X140000D02*
D03*
X150000D02*
D03*
D62*
X60000Y200000D02*
D03*
X55000Y10000D02*
D03*
X260000Y30000D02*
D03*
D63*
Y147000D02*
D03*
X265000Y137000D02*
D03*
Y97000D02*
D03*
X260000Y87000D02*
D03*
X265000Y77000D02*
D03*
Y57000D02*
D03*
X260000Y47000D02*
D03*
X265000Y37000D02*
D03*
Y17000D02*
D03*
X255000Y177000D02*
D03*
Y157000D02*
D03*
X250000Y147000D02*
D03*
Y47000D02*
D03*
Y27000D02*
D03*
X255000Y17000D02*
D03*
X240000Y167000D02*
D03*
Y147000D02*
D03*
Y127000D02*
D03*
Y27000D02*
D03*
X235000Y177000D02*
D03*
X230000Y167000D02*
D03*
Y147000D02*
D03*
Y127000D02*
D03*
X235000Y17000D02*
D03*
X225000Y177000D02*
D03*
X220000Y167000D02*
D03*
X225000Y157000D02*
D03*
X220000Y147000D02*
D03*
X225000Y137000D02*
D03*
X220000Y127000D02*
D03*
Y107000D02*
D03*
X225000Y77000D02*
D03*
Y17000D02*
D03*
X210000Y147000D02*
D03*
Y127000D02*
D03*
Y67000D02*
D03*
Y47000D02*
D03*
X215000Y17000D02*
D03*
X200000Y167000D02*
D03*
Y47000D02*
D03*
X195000Y177000D02*
D03*
X190000Y167000D02*
D03*
X195000Y157000D02*
D03*
Y137000D02*
D03*
Y57000D02*
D03*
X190000Y27000D02*
D03*
Y7000D02*
D03*
X185000Y177000D02*
D03*
Y157000D02*
D03*
Y57000D02*
D03*
X180000Y27000D02*
D03*
X185000Y17000D02*
D03*
X175000Y197000D02*
D03*
X170000Y167000D02*
D03*
Y147000D02*
D03*
Y67000D02*
D03*
X175000Y57000D02*
D03*
X170000Y27000D02*
D03*
X175000Y17000D02*
D03*
X165000Y177000D02*
D03*
X160000Y167000D02*
D03*
X165000Y157000D02*
D03*
Y57000D02*
D03*
X160000Y27000D02*
D03*
X165000Y17000D02*
D03*
X150000Y67000D02*
D03*
Y27000D02*
D03*
X155000Y17000D02*
D03*
X145000Y77000D02*
D03*
Y17000D02*
D03*
X130000Y167000D02*
D03*
Y147000D02*
D03*
X135000Y17000D02*
D03*
X120000Y187000D02*
D03*
X125000Y177000D02*
D03*
X120000Y167000D02*
D03*
Y47000D02*
D03*
X125000Y17000D02*
D03*
X110000Y187000D02*
D03*
X115000Y177000D02*
D03*
X110000Y167000D02*
D03*
X115000Y157000D02*
D03*
Y57000D02*
D03*
Y17000D02*
D03*
X100000Y187000D02*
D03*
X105000Y177000D02*
D03*
X100000Y147000D02*
D03*
Y107000D02*
D03*
X105000Y17000D02*
D03*
X100000Y7000D02*
D03*
X95000Y137000D02*
D03*
X90000Y107000D02*
D03*
X95000Y97000D02*
D03*
X90000Y47000D02*
D03*
X80000Y67000D02*
D03*
X85000Y57000D02*
D03*
X70000Y187000D02*
D03*
Y107000D02*
D03*
X75000Y97000D02*
D03*
X70000Y87000D02*
D03*
Y67000D02*
D03*
X75000Y57000D02*
D03*
X70000Y47000D02*
D03*
X75000Y37000D02*
D03*
X70000Y27000D02*
D03*
Y7000D02*
D03*
X60000Y187000D02*
D03*
Y107000D02*
D03*
X65000Y97000D02*
D03*
Y77000D02*
D03*
X60000Y67000D02*
D03*
Y47000D02*
D03*
X65000Y37000D02*
D03*
X60000Y27000D02*
D03*
X65000Y17000D02*
D03*
X50000Y167000D02*
D03*
X55000Y77000D02*
D03*
X50000Y67000D02*
D03*
Y47000D02*
D03*
X55000Y37000D02*
D03*
X50000Y27000D02*
D03*
X45000Y197000D02*
D03*
Y77000D02*
D03*
Y37000D02*
D03*
Y17000D02*
D03*
X35000Y37000D02*
D03*
X20000Y107000D02*
D03*
X25000Y37000D02*
D03*
X10000Y187000D02*
D03*
X15000Y177000D02*
D03*
X10000Y167000D02*
D03*
Y127000D02*
D03*
Y107000D02*
D03*
Y67000D02*
D03*
Y47000D02*
D03*
X15000Y37000D02*
D03*
X10000Y27000D02*
D03*
Y7000D02*
D03*
M02*
