G04 Layer_Physical_Order=2*
G04 Layer_Color=16711680*
%FSLAX25Y25*%
%MOIN*%
G70*
G01*
G75*
%ADD16R,0.03543X0.03937*%
%ADD29C,0.02000*%
%ADD30C,0.00600*%
%ADD32R,0.06000X0.06000*%
%ADD33C,0.06000*%
%ADD34C,0.07400*%
%ADD35C,0.12598*%
%ADD36C,0.03600*%
%ADD37C,0.02200*%
%ADD38C,0.02000*%
%ADD39R,0.07874X0.05905*%
%ADD40R,0.07874X0.14961*%
%ADD41R,0.03937X0.05118*%
%ADD42R,0.05118X0.03937*%
G36*
X259133Y199641D02*
Y191000D01*
X253025D01*
X248136Y195889D01*
X248328Y196351D01*
X253000D01*
X253459Y196541D01*
X253649Y197000D01*
Y203000D01*
X253459Y203459D01*
X253000Y203649D01*
X247000D01*
X246541Y203459D01*
X246425Y203180D01*
X245889Y203009D01*
X241749Y207149D01*
X241451Y207348D01*
X241100Y207418D01*
X206000D01*
X205649Y207348D01*
X205351Y207149D01*
X201484Y203282D01*
X200940Y203507D01*
X200000Y203631D01*
X199060Y203507D01*
X198185Y203145D01*
X197432Y202568D01*
X196855Y201816D01*
X196493Y200940D01*
X196369Y200000D01*
X196493Y199060D01*
X196855Y198185D01*
X197432Y197432D01*
X198185Y196855D01*
X199060Y196493D01*
X200000Y196369D01*
X200940Y196493D01*
X201816Y196855D01*
X202568Y197432D01*
X203145Y198185D01*
X203507Y199060D01*
X203631Y200000D01*
X203507Y200940D01*
X203145Y201816D01*
X202914Y202116D01*
X206380Y205582D01*
X240720D01*
X245182Y201120D01*
Y196627D01*
X245252Y196276D01*
X245451Y195978D01*
X249968Y191462D01*
X249776Y191000D01*
X245478D01*
X245380Y191088D01*
X245134Y191500D01*
X245233Y192000D01*
X245101Y192663D01*
X244726Y193226D01*
X244163Y193601D01*
X243500Y193733D01*
X242837Y193601D01*
X242274Y193226D01*
X241899Y192663D01*
X241767Y192000D01*
X241866Y191500D01*
X241568Y191000D01*
X179000D01*
Y181567D01*
X176299D01*
X175909Y181489D01*
X175578Y181268D01*
X175357Y180937D01*
X175280Y180547D01*
Y179079D01*
X178858D01*
Y178079D01*
X175280D01*
Y176610D01*
X175357Y176220D01*
X175578Y175889D01*
X175909Y175668D01*
X175956Y175149D01*
X175840Y175101D01*
X175650Y174642D01*
Y170705D01*
X175840Y170246D01*
X176299Y170055D01*
X179000D01*
Y169386D01*
X176299D01*
X175840Y169195D01*
X175650Y168736D01*
Y164799D01*
X175840Y164340D01*
X176299Y164150D01*
X179000D01*
Y163480D01*
X176299D01*
X175840Y163290D01*
X175650Y162831D01*
Y158894D01*
X175840Y158434D01*
X176299Y158244D01*
X179000D01*
Y157575D01*
X176299D01*
X175840Y157384D01*
X175650Y156925D01*
Y152988D01*
X175840Y152529D01*
X176299Y152339D01*
X179000D01*
Y151669D01*
X176299D01*
X175840Y151479D01*
X175650Y151020D01*
Y147083D01*
X175840Y146624D01*
X176299Y146433D01*
X179000D01*
Y145764D01*
X176299D01*
X175840Y145573D01*
X175650Y145114D01*
Y141177D01*
X175840Y140718D01*
X175956Y140670D01*
X175909Y140151D01*
X175578Y139930D01*
X175357Y139599D01*
X175280Y139209D01*
Y137740D01*
X178858D01*
Y136740D01*
X175280D01*
Y135272D01*
X175357Y134881D01*
X175578Y134551D01*
X175909Y134330D01*
X176299Y134252D01*
X176577D01*
X177000Y134000D01*
X177000Y134000D01*
X177000Y134000D01*
X179725Y131275D01*
X179662Y130631D01*
X179486Y130514D01*
X179087Y129918D01*
X178539Y129759D01*
X148168Y160130D01*
Y162250D01*
X148098Y162601D01*
X147899Y162899D01*
X133149Y177649D01*
X133080Y177694D01*
X132726Y178226D01*
X132163Y178601D01*
X131500Y178733D01*
X130837Y178601D01*
X130274Y178226D01*
X129899Y177663D01*
X129767Y177000D01*
X129899Y176337D01*
X130274Y175774D01*
X130837Y175399D01*
X131500Y175267D01*
X132163Y175399D01*
X132547Y175655D01*
X146332Y161870D01*
Y160172D01*
X145832Y159965D01*
X142149Y163649D01*
X141851Y163848D01*
X141500Y163918D01*
X139931D01*
X139726Y164226D01*
X139163Y164601D01*
X138500Y164733D01*
X137837Y164601D01*
X137274Y164226D01*
X136899Y163663D01*
X136767Y163000D01*
X136899Y162337D01*
X137274Y161774D01*
X137837Y161399D01*
X138500Y161267D01*
X139163Y161399D01*
X139726Y161774D01*
X139931Y162082D01*
X141120D01*
X144343Y158859D01*
X144097Y158398D01*
X144000Y158418D01*
X135431D01*
X135226Y158726D01*
X134663Y159101D01*
X134000Y159233D01*
X133337Y159101D01*
X132774Y158726D01*
X132399Y158163D01*
X132267Y157500D01*
X132399Y156837D01*
X132774Y156274D01*
X133337Y155899D01*
X134000Y155767D01*
X134663Y155899D01*
X135226Y156274D01*
X135431Y156582D01*
X143620D01*
X188351Y111851D01*
X188649Y111652D01*
X189000Y111582D01*
X216069D01*
X216274Y111274D01*
X216837Y110899D01*
X217500Y110767D01*
X218163Y110899D01*
X218726Y111274D01*
X219101Y111837D01*
X219233Y112500D01*
X219101Y113163D01*
X218726Y113726D01*
X218163Y114101D01*
X217500Y114233D01*
X216837Y114101D01*
X216528Y113895D01*
X216226Y114274D01*
X216601Y114837D01*
X216733Y115500D01*
X216601Y116163D01*
X216226Y116726D01*
X216023Y116861D01*
X216129Y117392D01*
X216163Y117399D01*
X216726Y117774D01*
X217101Y118337D01*
X217233Y119000D01*
X217101Y119663D01*
X216726Y120226D01*
X216163Y120601D01*
X215500Y120733D01*
X214837Y120601D01*
X214274Y120226D01*
X214069Y119918D01*
X188380D01*
X181759Y126539D01*
X181918Y127087D01*
X182514Y127486D01*
X182696Y127758D01*
X183193Y127807D01*
X188000Y123000D01*
X251027D01*
Y116324D01*
X236120Y101418D01*
X227862D01*
X227618Y101918D01*
X227733Y102500D01*
X227601Y103163D01*
X227226Y103726D01*
X226663Y104101D01*
X226000Y104233D01*
X225337Y104101D01*
X224774Y103726D01*
X224569Y103418D01*
X190912D01*
X190782Y103633D01*
X190701Y103918D01*
X191007Y104376D01*
X191131Y105000D01*
X191092Y105196D01*
X191410Y105582D01*
X213569D01*
X213774Y105274D01*
X214337Y104899D01*
X215000Y104767D01*
X215663Y104899D01*
X216226Y105274D01*
X216601Y105837D01*
X216733Y106500D01*
X216601Y107163D01*
X216226Y107726D01*
X215663Y108101D01*
X215000Y108233D01*
X214337Y108101D01*
X213774Y107726D01*
X213569Y107418D01*
X191380D01*
X145649Y153149D01*
X145351Y153348D01*
X145000Y153418D01*
X132431D01*
X132226Y153726D01*
X131663Y154101D01*
X131000Y154233D01*
X130337Y154101D01*
X129774Y153726D01*
X129399Y153163D01*
X129267Y152500D01*
X129399Y151837D01*
X129774Y151274D01*
X130337Y150899D01*
X131000Y150767D01*
X131663Y150899D01*
X132226Y151274D01*
X132431Y151582D01*
X144620D01*
X189134Y107068D01*
X188969Y106526D01*
X188876Y106507D01*
X188347Y106154D01*
X188194Y105925D01*
X188097Y105884D01*
X187564Y105834D01*
X187163Y106101D01*
X186500Y106233D01*
X185987Y106131D01*
X185231D01*
X184964Y106631D01*
X185101Y106837D01*
X185233Y107500D01*
X185101Y108163D01*
X184726Y108726D01*
X184163Y109101D01*
X183500Y109233D01*
X182837Y109101D01*
X182274Y108726D01*
X182069Y108418D01*
X163500D01*
X163149Y108348D01*
X162851Y108149D01*
X159747Y105045D01*
X159663Y105101D01*
X159000Y105233D01*
X158337Y105101D01*
X157774Y104726D01*
X157399Y104163D01*
X157267Y103500D01*
X157399Y102837D01*
X157774Y102274D01*
X158337Y101899D01*
X159000Y101767D01*
X159663Y101899D01*
X160226Y102274D01*
X160601Y102837D01*
X160717Y103420D01*
X163880Y106582D01*
X178533D01*
X178582Y106082D01*
X178204Y106007D01*
X177675Y105654D01*
X176295Y104274D01*
X175730Y104226D01*
X175624Y104293D01*
X175163Y104601D01*
X174500Y104733D01*
X173837Y104601D01*
X173274Y104226D01*
X173069Y103918D01*
X165000D01*
X164649Y103848D01*
X164351Y103649D01*
X161863Y101161D01*
X161500Y101233D01*
X160837Y101101D01*
X160274Y100726D01*
X159899Y100163D01*
X159767Y99500D01*
X159899Y98837D01*
X160274Y98274D01*
X160488Y98131D01*
X160337Y97631D01*
X154163D01*
X154012Y98131D01*
X154226Y98274D01*
X154601Y98837D01*
X154733Y99500D01*
X154631Y100013D01*
Y103324D01*
X161291Y109984D01*
X161726Y110274D01*
X162101Y110837D01*
X162233Y111500D01*
X162131Y112013D01*
Y130000D01*
X162007Y130624D01*
X161653Y131154D01*
X155654Y137153D01*
X155124Y137507D01*
X154500Y137631D01*
X133176D01*
X133016Y137791D01*
X132726Y138226D01*
X132163Y138601D01*
X131500Y138733D01*
X130837Y138601D01*
X130274Y138226D01*
X129899Y137663D01*
X129806Y137199D01*
X129295Y137003D01*
X127161Y139137D01*
X127233Y139500D01*
X127101Y140163D01*
X126726Y140726D01*
X126163Y141101D01*
X125500Y141233D01*
X124837Y141101D01*
X124274Y140726D01*
X123899Y140163D01*
X123767Y139500D01*
X123899Y138837D01*
X124274Y138274D01*
X124837Y137899D01*
X125500Y137767D01*
X125863Y137839D01*
X140582Y123120D01*
Y98500D01*
X140652Y98149D01*
X140851Y97851D01*
X149351Y89351D01*
X149649Y89152D01*
X150000Y89082D01*
X185620D01*
X187351Y87351D01*
X187649Y87152D01*
X188000Y87082D01*
X221620D01*
X224655Y84047D01*
X224399Y83663D01*
X224267Y83000D01*
X224399Y82337D01*
X224774Y81774D01*
X225337Y81399D01*
X226000Y81267D01*
X226663Y81399D01*
X227226Y81774D01*
X227601Y82337D01*
X227733Y83000D01*
X227601Y83663D01*
X227226Y84226D01*
X226695Y84580D01*
X226649Y84649D01*
X222649Y88649D01*
X222351Y88848D01*
X222000Y88918D01*
X188380D01*
X186649Y90649D01*
X186351Y90848D01*
X186000Y90918D01*
X170796D01*
X170623Y91380D01*
X170630Y91418D01*
X170904Y91601D01*
X173898Y94595D01*
X174376Y94450D01*
X174399Y94337D01*
X174774Y93774D01*
X175337Y93399D01*
X176000Y93267D01*
X176663Y93399D01*
X177226Y93774D01*
X177431Y94082D01*
X177500D01*
X177851Y94152D01*
X178149Y94351D01*
X178704Y94907D01*
X204676D01*
X205027Y94976D01*
X205325Y95175D01*
X205556Y95407D01*
X240676D01*
X241027Y95476D01*
X241325Y95675D01*
X258499Y112849D01*
X258697Y113147D01*
X258767Y113498D01*
Y123000D01*
X269133D01*
Y15059D01*
X259397Y5622D01*
X259393Y5617D01*
X259387Y5613D01*
X259297Y5478D01*
X259205Y5344D01*
X259203Y5337D01*
X259199Y5332D01*
X259168Y5172D01*
X259134Y5014D01*
X259135Y5007D01*
X259133Y5000D01*
Y867D01*
X867D01*
Y209133D01*
X249641D01*
X259133Y199641D01*
D02*
G37*
G36*
X189000Y114582D02*
X213569D01*
X213774Y114274D01*
X214308Y113918D01*
X214314Y113881D01*
X214075Y113418D01*
X189380D01*
X188657Y114141D01*
X188903Y114602D01*
X189000Y114582D01*
D02*
G37*
G36*
X214274Y117774D02*
X214477Y117639D01*
X214371Y117108D01*
X214337Y117101D01*
X213774Y116726D01*
X213569Y116418D01*
X189380D01*
X188215Y117582D01*
X188423Y118082D01*
X214069D01*
X214274Y117774D01*
D02*
G37*
G36*
X173274Y101774D02*
X173756Y101452D01*
X173922Y100911D01*
X170643Y97631D01*
X162663D01*
X162512Y98131D01*
X162726Y98274D01*
X163101Y98837D01*
X163233Y99500D01*
X163161Y99863D01*
X165380Y102082D01*
X173069D01*
X173274Y101774D01*
D02*
G37*
G36*
X256932Y113878D02*
X240296Y97242D01*
X205176D01*
X204825Y97172D01*
X204527Y96973D01*
X204296Y96742D01*
X178324D01*
X177973Y96672D01*
X177675Y96473D01*
X177410Y96207D01*
X177226Y96226D01*
X176663Y96601D01*
X176550Y96624D01*
X176405Y97102D01*
X180497Y101194D01*
X180958Y100947D01*
X180869Y100500D01*
X180993Y99876D01*
X181346Y99347D01*
X181846Y98847D01*
X182376Y98493D01*
X183000Y98369D01*
X194500D01*
X195124Y98493D01*
X195653Y98847D01*
X196007Y99376D01*
X196131Y100000D01*
X196007Y100624D01*
X195701Y101082D01*
X195782Y101367D01*
X195912Y101582D01*
X199138D01*
X199382Y101082D01*
X199267Y100500D01*
X199399Y99837D01*
X199774Y99274D01*
X200337Y98899D01*
X201000Y98767D01*
X201663Y98899D01*
X202226Y99274D01*
X202431Y99582D01*
X236500D01*
X236851Y99652D01*
X237149Y99851D01*
X252593Y115295D01*
X252792Y115593D01*
X252862Y115944D01*
Y123000D01*
X256932D01*
Y113878D01*
D02*
G37*
G36*
X158869Y129324D02*
Y112176D01*
X151847Y105154D01*
X151493Y104624D01*
X151369Y104000D01*
Y100013D01*
X151267Y99500D01*
X151399Y98837D01*
X151774Y98274D01*
X151988Y98131D01*
X151837Y97631D01*
X149676D01*
X146016Y101291D01*
X145726Y101726D01*
X145163Y102101D01*
X144500Y102233D01*
X143837Y102101D01*
X143274Y101726D01*
X142918Y101192D01*
X142881Y101186D01*
X142418Y101425D01*
Y123500D01*
X142348Y123851D01*
X142149Y124149D01*
X132417Y133881D01*
X132442Y134029D01*
X132636Y134369D01*
X153824D01*
X158869Y129324D01*
D02*
G37*
%LPC*%
G36*
X253000Y46337D02*
X251877Y46189D01*
X250831Y45756D01*
X249933Y45067D01*
X249244Y44168D01*
X248811Y43123D01*
X248663Y42000D01*
X248811Y40878D01*
X249244Y39832D01*
X249933Y38933D01*
X250831Y38244D01*
X251877Y37811D01*
X253000Y37663D01*
X254122Y37811D01*
X255169Y38244D01*
X256067Y38933D01*
X256756Y39832D01*
X257189Y40878D01*
X257337Y42000D01*
X257189Y43123D01*
X256756Y44168D01*
X256067Y45067D01*
X255169Y45756D01*
X254122Y46189D01*
X253000Y46337D01*
D02*
G37*
G36*
X222500Y46675D02*
X221773Y46579D01*
X220630Y46106D01*
X219648Y45352D01*
X218895Y44370D01*
X218421Y43227D01*
X218325Y42500D01*
X222500D01*
Y46675D01*
D02*
G37*
G36*
X223500D02*
Y42500D01*
X227675D01*
X227579Y43227D01*
X227105Y44370D01*
X226352Y45352D01*
X225370Y46106D01*
X224227Y46579D01*
X223500Y46675D01*
D02*
G37*
G36*
X204000Y69233D02*
X203337Y69101D01*
X202774Y68726D01*
X202399Y68163D01*
X202267Y67500D01*
X202399Y66837D01*
X202774Y66274D01*
X203082Y66069D01*
Y60000D01*
X203152Y59649D01*
X203351Y59351D01*
X206351Y56351D01*
X206649Y56152D01*
X207000Y56082D01*
X228620D01*
X239804Y44898D01*
X239244Y44168D01*
X238811Y43123D01*
X238663Y42000D01*
X238811Y40878D01*
X239244Y39832D01*
X239933Y38933D01*
X240831Y38244D01*
X241878Y37811D01*
X243000Y37663D01*
X244123Y37811D01*
X245169Y38244D01*
X246067Y38933D01*
X246756Y39832D01*
X247189Y40878D01*
X247337Y42000D01*
X247189Y43123D01*
X246756Y44168D01*
X246067Y45067D01*
X245169Y45756D01*
X244123Y46189D01*
X243000Y46337D01*
X241878Y46189D01*
X241334Y45964D01*
X229649Y57649D01*
X229351Y57848D01*
X229000Y57918D01*
X207380D01*
X204918Y60380D01*
Y66069D01*
X205226Y66274D01*
X205601Y66837D01*
X205733Y67500D01*
X205601Y68163D01*
X205226Y68726D01*
X204663Y69101D01*
X204000Y69233D01*
D02*
G37*
G36*
X203000Y46337D02*
X201877Y46189D01*
X200831Y45756D01*
X199933Y45067D01*
X199244Y44168D01*
X198811Y43123D01*
X198663Y42000D01*
X198811Y40878D01*
X199244Y39832D01*
X199933Y38933D01*
X200831Y38244D01*
X201877Y37811D01*
X203000Y37663D01*
X204122Y37811D01*
X205169Y38244D01*
X206067Y38933D01*
X206756Y39832D01*
X207189Y40878D01*
X207337Y42000D01*
X207189Y43123D01*
X206756Y44168D01*
X206067Y45067D01*
X205169Y45756D01*
X204122Y46189D01*
X203000Y46337D01*
D02*
G37*
G36*
X213000D02*
X211877Y46189D01*
X210831Y45756D01*
X209933Y45067D01*
X209244Y44168D01*
X208811Y43123D01*
X208663Y42000D01*
X208811Y40878D01*
X209244Y39832D01*
X209933Y38933D01*
X210831Y38244D01*
X211877Y37811D01*
X213000Y37663D01*
X214123Y37811D01*
X215169Y38244D01*
X216067Y38933D01*
X216756Y39832D01*
X217189Y40878D01*
X217337Y42000D01*
X217189Y43123D01*
X216756Y44168D01*
X216067Y45067D01*
X215169Y45756D01*
X214123Y46189D01*
X213000Y46337D01*
D02*
G37*
G36*
X185319Y74414D02*
X184656Y74282D01*
X184093Y73907D01*
X183718Y73344D01*
X183586Y72681D01*
X183718Y72018D01*
X184093Y71456D01*
X184656Y71080D01*
X185319Y70948D01*
X185682Y71020D01*
X204351Y52351D01*
X204649Y52152D01*
X205000Y52082D01*
X221620D01*
X229370Y44333D01*
X229244Y44168D01*
X228811Y43123D01*
X228663Y42000D01*
X228811Y40878D01*
X229244Y39832D01*
X229933Y38933D01*
X230831Y38244D01*
X231877Y37811D01*
X233000Y37663D01*
X234122Y37811D01*
X235169Y38244D01*
X236067Y38933D01*
X236756Y39832D01*
X237189Y40878D01*
X237337Y42000D01*
X237189Y43123D01*
X236756Y44168D01*
X236067Y45067D01*
X235169Y45756D01*
X234122Y46189D01*
X233000Y46337D01*
X231877Y46189D01*
X230831Y45756D01*
X230667Y45630D01*
X222649Y53649D01*
X222351Y53848D01*
X222000Y53918D01*
X205380D01*
X186980Y72318D01*
X187052Y72681D01*
X186920Y73344D01*
X186545Y73907D01*
X185982Y74282D01*
X185319Y74414D01*
D02*
G37*
G36*
X38402Y92799D02*
X34965D01*
X34574Y92721D01*
X34244Y92501D01*
X34023Y92170D01*
X33945Y91780D01*
Y89327D01*
X38402D01*
Y92799D01*
D02*
G37*
G36*
Y88327D02*
X33945D01*
Y85874D01*
X34023Y85484D01*
X34244Y85153D01*
X34574Y84932D01*
X34965Y84854D01*
X38402D01*
Y88327D01*
D02*
G37*
G36*
X34366Y97000D02*
X32075D01*
Y95531D01*
X32153Y95141D01*
X32373Y94810D01*
X32704Y94590D01*
X33094Y94512D01*
X34366D01*
Y97000D01*
D02*
G37*
G36*
X95000Y109233D02*
X94337Y109101D01*
X93774Y108726D01*
X93399Y108163D01*
X93267Y107500D01*
X93399Y106837D01*
X93774Y106274D01*
X94082Y106069D01*
Y104500D01*
X94152Y104149D01*
X94351Y103851D01*
X106339Y91863D01*
X106267Y91500D01*
X106399Y90837D01*
X106774Y90274D01*
X107337Y89899D01*
X108000Y89767D01*
X108663Y89899D01*
X109226Y90274D01*
X109601Y90837D01*
X109733Y91500D01*
X109601Y92163D01*
X109226Y92726D01*
X108663Y93101D01*
X108000Y93233D01*
X107637Y93161D01*
X95918Y104880D01*
Y106069D01*
X96226Y106274D01*
X96601Y106837D01*
X96733Y107500D01*
X96601Y108163D01*
X96226Y108726D01*
X95663Y109101D01*
X95000Y109233D01*
D02*
G37*
G36*
X34366Y66488D02*
X33094D01*
X32704Y66410D01*
X32373Y66189D01*
X32153Y65859D01*
X32075Y65469D01*
Y64000D01*
X34366D01*
Y66488D01*
D02*
G37*
G36*
Y57000D02*
X32075D01*
Y55532D01*
X32153Y55141D01*
X32373Y54811D01*
X32704Y54589D01*
X33094Y54512D01*
X34366D01*
Y57000D01*
D02*
G37*
G36*
X161000Y82233D02*
X160337Y82101D01*
X159774Y81726D01*
X159399Y81163D01*
X159267Y80500D01*
X159399Y79837D01*
X159774Y79274D01*
X160337Y78899D01*
X161000Y78767D01*
X161663Y78899D01*
X162226Y79274D01*
X162431Y79582D01*
X185120D01*
X189465Y75237D01*
X189774Y74774D01*
X190337Y74399D01*
X191000Y74267D01*
X191663Y74399D01*
X192226Y74774D01*
X192601Y75337D01*
X192733Y76000D01*
X192601Y76663D01*
X192226Y77226D01*
X191663Y77601D01*
X191000Y77733D01*
X190337Y77601D01*
X189953Y77345D01*
X186149Y81149D01*
X185851Y81348D01*
X185500Y81418D01*
X162431D01*
X162226Y81726D01*
X161663Y82101D01*
X161000Y82233D01*
D02*
G37*
G36*
X86000Y135733D02*
X85337Y135601D01*
X84774Y135226D01*
X84399Y134663D01*
X84267Y134000D01*
X84399Y133337D01*
X84774Y132774D01*
X85082Y132569D01*
Y121880D01*
X78851Y115649D01*
X78652Y115351D01*
X78582Y115000D01*
Y104328D01*
X78652Y103977D01*
X78851Y103680D01*
X109948Y72582D01*
X109768Y72056D01*
X109274Y71726D01*
X109069Y71418D01*
X58431D01*
X58226Y71726D01*
X57663Y72101D01*
X57000Y72233D01*
X56337Y72101D01*
X55774Y71726D01*
X55399Y71163D01*
X55267Y70500D01*
X55399Y69837D01*
X55774Y69274D01*
X56337Y68899D01*
X57000Y68767D01*
X57663Y68899D01*
X58226Y69274D01*
X58431Y69582D01*
X109069D01*
X109274Y69274D01*
X109837Y68899D01*
X110500Y68767D01*
X111163Y68899D01*
X111726Y69274D01*
X111924Y69571D01*
X112538Y69664D01*
X135997Y46205D01*
X135801Y45694D01*
X135337Y45601D01*
X134774Y45226D01*
X134399Y44663D01*
X134267Y44000D01*
X134399Y43337D01*
X134774Y42774D01*
X135209Y42484D01*
X140369Y37324D01*
Y27013D01*
X140267Y26500D01*
X140399Y25837D01*
X140774Y25274D01*
X141337Y24899D01*
X142000Y24767D01*
X142663Y24899D01*
X143226Y25274D01*
X143601Y25837D01*
X143733Y26500D01*
X143631Y27013D01*
Y37864D01*
X143971Y38058D01*
X144119Y38083D01*
X150351Y31851D01*
X150649Y31652D01*
X151000Y31582D01*
X178569D01*
X178774Y31274D01*
X179337Y30899D01*
X180000Y30767D01*
X180663Y30899D01*
X181226Y31274D01*
X181601Y31837D01*
X181733Y32500D01*
X181601Y33163D01*
X181226Y33726D01*
X180663Y34101D01*
X180000Y34233D01*
X179337Y34101D01*
X178774Y33726D01*
X178569Y33418D01*
X151380D01*
X113405Y71393D01*
X113348Y71680D01*
X113149Y71977D01*
X96758Y88369D01*
X96965Y88869D01*
X103500D01*
X104124Y88993D01*
X104654Y89346D01*
X105007Y89876D01*
X105131Y90500D01*
X105007Y91124D01*
X104654Y91654D01*
X104124Y92007D01*
X103500Y92131D01*
X96500D01*
X95876Y92007D01*
X95346Y91654D01*
X94993Y91124D01*
X94946Y90887D01*
X94403Y90723D01*
X80418Y104709D01*
Y114620D01*
X86649Y120851D01*
X86848Y121149D01*
X86918Y121500D01*
Y132569D01*
X87226Y132774D01*
X87601Y133337D01*
X87733Y134000D01*
X87601Y134663D01*
X87226Y135226D01*
X86663Y135601D01*
X86000Y135733D01*
D02*
G37*
G36*
X120000Y13631D02*
X119060Y13507D01*
X118184Y13145D01*
X117432Y12567D01*
X116855Y11816D01*
X116493Y10940D01*
X116369Y10000D01*
X116493Y9060D01*
X116855Y8185D01*
X117432Y7433D01*
X118184Y6855D01*
X119060Y6493D01*
X120000Y6369D01*
X120940Y6493D01*
X121816Y6855D01*
X122568Y7433D01*
X123145Y8185D01*
X123507Y9060D01*
X123631Y10000D01*
X123507Y10940D01*
X123145Y11816D01*
X122568Y12567D01*
X121816Y13145D01*
X120940Y13507D01*
X120000Y13631D01*
D02*
G37*
G36*
X110000D02*
X109060Y13507D01*
X108185Y13145D01*
X107432Y12567D01*
X106855Y11816D01*
X106493Y10940D01*
X106369Y10000D01*
X106493Y9060D01*
X106855Y8185D01*
X107432Y7433D01*
X108185Y6855D01*
X109060Y6493D01*
X110000Y6369D01*
X110940Y6493D01*
X111816Y6855D01*
X112568Y7433D01*
X113145Y8185D01*
X113507Y9060D01*
X113631Y10000D01*
X113507Y10940D01*
X113145Y11816D01*
X112568Y12567D01*
X111816Y13145D01*
X110940Y13507D01*
X110000Y13631D01*
D02*
G37*
G36*
X130500Y42233D02*
X129837Y42101D01*
X129274Y41726D01*
X128899Y41163D01*
X128767Y40500D01*
X128899Y39837D01*
X129082Y39562D01*
Y13510D01*
X129060Y13507D01*
X128184Y13145D01*
X127432Y12567D01*
X126855Y11816D01*
X126493Y10940D01*
X126369Y10000D01*
X126493Y9060D01*
X126855Y8185D01*
X127432Y7433D01*
X128184Y6855D01*
X129060Y6493D01*
X130000Y6369D01*
X130940Y6493D01*
X131816Y6855D01*
X132568Y7433D01*
X133145Y8185D01*
X133507Y9060D01*
X133631Y10000D01*
X133507Y10940D01*
X133145Y11816D01*
X132568Y12567D01*
X131816Y13145D01*
X130940Y13507D01*
X130918Y13510D01*
Y38850D01*
X131163Y38899D01*
X131726Y39274D01*
X132101Y39837D01*
X132233Y40500D01*
X132101Y41163D01*
X131726Y41726D01*
X131163Y42101D01*
X130500Y42233D01*
D02*
G37*
G36*
X159500Y13969D02*
X158956Y13897D01*
X157983Y13494D01*
X157147Y12853D01*
X156506Y12017D01*
X156103Y11044D01*
X156031Y10500D01*
X159500D01*
Y13969D01*
D02*
G37*
G36*
X150000Y13631D02*
X149060Y13507D01*
X148185Y13145D01*
X147432Y12567D01*
X146855Y11816D01*
X146493Y10940D01*
X146369Y10000D01*
X146493Y9060D01*
X146855Y8185D01*
X147432Y7433D01*
X148185Y6855D01*
X149060Y6493D01*
X150000Y6369D01*
X150940Y6493D01*
X151815Y6855D01*
X152568Y7433D01*
X153145Y8185D01*
X153507Y9060D01*
X153631Y10000D01*
X153507Y10940D01*
X153145Y11816D01*
X152568Y12567D01*
X151815Y13145D01*
X150940Y13507D01*
X150000Y13631D01*
D02*
G37*
G36*
X169500Y9500D02*
X166031D01*
X166103Y8956D01*
X166506Y7983D01*
X167147Y7147D01*
X167983Y6506D01*
X168956Y6103D01*
X169500Y6031D01*
Y9500D01*
D02*
G37*
G36*
X159500D02*
X156031D01*
X156103Y8956D01*
X156506Y7983D01*
X157147Y7147D01*
X157983Y6506D01*
X158956Y6103D01*
X159500Y6031D01*
Y9500D01*
D02*
G37*
G36*
X163969D02*
X160500D01*
Y6031D01*
X161044Y6103D01*
X162017Y6506D01*
X162853Y7147D01*
X163494Y7983D01*
X163897Y8956D01*
X163969Y9500D01*
D02*
G37*
G36*
X183000Y13649D02*
X177000D01*
X176541Y13459D01*
X176351Y13000D01*
Y7000D01*
X176541Y6541D01*
X177000Y6351D01*
X183000D01*
X183459Y6541D01*
X183649Y7000D01*
Y13000D01*
X183459Y13459D01*
X183000Y13649D01*
D02*
G37*
G36*
X173969Y9500D02*
X170500D01*
Y6031D01*
X171044Y6103D01*
X172017Y6506D01*
X172853Y7147D01*
X173494Y7983D01*
X173897Y8956D01*
X173969Y9500D01*
D02*
G37*
G36*
X69500Y49131D02*
X68876Y49007D01*
X68347Y48654D01*
X67993Y48124D01*
X67869Y47500D01*
Y46000D01*
X67993Y45376D01*
X68347Y44846D01*
X75869Y37324D01*
Y31000D01*
X75993Y30376D01*
X76346Y29847D01*
X76876Y29493D01*
X77500Y29369D01*
X78124Y29493D01*
X78654Y29847D01*
X79007Y30376D01*
X79131Y31000D01*
Y38000D01*
X79007Y38624D01*
X78654Y39154D01*
X71131Y46676D01*
Y47500D01*
X71007Y48124D01*
X70653Y48654D01*
X70124Y49007D01*
X69500Y49131D01*
D02*
G37*
G36*
X120500Y46131D02*
X119876Y46007D01*
X119346Y45654D01*
X118993Y45124D01*
X118869Y44500D01*
Y41631D01*
X107500D01*
X106876Y41507D01*
X106346Y41153D01*
X104824Y39631D01*
X93500D01*
X92876Y39507D01*
X92347Y39154D01*
X91993Y38624D01*
X91869Y38000D01*
X91993Y37376D01*
X92347Y36847D01*
X92876Y36493D01*
X93500Y36369D01*
X105500D01*
X106124Y36493D01*
X106653Y36847D01*
X108176Y38369D01*
X109369D01*
Y23000D01*
X109493Y22376D01*
X109846Y21847D01*
X110376Y21493D01*
X111000Y21369D01*
X111624Y21493D01*
X112153Y21847D01*
X112507Y22376D01*
X112631Y23000D01*
Y38369D01*
X120500D01*
X121124Y38493D01*
X121653Y38846D01*
X122007Y39376D01*
X122131Y40000D01*
Y44500D01*
X122007Y45124D01*
X121653Y45654D01*
X121124Y46007D01*
X120500Y46131D01*
D02*
G37*
G36*
X260000Y36979D02*
X259969Y36966D01*
X259936Y36976D01*
X258701Y36854D01*
X258643Y36823D01*
X258577Y36830D01*
X257389Y36469D01*
X257338Y36427D01*
X257272Y36421D01*
X256177Y35836D01*
X256135Y35784D01*
X256071Y35765D01*
X255112Y34978D01*
X255081Y34919D01*
X255022Y34888D01*
X254235Y33929D01*
X254216Y33865D01*
X254164Y33823D01*
X253579Y32728D01*
X253573Y32662D01*
X253531Y32611D01*
X253170Y31423D01*
X253177Y31357D01*
X253146Y31299D01*
X253024Y30064D01*
X253043Y30000D01*
X253024Y29936D01*
X253146Y28701D01*
X253177Y28643D01*
X253170Y28577D01*
X253531Y27389D01*
X253573Y27338D01*
X253579Y27272D01*
X254164Y26177D01*
X254216Y26135D01*
X254235Y26071D01*
X255022Y25112D01*
X255081Y25081D01*
X255112Y25022D01*
X256071Y24235D01*
X256135Y24216D01*
X256177Y24164D01*
X257272Y23579D01*
X257338Y23573D01*
X257389Y23531D01*
X258577Y23170D01*
X258643Y23177D01*
X258701Y23146D01*
X259936Y23024D01*
X259969Y23034D01*
X260000Y23021D01*
X260031Y23034D01*
X260064Y23024D01*
X261298Y23146D01*
X261357Y23177D01*
X261423Y23170D01*
X262611Y23531D01*
X262662Y23573D01*
X262728Y23579D01*
X263823Y24164D01*
X263865Y24216D01*
X263929Y24235D01*
X264888Y25022D01*
X264919Y25081D01*
X264978Y25112D01*
X265765Y26071D01*
X265784Y26135D01*
X265836Y26177D01*
X266421Y27272D01*
X266427Y27338D01*
X266469Y27389D01*
X266829Y28577D01*
X266823Y28643D01*
X266854Y28701D01*
X266976Y29936D01*
X266957Y30000D01*
X266976Y30064D01*
X266854Y31299D01*
X266823Y31357D01*
X266829Y31423D01*
X266469Y32611D01*
X266427Y32662D01*
X266421Y32728D01*
X265836Y33823D01*
X265784Y33865D01*
X265765Y33929D01*
X264978Y34888D01*
X264919Y34919D01*
X264888Y34978D01*
X263929Y35765D01*
X263865Y35784D01*
X263823Y35836D01*
X262728Y36421D01*
X262662Y36427D01*
X262611Y36469D01*
X261423Y36830D01*
X261357Y36823D01*
X261298Y36854D01*
X260064Y36976D01*
X260031Y36966D01*
X260000Y36979D01*
D02*
G37*
G36*
X227675Y41500D02*
X223500D01*
Y37325D01*
X224227Y37421D01*
X225370Y37894D01*
X226352Y38648D01*
X227105Y39630D01*
X227579Y40773D01*
X227675Y41500D01*
D02*
G37*
G36*
X222500D02*
X218325D01*
X218421Y40773D01*
X218895Y39630D01*
X219648Y38648D01*
X220630Y37894D01*
X221773Y37421D01*
X222500Y37325D01*
Y41500D01*
D02*
G37*
G36*
X160500Y13969D02*
Y10500D01*
X163969D01*
X163897Y11044D01*
X163494Y12017D01*
X162853Y12853D01*
X162017Y13494D01*
X161044Y13897D01*
X160500Y13969D01*
D02*
G37*
G36*
X169500D02*
X168956Y13897D01*
X167983Y13494D01*
X167147Y12853D01*
X166506Y12017D01*
X166103Y11044D01*
X166031Y10500D01*
X169500D01*
Y13969D01*
D02*
G37*
G36*
X170500D02*
Y10500D01*
X173969D01*
X173897Y11044D01*
X173494Y12017D01*
X172853Y12853D01*
X172017Y13494D01*
X171044Y13897D01*
X170500Y13969D01*
D02*
G37*
G36*
X55000Y16979D02*
X54969Y16966D01*
X54936Y16976D01*
X53702Y16854D01*
X53643Y16823D01*
X53577Y16829D01*
X52389Y16469D01*
X52338Y16427D01*
X52272Y16421D01*
X51177Y15836D01*
X51135Y15784D01*
X51071Y15765D01*
X50112Y14978D01*
X50081Y14919D01*
X50022Y14888D01*
X49235Y13929D01*
X49216Y13865D01*
X49164Y13823D01*
X48579Y12728D01*
X48573Y12662D01*
X48531Y12611D01*
X48171Y11423D01*
X48177Y11357D01*
X48146Y11299D01*
X48024Y10064D01*
X48043Y10000D01*
X48024Y9936D01*
X48146Y8702D01*
X48177Y8643D01*
X48171Y8577D01*
X48531Y7389D01*
X48573Y7338D01*
X48579Y7272D01*
X49164Y6177D01*
X49216Y6135D01*
X49235Y6071D01*
X50022Y5112D01*
X50081Y5081D01*
X50112Y5022D01*
X51071Y4235D01*
X51135Y4216D01*
X51177Y4164D01*
X52272Y3579D01*
X52338Y3573D01*
X52389Y3531D01*
X53577Y3170D01*
X53643Y3177D01*
X53702Y3146D01*
X54936Y3024D01*
X54969Y3034D01*
X55000Y3021D01*
X55031Y3034D01*
X55064Y3024D01*
X56299Y3146D01*
X56357Y3177D01*
X56423Y3170D01*
X57611Y3531D01*
X57662Y3573D01*
X57728Y3579D01*
X58823Y4164D01*
X58865Y4216D01*
X58929Y4235D01*
X59888Y5022D01*
X59919Y5081D01*
X59978Y5112D01*
X60765Y6071D01*
X60784Y6135D01*
X60836Y6177D01*
X61421Y7272D01*
X61427Y7338D01*
X61469Y7389D01*
X61830Y8577D01*
X61823Y8643D01*
X61854Y8702D01*
X61976Y9936D01*
X61957Y10000D01*
X61976Y10064D01*
X61854Y11299D01*
X61823Y11357D01*
X61830Y11423D01*
X61469Y12611D01*
X61427Y12662D01*
X61421Y12728D01*
X60836Y13823D01*
X60784Y13865D01*
X60765Y13929D01*
X59978Y14888D01*
X59919Y14919D01*
X59888Y14978D01*
X58929Y15765D01*
X58865Y15784D01*
X58823Y15836D01*
X57728Y16421D01*
X57662Y16427D01*
X57611Y16469D01*
X56423Y16829D01*
X56357Y16823D01*
X56299Y16854D01*
X55064Y16976D01*
X55031Y16966D01*
X55000Y16979D01*
D02*
G37*
G36*
X170500Y30631D02*
X169876Y30507D01*
X169346Y30154D01*
X166824Y27631D01*
X156000D01*
X155376Y27507D01*
X154847Y27154D01*
X141124Y13431D01*
X140940Y13507D01*
X140000Y13631D01*
X139060Y13507D01*
X138184Y13145D01*
X137432Y12567D01*
X136855Y11816D01*
X136493Y10940D01*
X136369Y10000D01*
X136493Y9060D01*
X136855Y8185D01*
X137432Y7433D01*
X138184Y6855D01*
X139060Y6493D01*
X140000Y6369D01*
X140940Y6493D01*
X141815Y6855D01*
X142568Y7433D01*
X143145Y8185D01*
X143507Y9060D01*
X143631Y10000D01*
X143507Y10940D01*
X143431Y11124D01*
X156676Y24369D01*
X167500D01*
X168124Y24493D01*
X168654Y24847D01*
X171653Y27847D01*
X172007Y28376D01*
X172131Y29000D01*
X172007Y29624D01*
X171653Y30154D01*
X171124Y30507D01*
X170500Y30631D01*
D02*
G37*
G36*
X114000Y203631D02*
X113060Y203507D01*
X112185Y203145D01*
X111432Y202568D01*
X110855Y201816D01*
X110493Y200940D01*
X110369Y200000D01*
X110493Y199060D01*
X110855Y198185D01*
X111432Y197432D01*
X112185Y196855D01*
X113060Y196493D01*
X114000Y196369D01*
X114940Y196493D01*
X115815Y196855D01*
X116568Y197432D01*
X117145Y198185D01*
X117507Y199060D01*
X117631Y200000D01*
X117507Y200940D01*
X117145Y201816D01*
X116568Y202568D01*
X115815Y203145D01*
X114940Y203507D01*
X114000Y203631D01*
D02*
G37*
G36*
X94000D02*
X93060Y203507D01*
X92185Y203145D01*
X91432Y202568D01*
X90855Y201816D01*
X90493Y200940D01*
X90369Y200000D01*
X90493Y199060D01*
X90855Y198185D01*
X91432Y197432D01*
X92185Y196855D01*
X93060Y196493D01*
X94000Y196369D01*
X94940Y196493D01*
X95815Y196855D01*
X96568Y197432D01*
X97145Y198185D01*
X97507Y199060D01*
X97631Y200000D01*
X97507Y200940D01*
X97145Y201816D01*
X96568Y202568D01*
X95815Y203145D01*
X94940Y203507D01*
X94000Y203631D01*
D02*
G37*
G36*
X124000D02*
X123060Y203507D01*
X122185Y203145D01*
X121432Y202568D01*
X120855Y201816D01*
X120493Y200940D01*
X120369Y200000D01*
X120493Y199060D01*
X120855Y198185D01*
X121432Y197432D01*
X122185Y196855D01*
X123060Y196493D01*
X124000Y196369D01*
X124940Y196493D01*
X125815Y196855D01*
X126568Y197432D01*
X127145Y198185D01*
X127507Y199060D01*
X127631Y200000D01*
X127507Y200940D01*
X127145Y201816D01*
X126568Y202568D01*
X125815Y203145D01*
X124940Y203507D01*
X124000Y203631D01*
D02*
G37*
G36*
X144000D02*
X143060Y203507D01*
X142184Y203145D01*
X141432Y202568D01*
X140855Y201816D01*
X140493Y200940D01*
X140369Y200000D01*
X140493Y199060D01*
X140855Y198185D01*
X141432Y197432D01*
X142184Y196855D01*
X143060Y196493D01*
X144000Y196369D01*
X144940Y196493D01*
X145816Y196855D01*
X146568Y197432D01*
X147145Y198185D01*
X147507Y199060D01*
X147631Y200000D01*
X147507Y200940D01*
X147145Y201816D01*
X146568Y202568D01*
X145816Y203145D01*
X144940Y203507D01*
X144000Y203631D01*
D02*
G37*
G36*
X134000D02*
X133060Y203507D01*
X132185Y203145D01*
X131432Y202568D01*
X130855Y201816D01*
X130493Y200940D01*
X130369Y200000D01*
X130493Y199060D01*
X130855Y198185D01*
X131432Y197432D01*
X132185Y196855D01*
X133060Y196493D01*
X134000Y196369D01*
X134940Y196493D01*
X135816Y196855D01*
X136568Y197432D01*
X137145Y198185D01*
X137507Y199060D01*
X137631Y200000D01*
X137507Y200940D01*
X137145Y201816D01*
X136568Y202568D01*
X135816Y203145D01*
X134940Y203507D01*
X134000Y203631D01*
D02*
G37*
G36*
X103500Y199500D02*
X100031D01*
X100103Y198956D01*
X100506Y197983D01*
X101147Y197147D01*
X101983Y196506D01*
X102956Y196103D01*
X103500Y196031D01*
Y199500D01*
D02*
G37*
G36*
X74000Y203631D02*
X73060Y203507D01*
X72184Y203145D01*
X71432Y202568D01*
X70855Y201816D01*
X70493Y200940D01*
X70369Y200000D01*
X70493Y199060D01*
X70855Y198185D01*
X71432Y197432D01*
X72184Y196855D01*
X73060Y196493D01*
X73082Y196490D01*
Y189500D01*
X73152Y189149D01*
X73351Y188851D01*
X75200Y187002D01*
X74954Y186541D01*
X74500Y186631D01*
X25000D01*
X24376Y186507D01*
X23846Y186153D01*
X5847Y168154D01*
X5493Y167624D01*
X5369Y167000D01*
Y105000D01*
X5493Y104376D01*
X5847Y103847D01*
X12467Y97226D01*
Y87901D01*
X10161D01*
X9702Y87711D01*
X9512Y87252D01*
Y81403D01*
X5772D01*
X5147Y81279D01*
X4901Y81114D01*
X4837Y81101D01*
X4274Y80726D01*
X3899Y80163D01*
X3767Y79500D01*
X3899Y78837D01*
X4274Y78274D01*
X4837Y77899D01*
X5500Y77767D01*
X6163Y77899D01*
X6525Y78140D01*
X9512D01*
Y72291D01*
X9702Y71832D01*
X10161Y71642D01*
X18035D01*
X18495Y71832D01*
X18685Y72291D01*
Y78140D01*
X34315D01*
Y76819D01*
X34505Y76360D01*
X34965Y76170D01*
X42839D01*
X43298Y76360D01*
X43488Y76819D01*
Y82724D01*
X43298Y83184D01*
X42839Y83374D01*
X34965D01*
X34505Y83184D01*
X34315Y82724D01*
Y81403D01*
X18685D01*
Y87252D01*
X18495Y87711D01*
X18035Y87901D01*
X15730D01*
Y97902D01*
X15606Y98526D01*
X15252Y99055D01*
X8631Y105676D01*
Y166324D01*
X25676Y183369D01*
X73824D01*
X77346Y179847D01*
X77876Y179493D01*
X78500Y179369D01*
X79124Y179493D01*
X79654Y179847D01*
X80007Y180376D01*
X80131Y181000D01*
X80007Y181624D01*
X79654Y182153D01*
X77169Y184639D01*
X77415Y185099D01*
X77500Y185082D01*
X92120D01*
X102082Y175120D01*
Y140812D01*
X101582Y140661D01*
X101453Y140854D01*
X100154Y142154D01*
X99624Y142507D01*
X99000Y142631D01*
X98376Y142507D01*
X97847Y142154D01*
X97493Y141624D01*
X97369Y141000D01*
X97493Y140376D01*
X97847Y139847D01*
X98669Y139024D01*
Y118717D01*
X98169Y118466D01*
X97918Y118653D01*
Y128500D01*
X97848Y128851D01*
X97649Y129149D01*
X91661Y135137D01*
X91733Y135500D01*
X91601Y136163D01*
X91226Y136726D01*
X90663Y137101D01*
X90000Y137233D01*
X89337Y137101D01*
X88774Y136726D01*
X88399Y136163D01*
X88267Y135500D01*
X88399Y134837D01*
X88774Y134274D01*
X89337Y133899D01*
X90000Y133767D01*
X90363Y133839D01*
X96082Y128120D01*
Y118431D01*
X95774Y118226D01*
X95399Y117663D01*
X95267Y117000D01*
X95399Y116337D01*
X95774Y115774D01*
X96337Y115399D01*
X97000Y115267D01*
X97663Y115399D01*
X98169Y115736D01*
X98419Y115671D01*
X98669Y115537D01*
Y111700D01*
X98759Y111246D01*
X98298Y111000D01*
X94149Y115149D01*
X93851Y115348D01*
X93500Y115418D01*
X88301D01*
X88233Y115500D01*
X88101Y116163D01*
X87726Y116726D01*
X87163Y117101D01*
X86500Y117233D01*
X85837Y117101D01*
X85274Y116726D01*
X84899Y116163D01*
X84767Y115500D01*
X84899Y114837D01*
X85274Y114274D01*
X85837Y113899D01*
X86500Y113767D01*
X86868Y113840D01*
X87149Y113652D01*
X87500Y113582D01*
X93120D01*
X110851Y95851D01*
X111149Y95652D01*
X111500Y95582D01*
X111808Y95207D01*
X111767Y95000D01*
X111899Y94337D01*
X112274Y93774D01*
X112837Y93399D01*
X113500Y93267D01*
X114163Y93399D01*
X114726Y93774D01*
X115101Y94337D01*
X115233Y95000D01*
X115101Y95663D01*
X114726Y96226D01*
X114418Y96431D01*
Y96500D01*
X114348Y96851D01*
X114149Y97149D01*
X113851Y97348D01*
X113500Y97418D01*
X111880D01*
X99800Y109498D01*
X100046Y109959D01*
X100500Y109869D01*
X101124Y109993D01*
X101654Y110346D01*
X102007Y110876D01*
X102131Y111500D01*
X102007Y112124D01*
X101931Y112238D01*
Y115614D01*
X102431Y115880D01*
X103000Y115767D01*
X103663Y115899D01*
X104226Y116274D01*
X104601Y116837D01*
X104733Y117500D01*
X104601Y118163D01*
X104226Y118726D01*
X103918Y118931D01*
Y144704D01*
X104418Y144754D01*
X104493Y144376D01*
X104847Y143846D01*
X116693Y132000D01*
X111346Y126654D01*
X110993Y126124D01*
X110869Y125500D01*
Y117676D01*
X110709Y117516D01*
X110274Y117226D01*
X109918Y116692D01*
X109881Y116686D01*
X109418Y116925D01*
Y126069D01*
X109726Y126274D01*
X110101Y126837D01*
X110233Y127500D01*
X110101Y128163D01*
X109726Y128726D01*
X109163Y129101D01*
X108500Y129233D01*
X107837Y129101D01*
X107274Y128726D01*
X106899Y128163D01*
X106767Y127500D01*
X106899Y126837D01*
X107274Y126274D01*
X107582Y126069D01*
Y109000D01*
X107652Y108649D01*
X107851Y108351D01*
X116082Y100120D01*
Y70000D01*
X116152Y69649D01*
X116351Y69351D01*
X150351Y35351D01*
X150649Y35152D01*
X151000Y35082D01*
X184620D01*
X193082Y26620D01*
Y16000D01*
X193152Y15649D01*
X193351Y15351D01*
X196351Y12352D01*
Y7000D01*
X196541Y6541D01*
X197000Y6351D01*
X203000D01*
X203459Y6541D01*
X203649Y7000D01*
Y13000D01*
X203459Y13459D01*
X203000Y13649D01*
X197648D01*
X194918Y16380D01*
Y27000D01*
X194848Y27351D01*
X194649Y27649D01*
X185649Y36649D01*
X185351Y36848D01*
X185000Y36918D01*
X151380D01*
X117918Y70380D01*
Y100500D01*
X117848Y100851D01*
X117649Y101149D01*
X109418Y109380D01*
Y110205D01*
X109918Y110254D01*
X109993Y109876D01*
X110346Y109346D01*
X110484Y109209D01*
X110774Y108774D01*
X111337Y108399D01*
X112000Y108267D01*
X112663Y108399D01*
X113226Y108774D01*
X113601Y109337D01*
X113733Y110000D01*
X113601Y110663D01*
X113226Y111226D01*
X113131Y111289D01*
Y115324D01*
X113654Y115847D01*
X114007Y116376D01*
X114131Y117000D01*
Y124824D01*
X119000Y129693D01*
X121484Y127209D01*
X121774Y126774D01*
X122337Y126399D01*
X123000Y126267D01*
X123663Y126399D01*
X124082Y126679D01*
X124582Y126477D01*
Y120418D01*
X122931D01*
X122726Y120726D01*
X122163Y121101D01*
X121500Y121233D01*
X121238Y121181D01*
X121043Y121652D01*
X121226Y121774D01*
X121601Y122337D01*
X121733Y123000D01*
X121601Y123663D01*
X121226Y124226D01*
X120663Y124601D01*
X120000Y124733D01*
X119337Y124601D01*
X118774Y124226D01*
X118399Y123663D01*
X118267Y123000D01*
X118399Y122337D01*
X118582Y122062D01*
Y106000D01*
X118652Y105649D01*
X118851Y105351D01*
X120082Y104120D01*
Y70000D01*
X120152Y69649D01*
X120351Y69351D01*
X151351Y38351D01*
X151649Y38152D01*
X152000Y38082D01*
X185620D01*
X196582Y27120D01*
Y22500D01*
X196652Y22149D01*
X196851Y21851D01*
X206869Y11833D01*
X206855Y11816D01*
X206493Y10940D01*
X206369Y10000D01*
X206493Y9060D01*
X206855Y8185D01*
X207433Y7433D01*
X208185Y6855D01*
X209060Y6493D01*
X210000Y6369D01*
X210940Y6493D01*
X211816Y6855D01*
X212567Y7433D01*
X213145Y8185D01*
X213507Y9060D01*
X213631Y10000D01*
X213507Y10940D01*
X213145Y11816D01*
X212567Y12567D01*
X211816Y13145D01*
X210940Y13507D01*
X210000Y13631D01*
X209060Y13507D01*
X208185Y13145D01*
X208167Y13131D01*
X198418Y22880D01*
Y27077D01*
X198918Y27285D01*
X199839Y26363D01*
X199767Y26000D01*
X199899Y25337D01*
X200274Y24774D01*
X200837Y24399D01*
X201500Y24267D01*
X202163Y24399D01*
X202726Y24774D01*
X203101Y25337D01*
X203233Y26000D01*
X203101Y26663D01*
X202726Y27226D01*
X202163Y27601D01*
X201500Y27733D01*
X201137Y27661D01*
X187149Y41649D01*
X186851Y41848D01*
X186500Y41918D01*
X153105D01*
X152985Y42088D01*
X153250Y42582D01*
X187120D01*
X200051Y29651D01*
X200349Y29452D01*
X200700Y29382D01*
X213820D01*
X219082Y24120D01*
Y13510D01*
X219060Y13507D01*
X218184Y13145D01*
X217432Y12567D01*
X216855Y11816D01*
X216493Y10940D01*
X216369Y10000D01*
X216493Y9060D01*
X216855Y8185D01*
X217432Y7433D01*
X218184Y6855D01*
X219060Y6493D01*
X220000Y6369D01*
X220940Y6493D01*
X221815Y6855D01*
X222568Y7433D01*
X223145Y8185D01*
X223507Y9060D01*
X223631Y10000D01*
X223507Y10940D01*
X223145Y11816D01*
X222568Y12567D01*
X221815Y13145D01*
X220940Y13507D01*
X220918Y13510D01*
Y24500D01*
X220848Y24851D01*
X220649Y25149D01*
X215677Y30120D01*
X215869Y30582D01*
X222120D01*
X229082Y23620D01*
Y13510D01*
X229060Y13507D01*
X228185Y13145D01*
X227432Y12567D01*
X226855Y11816D01*
X226493Y10940D01*
X226369Y10000D01*
X226493Y9060D01*
X226855Y8185D01*
X227432Y7433D01*
X228185Y6855D01*
X229060Y6493D01*
X230000Y6369D01*
X230940Y6493D01*
X231816Y6855D01*
X232568Y7433D01*
X233145Y8185D01*
X233507Y9060D01*
X233631Y10000D01*
X233507Y10940D01*
X233145Y11816D01*
X232568Y12567D01*
X231816Y13145D01*
X230940Y13507D01*
X230918Y13510D01*
Y23577D01*
X231418Y23785D01*
X239082Y16120D01*
Y13510D01*
X239060Y13507D01*
X238184Y13145D01*
X237433Y12567D01*
X236855Y11816D01*
X236493Y10940D01*
X236369Y10000D01*
X236493Y9060D01*
X236855Y8185D01*
X237433Y7433D01*
X238184Y6855D01*
X239060Y6493D01*
X240000Y6369D01*
X240940Y6493D01*
X241815Y6855D01*
X242567Y7433D01*
X243145Y8185D01*
X243507Y9060D01*
X243631Y10000D01*
X243507Y10940D01*
X243145Y11816D01*
X242567Y12567D01*
X241815Y13145D01*
X240940Y13507D01*
X240918Y13510D01*
Y16500D01*
X240848Y16851D01*
X240649Y17149D01*
X234316Y23482D01*
X234478Y24027D01*
X234640Y24062D01*
X246869Y11833D01*
X246855Y11816D01*
X246493Y10940D01*
X246369Y10000D01*
X246493Y9060D01*
X246855Y8185D01*
X247432Y7433D01*
X248184Y6855D01*
X249060Y6493D01*
X250000Y6369D01*
X250940Y6493D01*
X251816Y6855D01*
X252568Y7433D01*
X253145Y8185D01*
X253507Y9060D01*
X253631Y10000D01*
X253507Y10940D01*
X253145Y11816D01*
X252568Y12567D01*
X251816Y13145D01*
X250940Y13507D01*
X250000Y13631D01*
X249060Y13507D01*
X248184Y13145D01*
X248167Y13131D01*
X235661Y25637D01*
X235733Y26000D01*
X235601Y26663D01*
X235226Y27226D01*
X234663Y27601D01*
X234000Y27733D01*
X233337Y27601D01*
X232774Y27226D01*
X232399Y26663D01*
X232306Y26199D01*
X231795Y26002D01*
X223649Y34149D01*
X223351Y34348D01*
X223000Y34418D01*
X203380D01*
X187149Y50649D01*
X186851Y50848D01*
X186500Y50918D01*
X154380D01*
X137418Y67880D01*
Y88477D01*
X137918Y88679D01*
X138337Y88399D01*
X139000Y88267D01*
X139663Y88399D01*
X139938Y88582D01*
X145620D01*
X147351Y86851D01*
X147649Y86652D01*
X148000Y86582D01*
X156075D01*
X156314Y86119D01*
X156308Y86082D01*
X155774Y85726D01*
X155399Y85163D01*
X155267Y84500D01*
X155399Y83837D01*
X155774Y83274D01*
X156337Y82899D01*
X157000Y82767D01*
X157663Y82899D01*
X158226Y83274D01*
X158601Y83837D01*
X158650Y84082D01*
X167569D01*
X167774Y83774D01*
X168337Y83399D01*
X169000Y83267D01*
X169663Y83399D01*
X170226Y83774D01*
X170601Y84337D01*
X170733Y85000D01*
X170601Y85663D01*
X170321Y86082D01*
X170523Y86582D01*
X183120D01*
X190351Y79351D01*
X190649Y79152D01*
X191000Y79082D01*
X206075D01*
X206314Y78619D01*
X206308Y78582D01*
X205774Y78226D01*
X205484Y77791D01*
X197824Y70131D01*
X194676D01*
X194516Y70291D01*
X194226Y70726D01*
X193663Y71101D01*
X193000Y71233D01*
X192337Y71101D01*
X191774Y70726D01*
X191399Y70163D01*
X191267Y69500D01*
X191399Y68837D01*
X191774Y68274D01*
X192209Y67984D01*
X192847Y67347D01*
X193376Y66993D01*
X194000Y66869D01*
X198500D01*
X199124Y66993D01*
X199653Y67347D01*
X207791Y75484D01*
X208226Y75774D01*
X208601Y76337D01*
X208733Y77000D01*
X208601Y77663D01*
X208226Y78226D01*
X207692Y78582D01*
X207686Y78619D01*
X207925Y79082D01*
X217569D01*
X217774Y78774D01*
X218337Y78399D01*
X219000Y78267D01*
X219663Y78399D01*
X220226Y78774D01*
X220601Y79337D01*
X220733Y80000D01*
X220601Y80663D01*
X220226Y81226D01*
X219663Y81601D01*
X219000Y81733D01*
X218337Y81601D01*
X217788Y81235D01*
X217773Y81226D01*
X217744Y81230D01*
X217564Y81757D01*
X218791Y82984D01*
X219226Y83274D01*
X219601Y83837D01*
X219733Y84500D01*
X219601Y85163D01*
X219226Y85726D01*
X218663Y86101D01*
X218000Y86233D01*
X217337Y86101D01*
X216774Y85726D01*
X216484Y85291D01*
X214824Y83631D01*
X208013D01*
X207500Y83733D01*
X206837Y83601D01*
X206274Y83226D01*
X205899Y82663D01*
X205767Y82000D01*
X205883Y81418D01*
X205638Y80918D01*
X191380D01*
X184149Y88149D01*
X183851Y88348D01*
X183500Y88418D01*
X148380D01*
X146649Y90149D01*
X146351Y90348D01*
X146000Y90418D01*
X140650D01*
X140601Y90663D01*
X140226Y91226D01*
X139663Y91601D01*
X139000Y91733D01*
X138337Y91601D01*
X137918Y91321D01*
X137418Y91523D01*
Y111000D01*
X137348Y111351D01*
X137149Y111649D01*
X128649Y120149D01*
X128351Y120348D01*
X128000Y120418D01*
X126418D01*
Y132000D01*
X126348Y132351D01*
X126149Y132649D01*
X110918Y147880D01*
Y149569D01*
X111226Y149774D01*
X111601Y150337D01*
X111733Y151000D01*
X111601Y151663D01*
X111226Y152226D01*
X110663Y152601D01*
X110000Y152733D01*
X109337Y152601D01*
X108774Y152226D01*
X108399Y151663D01*
X108267Y151000D01*
X108399Y150337D01*
X108774Y149774D01*
X109082Y149569D01*
Y147500D01*
X109152Y147149D01*
X109351Y146851D01*
X124582Y131620D01*
Y129523D01*
X124082Y129321D01*
X123791Y129516D01*
X120153Y133153D01*
X107631Y145676D01*
Y166988D01*
X107733Y167500D01*
X107601Y168163D01*
X107226Y168726D01*
X106663Y169101D01*
X106000Y169233D01*
X105337Y169101D01*
X104774Y168726D01*
X104418Y168192D01*
X104381Y168186D01*
X103918Y168425D01*
Y175500D01*
X103848Y175851D01*
X103649Y176149D01*
X93149Y186649D01*
X92851Y186848D01*
X92500Y186918D01*
X77880D01*
X74918Y189880D01*
Y196490D01*
X74940Y196493D01*
X75815Y196855D01*
X76568Y197432D01*
X77145Y198185D01*
X77507Y199060D01*
X77631Y200000D01*
X77507Y200940D01*
X77145Y201816D01*
X76568Y202568D01*
X75815Y203145D01*
X74940Y203507D01*
X74000Y203631D01*
D02*
G37*
G36*
X107969Y199500D02*
X104500D01*
Y196031D01*
X105044Y196103D01*
X106017Y196506D01*
X106853Y197147D01*
X107494Y197983D01*
X107897Y198956D01*
X107969Y199500D01*
D02*
G37*
G36*
X84000Y203631D02*
X83060Y203507D01*
X82184Y203145D01*
X81432Y202568D01*
X80855Y201816D01*
X80493Y200940D01*
X80369Y200000D01*
X80493Y199060D01*
X80855Y198185D01*
X81432Y197432D01*
X82184Y196855D01*
X83060Y196493D01*
X84000Y196369D01*
X84940Y196493D01*
X85816Y196855D01*
X86568Y197432D01*
X87145Y198185D01*
X87507Y199060D01*
X87631Y200000D01*
X87507Y200940D01*
X87145Y201816D01*
X86568Y202568D01*
X85816Y203145D01*
X84940Y203507D01*
X84000Y203631D01*
D02*
G37*
G36*
X167000Y203649D02*
X161000D01*
X160541Y203459D01*
X160351Y203000D01*
Y197000D01*
X160541Y196541D01*
X161000Y196351D01*
X167000D01*
X167459Y196541D01*
X167649Y197000D01*
Y203000D01*
X167459Y203459D01*
X167000Y203649D01*
D02*
G37*
G36*
X240000Y203631D02*
X239060Y203507D01*
X238184Y203145D01*
X237433Y202568D01*
X236855Y201816D01*
X236493Y200940D01*
X236369Y200000D01*
X236493Y199060D01*
X236855Y198185D01*
X237433Y197432D01*
X238184Y196855D01*
X239060Y196493D01*
X240000Y196369D01*
X240940Y196493D01*
X241815Y196855D01*
X242567Y197432D01*
X243145Y198185D01*
X243507Y199060D01*
X243631Y200000D01*
X243507Y200940D01*
X243145Y201816D01*
X242567Y202568D01*
X241815Y203145D01*
X240940Y203507D01*
X240000Y203631D01*
D02*
G37*
G36*
X230000D02*
X229060Y203507D01*
X228185Y203145D01*
X227432Y202568D01*
X226855Y201816D01*
X226493Y200940D01*
X226369Y200000D01*
X226493Y199060D01*
X226855Y198185D01*
X227432Y197432D01*
X228185Y196855D01*
X229060Y196493D01*
X230000Y196369D01*
X230940Y196493D01*
X231816Y196855D01*
X232568Y197432D01*
X233145Y198185D01*
X233507Y199060D01*
X233631Y200000D01*
X233507Y200940D01*
X233145Y201816D01*
X232568Y202568D01*
X231816Y203145D01*
X230940Y203507D01*
X230000Y203631D01*
D02*
G37*
G36*
X103500Y203969D02*
X102956Y203897D01*
X101983Y203494D01*
X101147Y202853D01*
X100506Y202017D01*
X100103Y201044D01*
X100031Y200500D01*
X103500D01*
Y203969D01*
D02*
G37*
G36*
X60000Y206979D02*
X59969Y206966D01*
X59936Y206976D01*
X58701Y206854D01*
X58643Y206823D01*
X58577Y206830D01*
X57389Y206469D01*
X57338Y206427D01*
X57272Y206421D01*
X56177Y205836D01*
X56135Y205784D01*
X56071Y205765D01*
X55112Y204978D01*
X55081Y204919D01*
X55022Y204888D01*
X54235Y203929D01*
X54216Y203865D01*
X54164Y203823D01*
X53579Y202728D01*
X53573Y202662D01*
X53531Y202611D01*
X53171Y201423D01*
X53177Y201357D01*
X53146Y201298D01*
X53024Y200064D01*
X53043Y200000D01*
X53024Y199936D01*
X53146Y198702D01*
X53177Y198643D01*
X53171Y198577D01*
X53531Y197389D01*
X53573Y197338D01*
X53579Y197272D01*
X54164Y196177D01*
X54216Y196135D01*
X54235Y196071D01*
X55022Y195112D01*
X55081Y195081D01*
X55112Y195022D01*
X56071Y194235D01*
X56135Y194216D01*
X56177Y194164D01*
X57272Y193579D01*
X57338Y193573D01*
X57389Y193531D01*
X58577Y193170D01*
X58643Y193177D01*
X58701Y193146D01*
X59936Y193024D01*
X59969Y193034D01*
X60000Y193021D01*
X60031Y193034D01*
X60064Y193024D01*
X61299Y193146D01*
X61357Y193177D01*
X61423Y193170D01*
X62611Y193531D01*
X62662Y193573D01*
X62728Y193579D01*
X63823Y194164D01*
X63865Y194216D01*
X63929Y194235D01*
X64888Y195022D01*
X64919Y195081D01*
X64978Y195112D01*
X65765Y196071D01*
X65784Y196135D01*
X65836Y196177D01*
X66421Y197272D01*
X66427Y197338D01*
X66469Y197389D01*
X66830Y198577D01*
X66823Y198643D01*
X66854Y198702D01*
X66976Y199936D01*
X66957Y200000D01*
X66976Y200064D01*
X66854Y201298D01*
X66823Y201357D01*
X66830Y201423D01*
X66469Y202611D01*
X66427Y202662D01*
X66421Y202728D01*
X65836Y203823D01*
X65784Y203865D01*
X65765Y203929D01*
X64978Y204888D01*
X64919Y204919D01*
X64888Y204978D01*
X63929Y205765D01*
X63865Y205784D01*
X63823Y205836D01*
X62728Y206421D01*
X62662Y206427D01*
X62611Y206469D01*
X61423Y206830D01*
X61357Y206823D01*
X61299Y206854D01*
X60064Y206976D01*
X60031Y206966D01*
X60000Y206979D01*
D02*
G37*
G36*
X104500Y203969D02*
Y200500D01*
X107969D01*
X107897Y201044D01*
X107494Y202017D01*
X106853Y202853D01*
X106017Y203494D01*
X105044Y203897D01*
X104500Y203969D01*
D02*
G37*
G36*
X180000Y203631D02*
X179060Y203507D01*
X178184Y203145D01*
X177432Y202568D01*
X176855Y201816D01*
X176493Y200940D01*
X176369Y200000D01*
X176493Y199060D01*
X176855Y198185D01*
X177432Y197432D01*
X178184Y196855D01*
X179060Y196493D01*
X180000Y196369D01*
X180940Y196493D01*
X181816Y196855D01*
X182568Y197432D01*
X183145Y198185D01*
X183507Y199060D01*
X183631Y200000D01*
X183507Y200940D01*
X183145Y201816D01*
X182568Y202568D01*
X181816Y203145D01*
X180940Y203507D01*
X180000Y203631D01*
D02*
G37*
G36*
X154000D02*
X153060Y203507D01*
X152184Y203145D01*
X151432Y202568D01*
X150855Y201816D01*
X150493Y200940D01*
X150369Y200000D01*
X150493Y199060D01*
X150855Y198185D01*
X151432Y197432D01*
X152184Y196855D01*
X153060Y196493D01*
X154000Y196369D01*
X154940Y196493D01*
X155815Y196855D01*
X156568Y197432D01*
X157145Y198185D01*
X157507Y199060D01*
X157631Y200000D01*
X157507Y200940D01*
X157145Y201816D01*
X156568Y202568D01*
X155815Y203145D01*
X154940Y203507D01*
X154000Y203631D01*
D02*
G37*
G36*
X190000D02*
X189060Y203507D01*
X188184Y203145D01*
X187432Y202568D01*
X186855Y201816D01*
X186493Y200940D01*
X186369Y200000D01*
X186493Y199060D01*
X186855Y198185D01*
X187432Y197432D01*
X188184Y196855D01*
X189060Y196493D01*
X190000Y196369D01*
X190940Y196493D01*
X191815Y196855D01*
X192568Y197432D01*
X193145Y198185D01*
X193507Y199060D01*
X193631Y200000D01*
X193507Y200940D01*
X193145Y201816D01*
X192568Y202568D01*
X191815Y203145D01*
X190940Y203507D01*
X190000Y203631D01*
D02*
G37*
G36*
X220000D02*
X219060Y203507D01*
X218184Y203145D01*
X217432Y202568D01*
X216855Y201816D01*
X216493Y200940D01*
X216369Y200000D01*
X216493Y199060D01*
X216855Y198185D01*
X217432Y197432D01*
X218184Y196855D01*
X219060Y196493D01*
X220000Y196369D01*
X220940Y196493D01*
X221815Y196855D01*
X222568Y197432D01*
X223145Y198185D01*
X223507Y199060D01*
X223631Y200000D01*
X223507Y200940D01*
X223145Y201816D01*
X222568Y202568D01*
X221815Y203145D01*
X220940Y203507D01*
X220000Y203631D01*
D02*
G37*
G36*
X210000D02*
X209060Y203507D01*
X208185Y203145D01*
X207433Y202568D01*
X206855Y201816D01*
X206493Y200940D01*
X206369Y200000D01*
X206493Y199060D01*
X206855Y198185D01*
X207433Y197432D01*
X208185Y196855D01*
X209060Y196493D01*
X210000Y196369D01*
X210940Y196493D01*
X211816Y196855D01*
X212567Y197432D01*
X213145Y198185D01*
X213507Y199060D01*
X213631Y200000D01*
X213507Y200940D01*
X213145Y201816D01*
X212567Y202568D01*
X211816Y203145D01*
X210940Y203507D01*
X210000Y203631D01*
D02*
G37*
G36*
X58500Y176733D02*
X57837Y176601D01*
X57274Y176226D01*
X56984Y175791D01*
X52846Y171653D01*
X52493Y171124D01*
X52369Y170500D01*
Y168012D01*
X52267Y167500D01*
X52399Y166837D01*
X52774Y166274D01*
X53308Y165918D01*
X53314Y165881D01*
X53075Y165418D01*
X52900D01*
X52549Y165348D01*
X52251Y165149D01*
X51263Y164161D01*
X50900Y164233D01*
X50237Y164101D01*
X49674Y163726D01*
X49299Y163163D01*
X49167Y162500D01*
X49299Y161837D01*
X49674Y161274D01*
X50237Y160899D01*
X50900Y160767D01*
X51563Y160899D01*
X52126Y161274D01*
X52501Y161837D01*
X52633Y162500D01*
X52561Y162863D01*
X53280Y163582D01*
X69551D01*
X69817Y163082D01*
X69706Y162918D01*
X56500D01*
X56149Y162848D01*
X55851Y162649D01*
X51363Y158161D01*
X51000Y158233D01*
X50337Y158101D01*
X49774Y157726D01*
X49399Y157163D01*
X49267Y156500D01*
X49399Y155837D01*
X49774Y155274D01*
X50337Y154899D01*
X51000Y154767D01*
X51663Y154899D01*
X52226Y155274D01*
X52601Y155837D01*
X52733Y156500D01*
X52661Y156863D01*
X56880Y161082D01*
X70069D01*
X70274Y160774D01*
X70837Y160399D01*
X71500Y160267D01*
X72163Y160399D01*
X72726Y160774D01*
X73101Y161337D01*
X73233Y162000D01*
X73101Y162663D01*
X72821Y163082D01*
X73023Y163582D01*
X75120D01*
X77839Y160863D01*
X77767Y160500D01*
X77899Y159837D01*
X78274Y159274D01*
X78837Y158899D01*
X79500Y158767D01*
X80163Y158899D01*
X80726Y159274D01*
X80931Y159582D01*
X96930D01*
X97298Y159156D01*
X97267Y159000D01*
X97399Y158337D01*
X97774Y157774D01*
X98337Y157399D01*
X99000Y157267D01*
X99663Y157399D01*
X100226Y157774D01*
X100601Y158337D01*
X100733Y159000D01*
X100601Y159663D01*
X100226Y160226D01*
X99663Y160601D01*
X99000Y160733D01*
X98637Y160661D01*
X98149Y161149D01*
X97851Y161348D01*
X97500Y161418D01*
X83425D01*
X83186Y161881D01*
X83192Y161918D01*
X83726Y162274D01*
X84016Y162709D01*
X90676Y169369D01*
X91269D01*
X91536Y168869D01*
X91399Y168663D01*
X91267Y168000D01*
X91399Y167337D01*
X91774Y166774D01*
X92337Y166399D01*
X93000Y166267D01*
X93663Y166399D01*
X94226Y166774D01*
X94431Y167082D01*
X95120D01*
X97339Y164863D01*
X97267Y164500D01*
X97399Y163837D01*
X97774Y163274D01*
X98337Y162899D01*
X99000Y162767D01*
X99663Y162899D01*
X100226Y163274D01*
X100601Y163837D01*
X100733Y164500D01*
X100601Y165163D01*
X100226Y165726D01*
X99663Y166101D01*
X99000Y166233D01*
X98637Y166161D01*
X96149Y168649D01*
X95851Y168848D01*
X95746Y168869D01*
X95796Y169369D01*
X96324D01*
X96984Y168709D01*
X97274Y168274D01*
X97837Y167899D01*
X98500Y167767D01*
X99163Y167899D01*
X99726Y168274D01*
X100101Y168837D01*
X100233Y169500D01*
X100101Y170163D01*
X99726Y170726D01*
X99291Y171016D01*
X98154Y172153D01*
X97624Y172507D01*
X97000Y172631D01*
X90000D01*
X89376Y172507D01*
X88846Y172153D01*
X82500Y165807D01*
X79654Y168654D01*
X79124Y169007D01*
X78500Y169131D01*
X55631D01*
Y169824D01*
X59291Y173484D01*
X59726Y173774D01*
X60101Y174337D01*
X60233Y175000D01*
X60101Y175663D01*
X59726Y176226D01*
X59163Y176601D01*
X58500Y176733D01*
D02*
G37*
G36*
X67500Y135733D02*
X66837Y135601D01*
X66274Y135226D01*
X65984Y134791D01*
X65324Y134131D01*
X58012D01*
X57500Y134233D01*
X56837Y134101D01*
X56274Y133726D01*
X55899Y133163D01*
X55767Y132500D01*
X55899Y131837D01*
X56274Y131274D01*
X56837Y130899D01*
X57500Y130767D01*
X58012Y130869D01*
X66000D01*
X66624Y130993D01*
X67154Y131346D01*
X68291Y132484D01*
X68726Y132774D01*
X69101Y133337D01*
X69233Y134000D01*
X69101Y134663D01*
X68726Y135226D01*
X68163Y135601D01*
X67500Y135733D01*
D02*
G37*
G36*
X80000Y132233D02*
X79337Y132101D01*
X78774Y131726D01*
X78399Y131163D01*
X78267Y130500D01*
X78339Y130137D01*
X56047Y107845D01*
X55663Y108101D01*
X55000Y108233D01*
X54337Y108101D01*
X53774Y107726D01*
X53399Y107163D01*
X53267Y106500D01*
X53399Y105837D01*
X53774Y105274D01*
X54337Y104899D01*
X55000Y104767D01*
X55663Y104899D01*
X56226Y105274D01*
X56581Y105806D01*
X56649Y105851D01*
X79637Y128839D01*
X80000Y128767D01*
X80663Y128899D01*
X81226Y129274D01*
X81601Y129837D01*
X81733Y130500D01*
X81601Y131163D01*
X81226Y131726D01*
X80663Y132101D01*
X80000Y132233D01*
D02*
G37*
G36*
X43858Y146555D02*
X39402D01*
Y143083D01*
X42839D01*
X43229Y143160D01*
X43560Y143381D01*
X43781Y143712D01*
X43858Y144102D01*
Y146555D01*
D02*
G37*
G36*
X38402D02*
X33945D01*
Y144102D01*
X34023Y143712D01*
X34244Y143381D01*
X34574Y143160D01*
X34965Y143083D01*
X38402D01*
Y146555D01*
D02*
G37*
G36*
X46000Y106131D02*
X41681D01*
X41057Y106007D01*
X40528Y105654D01*
X40492Y105618D01*
X38409D01*
X38059Y105473D01*
X37910Y105437D01*
X37457Y105543D01*
X37359Y105690D01*
X37028Y105911D01*
X36638Y105988D01*
X35366D01*
Y103000D01*
X34866D01*
Y102500D01*
X32075D01*
Y101031D01*
X32153Y100641D01*
X32344Y100250D01*
X32153Y99859D01*
X32075Y99468D01*
Y98000D01*
X34866D01*
Y97500D01*
X35366D01*
Y94512D01*
X36638D01*
X37028Y94590D01*
X37359Y94810D01*
X37457Y94957D01*
X37910Y95063D01*
X38059Y95027D01*
X38409Y94882D01*
X41953D01*
X42412Y95072D01*
X42559Y95427D01*
X42913Y95568D01*
X43102Y95591D01*
X44369Y94324D01*
Y88675D01*
X44358Y88668D01*
X43858Y88925D01*
Y91780D01*
X43781Y92170D01*
X43560Y92501D01*
X43229Y92721D01*
X42839Y92799D01*
X39402D01*
Y88827D01*
Y84854D01*
X42839D01*
X43229Y84932D01*
X43560Y85153D01*
X43781Y85484D01*
X43828Y85722D01*
X44261Y85851D01*
X44346Y85847D01*
X44876Y85493D01*
X45500Y85369D01*
X46124Y85493D01*
X46654Y85847D01*
X47153Y86347D01*
X47507Y86876D01*
X47631Y87500D01*
Y95000D01*
X47507Y95624D01*
X47153Y96153D01*
X44653Y98654D01*
X44124Y99007D01*
X43500Y99131D01*
X42602D01*
Y99468D01*
X42412Y99928D01*
X42287Y99979D01*
Y100521D01*
X42412Y100572D01*
X42602Y101031D01*
Y102869D01*
X46000D01*
X46624Y102993D01*
X47153Y103347D01*
X47507Y103876D01*
X47631Y104500D01*
X47507Y105124D01*
X47153Y105654D01*
X46624Y106007D01*
X46000Y106131D01*
D02*
G37*
G36*
X34366Y105988D02*
X33094D01*
X32704Y105911D01*
X32373Y105690D01*
X32153Y105359D01*
X32075Y104969D01*
Y103500D01*
X34366D01*
Y105988D01*
D02*
G37*
G36*
X34343Y113000D02*
X32051D01*
Y111531D01*
X32129Y111141D01*
X32350Y110810D01*
X32681Y110590D01*
X33071Y110512D01*
X34343D01*
Y113000D01*
D02*
G37*
G36*
X262500Y120233D02*
X261837Y120101D01*
X261274Y119726D01*
X260899Y119163D01*
X260767Y118500D01*
X260899Y117837D01*
X261274Y117274D01*
X261582Y117069D01*
Y107023D01*
X261082Y106821D01*
X260663Y107101D01*
X260000Y107233D01*
X259337Y107101D01*
X258774Y106726D01*
X258399Y106163D01*
X258267Y105500D01*
X258369Y104988D01*
Y99676D01*
X241709Y83016D01*
X241274Y82726D01*
X240899Y82163D01*
X240767Y81500D01*
X240899Y80837D01*
X241274Y80274D01*
X241837Y79899D01*
X242500Y79767D01*
X243163Y79899D01*
X243726Y80274D01*
X244016Y80709D01*
X261082Y97775D01*
X261367Y97718D01*
X261582Y97588D01*
Y68380D01*
X243863Y50661D01*
X243500Y50733D01*
X242837Y50601D01*
X242274Y50226D01*
X241899Y49663D01*
X241767Y49000D01*
X241899Y48337D01*
X242274Y47774D01*
X242837Y47399D01*
X243500Y47267D01*
X244163Y47399D01*
X244726Y47774D01*
X245101Y48337D01*
X245233Y49000D01*
X245161Y49363D01*
X263149Y67351D01*
X263348Y67649D01*
X263418Y68000D01*
Y117069D01*
X263726Y117274D01*
X264101Y117837D01*
X264233Y118500D01*
X264101Y119163D01*
X263726Y119726D01*
X263163Y120101D01*
X262500Y120233D01*
D02*
G37*
G36*
X42839Y151028D02*
X39402D01*
Y147555D01*
X43858D01*
Y150008D01*
X43781Y150398D01*
X43560Y150729D01*
X43229Y150950D01*
X42839Y151028D01*
D02*
G37*
G36*
X38402D02*
X34965D01*
X34574Y150950D01*
X34244Y150729D01*
X34023Y150398D01*
X33945Y150008D01*
Y147555D01*
X38402D01*
Y151028D01*
D02*
G37*
G36*
X47000Y171233D02*
X46337Y171101D01*
X45774Y170726D01*
X45399Y170163D01*
X45267Y169500D01*
X45399Y168837D01*
X45774Y168274D01*
X46337Y167899D01*
X46582Y167850D01*
Y155113D01*
X46311Y154941D01*
X46093Y154895D01*
X42602Y158386D01*
Y160468D01*
X42412Y160928D01*
X41953Y161118D01*
X41813D01*
Y161882D01*
X41953D01*
X42412Y162072D01*
X42602Y162531D01*
Y166469D01*
X42412Y166928D01*
X41953Y167118D01*
X38409D01*
X38059Y166973D01*
X37910Y166937D01*
X37457Y167043D01*
X37359Y167190D01*
X37028Y167411D01*
X36638Y167488D01*
X35366D01*
Y164500D01*
X34866D01*
Y164000D01*
X32075D01*
Y162531D01*
X32153Y162141D01*
X32373Y161811D01*
X32388Y161801D01*
Y161199D01*
X32373Y161189D01*
X32153Y160859D01*
X32075Y160468D01*
Y159000D01*
X34866D01*
Y158500D01*
X35366D01*
Y155512D01*
X36638D01*
X37028Y155589D01*
X37359Y155810D01*
X37457Y155957D01*
X37910Y156063D01*
X38059Y156027D01*
X38409Y155882D01*
X40492D01*
X48369Y148005D01*
Y136663D01*
X47869Y136512D01*
X47726Y136726D01*
X47291Y137016D01*
X45153Y139154D01*
X44624Y139507D01*
X44000Y139631D01*
X43488D01*
Y140953D01*
X43298Y141412D01*
X42839Y141602D01*
X34965D01*
X34505Y141412D01*
X34315Y140953D01*
Y139631D01*
X18685D01*
Y145480D01*
X18495Y145940D01*
X18035Y146130D01*
X10161D01*
X9702Y145940D01*
X9512Y145480D01*
Y130520D01*
X9702Y130061D01*
X10161Y129870D01*
X18035D01*
X18495Y130061D01*
X18685Y130520D01*
Y136369D01*
X27369D01*
Y127000D01*
X27493Y126376D01*
X27847Y125847D01*
X30847Y122846D01*
X31376Y122493D01*
X31884Y122392D01*
X32074Y122096D01*
X32136Y121869D01*
X32129Y121859D01*
X32051Y121468D01*
Y120000D01*
X34843D01*
Y119000D01*
X32051D01*
Y117532D01*
X32129Y117141D01*
X32350Y116811D01*
X32365Y116801D01*
Y116199D01*
X32350Y116190D01*
X32129Y115859D01*
X32051Y115469D01*
Y114000D01*
X34843D01*
Y113500D01*
X35342D01*
Y110512D01*
X36614D01*
X37004Y110590D01*
X37335Y110810D01*
X37433Y110957D01*
X37886Y111063D01*
X38036Y111027D01*
X38386Y110882D01*
X41929D01*
X42388Y111072D01*
X42579Y111531D01*
Y114869D01*
X43000D01*
X43624Y114993D01*
X44153Y115347D01*
X47153Y118347D01*
X47507Y118876D01*
X47631Y119500D01*
Y122000D01*
X47507Y122624D01*
X47153Y123153D01*
X45153Y125154D01*
X44624Y125507D01*
X44000Y125631D01*
X43729D01*
X43488Y125992D01*
Y127313D01*
X48314D01*
Y125055D01*
X48369Y124778D01*
Y73176D01*
X47541Y72348D01*
X43488D01*
Y73669D01*
X43298Y74129D01*
X42839Y74319D01*
X34965D01*
X34505Y74129D01*
X34315Y73669D01*
Y67764D01*
X34505Y67305D01*
X34965Y67114D01*
X38550D01*
Y66118D01*
X38409D01*
X38059Y65973D01*
X37910Y65937D01*
X37457Y66043D01*
X37359Y66189D01*
X37028Y66410D01*
X36638Y66488D01*
X35366D01*
Y63500D01*
X34866D01*
Y63000D01*
X32075D01*
Y61532D01*
X32153Y61141D01*
X32373Y60811D01*
X32388Y60801D01*
Y60199D01*
X32373Y60189D01*
X32153Y59859D01*
X32075Y59469D01*
Y58000D01*
X34866D01*
Y57500D01*
X35366D01*
Y54512D01*
X36638D01*
X37028Y54589D01*
X37359Y54811D01*
X37457Y54957D01*
X37910Y55063D01*
X38059Y55027D01*
X38409Y54882D01*
X41953D01*
X42412Y55072D01*
X42602Y55532D01*
Y55869D01*
X66153D01*
X88131Y33890D01*
X87813Y33502D01*
X87663Y33601D01*
X87000Y33733D01*
X86337Y33601D01*
X85774Y33226D01*
X85399Y32663D01*
X85267Y32000D01*
X85399Y31337D01*
X85774Y30774D01*
X86209Y30484D01*
X87369Y29324D01*
Y26513D01*
X87267Y26000D01*
X87399Y25337D01*
X87774Y24774D01*
X88209Y24484D01*
X90847Y21847D01*
X91376Y21493D01*
X92000Y21369D01*
X103500D01*
X104124Y21493D01*
X104654Y21847D01*
X107791Y24984D01*
X108226Y25274D01*
X108601Y25837D01*
X108733Y26500D01*
X108601Y27163D01*
X108226Y27726D01*
X107663Y28101D01*
X107000Y28233D01*
X106337Y28101D01*
X105774Y27726D01*
X105484Y27291D01*
X102824Y24631D01*
X92676D01*
X90631Y26676D01*
Y30000D01*
X90507Y30624D01*
X90153Y31154D01*
X88853Y32454D01*
X88853Y32461D01*
X89363Y32658D01*
X95328Y26694D01*
X95399Y26337D01*
X95774Y25774D01*
X96337Y25399D01*
X97000Y25267D01*
X97663Y25399D01*
X98226Y25774D01*
X98601Y26337D01*
X98733Y27000D01*
X98601Y27663D01*
X98569Y27712D01*
X98525Y27935D01*
X98171Y28465D01*
X67982Y58653D01*
X67453Y59007D01*
X66828Y59131D01*
X42602D01*
Y59469D01*
X42412Y59928D01*
X41953Y60118D01*
X41813D01*
Y60882D01*
X41953D01*
X42412Y61072D01*
X42602Y61532D01*
Y65469D01*
X42412Y65928D01*
X41953Y66118D01*
X41813D01*
Y67114D01*
X42839D01*
X43298Y67305D01*
X43488Y67764D01*
Y69085D01*
X48217D01*
X48841Y69209D01*
X49370Y69563D01*
X51153Y71346D01*
X51507Y71876D01*
X51631Y72500D01*
Y125000D01*
X51576Y125277D01*
Y128723D01*
X51631Y129000D01*
Y148681D01*
X51586Y148909D01*
X52047Y149155D01*
X62851Y138351D01*
X63149Y138152D01*
X63500Y138082D01*
X76069D01*
X76274Y137774D01*
X76837Y137399D01*
X77500Y137267D01*
X78163Y137399D01*
X78726Y137774D01*
X79101Y138337D01*
X79233Y139000D01*
X79101Y139663D01*
X78726Y140226D01*
X78163Y140601D01*
X77500Y140733D01*
X76837Y140601D01*
X76274Y140226D01*
X76069Y139918D01*
X63880D01*
X48418Y155380D01*
Y168562D01*
X48601Y168837D01*
X48733Y169500D01*
X48601Y170163D01*
X48226Y170726D01*
X47663Y171101D01*
X47000Y171233D01*
D02*
G37*
G36*
X34366Y167488D02*
X33094D01*
X32704Y167411D01*
X32373Y167190D01*
X32153Y166859D01*
X32075Y166469D01*
Y165000D01*
X34366D01*
Y167488D01*
D02*
G37*
G36*
Y158000D02*
X32075D01*
Y156532D01*
X32153Y156141D01*
X32373Y155810D01*
X32704Y155589D01*
X33094Y155512D01*
X34366D01*
Y158000D01*
D02*
G37*
G36*
X149000Y144233D02*
X148337Y144101D01*
X147774Y143726D01*
X147569Y143418D01*
X133431D01*
X133226Y143726D01*
X132663Y144101D01*
X132000Y144233D01*
X131337Y144101D01*
X130774Y143726D01*
X130399Y143163D01*
X130267Y142500D01*
X130399Y141837D01*
X130774Y141274D01*
X131337Y140899D01*
X132000Y140767D01*
X132663Y140899D01*
X133226Y141274D01*
X133431Y141582D01*
X147569D01*
X147774Y141274D01*
X148337Y140899D01*
X149000Y140767D01*
X149663Y140899D01*
X150226Y141274D01*
X150601Y141837D01*
X150733Y142500D01*
X150601Y143163D01*
X150226Y143726D01*
X149663Y144101D01*
X149000Y144233D01*
D02*
G37*
%LPD*%
G36*
X129918Y69808D02*
X130274Y69274D01*
X130582Y69069D01*
Y69000D01*
X130652Y68649D01*
X130851Y68351D01*
X153351Y45851D01*
X153649Y45652D01*
X154000Y45582D01*
X187120D01*
X187843Y44859D01*
X187597Y44398D01*
X187500Y44418D01*
X153380D01*
X129418Y68380D01*
Y69575D01*
X129881Y69814D01*
X129918Y69808D01*
D02*
G37*
G36*
X135582Y110620D02*
Y67500D01*
X135652Y67149D01*
X135851Y66851D01*
X153351Y49351D01*
X153649Y49152D01*
X154000Y49082D01*
X186120D01*
X187285Y47918D01*
X187077Y47418D01*
X154380D01*
X132708Y69090D01*
X132726Y69274D01*
X133101Y69837D01*
X133233Y70500D01*
X133101Y71163D01*
X132726Y71726D01*
X132418Y71931D01*
Y111500D01*
X132348Y111851D01*
X132160Y112132D01*
X132233Y112500D01*
X132101Y113163D01*
X131726Y113726D01*
X131163Y114101D01*
X130500Y114233D01*
X129837Y114101D01*
X129418Y113821D01*
X128918Y114023D01*
Y115069D01*
X129226Y115274D01*
X129601Y115837D01*
X129625Y115954D01*
X130103Y116099D01*
X135582Y110620D01*
D02*
G37*
G36*
X127152Y105977D02*
X127351Y105680D01*
X127582Y105448D01*
Y96431D01*
X127274Y96226D01*
X126899Y95663D01*
X126767Y95000D01*
X126899Y94337D01*
X127274Y93774D01*
X127582Y93569D01*
Y68000D01*
X127602Y67903D01*
X127141Y67657D01*
X124418Y70380D01*
Y104430D01*
X124844Y104798D01*
X125000Y104767D01*
X125663Y104899D01*
X126226Y105274D01*
X126601Y105837D01*
X126636Y106010D01*
X127146D01*
X127152Y105977D01*
D02*
G37*
G36*
X127314Y118119D02*
X127308Y118082D01*
X126774Y117726D01*
X126399Y117163D01*
X126267Y116500D01*
X126399Y115837D01*
X126774Y115274D01*
X127082Y115069D01*
Y107425D01*
X126619Y107186D01*
X126582Y107192D01*
X126226Y107726D01*
X125663Y108101D01*
X125000Y108233D01*
X124337Y108101D01*
X123774Y107726D01*
X123399Y107163D01*
X123267Y106500D01*
X123339Y106137D01*
X122851Y105649D01*
X122652Y105351D01*
X122582Y105000D01*
Y70834D01*
X122082Y70574D01*
X121918Y70688D01*
Y104500D01*
X121848Y104851D01*
X121649Y105149D01*
X120418Y106380D01*
Y117638D01*
X120918Y117883D01*
X121500Y117767D01*
X122163Y117899D01*
X122726Y118274D01*
X122931Y118582D01*
X127075D01*
X127314Y118119D01*
D02*
G37*
G36*
X130582Y94075D02*
Y71931D01*
X130274Y71726D01*
X129918Y71192D01*
X129881Y71186D01*
X129418Y71425D01*
Y93569D01*
X129726Y93774D01*
X130082Y94308D01*
X130119Y94314D01*
X130582Y94075D01*
D02*
G37*
G36*
X34315Y135047D02*
X34505Y134588D01*
X34965Y134398D01*
X42839D01*
X43298Y134588D01*
X43488Y135047D01*
Y135552D01*
X43950Y135743D01*
X44984Y134709D01*
X45274Y134274D01*
X45837Y133899D01*
X46500Y133767D01*
X47163Y133899D01*
X47726Y134274D01*
X47869Y134488D01*
X48369Y134337D01*
Y130576D01*
X43488D01*
Y131898D01*
X43298Y132357D01*
X42839Y132547D01*
X34965D01*
X34505Y132357D01*
X34315Y131898D01*
Y125992D01*
X34074Y125631D01*
X32676D01*
X30631Y127676D01*
Y136369D01*
X34315D01*
Y135047D01*
D02*
G37*
D16*
X34866Y103000D02*
D03*
X40181D02*
D03*
X34866Y97500D02*
D03*
X40181D02*
D03*
X34866Y57500D02*
D03*
X40181D02*
D03*
X34866Y63500D02*
D03*
X40181D02*
D03*
X34866Y158500D02*
D03*
X40181D02*
D03*
X34866Y164500D02*
D03*
X40181D02*
D03*
X34843Y119500D02*
D03*
X40157D02*
D03*
X34843Y113500D02*
D03*
X40157D02*
D03*
D29*
X97000Y27000D02*
Y27294D01*
X97017Y27311D01*
X66828Y57500D02*
X97017Y27311D01*
X77500Y31000D02*
Y38000D01*
X50000Y72500D02*
Y125000D01*
X48217Y70717D02*
X50000Y72500D01*
X49945Y125055D02*
X50000Y125000D01*
X90000Y171000D02*
X97000D01*
X82500Y163500D02*
X90000Y171000D01*
X97000D02*
X98500Y169500D01*
X171318Y96000D02*
X177200Y101882D01*
X149000Y96000D02*
X171318D01*
X177200Y102872D02*
X178828Y104500D01*
X177200Y101882D02*
Y102872D01*
X40181Y158500D02*
Y164500D01*
X45500Y87000D02*
X46000Y87500D01*
Y95000D01*
X43500Y97500D02*
X46000Y95000D01*
X191500Y129000D02*
Y132000D01*
Y129000D02*
X194500Y126000D01*
X183000Y100000D02*
X194500D01*
X182500Y100500D02*
X183000Y100000D01*
X111000Y40000D02*
X120500D01*
X107500D02*
X111000D01*
Y23000D02*
Y40000D01*
X69500Y46000D02*
Y47500D01*
Y46000D02*
X77500Y38000D01*
X99000Y141000D02*
X100300Y139700D01*
Y111700D02*
Y139700D01*
Y111700D02*
X100500Y111500D01*
X74500Y185000D02*
X78500Y181000D01*
X25000Y185000D02*
X74500D01*
X7000Y167000D02*
X25000Y185000D01*
X7000Y105000D02*
Y167000D01*
Y105000D02*
X14098Y97902D01*
Y79772D02*
Y97902D01*
X194500Y126000D02*
X195000Y125500D01*
X205500D01*
X96500Y90500D02*
X103500D01*
X167500Y26000D02*
X170500Y29000D01*
X156000Y26000D02*
X167500D01*
X140000Y10000D02*
X156000Y26000D01*
X40181Y103000D02*
X41681Y104500D01*
X46000D01*
X14098Y79772D02*
X38902D01*
X120500Y40000D02*
Y44500D01*
X105500Y38000D02*
X107500Y40000D01*
X93500Y38000D02*
X105500D01*
X40181Y57500D02*
X66828D01*
X5500Y79500D02*
X5772Y79772D01*
X14098D01*
X40181Y63500D02*
Y70665D01*
Y57500D02*
Y63500D01*
Y97500D02*
Y103000D01*
Y97500D02*
X43500D01*
X178828Y104500D02*
X186500D01*
X136000Y44000D02*
X142000Y38000D01*
Y26500D02*
Y38000D01*
X198500Y68500D02*
X207000Y77000D01*
X193000Y69500D02*
X194000Y68500D01*
X198500D01*
X111500Y116000D02*
X112500Y117000D01*
Y125500D01*
X111500Y110500D02*
X112000Y110000D01*
X111500Y110500D02*
Y116000D01*
X89000Y26000D02*
X92000Y23000D01*
X103500D01*
X107000Y26500D01*
X87000Y32000D02*
X89000Y30000D01*
Y26000D02*
Y30000D01*
X38902Y70717D02*
X40130D01*
X48217D01*
X40130D02*
X40181Y70665D01*
X40157Y116500D02*
X43000D01*
X46000Y119500D01*
Y122000D01*
X44000Y124000D02*
X46000Y122000D01*
X32000Y124000D02*
X44000D01*
X29000Y127000D02*
X32000Y124000D01*
X29000Y127000D02*
Y138000D01*
X40157Y113500D02*
Y116500D01*
Y119500D01*
X14098Y138000D02*
X29000D01*
X38902D01*
X49945Y128945D02*
X50000Y129000D01*
X38902Y128945D02*
X49945D01*
Y125055D02*
Y128945D01*
X38902Y138000D02*
X44000D01*
X46500Y135500D01*
X57500Y132500D02*
X66000D01*
X67500Y134000D01*
X50000Y129000D02*
Y148681D01*
X40181Y158500D02*
X50000Y148681D01*
X54000Y167500D02*
Y170500D01*
X58500Y175000D01*
X54000Y167500D02*
X78500D01*
X82500Y163500D01*
X260000Y99000D02*
Y105500D01*
X242500Y81500D02*
X260000Y99000D01*
X215500Y82000D02*
X218000Y84500D01*
X207500Y82000D02*
X215500D01*
X160500Y111500D02*
Y130000D01*
X154500Y136000D02*
X160500Y130000D01*
X132500Y136000D02*
X154500D01*
X131500Y137000D02*
X132500Y136000D01*
X112500Y125500D02*
X119000Y132000D01*
X153000Y104000D02*
X160500Y111500D01*
X153000Y99500D02*
Y104000D01*
X144500Y100500D02*
X149000Y96000D01*
X106000Y145000D02*
X119000Y132000D01*
X106000Y145000D02*
Y167500D01*
X119000Y132000D02*
X123000Y128000D01*
D30*
X244000Y189500D02*
Y192500D01*
X245000Y183500D02*
Y188500D01*
X246100Y196627D02*
X256811Y185916D01*
X159000Y103000D02*
X163500Y107500D01*
X185500Y80500D02*
X190500Y75500D01*
X95500Y168000D02*
X99000Y164500D01*
X93000Y168000D02*
X95500D01*
X92500Y186000D02*
X103000Y175500D01*
X77500Y186000D02*
X92500D01*
X74000Y189500D02*
X77500Y186000D01*
X262500Y68000D02*
Y118500D01*
X207000Y57000D02*
X229000D01*
X204000Y60000D02*
X207000Y57000D01*
X204000Y60000D02*
Y67500D01*
X190500Y75500D02*
X191000Y76000D01*
X185319Y72681D02*
X205000Y53000D01*
X163500Y107500D02*
X183500D01*
X170255Y92250D02*
X180505Y102500D01*
X226000D01*
X151000Y92250D02*
X170255D01*
X150000Y90000D02*
X186000D01*
X141500Y98500D02*
X150000Y90000D01*
X141500Y98500D02*
Y123500D01*
X55000Y106500D02*
X56000D01*
X113500Y95000D02*
Y96500D01*
X111500D02*
X113500D01*
X93500Y114500D02*
X111500Y96500D01*
X87500Y114500D02*
X93500D01*
X188000Y119000D02*
X215500D01*
X189000Y115500D02*
X215000D01*
X147250Y159750D02*
X188000Y119000D01*
X141500Y163000D02*
X189000Y115500D01*
X191000Y106500D02*
X215000D01*
X145000Y152500D02*
X191000Y106500D01*
X148000Y87500D02*
X183500D01*
X146000Y89500D02*
X148000Y87500D01*
X183500D02*
X191000Y80000D01*
X161000Y80500D02*
X185500D01*
X151000Y32500D02*
X180000D01*
Y133000D02*
X181000Y132000D01*
X180000Y133000D02*
Y136724D01*
X180197Y136921D01*
X181000Y129000D02*
Y132000D01*
X34866Y57500D02*
Y63500D01*
Y97500D02*
Y103000D01*
X181000Y132000D02*
X187284D01*
X186500Y50000D02*
X203000Y33500D01*
X240000Y10000D02*
Y16500D01*
X223000Y33500D02*
X240000Y16500D01*
X203000Y33500D02*
X223000D01*
X230000Y10000D02*
Y24000D01*
X202500Y31500D02*
X222500D01*
X230000Y24000D01*
X214200Y30300D02*
X220000Y24500D01*
X200700Y30300D02*
X214200D01*
X220000Y10000D02*
Y24500D01*
X187500Y43500D02*
X200700Y30300D01*
X187500Y46500D02*
X202500Y31500D01*
X186500Y41000D02*
X201500Y26000D01*
X234000D02*
X250000Y10000D01*
X197500Y22500D02*
X210000Y10000D01*
X197500Y22500D02*
Y27500D01*
X186000Y39000D02*
X197500Y27500D01*
X75500Y164500D02*
X79500Y160500D01*
X130000Y10000D02*
Y40000D01*
X130500Y40500D01*
X165000Y103000D02*
X174500D01*
X161500Y99500D02*
X165000Y103000D01*
X130500Y112500D02*
X131500Y111500D01*
Y69000D02*
X154000Y46500D01*
X187500D01*
X128000Y119500D02*
X136500Y111000D01*
X57000Y70500D02*
X110500D01*
X131500Y69000D02*
Y70500D01*
Y111500D01*
X136500Y67500D02*
Y111000D01*
Y67500D02*
X154000Y50000D01*
X186500D01*
X153000Y43500D02*
X187500D01*
X128500Y68000D02*
X153000Y43500D01*
X128000Y106328D02*
X128500Y105828D01*
X152500Y41000D02*
X186500D01*
X152000Y39000D02*
X186000D01*
X119500Y122500D02*
X120000Y123000D01*
X119500Y106000D02*
Y122500D01*
X194000Y16000D02*
X200000Y10000D01*
X194000Y16000D02*
Y27000D01*
X185000Y36000D02*
X194000Y27000D01*
X151000Y36000D02*
X185000D01*
X86500Y115500D02*
X87500Y114500D01*
X121000Y70000D02*
X152000Y39000D01*
X121000Y70000D02*
Y104500D01*
X119500Y106000D02*
X121000Y104500D01*
X117000Y70000D02*
X151000Y36000D01*
X123500Y70000D02*
X152500Y41000D01*
X123500Y70000D02*
Y105000D01*
X125000Y106500D01*
X132000Y142500D02*
X149000D01*
X56000Y106500D02*
X80000Y130500D01*
X128500Y68000D02*
Y95000D01*
Y105828D01*
X86000Y121500D02*
Y134000D01*
X79500Y115000D02*
X86000Y121500D01*
X79500Y104328D02*
Y115000D01*
Y104328D02*
X112500Y71328D01*
Y71000D02*
Y71328D01*
Y71000D02*
X151000Y32500D01*
X74000Y189500D02*
Y200000D01*
X125500Y119500D02*
Y132000D01*
X52900Y164500D02*
X75500D01*
X63500Y139000D02*
X77500D01*
X251944Y131700D02*
X252244Y132000D01*
X251944Y115944D02*
Y131700D01*
X236500Y100500D02*
X251944Y115944D01*
X257850Y131700D02*
X258150Y132000D01*
X257850Y113498D02*
Y131700D01*
X201000Y100500D02*
X236500D01*
X240676Y96324D02*
X257850Y113498D01*
X205176Y96324D02*
X240676D01*
X131000Y152500D02*
X145000D01*
X139000Y90000D02*
X139500Y89500D01*
X95000Y104500D02*
X108000Y91500D01*
X95000Y104500D02*
Y107500D01*
X97000Y117000D02*
Y128500D01*
X90000Y135500D02*
X97000Y128500D01*
X79500Y160500D02*
X97500D01*
X99000Y159000D01*
X128000Y106328D02*
Y116500D01*
X125500Y119500D02*
X128000D01*
X125500Y139500D02*
X141500Y123500D01*
X188000Y88000D02*
X222000D01*
X226000Y84000D01*
Y83000D02*
Y84000D01*
X176000Y95000D02*
X177500D01*
X189000Y112500D02*
X217500D01*
X131500Y177000D02*
X132500D01*
X147250Y162250D01*
Y159750D02*
Y162250D01*
X134000Y157500D02*
X144000D01*
X189000Y112500D01*
X138500Y163000D02*
X141500D01*
X205000Y53000D02*
X222000D01*
X233000Y42000D01*
X243000D02*
Y43000D01*
X229000Y57000D02*
X243000Y43000D01*
X200000Y200000D02*
Y200500D01*
X206000Y206500D01*
X241100D02*
X246100Y201500D01*
X206000Y206500D02*
X241100D01*
X246100Y196627D02*
Y201500D01*
X256811Y183500D02*
Y185916D01*
X244000Y189500D02*
X245000Y188500D01*
X243500Y192000D02*
X244000Y192500D01*
Y159500D02*
X247500Y163000D01*
X235000Y159500D02*
X244000D01*
X139500Y89500D02*
X146000D01*
X186000Y90000D02*
X188000Y88000D01*
X204676Y95824D02*
X205176Y96324D01*
X177500Y95000D02*
X178324Y95824D01*
X204676D01*
X191000Y80000D02*
X219000D01*
X159000Y103000D02*
Y103500D01*
X157500Y85000D02*
X169000D01*
X157000Y84500D02*
X157500Y85000D01*
X108500Y109000D02*
X117000Y100500D01*
Y70000D02*
Y100500D01*
X108500Y109000D02*
Y127500D01*
X47500Y155000D02*
X63500Y139000D01*
X47000Y169500D02*
X47500Y169000D01*
Y155000D02*
Y169000D01*
X50900Y162500D02*
X52900Y164500D01*
X56500Y162000D02*
X71500D01*
X51000Y156500D02*
X56500Y162000D01*
X121500Y119500D02*
X125500D01*
X110000Y147500D02*
X125500Y132000D01*
X110000Y147500D02*
Y151000D01*
X243500Y49000D02*
X262500Y68000D01*
X103000Y117500D02*
Y175500D01*
D32*
X200000Y10000D02*
D03*
X180000D02*
D03*
X164000Y200000D02*
D03*
X250000D02*
D03*
D33*
X210000Y10000D02*
D03*
X220000D02*
D03*
X230000D02*
D03*
X240000D02*
D03*
X250000D02*
D03*
X150000D02*
D03*
X140000D02*
D03*
X130000D02*
D03*
X120000D02*
D03*
X110000D02*
D03*
X170000D02*
D03*
X160000D02*
D03*
X154000Y200000D02*
D03*
X144000D02*
D03*
X134000D02*
D03*
X124000D02*
D03*
X114000D02*
D03*
X104000D02*
D03*
X94000D02*
D03*
X84000D02*
D03*
X74000D02*
D03*
X230000D02*
D03*
X240000D02*
D03*
X180000D02*
D03*
X190000D02*
D03*
X200000D02*
D03*
X210000D02*
D03*
X220000D02*
D03*
D34*
X203000Y42000D02*
D03*
X213000D02*
D03*
X223000D02*
D03*
X233000D02*
D03*
X243000D02*
D03*
X253000D02*
D03*
D35*
X260000Y30000D02*
D03*
X55000Y10000D02*
D03*
X60000Y200000D02*
D03*
D36*
X265000Y57000D02*
D03*
Y47000D02*
D03*
Y17000D02*
D03*
X262500Y62000D02*
D03*
X260000Y57000D02*
D03*
X262500Y52000D02*
D03*
X260000Y47000D02*
D03*
X262500Y42000D02*
D03*
X260000Y17000D02*
D03*
X262500Y12000D02*
D03*
X255000Y87000D02*
D03*
X257500Y82000D02*
D03*
X255000Y17000D02*
D03*
X257500Y12000D02*
D03*
X255000Y7000D02*
D03*
X252500Y82000D02*
D03*
X250000Y27000D02*
D03*
X252500Y22000D02*
D03*
X250000Y17000D02*
D03*
X247500Y32000D02*
D03*
X245000Y27000D02*
D03*
X247500Y22000D02*
D03*
X245000Y7000D02*
D03*
X242500Y32000D02*
D03*
X240000Y27000D02*
D03*
X242500Y22000D02*
D03*
X237500Y92000D02*
D03*
Y32000D02*
D03*
X235000Y17000D02*
D03*
Y7000D02*
D03*
X232500Y92000D02*
D03*
Y82000D02*
D03*
Y32000D02*
D03*
X227500Y92000D02*
D03*
X225000Y77000D02*
D03*
Y17000D02*
D03*
Y7000D02*
D03*
X220000Y107000D02*
D03*
X222500Y92000D02*
D03*
Y82000D02*
D03*
X217500Y62000D02*
D03*
X215000Y17000D02*
D03*
Y7000D02*
D03*
X210000Y67000D02*
D03*
X212500Y62000D02*
D03*
Y22000D02*
D03*
X210000Y17000D02*
D03*
X207500Y92000D02*
D03*
Y72000D02*
D03*
Y62000D02*
D03*
Y22000D02*
D03*
X202500D02*
D03*
X197500Y92000D02*
D03*
X195000Y57000D02*
D03*
X190000D02*
D03*
X192500Y52000D02*
D03*
X190000Y27000D02*
D03*
Y17000D02*
D03*
X192500Y12000D02*
D03*
X190000Y7000D02*
D03*
X187500Y62000D02*
D03*
X185000Y57000D02*
D03*
Y27000D02*
D03*
X187500Y22000D02*
D03*
X185000Y17000D02*
D03*
X187500Y12000D02*
D03*
X182500Y62000D02*
D03*
X180000Y57000D02*
D03*
Y27000D02*
D03*
X182500Y22000D02*
D03*
X180000Y17000D02*
D03*
X175000Y197000D02*
D03*
Y67000D02*
D03*
X177500Y62000D02*
D03*
X175000Y57000D02*
D03*
Y27000D02*
D03*
X177500Y22000D02*
D03*
X175000Y17000D02*
D03*
X172500Y202000D02*
D03*
X170000Y197000D02*
D03*
X172500Y182000D02*
D03*
X170000Y177000D02*
D03*
X172500Y172000D02*
D03*
X170000Y167000D02*
D03*
X172500Y162000D02*
D03*
X170000Y157000D02*
D03*
X172500Y152000D02*
D03*
X170000Y147000D02*
D03*
X172500Y142000D02*
D03*
Y112000D02*
D03*
Y22000D02*
D03*
X170000Y17000D02*
D03*
X167500Y182000D02*
D03*
X165000Y177000D02*
D03*
X167500Y172000D02*
D03*
X165000Y167000D02*
D03*
X167500Y162000D02*
D03*
X165000Y157000D02*
D03*
X167500Y152000D02*
D03*
X165000Y147000D02*
D03*
X167500Y112000D02*
D03*
X165000Y57000D02*
D03*
X167500Y22000D02*
D03*
X165000Y17000D02*
D03*
X160000Y177000D02*
D03*
X162500Y172000D02*
D03*
X160000Y167000D02*
D03*
X162500Y162000D02*
D03*
X160000Y157000D02*
D03*
X162500Y152000D02*
D03*
X160000Y77000D02*
D03*
X162500Y62000D02*
D03*
X160000Y57000D02*
D03*
X162500Y22000D02*
D03*
X160000Y17000D02*
D03*
X157500Y172000D02*
D03*
Y162000D02*
D03*
Y72000D02*
D03*
Y22000D02*
D03*
X155000Y17000D02*
D03*
X150000Y77000D02*
D03*
Y67000D02*
D03*
Y27000D02*
D03*
X147500Y192000D02*
D03*
Y82000D02*
D03*
X145000Y77000D02*
D03*
X147500Y72000D02*
D03*
X145000Y67000D02*
D03*
X147500Y32000D02*
D03*
X145000Y7000D02*
D03*
X137500Y32000D02*
D03*
X135000Y17000D02*
D03*
Y7000D02*
D03*
X130000Y167000D02*
D03*
Y147000D02*
D03*
X125000Y187000D02*
D03*
Y177000D02*
D03*
Y167000D02*
D03*
X127500Y162000D02*
D03*
X125000Y147000D02*
D03*
X127500Y52000D02*
D03*
X125000Y47000D02*
D03*
Y17000D02*
D03*
Y7000D02*
D03*
X120000Y187000D02*
D03*
X122500Y182000D02*
D03*
X120000Y177000D02*
D03*
X122500Y172000D02*
D03*
X120000Y157000D02*
D03*
X122500Y152000D02*
D03*
X120000Y57000D02*
D03*
X122500Y52000D02*
D03*
Y32000D02*
D03*
X120000Y17000D02*
D03*
X117500Y192000D02*
D03*
X115000Y187000D02*
D03*
X117500Y182000D02*
D03*
X115000Y177000D02*
D03*
X117500Y172000D02*
D03*
X115000Y157000D02*
D03*
X117500Y152000D02*
D03*
Y62000D02*
D03*
X115000Y57000D02*
D03*
X117500Y52000D02*
D03*
Y32000D02*
D03*
X115000Y17000D02*
D03*
Y7000D02*
D03*
X112500Y192000D02*
D03*
X110000Y187000D02*
D03*
X112500Y182000D02*
D03*
X110000Y177000D02*
D03*
X112500Y172000D02*
D03*
X110000Y17000D02*
D03*
X107500Y192000D02*
D03*
X105000Y187000D02*
D03*
X107500Y182000D02*
D03*
Y172000D02*
D03*
X105000Y107000D02*
D03*
X107500Y32000D02*
D03*
Y22000D02*
D03*
X105000Y17000D02*
D03*
Y7000D02*
D03*
X102500Y192000D02*
D03*
X100000Y187000D02*
D03*
X102500Y182000D02*
D03*
X100000Y147000D02*
D03*
Y17000D02*
D03*
X102500Y12000D02*
D03*
X100000Y7000D02*
D03*
X97500Y192000D02*
D03*
X95000Y137000D02*
D03*
X97500Y12000D02*
D03*
X92500Y192000D02*
D03*
X90000Y177000D02*
D03*
Y107000D02*
D03*
X92500Y62000D02*
D03*
Y42000D02*
D03*
X87500Y192000D02*
D03*
Y182000D02*
D03*
Y102000D02*
D03*
X85000Y67000D02*
D03*
X87500Y62000D02*
D03*
X85000Y57000D02*
D03*
X87500Y52000D02*
D03*
X82500Y112000D02*
D03*
Y92000D02*
D03*
X80000Y67000D02*
D03*
X82500Y62000D02*
D03*
X80000Y57000D02*
D03*
X82500Y52000D02*
D03*
X77500Y192000D02*
D03*
X75000Y107000D02*
D03*
Y97000D02*
D03*
Y87000D02*
D03*
X72500Y132000D02*
D03*
Y112000D02*
D03*
X70000Y107000D02*
D03*
X72500Y102000D02*
D03*
X70000Y97000D02*
D03*
X72500Y92000D02*
D03*
X70000Y87000D02*
D03*
X72500Y82000D02*
D03*
X70000Y77000D02*
D03*
Y67000D02*
D03*
Y27000D02*
D03*
X72500Y22000D02*
D03*
X70000Y17000D02*
D03*
X72500Y12000D02*
D03*
X70000Y7000D02*
D03*
X67500Y192000D02*
D03*
Y122000D02*
D03*
Y112000D02*
D03*
X65000Y107000D02*
D03*
X67500Y102000D02*
D03*
X65000Y97000D02*
D03*
X67500Y92000D02*
D03*
X65000Y87000D02*
D03*
X67500Y82000D02*
D03*
X65000Y77000D02*
D03*
Y67000D02*
D03*
X67500Y62000D02*
D03*
Y42000D02*
D03*
X65000Y27000D02*
D03*
X67500Y22000D02*
D03*
X65000Y17000D02*
D03*
X67500Y12000D02*
D03*
X65000Y7000D02*
D03*
X60000Y157000D02*
D03*
X62500Y122000D02*
D03*
Y102000D02*
D03*
X60000Y97000D02*
D03*
X62500Y92000D02*
D03*
Y82000D02*
D03*
X60000Y67000D02*
D03*
X62500Y62000D02*
D03*
Y52000D02*
D03*
Y42000D02*
D03*
X60000Y27000D02*
D03*
X62500Y22000D02*
D03*
X57500Y122000D02*
D03*
Y112000D02*
D03*
X55000Y67000D02*
D03*
X57500Y62000D02*
D03*
Y52000D02*
D03*
Y42000D02*
D03*
X55000Y27000D02*
D03*
X57500Y22000D02*
D03*
X50000Y197000D02*
D03*
X52500Y192000D02*
D03*
X50000Y67000D02*
D03*
X52500Y62000D02*
D03*
Y52000D02*
D03*
Y42000D02*
D03*
X50000Y27000D02*
D03*
X52500Y22000D02*
D03*
X47500Y202000D02*
D03*
X45000Y197000D02*
D03*
X47500Y62000D02*
D03*
Y52000D02*
D03*
Y42000D02*
D03*
X45000Y27000D02*
D03*
X47500Y22000D02*
D03*
X45000Y17000D02*
D03*
Y7000D02*
D03*
X32500Y142000D02*
D03*
X27500D02*
D03*
X25000Y107000D02*
D03*
X27500Y72000D02*
D03*
X22500Y142000D02*
D03*
X20000Y107000D02*
D03*
X22500Y72000D02*
D03*
X15000Y107000D02*
D03*
Y37000D02*
D03*
X10000Y197000D02*
D03*
Y187000D02*
D03*
Y177000D02*
D03*
Y97000D02*
D03*
Y57000D02*
D03*
Y47000D02*
D03*
Y37000D02*
D03*
Y27000D02*
D03*
Y17000D02*
D03*
Y7000D02*
D03*
X7500Y202000D02*
D03*
X5000Y197000D02*
D03*
X7500Y192000D02*
D03*
X5000Y187000D02*
D03*
X7500Y182000D02*
D03*
X5000Y177000D02*
D03*
Y97000D02*
D03*
X7500Y92000D02*
D03*
X5000Y87000D02*
D03*
Y57000D02*
D03*
X7500Y52000D02*
D03*
X5000Y47000D02*
D03*
X7500Y42000D02*
D03*
X5000Y37000D02*
D03*
X7500Y32000D02*
D03*
X5000Y27000D02*
D03*
X7500Y22000D02*
D03*
X5000Y17000D02*
D03*
X7500Y12000D02*
D03*
X5000Y7000D02*
D03*
D37*
X97000Y27000D02*
D03*
X93000Y168000D02*
D03*
X262500Y118500D02*
D03*
X204000Y67500D02*
D03*
X191000Y76000D02*
D03*
X185319Y72681D02*
D03*
X183500Y107500D02*
D03*
X151000Y92250D02*
D03*
X55000Y106500D02*
D03*
X161000Y80500D02*
D03*
X194500Y126000D02*
D03*
X181000Y129000D02*
D03*
X130500Y112500D02*
D03*
X201500Y26000D02*
D03*
X234000D02*
D03*
X125000Y106500D02*
D03*
X71500Y162000D02*
D03*
X79500Y160500D02*
D03*
X130500Y40500D02*
D03*
X174500Y103000D02*
D03*
X161500Y99500D02*
D03*
X57000Y70500D02*
D03*
X110500D02*
D03*
X131500D02*
D03*
X121500Y119500D02*
D03*
X120000Y123000D02*
D03*
X108500Y127500D02*
D03*
X86500Y115500D02*
D03*
X149000Y142500D02*
D03*
X132000D02*
D03*
X80000Y130500D02*
D03*
X113500Y95000D02*
D03*
X128500D02*
D03*
X86000Y134000D02*
D03*
X180000Y32500D02*
D03*
X169000Y85000D02*
D03*
X103000Y117500D02*
D03*
X77500Y139000D02*
D03*
X201000Y100500D02*
D03*
X99000Y164500D02*
D03*
X131000Y152500D02*
D03*
X215000Y106500D02*
D03*
X219000Y80000D02*
D03*
X139000Y90000D02*
D03*
X108000Y91500D02*
D03*
X95000Y107500D02*
D03*
X97000Y117000D02*
D03*
X90000Y135500D02*
D03*
X99000Y159000D02*
D03*
X125500Y139500D02*
D03*
X128000Y116500D02*
D03*
X226000Y83000D02*
D03*
X176000Y95000D02*
D03*
X217500Y112500D02*
D03*
X215500Y119000D02*
D03*
X131500Y177000D02*
D03*
X226000Y102500D02*
D03*
X215000Y115500D02*
D03*
X134000Y157500D02*
D03*
X138500Y163000D02*
D03*
X243500Y192000D02*
D03*
X247500Y163000D02*
D03*
X235000Y159500D02*
D03*
X243500Y49000D02*
D03*
X89000Y26000D02*
D03*
X144500Y100500D02*
D03*
X186500Y104500D02*
D03*
X159000Y103500D02*
D03*
X157000Y84500D02*
D03*
X136000Y44000D02*
D03*
X142000Y26500D02*
D03*
X218000Y84500D02*
D03*
X207500Y82000D02*
D03*
X207000Y77000D02*
D03*
X193000Y69500D02*
D03*
X160500Y111500D02*
D03*
X111500Y116000D02*
D03*
X123000Y128000D02*
D03*
X112000Y110000D02*
D03*
X107000Y26500D02*
D03*
X87000Y32000D02*
D03*
X5500Y79500D02*
D03*
X46500Y135500D02*
D03*
X57500Y132500D02*
D03*
X67500Y134000D02*
D03*
X47000Y169500D02*
D03*
X51000Y156500D02*
D03*
X50900Y162500D02*
D03*
X54000Y167500D02*
D03*
X58500Y175000D02*
D03*
X110000Y151000D02*
D03*
X106000Y167500D02*
D03*
X82500Y163500D02*
D03*
X242500Y81500D02*
D03*
X260000Y105500D02*
D03*
X131500Y137000D02*
D03*
X153000Y99500D02*
D03*
X98500Y169500D02*
D03*
D38*
X77500Y31000D02*
D03*
X45500Y87000D02*
D03*
X111000Y23000D02*
D03*
X69500Y47500D02*
D03*
X100500Y111500D02*
D03*
X78500Y181000D02*
D03*
X194500Y100000D02*
D03*
X182500Y100500D02*
D03*
X205500Y125500D02*
D03*
X96500Y90500D02*
D03*
X103500D02*
D03*
X189500Y105000D02*
D03*
X170500Y29000D02*
D03*
X46000Y104500D02*
D03*
X99000Y141000D02*
D03*
X93500Y38000D02*
D03*
X120500Y44500D02*
D03*
D39*
X38902Y88827D02*
D03*
Y79772D02*
D03*
Y70717D02*
D03*
Y147055D02*
D03*
Y138000D02*
D03*
Y128945D02*
D03*
D40*
X14098Y79772D02*
D03*
Y138000D02*
D03*
D41*
X185945Y132319D02*
D03*
X191850D02*
D03*
X197756D02*
D03*
X203661D02*
D03*
X209567D02*
D03*
X215472D02*
D03*
X221378D02*
D03*
X227284D02*
D03*
X233189D02*
D03*
X239094D02*
D03*
X245000D02*
D03*
X250905D02*
D03*
X256811D02*
D03*
Y183500D02*
D03*
X250905D02*
D03*
X245000D02*
D03*
X239094D02*
D03*
X233189D02*
D03*
X227284D02*
D03*
X221378D02*
D03*
X215472D02*
D03*
X209567D02*
D03*
X203661D02*
D03*
X197756D02*
D03*
X191850D02*
D03*
X185945D02*
D03*
D42*
X178858Y178579D02*
D03*
Y172673D02*
D03*
Y166768D02*
D03*
Y160862D02*
D03*
Y149051D02*
D03*
Y143146D02*
D03*
Y137240D02*
D03*
Y154957D02*
D03*
M02*
