G04 Layer_Color=65535*
%FSLAX25Y25*%
%MOIN*%
G70*
G01*
G75*
%ADD30C,0.00600*%
%ADD43C,0.00984*%
%ADD44C,0.00787*%
%ADD45C,0.01000*%
%ADD46C,0.00500*%
%ADD47C,0.00591*%
%ADD48C,0.00200*%
%ADD49C,0.00394*%
%ADD50C,0.00800*%
G36*
X77193Y156118D02*
X76406D01*
X75618Y156905D01*
Y157693D01*
X77193D01*
Y156118D01*
D02*
G37*
D30*
X3000Y132000D02*
Y133333D01*
X3666Y133999D01*
X4333Y133333D01*
Y132000D01*
Y133000D01*
X3000D01*
X4999Y133999D02*
Y132000D01*
X5999D01*
X6332Y132333D01*
Y133666D01*
X5999Y133999D01*
X4999D01*
X8332Y133666D02*
X7998Y133999D01*
X7332D01*
X6999Y133666D01*
Y132333D01*
X7332Y132000D01*
X7998D01*
X8332Y132333D01*
X8998Y133666D02*
X9331Y133999D01*
X9998D01*
X10331Y133666D01*
Y132333D01*
X9998Y132000D01*
X9331D01*
X8998Y132333D01*
Y133666D01*
X3000Y146000D02*
Y147333D01*
X3666Y147999D01*
X4333Y147333D01*
Y146000D01*
Y147000D01*
X3000D01*
X4999Y147999D02*
Y146000D01*
X5999D01*
X6332Y146333D01*
Y147666D01*
X5999Y147999D01*
X4999D01*
X8332Y147666D02*
X7998Y147999D01*
X7332D01*
X6999Y147666D01*
Y146333D01*
X7332Y146000D01*
X7998D01*
X8332Y146333D01*
X8998Y147666D02*
X9331Y147999D01*
X9998D01*
X10331Y147666D01*
Y147333D01*
X9998Y147000D01*
X9664D01*
X9998D01*
X10331Y146667D01*
Y146333D01*
X9998Y146000D01*
X9331D01*
X8998Y146333D01*
X3000Y156000D02*
Y157333D01*
X3666Y157999D01*
X4333Y157333D01*
Y156000D01*
Y157000D01*
X3000D01*
X4999Y157999D02*
Y156000D01*
X5999D01*
X6332Y156333D01*
Y157666D01*
X5999Y157999D01*
X4999D01*
X8332Y157666D02*
X7998Y157999D01*
X7332D01*
X6999Y157666D01*
Y156333D01*
X7332Y156000D01*
X7998D01*
X8332Y156333D01*
X10331Y157999D02*
X8998D01*
Y157000D01*
X9664Y157333D01*
X9998D01*
X10331Y157000D01*
Y156333D01*
X9998Y156000D01*
X9331D01*
X8998Y156333D01*
X3000Y167000D02*
Y168333D01*
X3666Y168999D01*
X4333Y168333D01*
Y167000D01*
Y168000D01*
X3000D01*
X4999Y168999D02*
Y167000D01*
X5999D01*
X6332Y167333D01*
Y168666D01*
X5999Y168999D01*
X4999D01*
X8332Y168666D02*
X7998Y168999D01*
X7332D01*
X6999Y168666D01*
Y167333D01*
X7332Y167000D01*
X7998D01*
X8332Y167333D01*
X8998Y168999D02*
X10331D01*
Y168666D01*
X8998Y167333D01*
Y167000D01*
X3000Y181000D02*
Y182333D01*
X3666Y182999D01*
X4333Y182333D01*
Y181000D01*
Y182000D01*
X3000D01*
X4999Y182999D02*
Y181000D01*
X5999D01*
X6332Y181333D01*
Y182666D01*
X5999Y182999D01*
X4999D01*
X8332Y182666D02*
X7998Y182999D01*
X7332D01*
X6999Y182666D01*
Y181333D01*
X7332Y181000D01*
X7998D01*
X8332Y181333D01*
X8998Y182666D02*
X9331Y182999D01*
X9998D01*
X10331Y182666D01*
Y181333D01*
X9998Y181000D01*
X9331D01*
X8998Y181333D01*
Y182666D01*
X3000Y191000D02*
Y192333D01*
X3666Y192999D01*
X4333Y192333D01*
Y191000D01*
Y192000D01*
X3000D01*
X4999Y192999D02*
Y191000D01*
X5999D01*
X6332Y191333D01*
Y192666D01*
X5999Y192999D01*
X4999D01*
X8332Y192666D02*
X7998Y192999D01*
X7332D01*
X6999Y192666D01*
Y191333D01*
X7332Y191000D01*
X7998D01*
X8332Y191333D01*
X8998Y191000D02*
X9664D01*
X9331D01*
Y192999D01*
X8998Y192666D01*
X3000Y202000D02*
Y203333D01*
X3666Y203999D01*
X4333Y203333D01*
Y202000D01*
Y203000D01*
X3000D01*
X4999Y203999D02*
Y202000D01*
X5999D01*
X6332Y202333D01*
Y203666D01*
X5999Y203999D01*
X4999D01*
X8332Y203666D02*
X7998Y203999D01*
X7332D01*
X6999Y203666D01*
Y202333D01*
X7332Y202000D01*
X7998D01*
X8332Y202333D01*
X10331Y202000D02*
X8998D01*
X10331Y203333D01*
Y203666D01*
X9998Y203999D01*
X9331D01*
X8998Y203666D01*
X3000Y122000D02*
Y123333D01*
X3666Y123999D01*
X4333Y123333D01*
Y122000D01*
Y123000D01*
X3000D01*
X4999Y123999D02*
Y122000D01*
X5999D01*
X6332Y122333D01*
Y123666D01*
X5999Y123999D01*
X4999D01*
X8332Y123666D02*
X7998Y123999D01*
X7332D01*
X6999Y123666D01*
Y122333D01*
X7332Y122000D01*
X7998D01*
X8332Y122333D01*
X8998Y122000D02*
X9664D01*
X9331D01*
Y123999D01*
X8998Y123666D01*
X3000Y111000D02*
Y112333D01*
X3666Y112999D01*
X4333Y112333D01*
Y111000D01*
Y112000D01*
X3000D01*
X4999Y112999D02*
Y111000D01*
X5999D01*
X6332Y111333D01*
Y112666D01*
X5999Y112999D01*
X4999D01*
X8332Y112666D02*
X7998Y112999D01*
X7332D01*
X6999Y112666D01*
Y111333D01*
X7332Y111000D01*
X7998D01*
X8332Y111333D01*
X10331Y111000D02*
X8998D01*
X10331Y112333D01*
Y112666D01*
X9998Y112999D01*
X9331D01*
X8998Y112666D01*
X4000Y6000D02*
X4666D01*
X4333D01*
Y7999D01*
X4000Y7666D01*
X5666D02*
X5999Y7999D01*
X6666D01*
X6999Y7666D01*
Y6333D01*
X6666Y6000D01*
X5999D01*
X5666Y6333D01*
Y7666D01*
X7666Y7333D02*
X8332Y6000D01*
X8998Y7333D01*
X4000Y18000D02*
X4666D01*
X4333D01*
Y19999D01*
X4000Y19666D01*
X5666D02*
X5999Y19999D01*
X6666D01*
X6999Y19666D01*
Y18333D01*
X6666Y18000D01*
X5999D01*
X5666Y18333D01*
Y19666D01*
X7666Y19333D02*
X8332Y18000D01*
X8998Y19333D01*
X5333Y28999D02*
X4000D01*
Y28000D01*
X4666Y28333D01*
X5000D01*
X5333Y28000D01*
Y27333D01*
X5000Y27000D01*
X4333D01*
X4000Y27333D01*
X5999Y28333D02*
X6666Y27000D01*
X7332Y28333D01*
X5333Y42999D02*
X4000D01*
Y42000D01*
X4666Y42333D01*
X5000D01*
X5333Y42000D01*
Y41333D01*
X5000Y41000D01*
X4333D01*
X4000Y41333D01*
X5999Y42333D02*
X6666Y41000D01*
X7332Y42333D01*
X4000Y53666D02*
X4333Y53999D01*
X5000D01*
X5333Y53666D01*
Y53333D01*
X5000Y53000D01*
X4666D01*
X5000D01*
X5333Y52666D01*
Y52333D01*
X5000Y52000D01*
X4333D01*
X4000Y52333D01*
X5999Y53333D02*
X6666Y52000D01*
X7332Y53333D01*
X7999Y53666D02*
X8332Y53999D01*
X8998D01*
X9332Y53666D01*
Y53333D01*
X8998Y53000D01*
X8665D01*
X8998D01*
X9332Y52666D01*
Y52333D01*
X8998Y52000D01*
X8332D01*
X7999Y52333D01*
X4000Y63666D02*
X4333Y63999D01*
X5000D01*
X5333Y63666D01*
Y63333D01*
X5000Y63000D01*
X4666D01*
X5000D01*
X5333Y62666D01*
Y62333D01*
X5000Y62000D01*
X4333D01*
X4000Y62333D01*
X5999Y63333D02*
X6666Y62000D01*
X7332Y63333D01*
X7999Y63666D02*
X8332Y63999D01*
X8998D01*
X9332Y63666D01*
Y63333D01*
X8998Y63000D01*
X8665D01*
X8998D01*
X9332Y62666D01*
Y62333D01*
X8998Y62000D01*
X8332D01*
X7999Y62333D01*
X2000Y75000D02*
Y76333D01*
X2667Y76999D01*
X3333Y76333D01*
Y75000D01*
Y76000D01*
X2000D01*
X3999Y76999D02*
Y75000D01*
X4999D01*
X5332Y75333D01*
Y76666D01*
X4999Y76999D01*
X3999D01*
X7332Y76666D02*
X6998Y76999D01*
X6332D01*
X5999Y76666D01*
Y75333D01*
X6332Y75000D01*
X6998D01*
X7332Y75333D01*
X7998Y76666D02*
X8331Y76999D01*
X8998D01*
X9331Y76666D01*
Y76333D01*
X8998Y76000D01*
X8664D01*
X8998D01*
X9331Y75666D01*
Y75333D01*
X8998Y75000D01*
X8331D01*
X7998Y75333D01*
X5000Y97999D02*
Y96000D01*
X6000D01*
X6333Y96333D01*
Y97666D01*
X6000Y97999D01*
X5000D01*
X8332D02*
X7666Y97666D01*
X6999Y97000D01*
Y96333D01*
X7333Y96000D01*
X7999D01*
X8332Y96333D01*
Y96666D01*
X7999Y97000D01*
X6999D01*
D43*
X90772Y59543D02*
G03*
X90772Y59543I-492J0D01*
G01*
X187334Y87209D02*
G03*
X187334Y87209I-492J0D01*
G01*
X67647Y169312D02*
G03*
X67647Y169312I-492J0D01*
G01*
X84804Y157585D02*
G03*
X84804Y157585I-492J0D01*
G01*
X154016Y114626D02*
G03*
X154016Y114626I-492J0D01*
G01*
X76110Y159661D02*
G03*
X76110Y159661I-492J0D01*
G01*
X204834Y87209D02*
G03*
X204834Y87209I-492J0D01*
G01*
X72307Y76472D02*
G03*
X72307Y76472I-492J0D01*
G01*
X93547D02*
G03*
X93547Y76472I-492J0D01*
G01*
D44*
X157953Y132291D02*
G03*
X157953Y132291I-394J0D01*
G01*
X75618Y157693D02*
G03*
X77193Y156118I1575J0D01*
G01*
X92839Y58461D02*
Y60134D01*
X94512D01*
X108488D02*
X110161D01*
Y58461D02*
Y60134D01*
Y42811D02*
Y44484D01*
X108488Y42811D02*
X110161D01*
X92839D02*
Y44484D01*
Y42811D02*
X94512D01*
X185563Y79925D02*
Y83862D01*
X182511Y79925D02*
X185563D01*
X173752D02*
Y83862D01*
Y79925D02*
X176803D01*
X68435Y172658D02*
Y176595D01*
X71486D01*
X80246Y172658D02*
Y176595D01*
X77194D02*
X80246D01*
X87658Y156306D02*
X91595D01*
Y153254D02*
Y156306D01*
X87658Y144494D02*
X91595D01*
Y147546D01*
X150965Y114035D02*
Y115118D01*
X149882Y114035D02*
X150965D01*
X134035D02*
X135118D01*
X134035D02*
Y115118D01*
Y129882D02*
Y130965D01*
X135118D01*
X150965Y129882D02*
Y130965D01*
X149882D02*
X150965D01*
X77193Y156118D02*
Y157693D01*
X75618D02*
X77193D01*
X63807Y156118D02*
Y157693D01*
X65382D01*
X63807Y144307D02*
X65382D01*
X63807D02*
Y145882D01*
X77193Y144307D02*
Y145882D01*
X75618Y144307D02*
X77193D01*
X203063Y79925D02*
Y83862D01*
X200011Y79925D02*
X203063D01*
X191252D02*
Y83862D01*
Y79925D02*
X194303D01*
X73094Y79819D02*
Y83756D01*
X76146D01*
X84905Y79819D02*
Y83756D01*
X81854D02*
X84905D01*
X94335Y79819D02*
Y83756D01*
X97386D01*
X106146Y79819D02*
Y83756D01*
X103094D02*
X106146D01*
D45*
X36699Y37000D02*
G03*
X36699Y37000I-1000J0D01*
G01*
Y2000D02*
G03*
X36699Y2000I-1000J0D01*
G01*
Y142000D02*
G03*
X36699Y142000I-1000J0D01*
G01*
Y177000D02*
G03*
X36699Y177000I-1000J0D01*
G01*
Y107000D02*
G03*
X36699Y107000I-1000J0D01*
G01*
Y72000D02*
G03*
X36699Y72000I-1000J0D01*
G01*
X234301Y80000D02*
G03*
X234301Y80000I-1000J0D01*
G01*
Y122500D02*
G03*
X234301Y122500I-1000J0D01*
G01*
X195000Y10000D02*
Y15000D01*
X205000D01*
Y5000D02*
X255000D01*
Y15000D01*
X205000D02*
X255000D01*
X205000Y5000D02*
Y15000D01*
X195000Y5000D02*
X205000D01*
X195000D02*
Y10000D01*
X185000Y5000D02*
Y15000D01*
X105000Y5000D02*
X185000D01*
X105000D02*
Y15000D01*
X185000D01*
X175000Y5000D02*
Y15000D01*
X169000Y195000D02*
Y205000D01*
X159000Y195000D02*
X169000D01*
X159000D02*
Y205000D01*
X69000D02*
X159000D01*
X69000Y195000D02*
Y205000D01*
Y195000D02*
X159000D01*
Y205000D02*
X169000D01*
X245000Y195000D02*
Y205000D01*
X175000D02*
X255000D01*
X175000Y195000D02*
Y205000D01*
Y195000D02*
X255000D01*
Y205000D01*
X208999Y176998D02*
X207000D01*
Y173999D01*
X208999D01*
X207000Y175498D02*
X208000D01*
X209999Y176998D02*
Y173999D01*
X211498D01*
X211998Y174499D01*
Y176498D01*
X211498Y176998D01*
X209999D01*
X212998D02*
Y173999D01*
X214997D01*
X220995Y176498D02*
X220496Y176998D01*
X219496D01*
X218996Y176498D01*
Y174499D01*
X219496Y173999D01*
X220496D01*
X220995Y174499D01*
X222495Y173999D02*
X223495D01*
X223994Y174499D01*
Y175498D01*
X223495Y175998D01*
X222495D01*
X221995Y175498D01*
Y174499D01*
X222495Y173999D01*
X224994D02*
Y175998D01*
X226494D01*
X226993Y175498D01*
Y173999D01*
X228493Y176498D02*
Y175998D01*
X227993D01*
X228993D01*
X228493D01*
Y174499D01*
X228993Y173999D01*
X230492Y175998D02*
Y173999D01*
Y174998D01*
X230992Y175498D01*
X231492Y175998D01*
X231992D01*
X233991Y173999D02*
X234991D01*
X235491Y174499D01*
Y175498D01*
X234991Y175998D01*
X233991D01*
X233491Y175498D01*
Y174499D01*
X233991Y173999D01*
X236491D02*
X237490D01*
X236990D01*
Y176998D01*
X236491D01*
X241989D02*
Y173999D01*
X243488D01*
X243988Y174499D01*
Y174998D01*
X243488Y175498D01*
X241989D01*
X243488D01*
X243988Y175998D01*
Y176498D01*
X243488Y176998D01*
X241989D01*
X245488Y173999D02*
X246487D01*
X246987Y174499D01*
Y175498D01*
X246487Y175998D01*
X245488D01*
X244988Y175498D01*
Y174499D01*
X245488Y173999D01*
X248487Y175998D02*
X249486D01*
X249986Y175498D01*
Y173999D01*
X248487D01*
X247987Y174499D01*
X248487Y174998D01*
X249986D01*
X250986Y175998D02*
Y173999D01*
Y174998D01*
X251486Y175498D01*
X251985Y175998D01*
X252485D01*
X255984Y176998D02*
Y173999D01*
X254485D01*
X253985Y174499D01*
Y175498D01*
X254485Y175998D01*
X255984D01*
D46*
X162874Y125402D02*
Y126189D01*
X156575Y125402D02*
Y126189D01*
X94000Y190293D02*
X94942Y189350D01*
Y188408D01*
X94000D01*
X93058Y189350D01*
X93764Y188644D01*
X94707Y189586D01*
X92586Y188879D02*
X94000Y187465D01*
X93293Y186758D01*
X92822D01*
X92351Y187230D01*
Y187701D01*
X93058Y188408D01*
X92586Y187937D02*
X91644D01*
Y185109D02*
X92586Y186052D01*
X91172Y187465D01*
X90230Y186523D01*
X91879Y186758D02*
X91408Y186287D01*
X90230Y183695D02*
X91172Y184638D01*
X90466Y185345D01*
X89994Y184873D01*
X90466Y185345D01*
X89759Y186052D01*
X104236Y188172D02*
X104707D01*
X105178Y188644D01*
X105178Y189115D01*
X104236Y190057D01*
X103764D01*
X103293Y189586D01*
X103293Y189115D01*
X103764Y188644D01*
X104236Y189115D01*
X102586Y188879D02*
X104000Y187465D01*
X101644Y187937D01*
X103058Y186523D01*
X102586Y186052D02*
X101172Y187465D01*
X100466Y186758D01*
X100466Y186287D01*
X101408Y185345D01*
X101879D01*
X102586Y186052D01*
X115414Y188879D02*
X114943Y188408D01*
X115178Y188644D01*
X113764Y190057D01*
X114000Y190293D01*
X113529Y189822D01*
X113529Y186994D02*
X114000Y187465D01*
X114000Y187937D01*
X113057Y188879D01*
X112586D01*
X112115Y188408D01*
Y187937D01*
X113057Y186994D01*
X113529D01*
X111408Y187701D02*
X110937Y187230D01*
X111172Y187465D01*
X112586Y186052D01*
X112586Y186523D01*
X111408Y185345D02*
Y184873D01*
X110937Y184402D01*
X110466D01*
X110230Y184638D01*
Y185109D01*
X110466Y185345D01*
X110230Y185109D01*
X109759Y185109D01*
X109523Y185345D01*
X109523Y185816D01*
X109994Y186287D01*
X110466D01*
X125414Y188879D02*
X124943Y188408D01*
X125178Y188644D01*
X123764Y190057D01*
X124000Y190293D01*
X123529Y189822D01*
X123529Y186994D02*
X124000Y187465D01*
X124000Y187937D01*
X123057Y188879D01*
X122586D01*
X122115Y188408D01*
Y187937D01*
X123057Y186994D01*
X123529D01*
X121408Y187701D02*
X120937Y187230D01*
X121172Y187465D01*
X122586Y186052D01*
X122586Y186523D01*
X119288Y185580D02*
X120230Y186523D01*
Y184638D01*
X120466Y184402D01*
X120937D01*
X121408Y184873D01*
Y185345D01*
X135414Y188879D02*
X134942Y188408D01*
X135178Y188644D01*
X133764Y190057D01*
X134000Y190293D01*
X133529Y189822D01*
X133529Y186994D02*
X134000Y187465D01*
X134000Y187937D01*
X133057Y188879D01*
X132586D01*
X132115Y188408D01*
Y187937D01*
X133057Y186994D01*
X133529D01*
X131408Y187701D02*
X130937Y187230D01*
X131173Y187465D01*
X132586Y186052D01*
X132586Y186523D01*
X130230D02*
X129759Y186052D01*
X129994Y186287D01*
X131408Y184873D01*
Y185345D01*
X128816Y182753D02*
X128816Y182282D01*
X128345Y181810D01*
X128345Y181339D01*
X145414Y189586D02*
X144942Y189115D01*
X145178Y189351D01*
X143764Y190764D01*
X144000Y191000D01*
X143529Y190529D01*
X143529Y187701D02*
X144000Y188172D01*
X144000Y188644D01*
X143058Y189586D01*
X142586D01*
X142115Y189115D01*
Y188644D01*
X143058Y187701D01*
X143529D01*
X141408Y188408D02*
X140937Y187937D01*
X141173Y188172D01*
X142586Y186759D01*
X142586Y187230D01*
X141408Y186052D02*
Y185581D01*
X140937Y185109D01*
X140466D01*
X139523Y186052D01*
X139523Y186523D01*
X139994Y186994D01*
X140466D01*
X141408Y186052D01*
X138581Y183224D02*
X138581Y182753D01*
X138109Y182282D01*
X138109Y181811D01*
X155414Y189586D02*
X154943Y189115D01*
X155178Y189351D01*
X153764Y190764D01*
X154000Y191000D01*
X153529Y190529D01*
X153529Y187701D02*
X154000Y188172D01*
X154000Y188644D01*
X153058Y189586D01*
X152586D01*
X152115Y189115D01*
Y188644D01*
X153058Y187701D01*
X153529D01*
X151644Y188172D02*
X151172D01*
X150701Y187701D01*
X150701Y187230D01*
X151644Y186287D01*
X152115D01*
X152586Y186759D01*
X152586Y187230D01*
X152351Y187466D01*
X151879Y187466D01*
X151172Y186759D01*
X149759Y184403D02*
X149759Y183931D01*
X149287Y183460D01*
X149287Y182989D01*
X165414Y189586D02*
X164943Y189115D01*
X165178Y189351D01*
X163764Y190764D01*
X164000Y191000D01*
X163529Y190529D01*
X163529Y187701D02*
X164000Y188172D01*
X164000Y188644D01*
X163057Y189586D01*
X162586D01*
X162115Y189115D01*
Y188644D01*
X163057Y187701D01*
X163529D01*
X162586Y187230D02*
X162586Y186759D01*
X162115Y186287D01*
X161644D01*
X161408Y186523D01*
Y186994D01*
X160937Y186994D01*
X160701Y187230D01*
X160701Y187701D01*
X161172Y188172D01*
X161644D01*
X161879Y187937D01*
Y187466D01*
X162351Y187466D01*
X162586Y187230D01*
X161879Y187466D02*
X161408Y186994D01*
X181914Y189879D02*
X181442Y189408D01*
X181678Y189644D01*
X180264Y191057D01*
X180500Y191293D01*
X180029Y190822D01*
X180029Y187994D02*
X180500Y188465D01*
X180500Y188937D01*
X179558Y189879D01*
X179086D01*
X178615Y189408D01*
Y188937D01*
X179558Y187994D01*
X180029D01*
X179322Y187287D02*
X178379Y186345D01*
X178144Y186580D01*
Y188465D01*
X177908Y188701D01*
X191914Y189879D02*
X191443Y189408D01*
X191678Y189644D01*
X190264Y191057D01*
X190500Y191293D01*
X190029Y190822D01*
X190029Y187994D02*
X190500Y188465D01*
X190500Y188937D01*
X189558Y189879D01*
X189086D01*
X188615Y189408D01*
Y188937D01*
X189558Y187994D01*
X190029D01*
X188379Y186345D02*
X188615Y187052D01*
Y187994D01*
X188144Y188465D01*
X187672D01*
X187201Y187994D01*
X187201Y187523D01*
X187437Y187287D01*
X187908Y187287D01*
X188615Y187994D01*
X186259Y184695D02*
X186259Y184224D01*
X185787Y183753D01*
X185787Y183282D01*
X201914Y189879D02*
X201443Y189408D01*
X201678Y189644D01*
X200264Y191057D01*
X200500Y191293D01*
X200029Y190822D01*
X200029Y187994D02*
X200500Y188465D01*
X200500Y188937D01*
X199557Y189879D01*
X199086D01*
X198615Y189408D01*
Y188937D01*
X199557Y187994D01*
X200029D01*
X198379Y186345D02*
X199322Y187287D01*
X198615Y187994D01*
X198379Y187287D01*
X198144Y187052D01*
X197672D01*
X197201Y187523D01*
X197201Y187994D01*
X197672Y188465D01*
X198144D01*
X196259Y184695D02*
X196259Y184224D01*
X195788Y183753D01*
X195788Y183282D01*
X211914Y189879D02*
X211442Y189408D01*
X211678Y189644D01*
X210264Y191057D01*
X210500Y191293D01*
X210029Y190822D01*
X210029Y187994D02*
X210500Y188465D01*
X210500Y188937D01*
X209558Y189879D01*
X209086D01*
X208615Y189408D01*
Y188937D01*
X209558Y187994D01*
X210029D01*
X207201D02*
X208615Y186580D01*
Y187994D01*
X207673Y187052D01*
X221914Y189879D02*
X221443Y189408D01*
X221678Y189644D01*
X220264Y191057D01*
X220500Y191293D01*
X220029Y190822D01*
X220029Y187994D02*
X220500Y188465D01*
X220500Y188937D01*
X219557Y189879D01*
X219086D01*
X218615Y189408D01*
Y188937D01*
X219557Y187994D01*
X220029D01*
X219086Y187523D02*
X219086Y187052D01*
X218615Y186580D01*
X218144D01*
X217908Y186816D01*
Y187287D01*
X218144Y187523D01*
X217908Y187287D01*
X217437Y187287D01*
X217201Y187523D01*
X217201Y187994D01*
X217672Y188465D01*
X218144D01*
X216259Y184695D02*
X216259Y184224D01*
X215788Y183753D01*
X215788Y183282D01*
X231914Y189879D02*
X231442Y189408D01*
X231678Y189644D01*
X230264Y191057D01*
X230500Y191293D01*
X230029Y190822D01*
X230029Y187994D02*
X230500Y188465D01*
X230500Y188937D01*
X229557Y189879D01*
X229086D01*
X228615Y189408D01*
Y188937D01*
X229557Y187994D01*
X230029D01*
X226966Y187759D02*
X227908Y188701D01*
Y186816D01*
X228144Y186580D01*
X228615D01*
X229086Y187052D01*
X229086Y187523D01*
X241914Y189879D02*
X241442Y189408D01*
X241678Y189644D01*
X240264Y191057D01*
X240500Y191293D01*
X240029Y190822D01*
X240029Y187994D02*
X240500Y188465D01*
X240500Y188937D01*
X239558Y189879D01*
X239086D01*
X238615Y189408D01*
Y188937D01*
X239558Y187994D01*
X240029D01*
X237908Y188701D02*
X237437Y188230D01*
X237672Y188465D01*
X239086Y187052D01*
X239086Y187523D01*
X251914Y189879D02*
X251443Y189408D01*
X251678Y189644D01*
X250264Y191057D01*
X250500Y191293D01*
X250029Y190822D01*
X250029Y187994D02*
X250500Y188465D01*
X250500Y188937D01*
X249557Y189879D01*
X249086D01*
X248615Y189408D01*
Y188937D01*
X249557Y187994D01*
X250029D01*
X249086Y187523D02*
X249086Y187052D01*
X248615Y186580D01*
X248144D01*
X247201Y187523D01*
X247201Y187994D01*
X247673Y188465D01*
X248144D01*
X249086Y187523D01*
X250000Y18707D02*
X249058Y19650D01*
Y20592D01*
X250000D01*
X250942Y19650D01*
X250236Y20357D01*
X249293Y19414D01*
X250000Y21535D02*
X251414Y20121D01*
X252121Y20828D01*
Y21299D01*
X251178Y22242D01*
X250707D01*
X250000Y21535D01*
X252356Y23891D02*
X251414Y22948D01*
X252121Y22242D01*
X252356Y22948D01*
X252592Y23184D01*
X253063D01*
X253534Y22713D01*
X253534Y22242D01*
X253063Y21770D01*
X252592D01*
X240000Y18707D02*
X239057Y19650D01*
Y20592D01*
X240000D01*
X240943Y19650D01*
X240236Y20357D01*
X239293Y19414D01*
X240000Y21535D02*
X241414Y20121D01*
X242121Y20828D01*
Y21299D01*
X241178Y22242D01*
X240707D01*
X240000Y21535D01*
X243534Y22242D02*
X242121Y23655D01*
Y22242D01*
X243063Y23184D01*
X230000Y18707D02*
X229058Y19650D01*
Y20592D01*
X230000D01*
X230943Y19650D01*
X230236Y20357D01*
X229293Y19414D01*
X230000Y21535D02*
X231414Y20121D01*
X232121Y20828D01*
Y21299D01*
X231178Y22242D01*
X230707D01*
X230000Y21535D01*
X231649Y22713D02*
Y23184D01*
X232121Y23655D01*
X232592D01*
X232827Y23420D01*
Y22948D01*
X232592Y22713D01*
X232827Y22948D01*
X233299Y22948D01*
X233534Y22713D01*
X233534Y22242D01*
X233063Y21770D01*
X232592D01*
X220000Y18707D02*
X219057Y19650D01*
Y20592D01*
X220000D01*
X220942Y19650D01*
X220236Y20357D01*
X219293Y19414D01*
X220000Y21535D02*
X221414Y20121D01*
X222121Y20828D01*
Y21299D01*
X221178Y22242D01*
X220707D01*
X220000Y21535D01*
X223770Y22477D02*
X222828Y21535D01*
Y23420D01*
X222592Y23655D01*
X222121D01*
X221649Y23184D01*
Y22713D01*
X210000Y18707D02*
X209057Y19650D01*
Y20592D01*
X210000D01*
X210943Y19650D01*
X210236Y20357D01*
X209293Y19414D01*
X210000Y21535D02*
X211414Y20121D01*
X212121Y20828D01*
Y21299D01*
X211178Y22242D01*
X210707D01*
X210000Y21535D01*
X212827D02*
X213299Y22006D01*
X213063Y21770D01*
X211649Y23184D01*
Y22713D01*
X200000Y18707D02*
X199057Y19650D01*
Y20592D01*
X200000D01*
X200942Y19650D01*
X200236Y20357D01*
X199293Y19414D01*
X200000Y21535D02*
X201414Y20121D01*
X202121Y20828D01*
Y21299D01*
X201178Y22242D01*
X200707D01*
X200000Y21535D01*
X201649Y22713D02*
Y23184D01*
X202121Y23655D01*
X202592D01*
X203534Y22713D01*
X203534Y22242D01*
X203063Y21770D01*
X202592D01*
X201649Y22713D01*
X178586Y20121D02*
X179529Y19178D01*
X180471D01*
Y20121D01*
X179529Y21063D01*
X181414Y20121D02*
X181885Y20592D01*
X181649Y20357D01*
X180707Y21299D01*
X180471Y21063D01*
X182592Y21299D02*
X181649Y22242D01*
X182356Y22948D01*
X182827D01*
X183534Y22242D01*
X169764Y20828D02*
X169293D01*
X168822Y20357D01*
X168822Y19885D01*
X169764Y18943D01*
X170236D01*
X170707Y19414D01*
X170707Y19885D01*
X170236Y20357D01*
X169764Y19885D01*
X171414Y20121D02*
X170000Y21535D01*
X172356Y21063D01*
X170942Y22477D01*
X171414Y22948D02*
X172827Y21535D01*
X173534Y22242D01*
X173534Y22713D01*
X172592Y23655D01*
X172121D01*
X171414Y22948D01*
X159764Y20828D02*
X159293D01*
X158822Y20357D01*
X158822Y19885D01*
X159764Y18943D01*
X160236D01*
X160707Y19414D01*
X160707Y19885D01*
X160236Y20357D01*
X159764Y19885D01*
X161414Y20121D02*
X160000Y21535D01*
X162356Y21063D01*
X160942Y22477D01*
X161414Y22948D02*
X162828Y21535D01*
X163534Y22242D01*
X163534Y22713D01*
X162592Y23655D01*
X162121D01*
X161414Y22948D01*
X149529Y21063D02*
X148586Y20121D01*
X149293Y19414D01*
X149529Y20121D01*
X149764Y20357D01*
X150236D01*
X150707Y19885D01*
X150707Y19414D01*
X150236Y18943D01*
X149764D01*
X150471Y21063D02*
X151885Y20592D01*
X151414Y22006D01*
X138822Y19885D02*
X138822Y20357D01*
X139293Y20828D01*
X139764D01*
X140000Y20592D01*
Y20121D01*
X139764Y19885D01*
X140000Y20121D01*
X140471Y20121D01*
X140707Y19885D01*
X140707Y19414D01*
X140236Y18943D01*
X139764D01*
X140471Y21063D02*
X141885Y20592D01*
X141414Y22006D01*
X141649Y22713D02*
Y23184D01*
X142121Y23655D01*
X142592D01*
X142827Y23420D01*
Y22948D01*
X142592Y22713D01*
X142827Y22948D01*
X143299Y22948D01*
X143534Y22713D01*
X143534Y22242D01*
X143063Y21770D01*
X142592D01*
X130000Y18707D02*
X128586Y20121D01*
X129293Y20828D01*
X129764D01*
X130236Y20357D01*
X130236Y19885D01*
X129529Y19178D01*
X130000Y19650D02*
X130942D01*
Y22477D02*
X130000Y21535D01*
X131414Y20121D01*
X132356Y21063D01*
X130707Y20828D02*
X131178Y21299D01*
X132592Y23655D02*
X132121D01*
X131649Y23184D01*
Y22713D01*
X131885Y22477D01*
X132356Y22477D01*
X132827Y22948D01*
X133299Y22948D01*
X133534Y22713D01*
X133534Y22242D01*
X133063Y21770D01*
X132592D01*
X133770Y25305D02*
X132827Y24362D01*
X134241Y22948D01*
X135184Y23891D01*
X133534Y23655D02*
X134006Y24126D01*
X134241Y25776D02*
X135184Y26718D01*
X134713Y26247D01*
X136126Y24833D01*
X178086Y-250086D02*
X179029Y-251029D01*
X179971D01*
Y-250086D01*
X179029Y-249144D01*
X180914Y-250086D02*
X181385Y-249615D01*
X181149Y-249851D01*
X180207Y-248908D01*
X179971Y-249144D01*
X182092Y-248908D02*
X181149Y-247966D01*
X181856Y-247259D01*
X182327D01*
X183034Y-247966D01*
X169264Y-249379D02*
X168793D01*
X168322Y-249851D01*
X168322Y-250322D01*
X169264Y-251264D01*
X169736D01*
X170207Y-250793D01*
X170207Y-250322D01*
X169736Y-249851D01*
X169264Y-250322D01*
X170914Y-250086D02*
X169500Y-248673D01*
X171856Y-249144D01*
X170442Y-247730D01*
X170914Y-247259D02*
X172327Y-248673D01*
X173034Y-247966D01*
X173034Y-247494D01*
X172092Y-246552D01*
X171621D01*
X170914Y-247259D01*
X159264Y-249379D02*
X158793D01*
X158322Y-249851D01*
X158322Y-250322D01*
X159264Y-251264D01*
X159736D01*
X160207Y-250793D01*
X160207Y-250322D01*
X159736Y-249851D01*
X159264Y-250322D01*
X160914Y-250086D02*
X159500Y-248673D01*
X161856Y-249144D01*
X160442Y-247730D01*
X160914Y-247259D02*
X162328Y-248673D01*
X163034Y-247966D01*
X163034Y-247494D01*
X162092Y-246552D01*
X161621D01*
X160914Y-247259D01*
X149029Y-249144D02*
X148086Y-250086D01*
X148793Y-250793D01*
X149029Y-250086D01*
X149264Y-249851D01*
X149736D01*
X150207Y-250322D01*
X150207Y-250793D01*
X149736Y-251264D01*
X149264D01*
X149971Y-249144D02*
X151385Y-249615D01*
X150914Y-248201D01*
X138322Y-250322D02*
X138322Y-249851D01*
X138793Y-249379D01*
X139264D01*
X139500Y-249615D01*
Y-250086D01*
X139264Y-250322D01*
X139500Y-250086D01*
X139971Y-250086D01*
X140207Y-250322D01*
X140207Y-250793D01*
X139736Y-251264D01*
X139264D01*
X139971Y-249144D02*
X141385Y-249615D01*
X140914Y-248201D01*
X141149Y-247494D02*
Y-247023D01*
X141621Y-246552D01*
X142092D01*
X142327Y-246788D01*
Y-247259D01*
X142092Y-247494D01*
X142327Y-247259D01*
X142799Y-247259D01*
X143034Y-247494D01*
X143034Y-247966D01*
X142563Y-248437D01*
X142092D01*
X129500Y-251500D02*
X128086Y-250086D01*
X128793Y-249379D01*
X129264D01*
X129736Y-249851D01*
X129736Y-250322D01*
X129029Y-251029D01*
X129500Y-250557D02*
X130443D01*
Y-247730D02*
X129500Y-248673D01*
X130914Y-250086D01*
X131856Y-249144D01*
X130207Y-249379D02*
X130678Y-248908D01*
X132092Y-246552D02*
X131621D01*
X131149Y-247023D01*
Y-247494D01*
X131385Y-247730D01*
X131856Y-247730D01*
X132327Y-247259D01*
X132799Y-247259D01*
X133034Y-247494D01*
X133034Y-247966D01*
X132563Y-248437D01*
X132092D01*
X133270Y-244902D02*
X132327Y-245845D01*
X133741Y-247259D01*
X134684Y-246316D01*
X133034Y-246552D02*
X133506Y-246081D01*
X133741Y-244431D02*
X134684Y-243489D01*
X134213Y-243960D01*
X135626Y-245374D01*
X118086Y20121D02*
X118558Y20592D01*
X118322Y20357D01*
X119736Y18943D01*
X119500Y18707D01*
X119971Y19178D01*
X119971Y22006D02*
X119500Y21535D01*
X119500Y21063D01*
X120442Y20121D01*
X120914D01*
X121385Y20592D01*
Y21063D01*
X120442Y22006D01*
X119971D01*
X122092Y21299D02*
X120678Y22713D01*
X121385Y23420D01*
X121856D01*
X122327Y22948D01*
Y22477D01*
X121621Y21770D01*
X122092Y22242D02*
X123034D01*
Y25069D02*
X122092Y24126D01*
X123506Y22713D01*
X124448Y23655D01*
X122799Y23420D02*
X123270Y23891D01*
X124448Y26483D02*
X123506Y25540D01*
X124213Y24833D01*
X124684Y25305D01*
X124213Y24833D01*
X124919Y24126D01*
X84236Y188672D02*
X84707D01*
X85178Y189144D01*
X85178Y189615D01*
X84943Y189850D01*
X84471Y189850D01*
X84000Y189379D01*
X83529Y189379D01*
X83293Y189615D01*
X83293Y190086D01*
X83764Y190557D01*
X84236D01*
X84000Y187965D02*
X82586Y189379D01*
X81879Y188672D01*
Y188201D01*
X82822Y187259D01*
X83293D01*
X84000Y187965D01*
X81173D02*
X82115Y187023D01*
Y186080D01*
X81173D01*
X80230Y187023D01*
X80937Y186316D01*
X81879Y187259D01*
X74236Y188172D02*
X74707D01*
X75178Y188644D01*
X75178Y189115D01*
X74942Y189350D01*
X74471Y189350D01*
X74000Y188879D01*
X73529Y188879D01*
X73293Y189115D01*
X73293Y189586D01*
X73764Y190057D01*
X74236D01*
X72822Y186758D02*
X73293D01*
X73764Y187230D01*
X73764Y187701D01*
X72822Y188644D01*
X72351D01*
X71879Y188172D01*
Y187701D01*
X72586Y186052D02*
X71172Y187465D01*
X70230Y186523D01*
D47*
X195157Y70417D02*
X199157D01*
X198657Y74917D02*
X199157D01*
Y65917D02*
Y74917D01*
X198657Y65917D02*
X199157D01*
X195157D02*
X195657D01*
X195157D02*
Y74917D01*
X195657D01*
X177657Y70417D02*
X181657D01*
X181157Y74917D02*
X181657D01*
Y65917D02*
Y74917D01*
X181157Y65917D02*
X181657D01*
X177657D02*
X178157D01*
X177657D02*
Y74917D01*
X178157D01*
X167657Y95417D02*
X171657D01*
X167657Y90917D02*
X168157D01*
X167657D02*
Y99917D01*
X168157D01*
X171157D02*
X171657D01*
Y90917D02*
Y99917D01*
X171157Y90917D02*
X171657D01*
X165500Y114224D02*
Y119736D01*
X159988Y118555D02*
Y119736D01*
X171012D01*
Y118555D02*
Y119736D01*
Y114224D02*
Y115405D01*
X159988Y114224D02*
X171012D01*
X159988D02*
Y115405D01*
X146500Y102000D02*
X150500D01*
X150000Y106500D02*
X150500D01*
Y97500D02*
Y106500D01*
X150000Y97500D02*
X150500D01*
X146500D02*
X147000D01*
X146500D02*
Y106500D01*
X147000D01*
X143681Y110650D02*
X144468D01*
Y102776D02*
Y110650D01*
X143681Y102776D02*
X144468D01*
X140532D02*
X141319D01*
X140532D02*
Y110650D01*
X141319D01*
X134500Y102980D02*
Y106980D01*
X130000Y106480D02*
Y106980D01*
X139000D01*
Y106480D02*
Y106980D01*
Y102980D02*
Y103480D01*
X130000Y102980D02*
X139000D01*
X130000D02*
Y103480D01*
X123736Y116480D02*
Y116980D01*
X114736D02*
X123736D01*
X114736Y116480D02*
Y116980D01*
Y112980D02*
Y113480D01*
Y112980D02*
X123736D01*
Y113480D01*
X119236Y112980D02*
Y116980D01*
X123736Y111480D02*
Y111980D01*
X114736D02*
X123736D01*
X114736Y111480D02*
Y111980D01*
Y107980D02*
Y108480D01*
Y107980D02*
X123736D01*
Y108480D01*
X119236Y107980D02*
Y111980D01*
X62700Y176300D02*
X66700D01*
X66200Y180800D02*
X66700D01*
Y171800D02*
Y180800D01*
X66200Y171800D02*
X66700D01*
X62700D02*
X63200D01*
X62700D02*
Y180800D01*
X63200D01*
X81900Y176300D02*
X85900D01*
X81900Y171800D02*
X82400D01*
X81900D02*
Y180800D01*
X82400D01*
X85400D02*
X85900D01*
Y171800D02*
Y180800D01*
X85400Y171800D02*
X85900D01*
X91000Y157862D02*
Y161862D01*
X95500Y157862D02*
Y158362D01*
X86500Y157862D02*
X95500D01*
X86500D02*
Y158362D01*
Y161362D02*
Y161862D01*
X95500D01*
Y161362D02*
Y161862D01*
X91000Y138862D02*
Y142862D01*
X86500Y142362D02*
Y142862D01*
X95500D01*
Y142362D02*
Y142862D01*
Y138862D02*
Y139362D01*
X86500Y138862D02*
X95500D01*
X86500D02*
Y139362D01*
X60881Y154005D02*
X61668D01*
Y146131D02*
Y154005D01*
X60881Y146131D02*
X61668D01*
X57731D02*
X58519D01*
X57731D02*
Y154005D01*
X58519D01*
X68500Y137362D02*
Y141362D01*
X73000Y137362D02*
Y137862D01*
X64000Y137362D02*
X73000D01*
X64000D02*
Y137862D01*
Y140862D02*
Y141362D01*
X73000D01*
Y140862D02*
Y141362D01*
X52764Y99500D02*
Y103500D01*
X57264Y99500D02*
Y100000D01*
X48264Y99500D02*
X57264D01*
X48264D02*
Y100000D01*
Y103000D02*
Y103500D01*
X57264D01*
Y103000D02*
Y103500D01*
X59256Y95193D02*
X60043D01*
Y81807D02*
Y95193D01*
X59256Y81807D02*
X60043D01*
X52957Y95193D02*
X53744D01*
X52957Y81807D02*
Y95193D01*
Y81807D02*
X53744D01*
X52957Y88500D02*
X60043D01*
X105695Y62304D02*
Y63091D01*
Y62304D02*
X113569D01*
Y63091D01*
Y65453D02*
Y66241D01*
X105695D02*
X113569D01*
X105695Y65453D02*
Y66241D01*
X130781Y128950D02*
X131569D01*
Y121076D02*
Y128950D01*
X130781Y121076D02*
X131569D01*
X127631D02*
X128419D01*
X127631D02*
Y128950D01*
X128419D01*
X184563Y126681D02*
Y127469D01*
X192437D01*
Y126681D02*
Y127469D01*
Y123531D02*
Y124319D01*
X184563Y123531D02*
X192437D01*
X184563D02*
Y124319D01*
X165500Y133224D02*
Y138736D01*
X171012Y133224D02*
Y134406D01*
X159988Y133224D02*
X171012D01*
X159988D02*
Y134406D01*
Y137555D02*
Y138736D01*
X171012D01*
Y137555D02*
Y138736D01*
X187657Y95417D02*
X191657D01*
X187657Y90917D02*
X188157D01*
X187657D02*
Y99917D01*
X188157D01*
X191157D02*
X191657D01*
Y90917D02*
Y99917D01*
X191157Y90917D02*
X191657D01*
X77750Y6047D02*
Y6547D01*
Y6047D02*
X79506D01*
Y6547D01*
X75750Y6047D02*
Y6547D01*
X73994Y6047D02*
X75750D01*
X73994D02*
Y6547D01*
X78750Y18047D02*
X79506D01*
Y6142D02*
Y18047D01*
X77750Y6547D02*
X79506D01*
X73994D02*
X75750D01*
X73994Y6142D02*
Y18047D01*
X74750D01*
X73994Y12047D02*
X75372D01*
X78128D02*
X79506D01*
X86000Y6047D02*
Y6547D01*
Y6047D02*
X87756D01*
Y6547D01*
X84000Y6047D02*
Y6547D01*
X82244Y6047D02*
X84000D01*
X82244D02*
Y6547D01*
X87000Y18047D02*
X87756D01*
Y6142D02*
Y18047D01*
X86000Y6547D02*
X87756D01*
X82244D02*
X84000D01*
X82244Y6142D02*
Y18047D01*
X83000D01*
X82244Y12047D02*
X83622D01*
X86378D02*
X87756D01*
X74750Y25047D02*
X78750D01*
X74750Y20547D02*
X75250D01*
X74750D02*
Y29547D01*
X75250D01*
X78250D02*
X78750D01*
Y20547D02*
Y29547D01*
X78250Y20547D02*
X78750D01*
X83000Y25047D02*
X87000D01*
X83000Y20547D02*
X83500D01*
X83000D02*
Y29547D01*
X83500D01*
X86500D02*
X87000D01*
Y20547D02*
Y29547D01*
X86500Y20547D02*
X87000D01*
X94628Y12047D02*
X96006D01*
X90494D02*
X91872D01*
X90494Y18047D02*
X91250D01*
X90494Y6142D02*
Y18047D01*
Y6547D02*
X92250D01*
X94250D02*
X96006D01*
Y6142D02*
Y18047D01*
X95250D02*
X96006D01*
X90494Y6047D02*
Y6547D01*
Y6047D02*
X92250D01*
Y6547D01*
X96006Y6047D02*
Y6547D01*
X94250Y6047D02*
X96006D01*
X94250D02*
Y6547D01*
X94750Y20547D02*
X95250D01*
Y29547D01*
X94750D02*
X95250D01*
X91250D02*
X91750D01*
X91250Y20547D02*
Y29547D01*
Y20547D02*
X91750D01*
X91250Y25047D02*
X95250D01*
X94795Y31032D02*
Y31819D01*
Y31032D02*
X102669D01*
Y31819D01*
Y34181D02*
Y34969D01*
X94795D02*
X102669D01*
X94795Y34181D02*
Y34969D01*
X102437Y39154D02*
Y39941D01*
X94563D02*
X102437D01*
X94563Y39154D02*
Y39941D01*
Y36004D02*
Y36791D01*
Y36004D02*
X102437D01*
Y36791D01*
X115381Y39135D02*
X116168D01*
Y47009D01*
X115381D02*
X116168D01*
X112232D02*
X113019D01*
X112232Y39135D02*
Y47009D01*
Y39135D02*
X113019D01*
X87000Y83972D02*
X91000D01*
X87000Y79472D02*
X87500D01*
X87000D02*
Y88472D01*
X87500D01*
X90500D02*
X91000D01*
Y79472D02*
Y88472D01*
X90500Y79472D02*
X91000D01*
X107500Y83461D02*
X111500D01*
X107500Y78961D02*
X108000D01*
X107500D02*
Y87961D01*
X108000D01*
X111000D02*
X111500D01*
Y78961D02*
Y87961D01*
X111000Y78961D02*
X111500D01*
D48*
X12699Y68000D02*
X42699D01*
Y37000D02*
Y68000D01*
X12699Y37000D02*
X42699D01*
X11799Y42500D02*
Y62000D01*
X1799Y42500D02*
Y62000D01*
X19500Y42500D02*
X34500D01*
X19500Y62500D02*
X34500D01*
X19500Y42500D02*
Y62500D01*
X34500Y42500D02*
Y62500D01*
X12699Y33000D02*
X42699D01*
Y2000D02*
Y33000D01*
X12699Y2000D02*
X42699D01*
X11799Y7500D02*
Y27000D01*
X1799Y7500D02*
Y27000D01*
X19500Y7500D02*
X34500D01*
X19500Y27500D02*
X34500D01*
X19500Y7500D02*
Y27500D01*
X34500Y7500D02*
Y27500D01*
X12699Y173000D02*
X42699D01*
Y142000D02*
Y173000D01*
X12699Y142000D02*
X42699D01*
X11799Y147500D02*
Y167000D01*
X1799Y147500D02*
Y167000D01*
X19500Y147500D02*
X34500D01*
X19500Y167500D02*
X34500D01*
X19500Y147500D02*
Y167500D01*
X34500Y147500D02*
Y167500D01*
X12699Y208000D02*
X42699D01*
Y177000D02*
Y208000D01*
X12699Y177000D02*
X42699D01*
X11799Y182500D02*
Y202000D01*
X1799Y182500D02*
Y202000D01*
X19500Y182500D02*
X34500D01*
X19500Y202500D02*
X34500D01*
X19500Y182500D02*
Y202500D01*
X34500Y182500D02*
Y202500D01*
X12699Y138000D02*
X42699D01*
Y107000D02*
Y138000D01*
X12699Y107000D02*
X42699D01*
X11799Y112500D02*
Y132000D01*
X1799Y112500D02*
Y132000D01*
X19500Y112500D02*
X34500D01*
X19500Y132500D02*
X34500D01*
X19500Y112500D02*
Y132500D01*
X34500Y112500D02*
Y132500D01*
X12699Y103000D02*
X42699D01*
Y72000D02*
Y103000D01*
X12699Y72000D02*
X42699D01*
X11799Y77500D02*
Y97000D01*
X1799Y77500D02*
Y97000D01*
X19500Y77500D02*
X34500D01*
X19500Y97500D02*
X34500D01*
X19500Y77500D02*
Y97500D01*
X34500Y77500D02*
Y97500D01*
X226301Y49000D02*
X256301D01*
X226301D02*
Y80000D01*
X256301D01*
X257201Y55000D02*
Y74500D01*
X267201Y55000D02*
Y74500D01*
X234500D02*
X249500D01*
X234500Y54500D02*
X249500D01*
Y74500D01*
X234500Y54500D02*
Y74500D01*
X226301Y91500D02*
X256301D01*
X226301D02*
Y122500D01*
X256301D01*
X257201Y97500D02*
Y117000D01*
X267201Y97500D02*
Y117000D01*
X234500D02*
X249500D01*
X234500Y97000D02*
X249500D01*
Y117000D01*
X234500Y97000D02*
Y117000D01*
D49*
X76750Y11358D02*
X77734Y12736D01*
X76750D02*
X77734D01*
X76750Y11358D02*
X77636D01*
X75864D02*
X76750D01*
X75766Y12736D02*
X76750D01*
X75766D02*
X76750Y11358D01*
X85000D02*
X85984Y12736D01*
X85000D02*
X85984D01*
X85000Y11358D02*
X85886D01*
X84114D02*
X85000D01*
X84016Y12736D02*
X85000D01*
X84016D02*
X85000Y11358D01*
X92266Y12736D02*
X93250Y11358D01*
X92266Y12736D02*
X93250D01*
X92364Y11358D02*
X93250D01*
X94136D01*
X93250Y12736D02*
X94234D01*
X93250Y11358D02*
X94234Y12736D01*
D50*
X91000Y63000D02*
Y64999D01*
X92000Y65999D01*
X92999Y64999D01*
Y63000D01*
Y64499D01*
X91000D01*
X95998Y65499D02*
X95499Y65999D01*
X94499D01*
X93999Y65499D01*
Y63500D01*
X94499Y63000D01*
X95499D01*
X95998Y63500D01*
X98997Y65499D02*
X98498Y65999D01*
X97498D01*
X96998Y65499D01*
Y63500D01*
X97498Y63000D01*
X98498D01*
X98997Y63500D01*
X99997Y65999D02*
Y63000D01*
X101996D01*
X167000Y126999D02*
Y126499D01*
X168000Y125499D01*
X168999Y126499D01*
Y126999D01*
X168000Y125499D02*
Y124000D01*
X169999D02*
X170999D01*
X170499D01*
Y126999D01*
X169999Y126499D01*
X201000Y70000D02*
Y72999D01*
X202500D01*
X202999Y72499D01*
Y71500D01*
X202500Y71000D01*
X201000D01*
X202000D02*
X202999Y70000D01*
X203999Y72499D02*
X204499Y72999D01*
X205499D01*
X205998Y72499D01*
Y71999D01*
X205499Y71500D01*
X205998Y71000D01*
Y70500D01*
X205499Y70000D01*
X204499D01*
X203999Y70500D01*
Y71000D01*
X204499Y71500D01*
X203999Y71999D01*
Y72499D01*
X204499Y71500D02*
X205499D01*
X171000Y68000D02*
Y70999D01*
X172500D01*
X172999Y70499D01*
Y69499D01*
X172500Y69000D01*
X171000D01*
X172000D02*
X172999Y68000D01*
X173999Y70999D02*
X175998D01*
Y70499D01*
X173999Y68500D01*
Y68000D01*
X168000Y77999D02*
X169000D01*
X168500D01*
Y75000D01*
X168000D01*
X169000D01*
X172499Y77499D02*
X171999Y77999D01*
X170999D01*
X170499Y77499D01*
Y75500D01*
X170999Y75000D01*
X171999D01*
X172499Y75500D01*
X173498Y75000D02*
X174498D01*
X173998D01*
Y77999D01*
X173498Y77499D01*
X160500Y93000D02*
Y95999D01*
X161999D01*
X162499Y95499D01*
Y94499D01*
X161999Y94000D01*
X160500D01*
X161500D02*
X162499Y93000D01*
X165498Y95999D02*
X163499D01*
Y94499D01*
X164499Y94999D01*
X164999D01*
X165498Y94499D01*
Y93500D01*
X164999Y93000D01*
X163999D01*
X163499Y93500D01*
X164999Y112499D02*
X164499Y112999D01*
X163500D01*
X163000Y112499D01*
Y110500D01*
X163500Y110000D01*
X164499D01*
X164999Y110500D01*
X165999Y112499D02*
X166499Y112999D01*
X167499D01*
X167998Y112499D01*
Y111999D01*
X167499Y111500D01*
X167998Y111000D01*
Y110500D01*
X167499Y110000D01*
X166499D01*
X165999Y110500D01*
Y111000D01*
X166499Y111500D01*
X165999Y111999D01*
Y112499D01*
X166499Y111500D02*
X167499D01*
X152000Y102000D02*
Y104999D01*
X153499D01*
X153999Y104499D01*
Y103499D01*
X153499Y103000D01*
X152000D01*
X153000D02*
X153999Y102000D01*
X154999Y102500D02*
X155499Y102000D01*
X156499D01*
X156998Y102500D01*
Y104499D01*
X156499Y104999D01*
X155499D01*
X154999Y104499D01*
Y103999D01*
X155499Y103499D01*
X156998D01*
X134999Y111499D02*
X134500Y111999D01*
X133500D01*
X133000Y111499D01*
Y109500D01*
X133500Y109000D01*
X134500D01*
X134999Y109500D01*
X135999Y109000D02*
X136999D01*
X136499D01*
Y111999D01*
X135999Y111499D01*
X138498Y109000D02*
X139498D01*
X138998D01*
Y111999D01*
X138498Y111499D01*
X131000Y98000D02*
Y100999D01*
X132500D01*
X132999Y100499D01*
Y99499D01*
X132500Y99000D01*
X131000D01*
X132000D02*
X132999Y98000D01*
X133999D02*
X134999D01*
X134499D01*
Y100999D01*
X133999Y100499D01*
X138498Y98000D02*
X136498D01*
X138498Y99999D01*
Y100499D01*
X137998Y100999D01*
X136998D01*
X136498Y100499D01*
X112000Y119000D02*
Y121999D01*
X113499D01*
X113999Y121499D01*
Y120500D01*
X113499Y120000D01*
X112000D01*
X113000D02*
X113999Y119000D01*
X116998D02*
X114999D01*
X116998Y120999D01*
Y121499D01*
X116499Y121999D01*
X115499D01*
X114999Y121499D01*
X111500Y103000D02*
Y105999D01*
X112999D01*
X113499Y105499D01*
Y104499D01*
X112999Y104000D01*
X111500D01*
X112500D02*
X113499Y103000D01*
X114499D02*
X115499D01*
X114999D01*
Y105999D01*
X114499Y105499D01*
X81000Y169999D02*
X82000D01*
X81500D01*
Y167000D01*
X81000D01*
X82000D01*
X85498Y169499D02*
X84999Y169999D01*
X83999D01*
X83499Y169499D01*
Y167500D01*
X83999Y167000D01*
X84999D01*
X85498Y167500D01*
X88498Y169999D02*
X86498D01*
Y168500D01*
X87498Y168999D01*
X87998D01*
X88498Y168500D01*
Y167500D01*
X87998Y167000D01*
X86998D01*
X86498Y167500D01*
X53000Y177000D02*
Y179999D01*
X54500D01*
X54999Y179499D01*
Y178499D01*
X54500Y178000D01*
X53000D01*
X54000D02*
X54999Y177000D01*
X55999D02*
X56999D01*
X56499D01*
Y179999D01*
X55999Y179499D01*
X60498Y179999D02*
X58498D01*
Y178499D01*
X59498Y178999D01*
X59998D01*
X60498Y178499D01*
Y177500D01*
X59998Y177000D01*
X58998D01*
X58498Y177500D01*
X88000Y173000D02*
Y175999D01*
X89499D01*
X89999Y175499D01*
Y174499D01*
X89499Y174000D01*
X88000D01*
X89000D02*
X89999Y173000D01*
X90999D02*
X91999D01*
X91499D01*
Y175999D01*
X90999Y175499D01*
X94998Y173000D02*
Y175999D01*
X93498Y174499D01*
X95498D01*
X88000Y163000D02*
Y165999D01*
X89499D01*
X89999Y165499D01*
Y164499D01*
X89499Y164000D01*
X88000D01*
X89000D02*
X89999Y163000D01*
X92998D02*
X90999D01*
X92998Y164999D01*
Y165499D01*
X92499Y165999D01*
X91499D01*
X90999Y165499D01*
X93998D02*
X94498Y165999D01*
X95498D01*
X95997Y165499D01*
Y163500D01*
X95498Y163000D01*
X94498D01*
X93998Y163500D01*
Y165499D01*
X97000Y154999D02*
X98000D01*
X97500D01*
Y152000D01*
X97000D01*
X98000D01*
X101498Y154499D02*
X100999Y154999D01*
X99999D01*
X99499Y154499D01*
Y152500D01*
X99999Y152000D01*
X100999D01*
X101498Y152500D01*
X104498Y154999D02*
X103498Y154499D01*
X102498Y153499D01*
Y152500D01*
X102998Y152000D01*
X103998D01*
X104498Y152500D01*
Y153000D01*
X103998Y153499D01*
X102498D01*
X93000Y134000D02*
Y136999D01*
X94499D01*
X94999Y136499D01*
Y135500D01*
X94499Y135000D01*
X93000D01*
X94000D02*
X94999Y134000D01*
X95999D02*
X96999D01*
X96499D01*
Y136999D01*
X95999Y136499D01*
X98498Y134500D02*
X98998Y134000D01*
X99998D01*
X100498Y134500D01*
Y136499D01*
X99998Y136999D01*
X98998D01*
X98498Y136499D01*
Y135999D01*
X98998Y135500D01*
X100498D01*
X52999Y151499D02*
X52500Y151999D01*
X51500D01*
X51000Y151499D01*
Y149500D01*
X51500Y149000D01*
X52500D01*
X52999Y149500D01*
X53999D02*
X54499Y149000D01*
X55499D01*
X55998Y149500D01*
Y151499D01*
X55499Y151999D01*
X54499D01*
X53999Y151499D01*
Y150999D01*
X54499Y150499D01*
X55998D01*
X71000Y133000D02*
Y135999D01*
X72500D01*
X72999Y135499D01*
Y134500D01*
X72500Y134000D01*
X71000D01*
X72000D02*
X72999Y133000D01*
X73999D02*
X74999D01*
X74499D01*
Y135999D01*
X73999Y135499D01*
X76498D02*
X76998Y135999D01*
X77998D01*
X78498Y135499D01*
Y133500D01*
X77998Y133000D01*
X76998D01*
X76498Y133500D01*
Y135499D01*
X59000Y100000D02*
Y102999D01*
X60500D01*
X60999Y102499D01*
Y101499D01*
X60500Y101000D01*
X59000D01*
X60000D02*
X60999Y100000D01*
X61999D02*
X62999D01*
X62499D01*
Y102999D01*
X61999Y102499D01*
X64498Y100000D02*
X65498D01*
X64998D01*
Y102999D01*
X64498Y102499D01*
X54999Y79499D02*
X54500Y79999D01*
X53500D01*
X53000Y79499D01*
Y77500D01*
X53500Y77000D01*
X54500D01*
X54999Y77500D01*
X55999Y77000D02*
X56999D01*
X56499D01*
Y79999D01*
X55999Y79499D01*
X58498D02*
X58998Y79999D01*
X59998D01*
X60498Y79499D01*
Y77500D01*
X59998Y77000D01*
X58998D01*
X58498Y77500D01*
Y79499D01*
X118499Y65499D02*
X117999Y65999D01*
X117000D01*
X116500Y65499D01*
Y63500D01*
X117000Y63000D01*
X117999D01*
X118499Y63500D01*
X119499Y63000D02*
X120499D01*
X119999D01*
Y65999D01*
X119499Y65499D01*
X46001Y51999D02*
Y51000D01*
Y51499D01*
X48500D01*
X49000Y51000D01*
Y50500D01*
X48500Y50000D01*
X46001Y54998D02*
Y52999D01*
X47501D01*
X47001Y53999D01*
Y54499D01*
X47501Y54998D01*
X48500D01*
X49000Y54499D01*
Y53499D01*
X48500Y52999D01*
X45001Y15999D02*
Y15000D01*
Y15499D01*
X47500D01*
X48000Y15000D01*
Y14500D01*
X47500Y14000D01*
X48000Y18499D02*
X45001D01*
X46501Y16999D01*
Y18998D01*
X45501Y155999D02*
Y155000D01*
Y155499D01*
X48000D01*
X48500Y155000D01*
Y154500D01*
X48000Y154000D01*
X46001Y156999D02*
X45501Y157499D01*
Y158499D01*
X46001Y158998D01*
X46501D01*
X47001Y158499D01*
Y157999D01*
Y158499D01*
X47500Y158998D01*
X48000D01*
X48500Y158499D01*
Y157499D01*
X48000Y156999D01*
X47000Y190500D02*
X45001D01*
X44001Y191500D01*
X45001Y192499D01*
X47000D01*
X45500D01*
Y190500D01*
X44001Y193499D02*
Y195498D01*
Y194499D01*
X47000D01*
X44501Y196498D02*
X44001Y196998D01*
Y197998D01*
X44501Y198497D01*
X45001D01*
X45500Y197998D01*
X46000Y198497D01*
X46500D01*
X47000Y197998D01*
Y196998D01*
X46500Y196498D01*
X46000D01*
X45500Y196998D01*
X45001Y196498D01*
X44501D01*
X45500Y196998D02*
Y197998D01*
X47000Y200997D02*
X44001D01*
X45500Y199497D01*
Y201496D01*
X133100Y138999D02*
X133600Y139499D01*
X134599D01*
X135099Y138999D01*
Y138499D01*
X134599Y137999D01*
X134100D01*
X134599D01*
X135099Y137500D01*
Y137000D01*
X134599Y136500D01*
X133600D01*
X133100Y137000D01*
X138098Y136500D02*
X136099D01*
X138098Y138499D01*
Y138999D01*
X137599Y139499D01*
X136599D01*
X136099Y138999D01*
X139098D02*
X139598Y139499D01*
X140598D01*
X141097Y138999D01*
Y138499D01*
X140598Y137999D01*
X141097Y137500D01*
Y137000D01*
X140598Y136500D01*
X139598D01*
X139098Y137000D01*
Y137500D01*
X139598Y137999D01*
X139098Y138499D01*
Y138999D01*
X139598Y137999D02*
X140598D01*
X142097Y135500D02*
Y138499D01*
X143597D01*
X144096Y137999D01*
Y137000D01*
X143597Y136500D01*
X142097D01*
X58000Y162000D02*
Y163999D01*
X59000Y164999D01*
X59999Y163999D01*
Y162000D01*
Y163499D01*
X58000D01*
X61499Y164499D02*
Y163999D01*
X60999D01*
X61999D01*
X61499D01*
Y162500D01*
X61999Y162000D01*
X63998Y164499D02*
Y163999D01*
X63498D01*
X64498D01*
X63998D01*
Y162500D01*
X64498Y162000D01*
X65997D02*
X66997D01*
X66497D01*
Y163999D01*
X65997D01*
X68497Y162000D02*
Y163999D01*
X69996D01*
X70496Y163499D01*
Y162000D01*
X71496Y163999D02*
Y162500D01*
X71996Y162000D01*
X73495D01*
Y161500D01*
X72995Y161000D01*
X72495D01*
X73495Y162000D02*
Y163999D01*
X74495Y164499D02*
X74994Y164999D01*
X75994D01*
X76494Y164499D01*
Y163999D01*
X75994Y163499D01*
X76494Y163000D01*
Y162500D01*
X75994Y162000D01*
X74994D01*
X74495Y162500D01*
Y163000D01*
X74994Y163499D01*
X74495Y163999D01*
Y164499D01*
X74994Y163499D02*
X75994D01*
X78993Y162000D02*
Y164999D01*
X77494Y163499D01*
X79493D01*
X62551Y195450D02*
Y196450D01*
Y195950D01*
X65550D01*
Y195450D01*
Y196450D01*
X62551Y199449D02*
Y198449D01*
X63051Y197949D01*
X65050D01*
X65550Y198449D01*
Y199449D01*
X65050Y199949D01*
X63051D01*
X62551Y199449D01*
Y200948D02*
X65550D01*
X64051D01*
Y202948D01*
X62551D01*
X65550D01*
X175300Y211299D02*
X176300D01*
X175800D01*
Y208300D01*
X175300D01*
X176300D01*
X179299Y211299D02*
X178299D01*
X177799Y210799D01*
Y208800D01*
X178299Y208300D01*
X179299D01*
X179798Y208800D01*
Y210799D01*
X179299Y211299D01*
X180798D02*
Y208300D01*
X182798D01*
X183797D02*
X184797D01*
X184297D01*
Y211299D01*
X183797Y210799D01*
X199700Y52399D02*
Y49400D01*
X201200D01*
X201699Y49900D01*
Y50400D01*
X201200Y50899D01*
X199700D01*
X201200D01*
X201699Y51399D01*
Y51899D01*
X201200Y52399D01*
X199700D01*
X202699D02*
Y49400D01*
X204698D01*
X207697Y52399D02*
X205698D01*
Y49400D01*
X207697D01*
X205698Y50899D02*
X206698D01*
X208697Y48900D02*
X210696D01*
X211696Y52399D02*
Y49900D01*
X212196Y49400D01*
X213196D01*
X213696Y49900D01*
Y52399D01*
X214695Y49400D02*
Y51399D01*
X215695Y52399D01*
X216694Y51399D01*
Y49400D01*
Y50899D01*
X214695D01*
X217694Y49400D02*
Y52399D01*
X219194D01*
X219693Y51899D01*
Y50899D01*
X219194Y50400D01*
X217694D01*
X218694D02*
X219693Y49400D01*
X220693Y52399D02*
X222693D01*
X221693D01*
Y49400D01*
X130099Y134499D02*
X129599Y134999D01*
X128600D01*
X128100Y134499D01*
Y132500D01*
X128600Y132000D01*
X129599D01*
X130099Y132500D01*
X133098Y134999D02*
X131099D01*
Y133500D01*
X132099Y133999D01*
X132599D01*
X133098Y133500D01*
Y132500D01*
X132599Y132000D01*
X131599D01*
X131099Y132500D01*
X187099Y133099D02*
X186600Y133599D01*
X185600D01*
X185100Y133099D01*
Y131100D01*
X185600Y130600D01*
X186600D01*
X187099Y131100D01*
X190098Y133599D02*
X189099Y133099D01*
X188099Y132099D01*
Y131100D01*
X188599Y130600D01*
X189599D01*
X190098Y131100D01*
Y131600D01*
X189599Y132099D01*
X188099D01*
X162499Y144299D02*
X161999Y144799D01*
X161000D01*
X160500Y144299D01*
Y142300D01*
X161000Y141800D01*
X161999D01*
X162499Y142300D01*
X163499Y144799D02*
X165498D01*
Y144299D01*
X163499Y142300D01*
Y141800D01*
X191000Y95999D02*
X192000D01*
X191500D01*
Y93000D01*
X191000D01*
X192000D01*
X195499Y95499D02*
X194999Y95999D01*
X193999D01*
X193499Y95499D01*
Y93500D01*
X193999Y93000D01*
X194999D01*
X195499Y93500D01*
X197998Y93000D02*
Y95999D01*
X196498Y94499D01*
X198498D01*
X188100Y103200D02*
Y106199D01*
X189600D01*
X190099Y105699D01*
Y104700D01*
X189600Y104200D01*
X188100D01*
X189100D02*
X190099Y103200D01*
X193098Y106199D02*
X192099Y105699D01*
X191099Y104700D01*
Y103700D01*
X191599Y103200D01*
X192599D01*
X193098Y103700D01*
Y104200D01*
X192599Y104700D01*
X191099D01*
X47000Y115000D02*
X45001D01*
X44001Y116000D01*
X45001Y116999D01*
X47000D01*
X45500D01*
Y115000D01*
X44001Y117999D02*
X47000D01*
Y119499D01*
X46500Y119998D01*
X44501D01*
X44001Y119499D01*
Y117999D01*
X44501Y122997D02*
X44001Y122498D01*
Y121498D01*
X44501Y120998D01*
X46500D01*
X47000Y121498D01*
Y122498D01*
X46500Y122997D01*
X44501Y123997D02*
X44001Y124497D01*
Y125497D01*
X44501Y125996D01*
X45001D01*
X45500Y125497D01*
Y124997D01*
Y125497D01*
X46000Y125996D01*
X46500D01*
X47000Y125497D01*
Y124497D01*
X46500Y123997D01*
X47000Y128996D02*
Y126996D01*
X45001Y128996D01*
X44501D01*
X44001Y128496D01*
Y127496D01*
X44501Y126996D01*
Y129995D02*
X44001Y130495D01*
Y131495D01*
X44501Y131994D01*
X45001D01*
X45500Y131495D01*
X46000Y131994D01*
X46500D01*
X47000Y131495D01*
Y130495D01*
X46500Y129995D01*
X46000D01*
X45500Y130495D01*
X45001Y129995D01*
X44501D01*
X45500Y130495D02*
Y131495D01*
X45001Y90999D02*
Y90000D01*
Y90500D01*
X47500D01*
X48000Y90000D01*
Y89500D01*
X47500Y89000D01*
X45001Y93998D02*
X45501Y92999D01*
X46501Y91999D01*
X47500D01*
X48000Y92499D01*
Y93499D01*
X47500Y93998D01*
X47000D01*
X46501Y93499D01*
Y91999D01*
X237000Y85499D02*
X237500Y85999D01*
X238499D01*
X238999Y85499D01*
Y84999D01*
X238499Y84500D01*
X238999Y84000D01*
Y83500D01*
X238499Y83000D01*
X237500D01*
X237000Y83500D01*
Y84000D01*
X237500Y84500D01*
X237000Y84999D01*
Y85499D01*
X237500Y84500D02*
X238499D01*
X241498Y83000D02*
Y85999D01*
X239999Y84500D01*
X241998D01*
X242998Y85999D02*
X243998D01*
X243498D01*
Y83000D01*
X242998D01*
X243998D01*
X247497Y85499D02*
X246997Y85999D01*
X245997D01*
X245497Y85499D01*
Y84999D01*
X245997Y84500D01*
X246997D01*
X247497Y84000D01*
Y83500D01*
X246997Y83000D01*
X245997D01*
X245497Y83500D01*
X248496Y83000D02*
Y85999D01*
X249996D01*
X250496Y85499D01*
Y84500D01*
X249996Y84000D01*
X248496D01*
X235000Y127499D02*
X235500Y127999D01*
X236500D01*
X236999Y127499D01*
Y126999D01*
X236500Y126499D01*
X236000D01*
X236500D01*
X236999Y126000D01*
Y125500D01*
X236500Y125000D01*
X235500D01*
X235000Y125500D01*
X239998Y125000D02*
X237999D01*
X239998Y126999D01*
Y127499D01*
X239498Y127999D01*
X238499D01*
X237999Y127499D01*
X240998D02*
X241498Y127999D01*
X242498D01*
X242997Y127499D01*
Y126999D01*
X242498Y126499D01*
X242997Y126000D01*
Y125500D01*
X242498Y125000D01*
X241498D01*
X240998Y125500D01*
Y126000D01*
X241498Y126499D01*
X240998Y126999D01*
Y127499D01*
X241498Y126499D02*
X242498D01*
X243997Y127999D02*
X244997D01*
X244497D01*
Y125000D01*
X243997D01*
X244997D01*
X248496Y127499D02*
X247996Y127999D01*
X246996D01*
X246496Y127499D01*
Y126999D01*
X246996Y126499D01*
X247996D01*
X248496Y126000D01*
Y125500D01*
X247996Y125000D01*
X246996D01*
X246496Y125500D01*
X249495Y125000D02*
Y127999D01*
X250995D01*
X251495Y127499D01*
Y126499D01*
X250995Y126000D01*
X249495D01*
X64000Y3499D02*
X64500Y3999D01*
X65500D01*
X65999Y3499D01*
Y2999D01*
X65500Y2499D01*
X65000D01*
X65500D01*
X65999Y2000D01*
Y1500D01*
X65500Y1000D01*
X64500D01*
X64000Y1500D01*
X66999Y1000D02*
Y1500D01*
X67499D01*
Y1000D01*
X66999D01*
X69498Y3499D02*
X69998Y3999D01*
X70998D01*
X71498Y3499D01*
Y2999D01*
X70998Y2499D01*
X70498D01*
X70998D01*
X71498Y2000D01*
Y1500D01*
X70998Y1000D01*
X69998D01*
X69498Y1500D01*
X72497Y3999D02*
Y2000D01*
X73497Y1000D01*
X74497Y2000D01*
Y3999D01*
X84999D02*
X83000D01*
Y2499D01*
X84000Y2999D01*
X84500D01*
X84999Y2499D01*
Y1500D01*
X84500Y1000D01*
X83500D01*
X83000Y1500D01*
X85999Y3999D02*
Y2000D01*
X86999Y1000D01*
X87998Y2000D01*
Y3999D01*
X65000Y21000D02*
X62001D01*
Y22500D01*
X62501Y22999D01*
X63500D01*
X64000Y22500D01*
Y21000D01*
Y22000D02*
X65000Y22999D01*
Y23999D02*
Y24999D01*
Y24499D01*
X62001D01*
X62501Y23999D01*
X62001Y26498D02*
Y28498D01*
X62501D01*
X64500Y26498D01*
X65000D01*
X69000Y21000D02*
X66001D01*
Y22500D01*
X66501Y22999D01*
X67501D01*
X68000Y22500D01*
Y21000D01*
Y22000D02*
X69000Y22999D01*
Y23999D02*
Y24999D01*
Y24499D01*
X66001D01*
X66501Y23999D01*
Y26498D02*
X66001Y26998D01*
Y27998D01*
X66501Y28498D01*
X67001D01*
X67501Y27998D01*
X68000Y28498D01*
X68500D01*
X69000Y27998D01*
Y26998D01*
X68500Y26498D01*
X68000D01*
X67501Y26998D01*
X67001Y26498D01*
X66501D01*
X67501Y26998D02*
Y27998D01*
X92000Y1000D02*
X93000D01*
X92500D01*
Y3999D01*
X92000Y3499D01*
X94499D02*
X94999Y3999D01*
X95999D01*
X96499Y3499D01*
Y1500D01*
X95999Y1000D01*
X94999D01*
X94499Y1500D01*
Y3499D01*
X97498Y3999D02*
Y2000D01*
X98498Y1000D01*
X99498Y2000D01*
Y3999D01*
X100497D02*
Y1000D01*
X101997D01*
X102497Y1500D01*
Y3499D01*
X101997Y3999D01*
X100497D01*
X105496Y3499D02*
X104996Y3999D01*
X103996D01*
X103496Y3499D01*
Y1500D01*
X103996Y1000D01*
X104996D01*
X105496Y1500D01*
X73000Y21000D02*
X70001D01*
Y22500D01*
X70501Y22999D01*
X71500D01*
X72000Y22500D01*
Y21000D01*
Y22000D02*
X73000Y22999D01*
Y23999D02*
Y24999D01*
Y24499D01*
X70001D01*
X70501Y23999D01*
Y26498D02*
X70001Y26998D01*
Y27998D01*
X70501Y28498D01*
X71001D01*
X71500Y27998D01*
Y27498D01*
Y27998D01*
X72000Y28498D01*
X72500D01*
X73000Y27998D01*
Y26998D01*
X72500Y26498D01*
X105999Y33499D02*
X105499Y33999D01*
X104500D01*
X104000Y33499D01*
Y31500D01*
X104500Y31000D01*
X105499D01*
X105999Y31500D01*
X108499Y31000D02*
Y33999D01*
X106999Y32500D01*
X108998D01*
X105999Y39499D02*
X105499Y39999D01*
X104500D01*
X104000Y39499D01*
Y37500D01*
X104500Y37000D01*
X105499D01*
X105999Y37500D01*
X106999Y39499D02*
X107499Y39999D01*
X108499D01*
X108998Y39499D01*
Y38999D01*
X108499Y38500D01*
X107999D01*
X108499D01*
X108998Y38000D01*
Y37500D01*
X108499Y37000D01*
X107499D01*
X106999Y37500D01*
X119999Y41499D02*
X119500Y41999D01*
X118500D01*
X118000Y41499D01*
Y39500D01*
X118500Y39000D01*
X119500D01*
X119999Y39500D01*
X122998Y39000D02*
X120999D01*
X122998Y40999D01*
Y41499D01*
X122499Y41999D01*
X121499D01*
X120999Y41499D01*
X68000Y89999D02*
X69000D01*
X68500D01*
Y87000D01*
X68000D01*
X69000D01*
X72499Y89499D02*
X71999Y89999D01*
X70999D01*
X70499Y89499D01*
Y87500D01*
X70999Y87000D01*
X71999D01*
X72499Y87500D01*
X73498Y89499D02*
X73998Y89999D01*
X74998D01*
X75498Y89499D01*
Y88999D01*
X74998Y88499D01*
X74498D01*
X74998D01*
X75498Y88000D01*
Y87500D01*
X74998Y87000D01*
X73998D01*
X73498Y87500D01*
X87000Y90000D02*
Y92999D01*
X88499D01*
X88999Y92499D01*
Y91500D01*
X88499Y91000D01*
X87000D01*
X88000D02*
X88999Y90000D01*
X91499D02*
Y92999D01*
X89999Y91500D01*
X91998D01*
X96000Y72999D02*
X97000D01*
X96500D01*
Y70000D01*
X96000D01*
X97000D01*
X100498Y72499D02*
X99999Y72999D01*
X98999D01*
X98499Y72499D01*
Y70500D01*
X98999Y70000D01*
X99999D01*
X100498Y70500D01*
X103498Y70000D02*
X101498D01*
X103498Y71999D01*
Y72499D01*
X102998Y72999D01*
X101998D01*
X101498Y72499D01*
X114500Y81500D02*
Y84499D01*
X115999D01*
X116499Y83999D01*
Y82999D01*
X115999Y82500D01*
X114500D01*
X115500D02*
X116499Y81500D01*
X117499Y83999D02*
X117999Y84499D01*
X118999D01*
X119498Y83999D01*
Y83499D01*
X118999Y82999D01*
X118499D01*
X118999D01*
X119498Y82500D01*
Y82000D01*
X118999Y81500D01*
X117999D01*
X117499Y82000D01*
M02*
