G04 Layer_Color=16711935*
%FSLAX25Y25*%
%MOIN*%
G70*
G01*
G75*
%ADD57R,0.04343X0.04737*%
%ADD70R,0.06800X0.06800*%
%ADD71C,0.06800*%
%ADD72C,0.08200*%
%ADD73C,0.13398*%
%ADD74C,0.04400*%
%ADD75R,0.08674X0.06706*%
%ADD76R,0.08674X0.15761*%
%ADD77R,0.04737X0.05918*%
%ADD78R,0.05918X0.04737*%
D57*
X34866Y103000D02*
D03*
X40181D02*
D03*
X34866Y97500D02*
D03*
X40181D02*
D03*
X34866Y57500D02*
D03*
X40181D02*
D03*
X34866Y63500D02*
D03*
X40181D02*
D03*
X34866Y158500D02*
D03*
X40181D02*
D03*
X34866Y164500D02*
D03*
X40181D02*
D03*
X34843Y119500D02*
D03*
X40157D02*
D03*
X34843Y113500D02*
D03*
X40157D02*
D03*
D70*
X200000Y10000D02*
D03*
X180000D02*
D03*
X164000Y200000D02*
D03*
X250000D02*
D03*
D71*
X210000Y10000D02*
D03*
X220000D02*
D03*
X230000D02*
D03*
X240000D02*
D03*
X250000D02*
D03*
X150000D02*
D03*
X140000D02*
D03*
X130000D02*
D03*
X120000D02*
D03*
X110000D02*
D03*
X170000D02*
D03*
X160000D02*
D03*
X154000Y200000D02*
D03*
X144000D02*
D03*
X134000D02*
D03*
X124000D02*
D03*
X114000D02*
D03*
X104000D02*
D03*
X94000D02*
D03*
X84000D02*
D03*
X74000D02*
D03*
X230000D02*
D03*
X240000D02*
D03*
X180000D02*
D03*
X190000D02*
D03*
X200000D02*
D03*
X210000D02*
D03*
X220000D02*
D03*
D72*
X203000Y42000D02*
D03*
X213000D02*
D03*
X223000D02*
D03*
X233000D02*
D03*
X243000D02*
D03*
X253000D02*
D03*
D73*
X260000Y30000D02*
D03*
X55000Y10000D02*
D03*
X60000Y200000D02*
D03*
D74*
X265000Y57000D02*
D03*
Y47000D02*
D03*
Y17000D02*
D03*
X262500Y62000D02*
D03*
X260000Y57000D02*
D03*
X262500Y52000D02*
D03*
X260000Y47000D02*
D03*
X262500Y42000D02*
D03*
X260000Y17000D02*
D03*
X262500Y12000D02*
D03*
X255000Y87000D02*
D03*
X257500Y82000D02*
D03*
X255000Y17000D02*
D03*
X257500Y12000D02*
D03*
X255000Y7000D02*
D03*
X252500Y82000D02*
D03*
X250000Y27000D02*
D03*
X252500Y22000D02*
D03*
X250000Y17000D02*
D03*
X247500Y32000D02*
D03*
X245000Y27000D02*
D03*
X247500Y22000D02*
D03*
X245000Y7000D02*
D03*
X242500Y32000D02*
D03*
X240000Y27000D02*
D03*
X242500Y22000D02*
D03*
X237500Y92000D02*
D03*
Y32000D02*
D03*
X235000Y17000D02*
D03*
Y7000D02*
D03*
X232500Y92000D02*
D03*
Y82000D02*
D03*
Y32000D02*
D03*
X227500Y92000D02*
D03*
X225000Y77000D02*
D03*
Y17000D02*
D03*
Y7000D02*
D03*
X220000Y107000D02*
D03*
X222500Y92000D02*
D03*
Y82000D02*
D03*
X217500Y62000D02*
D03*
X215000Y17000D02*
D03*
Y7000D02*
D03*
X210000Y67000D02*
D03*
X212500Y62000D02*
D03*
Y22000D02*
D03*
X210000Y17000D02*
D03*
X207500Y92000D02*
D03*
Y72000D02*
D03*
Y62000D02*
D03*
Y22000D02*
D03*
X202500D02*
D03*
X197500Y92000D02*
D03*
X195000Y57000D02*
D03*
X190000D02*
D03*
X192500Y52000D02*
D03*
X190000Y27000D02*
D03*
Y17000D02*
D03*
Y7000D02*
D03*
X187500Y62000D02*
D03*
X185000Y57000D02*
D03*
Y27000D02*
D03*
X187500Y22000D02*
D03*
X185000Y17000D02*
D03*
X187500Y12000D02*
D03*
X182500Y62000D02*
D03*
X180000Y57000D02*
D03*
Y27000D02*
D03*
X182500Y22000D02*
D03*
X180000Y17000D02*
D03*
X175000Y197000D02*
D03*
Y67000D02*
D03*
X177500Y62000D02*
D03*
X175000Y57000D02*
D03*
Y27000D02*
D03*
X177500Y22000D02*
D03*
X175000Y17000D02*
D03*
X172500Y202000D02*
D03*
X170000Y197000D02*
D03*
X172500Y182000D02*
D03*
X170000Y177000D02*
D03*
X172500Y172000D02*
D03*
X170000Y167000D02*
D03*
X172500Y162000D02*
D03*
X170000Y157000D02*
D03*
X172500Y152000D02*
D03*
X170000Y147000D02*
D03*
X172500Y142000D02*
D03*
Y112000D02*
D03*
Y22000D02*
D03*
X170000Y17000D02*
D03*
X167500Y182000D02*
D03*
X165000Y177000D02*
D03*
X167500Y172000D02*
D03*
X165000Y167000D02*
D03*
X167500Y162000D02*
D03*
X165000Y157000D02*
D03*
X167500Y152000D02*
D03*
X165000Y147000D02*
D03*
X167500Y112000D02*
D03*
X165000Y57000D02*
D03*
X167500Y22000D02*
D03*
X165000Y17000D02*
D03*
X160000Y177000D02*
D03*
X162500Y172000D02*
D03*
X160000Y167000D02*
D03*
X162500Y162000D02*
D03*
X160000Y157000D02*
D03*
X162500Y152000D02*
D03*
X160000Y77000D02*
D03*
X162500Y62000D02*
D03*
X160000Y57000D02*
D03*
X162500Y22000D02*
D03*
X160000Y17000D02*
D03*
X157500Y172000D02*
D03*
Y162000D02*
D03*
Y72000D02*
D03*
Y22000D02*
D03*
X155000Y17000D02*
D03*
X150000Y77000D02*
D03*
Y67000D02*
D03*
Y27000D02*
D03*
X147500Y192000D02*
D03*
Y82000D02*
D03*
X145000Y77000D02*
D03*
X147500Y72000D02*
D03*
X145000Y67000D02*
D03*
X147500Y32000D02*
D03*
X145000Y7000D02*
D03*
X137500Y32000D02*
D03*
X135000Y17000D02*
D03*
Y7000D02*
D03*
X130000Y167000D02*
D03*
Y147000D02*
D03*
X125000Y187000D02*
D03*
Y177000D02*
D03*
Y167000D02*
D03*
X127500Y162000D02*
D03*
X125000Y147000D02*
D03*
X127500Y52000D02*
D03*
X125000Y47000D02*
D03*
Y17000D02*
D03*
Y7000D02*
D03*
X120000Y187000D02*
D03*
X122500Y182000D02*
D03*
X120000Y177000D02*
D03*
X122500Y172000D02*
D03*
X120000Y157000D02*
D03*
X122500Y152000D02*
D03*
X120000Y57000D02*
D03*
X122500Y52000D02*
D03*
Y32000D02*
D03*
X120000Y17000D02*
D03*
X117500Y192000D02*
D03*
X115000Y187000D02*
D03*
X117500Y182000D02*
D03*
X115000Y177000D02*
D03*
X117500Y172000D02*
D03*
X115000Y157000D02*
D03*
X117500Y152000D02*
D03*
Y62000D02*
D03*
X115000Y57000D02*
D03*
X117500Y52000D02*
D03*
Y32000D02*
D03*
X115000Y17000D02*
D03*
Y7000D02*
D03*
X112500Y192000D02*
D03*
X110000Y187000D02*
D03*
X112500Y182000D02*
D03*
X110000Y177000D02*
D03*
X112500Y172000D02*
D03*
X110000Y17000D02*
D03*
X107500Y192000D02*
D03*
X105000Y187000D02*
D03*
X107500Y182000D02*
D03*
Y172000D02*
D03*
X105000Y107000D02*
D03*
X107500Y32000D02*
D03*
Y22000D02*
D03*
X105000Y17000D02*
D03*
Y7000D02*
D03*
X102500Y192000D02*
D03*
X100000Y187000D02*
D03*
X102500Y182000D02*
D03*
X100000Y147000D02*
D03*
Y17000D02*
D03*
X102500Y12000D02*
D03*
X100000Y7000D02*
D03*
X97500Y192000D02*
D03*
X95000Y137000D02*
D03*
X97500Y12000D02*
D03*
X92500Y192000D02*
D03*
X90000Y177000D02*
D03*
Y107000D02*
D03*
X92500Y62000D02*
D03*
Y42000D02*
D03*
X87500Y192000D02*
D03*
Y182000D02*
D03*
Y102000D02*
D03*
X85000Y67000D02*
D03*
X87500Y62000D02*
D03*
X85000Y57000D02*
D03*
X87500Y52000D02*
D03*
X82500Y112000D02*
D03*
Y92000D02*
D03*
X80000Y67000D02*
D03*
X82500Y62000D02*
D03*
X80000Y57000D02*
D03*
X82500Y52000D02*
D03*
X77500Y192000D02*
D03*
X75000Y107000D02*
D03*
Y97000D02*
D03*
Y87000D02*
D03*
X72500Y132000D02*
D03*
Y112000D02*
D03*
X70000Y107000D02*
D03*
X72500Y102000D02*
D03*
X70000Y97000D02*
D03*
X72500Y92000D02*
D03*
X70000Y87000D02*
D03*
X72500Y82000D02*
D03*
X70000Y77000D02*
D03*
Y67000D02*
D03*
Y27000D02*
D03*
X72500Y22000D02*
D03*
X70000Y17000D02*
D03*
X72500Y12000D02*
D03*
X70000Y7000D02*
D03*
X67500Y192000D02*
D03*
Y122000D02*
D03*
Y112000D02*
D03*
X65000Y107000D02*
D03*
X67500Y102000D02*
D03*
X65000Y97000D02*
D03*
X67500Y92000D02*
D03*
X65000Y87000D02*
D03*
X67500Y82000D02*
D03*
X65000Y77000D02*
D03*
Y67000D02*
D03*
X67500Y62000D02*
D03*
Y42000D02*
D03*
X65000Y27000D02*
D03*
X67500Y22000D02*
D03*
X65000Y17000D02*
D03*
X67500Y12000D02*
D03*
X65000Y7000D02*
D03*
X60000Y157000D02*
D03*
X62500Y122000D02*
D03*
Y102000D02*
D03*
X60000Y97000D02*
D03*
X62500Y92000D02*
D03*
Y82000D02*
D03*
X60000Y67000D02*
D03*
X62500Y62000D02*
D03*
Y52000D02*
D03*
Y42000D02*
D03*
X60000Y27000D02*
D03*
X62500Y22000D02*
D03*
X57500Y122000D02*
D03*
Y112000D02*
D03*
X55000Y67000D02*
D03*
X57500Y62000D02*
D03*
Y52000D02*
D03*
Y42000D02*
D03*
X55000Y27000D02*
D03*
X57500Y22000D02*
D03*
X50000Y197000D02*
D03*
X52500Y192000D02*
D03*
X50000Y67000D02*
D03*
X52500Y62000D02*
D03*
Y52000D02*
D03*
Y42000D02*
D03*
X50000Y27000D02*
D03*
X52500Y22000D02*
D03*
X47500Y202000D02*
D03*
X45000Y197000D02*
D03*
X47500Y62000D02*
D03*
Y52000D02*
D03*
Y42000D02*
D03*
X45000Y27000D02*
D03*
X47500Y22000D02*
D03*
X45000Y17000D02*
D03*
Y7000D02*
D03*
X32500Y142000D02*
D03*
X27500D02*
D03*
X25000Y107000D02*
D03*
X27500Y72000D02*
D03*
X22500Y142000D02*
D03*
X20000Y107000D02*
D03*
X22500Y72000D02*
D03*
X15000Y107000D02*
D03*
Y37000D02*
D03*
X10000Y197000D02*
D03*
Y187000D02*
D03*
Y177000D02*
D03*
Y97000D02*
D03*
Y57000D02*
D03*
Y47000D02*
D03*
Y37000D02*
D03*
Y27000D02*
D03*
Y17000D02*
D03*
Y7000D02*
D03*
X7500Y202000D02*
D03*
X5000Y197000D02*
D03*
X7500Y192000D02*
D03*
X5000Y187000D02*
D03*
X7500Y182000D02*
D03*
X5000Y177000D02*
D03*
Y97000D02*
D03*
X7500Y92000D02*
D03*
X5000Y87000D02*
D03*
Y57000D02*
D03*
X7500Y52000D02*
D03*
X5000Y47000D02*
D03*
X7500Y42000D02*
D03*
X5000Y37000D02*
D03*
X7500Y32000D02*
D03*
X5000Y27000D02*
D03*
X7500Y22000D02*
D03*
X5000Y17000D02*
D03*
X7500Y12000D02*
D03*
X5000Y7000D02*
D03*
D75*
X38902Y88827D02*
D03*
Y79772D02*
D03*
Y70717D02*
D03*
Y147055D02*
D03*
Y138000D02*
D03*
Y128945D02*
D03*
D76*
X14098Y79772D02*
D03*
Y138000D02*
D03*
D77*
X185945Y132319D02*
D03*
X191850D02*
D03*
X197756D02*
D03*
X203661D02*
D03*
X209567D02*
D03*
X215472D02*
D03*
X221378D02*
D03*
X227284D02*
D03*
X233189D02*
D03*
X239094D02*
D03*
X245000D02*
D03*
X250905D02*
D03*
X256811D02*
D03*
Y183500D02*
D03*
X250905D02*
D03*
X245000D02*
D03*
X239094D02*
D03*
X233189D02*
D03*
X227284D02*
D03*
X221378D02*
D03*
X215472D02*
D03*
X209567D02*
D03*
X203661D02*
D03*
X197756D02*
D03*
X191850D02*
D03*
X185945D02*
D03*
D78*
X178858Y178579D02*
D03*
Y172673D02*
D03*
Y166768D02*
D03*
Y160862D02*
D03*
Y149051D02*
D03*
Y143146D02*
D03*
Y137240D02*
D03*
Y154957D02*
D03*
M02*
