M48
;Layer_Color=9474304
;FILE_FORMAT=2:5
INCH,LZ
;TYPE=PLATED
T1F00S00C0.01181
T2F00S00C0.01220
T3F00S00C0.02362
T4F00S00C0.03000
T5F00S00C0.04000
T6F00S00C0.12598
%
T01
X00775Y0031
X0111Y0023
X01705Y0029
X01945Y01
X02055Y01255
X01895Y0105
X01825Y01005
X01035Y00905
X00965
X01005Y01115
X0099Y0141
X00785Y0181
X0046Y01045
X00455Y0087
X00695Y00475
X00935Y0038
X01205Y00445
T02
X0089Y0026
X0087Y0032
X0097Y0027
X0107Y00265
X0142
X018Y00325
X02015Y0026
X0234
X02435Y0049
X02425Y00815
X0226Y0083
X0218Y00845
X0219Y008
X02075Y0082
X0207Y0077
X0204Y00675
X0193Y00695
X0201Y01005
X0215Y01065
X02175Y01125
X0215Y01155
X02155Y0119
X0226Y01025
X026Y01055
X02625Y01185
X02475Y0163
X0235Y01595
X01945Y0126
X0181Y0129
X01835Y01075
X01865Y01045
X01745Y0103
X0176Y0095
X0169Y0085
X0161Y00805
X0157Y00845
X0151Y009225
X0153Y00995
X01615
X0159Y01035
X01605Y01115
X01445Y01005
X0139Y009
X01285Y0095
X0125Y01065
X01305Y01125
X0128Y01165
X01215Y01195
X012Y0123
X0123Y0128
X01255Y01395
X01315Y0137
X0132Y01425
X0131Y01525
X0134Y01575
X01385Y0163
X01315Y0177
X0106Y01675
X00985Y01695
X0099Y01645
Y0159
X0093Y0168
X00825Y01635
X00795Y01605
X00715Y0162
X00509Y01625
X0051Y01565
X0054Y01675
X0047Y01695
X00585Y0175
X00575Y01325
X00675Y0134
X00775Y0139
X008Y01305
X0086Y0134
X009Y01355
X00865Y01155
X0097Y0117
X0103Y01175
X01115Y0116
X0112Y011
X01135Y0095
X0108Y00915
X01105Y00705
X01315
X01305Y00405
X0136Y0044
X0185319Y0072681
X0191Y0076
X0149Y01425
X011Y0151
X01085Y01275
X0095Y01075
X0055Y01065
X00465Y01355
X0057Y00705
X00055Y00795
X02435Y0192
T03
X0005Y0007
X001
X00075Y0012
X001Y0017
X0005
X00075Y0022
X001Y0027
X0005
X00075Y0032
X0045Y0027
X005
X0055
X006
X0065
X007
X00725Y0022
X00675
X00625
X00575
X00525
X00475
X0045Y0017
Y0007
X0065
X007
X00725Y0012
X00675
X007Y0017
X0065
X01
X0105
X011
X0115
X012
X0125
X0135
Y0007
X0145
X0155Y0017
X016
X0165
X017
X0175
X018
X0185
X019
X01875Y0022
X01825
X01775
X01725
X01675
X01625
X01575
X015Y0027
X01475Y0032
X01375
X01225
X01175
X01075
Y0022
X01025Y0012
X00975
X01Y0007
X0105
X0115
X0125
X019
X01875Y0012
X019Y0027
X0185
X018
X0175
X02025Y0022
X02075
X02125
X0215Y0017
X021
X0225
X0235
Y0007
X0245
X0255
X02575Y0012
X02625
X0265Y0017
X026
X0255
X025
X02525Y0022
X02475
X02425
X0245Y0027
X025
X02475Y0032
X02425
X02375
X02325
X024Y0027
X0225Y0007
X0215
X01925Y0012
Y0052
X0195Y0057
X02075Y0062
X02125
X02175
X021Y0067
X02075Y0072
Y0092
X01975
X02225
X02275
X02325
X02375
X02325Y0082
X02225
X0225Y0077
X02525Y0082
X02575
X0255Y0087
X02625Y0062
X0265Y0057
X026
X02625Y0052
X0265Y0047
X026
X02625Y0042
X022Y0107
X01725Y0112
X01675
X01725Y0142
X017Y0147
X0165
X01675Y0152
X01725
X017Y0157
X0165
X016
X01625Y0162
X01675
X01725
X017Y0167
X0165
X016
X01625Y0172
X01675
X01725
X017Y0177
X0165
X016
X01575Y0172
Y0162
X01625Y0152
X01675Y0182
X01725
X01225
X01175
X01125
X01075
X01025
X0105Y0187
X011
X0115
X012
X0125
Y0177
X012
X0115
X011
X01125Y0172
X01175
X01225
X0125Y0167
X013
X01275Y0162
X012Y0157
X0115
X01175Y0152
X01225
X0125Y0147
X013
X01
X0095Y0137
X00725Y0132
X00675Y0122
X00625
X00575
Y0112
X00675
X00725
X0075Y0107
X007
X0065
X00675Y0102
X00725
X0075Y0097
X007
X0065
X006
X00625Y0102
Y0092
X00675
X00725
X0075Y0087
X007
X0065
X00675Y0082
X00725
X007Y0077
X0065
X00625Y0082
X0065Y0067
X007
X00675Y0062
X00625
X00575
X00525
X00475
X005Y0067
X0055
X006
X00625Y0052
X00575
X00525
X00475
Y0042
X00525
X00575
X00625
X00675
X00925
X00875Y0052
X00825
X0085Y0057
X008
X00825Y0062
X00875
X00925
X0085Y0067
X008
X00825Y0092
X00875Y0102
X009Y0107
X00825Y0112
X0105Y0107
X01175Y0062
X012Y0057
X0115
X01175Y0052
X01225
X01275
X0125Y0047
X0145Y0067
X015
X01475Y0072
X015Y0077
X0145
X01475Y0082
X016Y0077
X01575Y0072
X01625Y0062
X0165Y0057
X016
X0175
X018
X0185
X019
X01875Y0062
X01825
X01775
X0175Y0067
X01075Y0172
X01Y0187
X00875Y0182
X009Y0177
X006Y0157
X00325Y0142
X00275
X00225
X0025Y0107
X002
X0015
X001Y0097
X0005
X00075Y0092
X0005Y0087
Y0057
X001
X00075Y0052
X001Y0047
X0005
X00075Y0042
X001Y0037
X0015
X0005
X00225Y0072
X00275
X001Y0177
X0005
X00075Y0182
X001Y0187
X0005
X00075Y0192
X001Y0197
X0005
X00075Y0202
X00475
X005Y0197
X0045
X00525Y0192
X00675
X00775
X00875
X00925
X00975
X01025
X01075
X01125
X01175
X01475
X017Y0197
X0175
X01725Y0202
T04
X011Y001
X012
X013
X014
X015
X016
X017
X018
X02
X021
X022
X023
X024
X025
X019Y02
X018
X0164
X0154
X0144
X0134
X0124
X0114
X0104
X0094
X0084
X0074
X02
X021
X022
X023
X024
X025
T05
X0203Y0042
X0213
X0223
X0233
X0243
X0253
T06
X0055Y001
X026Y003
X006Y02
M30
