G04 Layer_Physical_Order=1*
G04 Layer_Color=255*
%FSLAX25Y25*%
%MOIN*%
G70*
G01*
G75*
%ADD10O,0.03347X0.00984*%
%ADD11O,0.00984X0.03347*%
%ADD12R,0.07874X0.07874*%
%ADD13R,0.03110X0.03504*%
%ADD14R,0.02362X0.02953*%
%ADD15R,0.02559X0.03740*%
%ADD16R,0.03543X0.03937*%
%ADD17R,0.02520X0.02362*%
%ADD18R,0.02953X0.02362*%
%ADD19R,0.03740X0.02559*%
%ADD20R,0.05315X0.04528*%
%ADD21R,0.02362X0.02520*%
%ADD22R,0.12520X0.05000*%
%ADD23R,0.06102X0.06102*%
%ADD24O,0.02756X0.00984*%
%ADD25O,0.03543X0.00984*%
%ADD26O,0.00984X0.02756*%
%ADD27O,0.00984X0.03543*%
%ADD28R,0.03150X0.03150*%
%ADD29C,0.02000*%
%ADD30C,0.00600*%
%ADD31C,0.01200*%
%ADD32R,0.06000X0.06000*%
%ADD33C,0.06000*%
%ADD34C,0.07400*%
%ADD35C,0.12598*%
%ADD36C,0.03600*%
%ADD37C,0.02200*%
%ADD38C,0.02000*%
G36*
X133082Y140638D02*
Y138523D01*
X132582Y138321D01*
X132163Y138601D01*
X131500Y138733D01*
X130837Y138601D01*
X130274Y138226D01*
X129984Y137791D01*
X121846Y129654D01*
X121493Y129124D01*
X121402Y128669D01*
X121399Y128663D01*
X121306Y128199D01*
X120795Y128003D01*
X120649Y128149D01*
X120351Y128348D01*
X120000Y128418D01*
X110294D01*
X110183Y128582D01*
X110449Y129082D01*
X119500D01*
X119851Y129152D01*
X120149Y129351D01*
X131637Y140839D01*
X132000Y140767D01*
X132582Y140883D01*
X133082Y140638D01*
D02*
G37*
G36*
X150696Y181242D02*
X151082Y181034D01*
Y143418D01*
X150431D01*
X150226Y143726D01*
X149663Y144101D01*
X149000Y144233D01*
X148337Y144101D01*
X147774Y143726D01*
X147461Y143256D01*
X146997Y143325D01*
X146961Y143340D01*
Y177620D01*
X150597Y181256D01*
X150696Y181242D01*
D02*
G37*
G36*
X147774Y141274D02*
X148337Y140899D01*
X149000Y140767D01*
X149663Y140899D01*
X150226Y141274D01*
X150431Y141582D01*
X151082D01*
Y134546D01*
X148532Y131995D01*
X148241Y132190D01*
X147815Y132275D01*
X147461Y132204D01*
X147258Y132287D01*
X146961Y132506D01*
Y141660D01*
X146997Y141675D01*
X147461Y141744D01*
X147774Y141274D01*
D02*
G37*
G36*
X70500Y126582D02*
X107069D01*
X107274Y126274D01*
X107808Y125918D01*
X107814Y125881D01*
X107575Y125418D01*
X70880D01*
X70157Y126141D01*
X70403Y126602D01*
X70500Y126582D01*
D02*
G37*
G36*
X133082Y135477D02*
Y128835D01*
X133119Y128648D01*
X133051Y128602D01*
X132810Y128241D01*
X132783Y128107D01*
X132500Y127918D01*
X131509D01*
Y127926D01*
X131319Y128385D01*
X130860Y128575D01*
X128340D01*
X127881Y128385D01*
X127877Y128376D01*
X125837D01*
X125645Y128838D01*
X132291Y135484D01*
X132582Y135679D01*
X133082Y135477D01*
D02*
G37*
G36*
X49674Y161274D02*
X50237Y160899D01*
X50900Y160767D01*
X51563Y160899D01*
X51869Y161103D01*
X52369Y160835D01*
Y158231D01*
X51869Y157964D01*
X51663Y158101D01*
X51000Y158233D01*
X50337Y158101D01*
X49774Y157726D01*
X49399Y157163D01*
X49267Y156500D01*
X49339Y156137D01*
X47620Y154418D01*
X42129D01*
X41763Y154918D01*
X41779Y155000D01*
Y157000D01*
X34500D01*
X27221D01*
Y155184D01*
X26864Y154777D01*
X26820Y154750D01*
X26409Y155000D01*
Y160000D01*
X26219Y160459D01*
X25760Y160649D01*
X24600D01*
X24409Y161111D01*
X24880Y161582D01*
X49469D01*
X49674Y161274D01*
D02*
G37*
G36*
X91761Y166795D02*
X91774Y166774D01*
X92268Y166445D01*
X92310Y166401D01*
X92356Y166321D01*
X92467Y165863D01*
X92416Y165787D01*
X92346Y165435D01*
Y161693D01*
X91787D01*
X91328Y161503D01*
X91271Y161363D01*
X90729D01*
X90672Y161503D01*
X90213Y161693D01*
X87260D01*
X86803Y161504D01*
X84225Y164082D01*
X84432Y164582D01*
X88500D01*
X88851Y164652D01*
X89149Y164851D01*
X91144Y166847D01*
X91761Y166795D01*
D02*
G37*
G36*
X65951Y158252D02*
X65928Y158218D01*
X65843Y157791D01*
Y156095D01*
X65691Y155867D01*
X65633Y155809D01*
X65405Y155657D01*
X63709D01*
X63283Y155572D01*
X62921Y155331D01*
X62680Y154969D01*
X62595Y154543D01*
X62680Y154117D01*
X62735Y154035D01*
X62883Y153657D01*
X62735Y153279D01*
X62680Y153198D01*
X62191Y153036D01*
X61941Y153173D01*
X61902Y153371D01*
X61681Y153702D01*
X61350Y153923D01*
X60960Y154001D01*
X60200D01*
Y151800D01*
X59700D01*
Y151300D01*
X57421D01*
Y150619D01*
X57424Y150604D01*
X57100Y150161D01*
X56679Y150128D01*
X55631Y151176D01*
Y166988D01*
X55733Y167500D01*
X55668Y167827D01*
X56129Y168073D01*
X65951Y158252D01*
D02*
G37*
G36*
X123839Y139863D02*
X123767Y139500D01*
X123899Y138837D01*
X124274Y138274D01*
X124837Y137899D01*
X125301Y137806D01*
X125497Y137295D01*
X119120Y130918D01*
X81650D01*
X81601Y131163D01*
X81226Y131726D01*
X80663Y132101D01*
X80000Y132233D01*
X79337Y132101D01*
X78774Y131726D01*
X78399Y131163D01*
X78267Y130500D01*
X78399Y129837D01*
X78774Y129274D01*
X79308Y128918D01*
X79314Y128881D01*
X79075Y128418D01*
X70880D01*
X67502Y131795D01*
X67699Y132306D01*
X68163Y132399D01*
X68726Y132774D01*
X69101Y133337D01*
X69233Y134000D01*
X69101Y134663D01*
X68726Y135226D01*
X68291Y135516D01*
X67868Y135940D01*
Y137596D01*
X68172Y137722D01*
X68229Y137861D01*
X68771D01*
X68828Y137722D01*
X69287Y137532D01*
X71297D01*
X75477Y133351D01*
X75775Y133152D01*
X76126Y133082D01*
X84569D01*
X84774Y132774D01*
X85337Y132399D01*
X86000Y132267D01*
X86663Y132399D01*
X87226Y132774D01*
X87601Y133337D01*
X87733Y134000D01*
X87601Y134663D01*
X87226Y135226D01*
X86663Y135601D01*
X86000Y135733D01*
X85337Y135601D01*
X84774Y135226D01*
X84569Y134918D01*
X76506D01*
X72890Y138534D01*
Y140543D01*
X72699Y141003D01*
X72240Y141193D01*
X71418D01*
Y142865D01*
X71715Y143083D01*
X71918Y143166D01*
X72272Y143095D01*
X72698Y143180D01*
X72779Y143234D01*
X73158Y143383D01*
X73536Y143234D01*
X73617Y143180D01*
X74043Y143095D01*
X74469Y143180D01*
X74584Y143256D01*
X76582Y141258D01*
Y140431D01*
X76274Y140226D01*
X75899Y139663D01*
X75767Y139000D01*
X75899Y138337D01*
X76274Y137774D01*
X76837Y137399D01*
X77500Y137267D01*
X78163Y137399D01*
X78726Y137774D01*
X79101Y138337D01*
X79233Y139000D01*
X79101Y139663D01*
X78726Y140226D01*
X78418Y140431D01*
Y141638D01*
X78348Y141989D01*
X78149Y142287D01*
X75157Y145279D01*
Y145905D01*
X75309Y146133D01*
X75367Y146191D01*
X75595Y146343D01*
X77291D01*
X77718Y146428D01*
X77884Y146539D01*
X78025D01*
X78553Y146011D01*
X78851Y145812D01*
X79202Y145742D01*
X81792D01*
Y145380D01*
X81982Y144921D01*
X82442Y144731D01*
X83082D01*
Y142362D01*
X83152Y142011D01*
X83351Y141713D01*
X84851Y140213D01*
X85149Y140014D01*
X85500Y139945D01*
X86610D01*
Y139681D01*
X86801Y139222D01*
X87260Y139032D01*
X87819D01*
Y136764D01*
X87888Y136413D01*
X88087Y136115D01*
X88339Y135863D01*
X88267Y135500D01*
X88399Y134837D01*
X88774Y134274D01*
X89337Y133899D01*
X90000Y133767D01*
X90663Y133899D01*
X91226Y134274D01*
X91601Y134837D01*
X91733Y135500D01*
X91601Y136163D01*
X91226Y136726D01*
X90663Y137101D01*
X90000Y137233D01*
X89654Y137517D01*
Y139032D01*
X90213D01*
X90672Y139222D01*
X90729Y139361D01*
X91271D01*
X91328Y139222D01*
X91787Y139032D01*
X94740D01*
X95199Y139222D01*
X95203Y139231D01*
X98862D01*
X99487Y139355D01*
X100016Y139709D01*
X100154Y139847D01*
X100507Y140376D01*
X100631Y141000D01*
X100507Y141624D01*
X100154Y142154D01*
X99624Y142507D01*
X99000Y142631D01*
X98376Y142507D01*
X98355Y142494D01*
X95203D01*
X95199Y142502D01*
X94895Y142629D01*
Y143598D01*
X94771Y144223D01*
X94417Y144752D01*
X91367Y147803D01*
X91419Y148419D01*
X91497Y148471D01*
X95237D01*
X95696Y148661D01*
X95886Y149120D01*
Y149585D01*
X109057D01*
X109337Y149399D01*
X110000Y149267D01*
X110663Y149399D01*
X111226Y149774D01*
X111601Y150337D01*
X111733Y151000D01*
X111668Y151327D01*
X112129Y151573D01*
X123839Y139863D01*
D02*
G37*
G36*
X80883Y164082D02*
X80767Y163500D01*
X80899Y162837D01*
X81274Y162274D01*
X81709Y161984D01*
X84984Y158709D01*
X85514Y158355D01*
X86138Y158231D01*
X86797D01*
X86801Y158222D01*
X87260Y158032D01*
X90213D01*
X90672Y158222D01*
X90729Y158361D01*
X91271D01*
X91328Y158222D01*
X91787Y158032D01*
X92346D01*
Y152329D01*
X91497D01*
X91387Y152284D01*
X91007Y152487D01*
X90654Y153016D01*
X88376Y155294D01*
X87846Y155647D01*
X87222Y155772D01*
X86686D01*
X86641Y155879D01*
X86182Y156069D01*
X82442D01*
X81982Y155879D01*
X81792Y155420D01*
Y152861D01*
X81982Y152401D01*
X82442Y152211D01*
X86182D01*
X86641Y152401D01*
X86652Y152403D01*
X87869Y151187D01*
Y147362D01*
X87993Y146738D01*
X88346Y146209D01*
X91465Y143090D01*
X91384Y142526D01*
X91328Y142502D01*
X91271Y142364D01*
X90729D01*
X90672Y142502D01*
X90213Y142693D01*
X87260D01*
X86801Y142502D01*
X86610Y142043D01*
Y141780D01*
X85880D01*
X84918Y142742D01*
Y144731D01*
X86182D01*
X86641Y144921D01*
X86831Y145380D01*
Y147939D01*
X86641Y148399D01*
X86182Y148589D01*
X82442D01*
X81982Y148399D01*
X81792Y147939D01*
Y147578D01*
X79582D01*
X79054Y148106D01*
X78757Y148304D01*
X78609Y148334D01*
X78352Y148750D01*
X78334Y148874D01*
X78405Y149228D01*
X78320Y149654D01*
X78266Y149736D01*
X78117Y150114D01*
X78266Y150492D01*
X78320Y150574D01*
X78405Y151000D01*
X78320Y151426D01*
X78266Y151508D01*
X78117Y151886D01*
X78266Y152264D01*
X78320Y152346D01*
X78405Y152772D01*
X78320Y153198D01*
X78395Y153695D01*
X78692Y153894D01*
X80149Y155351D01*
X80348Y155649D01*
X80418Y156000D01*
Y159069D01*
X80726Y159274D01*
X81101Y159837D01*
X81233Y160500D01*
X81101Y161163D01*
X80726Y161726D01*
X80163Y162101D01*
X79500Y162233D01*
X78837Y162101D01*
X78274Y161726D01*
X77899Y161163D01*
X77767Y160500D01*
X77899Y159837D01*
X78274Y159274D01*
X78582Y159069D01*
Y156380D01*
X77752Y155549D01*
X77718Y155572D01*
X77291Y155657D01*
X75595D01*
X75367Y155809D01*
X75309Y155867D01*
X75157Y156095D01*
Y157791D01*
X75072Y158218D01*
X74961Y158384D01*
Y160663D01*
X78880Y164582D01*
X80638D01*
X80883Y164082D01*
D02*
G37*
G36*
X119798Y119656D02*
X119767Y119500D01*
X119899Y118837D01*
X120274Y118274D01*
X120582Y118069D01*
Y116811D01*
X120024D01*
X119564Y116621D01*
X119507Y116482D01*
X118966D01*
X118908Y116621D01*
X118449Y116811D01*
X117371D01*
X117077Y117007D01*
X116453Y117131D01*
X112789D01*
X112726Y117226D01*
X112163Y117601D01*
X111500Y117733D01*
X110837Y117601D01*
X110274Y117226D01*
X109899Y116663D01*
X109767Y116000D01*
X109899Y115337D01*
X110274Y114774D01*
X110709Y114484D01*
X110846Y114347D01*
X111376Y113993D01*
X111754Y113918D01*
X111705Y113418D01*
X108380D01*
X104661Y117137D01*
X104733Y117500D01*
X104601Y118163D01*
X104226Y118726D01*
X103663Y119101D01*
X103000Y119233D01*
X102337Y119101D01*
X101774Y118726D01*
X101399Y118163D01*
X101267Y117500D01*
X101399Y116837D01*
X101774Y116274D01*
X102337Y115899D01*
X103000Y115767D01*
X103363Y115839D01*
X107351Y111851D01*
X107649Y111652D01*
X108000Y111582D01*
X110477D01*
X110679Y111082D01*
X110399Y110663D01*
X110267Y110000D01*
X110399Y109337D01*
X110774Y108774D01*
X111337Y108399D01*
X112000Y108267D01*
X112414Y108349D01*
X115033D01*
X115037Y108340D01*
X115496Y108150D01*
X118449D01*
X118908Y108340D01*
X118966Y108479D01*
X119507D01*
X119564Y108340D01*
X120024Y108150D01*
X122976D01*
X123436Y108340D01*
X123582Y108694D01*
X124082Y108595D01*
Y107931D01*
X123774Y107726D01*
X123569Y107418D01*
X115000D01*
X114649Y107348D01*
X114351Y107149D01*
X99591Y92389D01*
X99392Y92091D01*
X99322Y91740D01*
Y88047D01*
X98961D01*
X98631Y87911D01*
X98131Y88140D01*
Y90500D01*
X98007Y91124D01*
X97654Y91654D01*
X97124Y92007D01*
X96500Y92131D01*
X95876Y92007D01*
X95346Y91654D01*
X94993Y91124D01*
X94869Y90500D01*
Y87631D01*
X90830D01*
Y87713D01*
X90640Y88172D01*
X90631Y88175D01*
Y94324D01*
X101654Y105347D01*
X102007Y105876D01*
X102131Y106500D01*
Y111500D01*
X102007Y112124D01*
X101654Y112654D01*
X101124Y113007D01*
X100500Y113131D01*
X99876Y113007D01*
X99347Y112654D01*
X98993Y112124D01*
X98869Y111500D01*
Y107176D01*
X87846Y96153D01*
X87493Y95624D01*
X87369Y95000D01*
Y88175D01*
X87360Y88172D01*
X87234Y87868D01*
X85736D01*
X85112Y87743D01*
X84583Y87390D01*
X81391Y84198D01*
X80929Y84389D01*
Y87398D01*
X80739Y87857D01*
X80279Y88047D01*
X79918D01*
Y101448D01*
X93598Y115129D01*
X93857Y115060D01*
X94082Y114906D01*
Y108931D01*
X93774Y108726D01*
X93399Y108163D01*
X93267Y107500D01*
X93399Y106837D01*
X93774Y106274D01*
X94337Y105899D01*
X95000Y105767D01*
X95663Y105899D01*
X96226Y106274D01*
X96601Y106837D01*
X96733Y107500D01*
X96601Y108163D01*
X96226Y108726D01*
X95918Y108931D01*
Y114620D01*
X96637Y115339D01*
X97000Y115267D01*
X97663Y115399D01*
X98226Y115774D01*
X98601Y116337D01*
X98733Y117000D01*
X98601Y117663D01*
X98226Y118226D01*
X97732Y118555D01*
X97552Y119082D01*
X98552Y120082D01*
X119430D01*
X119798Y119656D01*
D02*
G37*
G36*
X180687Y97681D02*
X180812Y97057D01*
X181165Y96528D01*
X181766Y95927D01*
Y89582D01*
X181658Y89538D01*
X181468Y89079D01*
Y85339D01*
X181658Y84879D01*
X182118Y84689D01*
X184677D01*
X184869Y84561D01*
Y76000D01*
X184993Y75376D01*
X185320Y74886D01*
Y74883D01*
X185275Y74703D01*
X185113Y74373D01*
X184656Y74282D01*
X184093Y73907D01*
X183888Y73599D01*
X181488D01*
Y74158D01*
X181297Y74617D01*
X180838Y74807D01*
X180575D01*
Y75634D01*
X180937D01*
X181396Y75824D01*
X181586Y76284D01*
Y80024D01*
X181396Y80483D01*
X180937Y80673D01*
X178378D01*
X177918Y80483D01*
X177728Y80024D01*
Y79071D01*
X175726D01*
X170545Y84253D01*
X170601Y84337D01*
X170733Y85000D01*
X170601Y85663D01*
X170226Y86226D01*
X169663Y86601D01*
X169000Y86733D01*
X168337Y86601D01*
X167774Y86226D01*
X167531Y85862D01*
X167031Y86014D01*
Y96050D01*
X167891D01*
X168017Y95745D01*
X168156Y95688D01*
Y95147D01*
X168017Y95089D01*
X167826Y94630D01*
Y91677D01*
X168017Y91218D01*
X168476Y91028D01*
X170838D01*
X171297Y91218D01*
X171488Y91677D01*
Y92236D01*
X174999D01*
Y89728D01*
X174637D01*
X174178Y89538D01*
X173988Y89079D01*
Y85339D01*
X174178Y84879D01*
X174637Y84689D01*
X177197D01*
X177656Y84879D01*
X177846Y85339D01*
Y89079D01*
X177656Y89538D01*
X177197Y89728D01*
X176918D01*
Y93569D01*
X177226Y93774D01*
X177601Y94337D01*
X177733Y95000D01*
X177601Y95663D01*
X177226Y96226D01*
X176663Y96601D01*
X176554Y96623D01*
X176409Y97102D01*
X178176Y98869D01*
X180687D01*
Y97681D01*
D02*
G37*
G36*
X212082Y80380D02*
X209631Y77929D01*
X209131Y78136D01*
Y81488D01*
X209233Y82000D01*
X209101Y82663D01*
X208726Y83226D01*
X208163Y83601D01*
X207500Y83733D01*
X206837Y83601D01*
X206274Y83226D01*
X205899Y82663D01*
X205767Y82000D01*
X205869Y81488D01*
Y78289D01*
X205774Y78226D01*
X205399Y77663D01*
X205267Y77000D01*
X205382Y76418D01*
X205138Y75918D01*
X199330D01*
X199086Y76284D01*
Y80024D01*
X198896Y80483D01*
X198437Y80673D01*
X195878D01*
X195418Y80483D01*
X195228Y80024D01*
Y76918D01*
X192431D01*
X192226Y77226D01*
X191663Y77601D01*
X191000Y77733D01*
X190337Y77601D01*
X189774Y77226D01*
X189399Y76663D01*
X189308Y76206D01*
X188793Y76014D01*
X188131Y76676D01*
Y90797D01*
X188476Y91028D01*
X190838D01*
X191297Y91218D01*
X191488Y91677D01*
Y92185D01*
X191988Y92215D01*
X192351Y91851D01*
X192351Y91851D01*
X192499Y91703D01*
Y89728D01*
X192137D01*
X191678Y89538D01*
X191488Y89079D01*
Y85339D01*
X191678Y84879D01*
X192137Y84689D01*
X194696D01*
X195156Y84879D01*
X195346Y85339D01*
Y89079D01*
X195156Y89538D01*
X194696Y89728D01*
X194335D01*
Y92083D01*
X194265Y92434D01*
X194252Y92454D01*
X200637Y98839D01*
X201000Y98767D01*
X201663Y98899D01*
X202226Y99274D01*
X202601Y99837D01*
X202733Y100500D01*
X202601Y101163D01*
X202226Y101726D01*
X201663Y102101D01*
X201000Y102233D01*
X200337Y102101D01*
X199774Y101726D01*
X199399Y101163D01*
X199267Y100500D01*
X199339Y100137D01*
X193000Y93798D01*
X192995Y93802D01*
X192698Y94001D01*
X192347Y94071D01*
X191488D01*
Y94630D01*
X191297Y95089D01*
X191158Y95147D01*
Y95688D01*
X191297Y95745D01*
X191488Y96205D01*
Y99158D01*
X191297Y99617D01*
X191288Y99620D01*
Y103369D01*
X192869D01*
Y100000D01*
X192993Y99376D01*
X193347Y98847D01*
X193876Y98493D01*
X194500Y98369D01*
X195124Y98493D01*
X195653Y98847D01*
X196007Y99376D01*
X196131Y100000D01*
Y103369D01*
X204369D01*
Y97176D01*
X199744Y92551D01*
X199390Y92022D01*
X199266Y91397D01*
Y89582D01*
X199159Y89538D01*
X198968Y89079D01*
Y85339D01*
X199159Y84879D01*
X199618Y84689D01*
X202177D01*
X202636Y84879D01*
X202826Y85339D01*
Y89079D01*
X202636Y89538D01*
X202529Y89582D01*
Y90721D01*
X207154Y95346D01*
X207507Y95876D01*
X207631Y96500D01*
Y125000D01*
X207532Y125500D01*
X207812Y126000D01*
X212082D01*
Y80380D01*
D02*
G37*
G36*
X159582Y97291D02*
Y81438D01*
X159399Y81163D01*
X159267Y80500D01*
X159399Y79837D01*
X159774Y79274D01*
X160337Y78899D01*
X161000Y78767D01*
X161663Y78899D01*
X162082Y79179D01*
X162582Y78977D01*
Y67880D01*
X138129Y43427D01*
X137668Y43673D01*
X137733Y44000D01*
X137631Y44513D01*
Y47324D01*
X155154Y64846D01*
X155507Y65376D01*
X155631Y66000D01*
Y82769D01*
X156131Y83036D01*
X156337Y82899D01*
X157000Y82767D01*
X157663Y82899D01*
X158226Y83274D01*
X158601Y83837D01*
X158733Y84500D01*
X158601Y85163D01*
X158226Y85726D01*
X157918Y85931D01*
Y98249D01*
X158107Y98386D01*
X158398Y98476D01*
X159582Y97291D01*
D02*
G37*
G36*
X99872Y56987D02*
X100090Y56841D01*
X100516Y56757D01*
X100942Y56841D01*
X101160Y56987D01*
X101500Y57047D01*
X101840Y56987D01*
X102058Y56841D01*
X102484Y56757D01*
X102910Y56841D01*
X103128Y56987D01*
X103469Y57048D01*
X103809Y56987D01*
X104027Y56841D01*
X104453Y56757D01*
X104879Y56841D01*
X105097Y56987D01*
X105437Y57047D01*
X105777Y56987D01*
X105995Y56841D01*
X106376Y56394D01*
X106492Y55812D01*
X106822Y55318D01*
X106904Y54904D01*
X106869Y54851D01*
X106784Y54425D01*
X106869Y53999D01*
X107014Y53781D01*
X107075Y53441D01*
X107014Y53101D01*
X106869Y52883D01*
X106784Y52457D01*
X106869Y52031D01*
X107014Y51813D01*
X107075Y51472D01*
X107014Y51132D01*
X106869Y50914D01*
X106784Y50488D01*
X106869Y50062D01*
X107014Y49844D01*
X107075Y49504D01*
X107014Y49163D01*
X106869Y48946D01*
X106784Y48520D01*
X106869Y48094D01*
X107014Y47876D01*
X107075Y47535D01*
X107014Y47195D01*
X106869Y46977D01*
X106791Y46586D01*
X106784Y46551D01*
X106421Y46188D01*
X106387Y46181D01*
X105995Y46104D01*
X105942Y46068D01*
X105573Y46142D01*
X105336Y46386D01*
X105397Y46690D01*
X105476Y46902D01*
X105896Y47076D01*
X106086Y47535D01*
Y55409D01*
X105896Y55869D01*
X105437Y56059D01*
X97563D01*
X97104Y55869D01*
X96913Y55409D01*
Y47535D01*
X97104Y47076D01*
X97563Y46886D01*
X99455D01*
X99632Y46386D01*
X99395Y46142D01*
X99026Y46068D01*
X98973Y46104D01*
X98547Y46188D01*
X98121Y46104D01*
X97903Y45958D01*
X97563Y45897D01*
X97223Y45958D01*
X97005Y46104D01*
X96613Y46181D01*
X96579Y46188D01*
X96216Y46551D01*
X96209Y46586D01*
X96131Y46977D01*
X95986Y47195D01*
X95925Y47535D01*
X95986Y47876D01*
X96131Y48094D01*
X96216Y48520D01*
X96131Y48946D01*
X95986Y49163D01*
X95925Y49504D01*
X95986Y49844D01*
X96131Y50062D01*
X96216Y50488D01*
X96131Y50914D01*
X95986Y51132D01*
X95925Y51472D01*
X95986Y51813D01*
X96131Y52031D01*
X96216Y52457D01*
X96131Y52883D01*
X95986Y53101D01*
X95925Y53441D01*
X95986Y53781D01*
X96131Y53999D01*
X96216Y54425D01*
X96131Y54851D01*
X96096Y54904D01*
X96178Y55318D01*
X96508Y55812D01*
X96624Y56394D01*
X97005Y56841D01*
X97223Y56987D01*
X97563Y57047D01*
X97903Y56987D01*
X98121Y56841D01*
X98547Y56757D01*
X98973Y56841D01*
X99191Y56987D01*
X99532Y57048D01*
X99872Y56987D01*
D02*
G37*
G36*
X87360Y84301D02*
X87499Y84243D01*
Y83702D01*
X87360Y83644D01*
X87169Y83185D01*
Y80232D01*
X87360Y79773D01*
X87819Y79583D01*
X88082D01*
Y78352D01*
X87120Y77390D01*
X84669D01*
Y78342D01*
X84479Y78802D01*
X84020Y78992D01*
X81461D01*
X81001Y78802D01*
X80811Y78342D01*
Y74602D01*
X81001Y74143D01*
X81461Y73953D01*
X84020D01*
X84479Y74143D01*
X84582Y74393D01*
X85082Y74294D01*
Y73972D01*
X85152Y73621D01*
X85351Y73324D01*
X95661Y63014D01*
Y60825D01*
X95550Y60658D01*
X95465Y60232D01*
Y58353D01*
X95102Y57915D01*
X94421D01*
Y56394D01*
X93921D01*
Y55894D01*
X91318D01*
X91335Y55812D01*
X91664Y55318D01*
X91747Y54904D01*
X91711Y54851D01*
X91627Y54425D01*
X91711Y53999D01*
X91857Y53781D01*
X91918Y53441D01*
X91857Y53101D01*
X91711Y52883D01*
X91627Y52457D01*
X91711Y52031D01*
X91857Y51813D01*
X91918Y51472D01*
X91857Y51132D01*
X91711Y50914D01*
X91627Y50488D01*
X91711Y50062D01*
X91857Y49844D01*
X91918Y49504D01*
X91857Y49163D01*
X91711Y48946D01*
X91627Y48520D01*
X91711Y48094D01*
X91857Y47876D01*
X91918Y47535D01*
X91857Y47195D01*
X91711Y46977D01*
X91627Y46551D01*
X91711Y46125D01*
X91953Y45764D01*
X92314Y45522D01*
X92740Y45438D01*
X95028D01*
X95255Y45285D01*
X95313Y45227D01*
X95465Y45000D01*
Y42713D01*
X95550Y42287D01*
X95791Y41925D01*
X96153Y41684D01*
X96579Y41599D01*
X96598Y41603D01*
X96844Y41142D01*
X96119Y40417D01*
X95920Y40119D01*
X95873Y39882D01*
X95587D01*
X95127Y39691D01*
X95091Y39604D01*
X93638D01*
X93500Y39631D01*
X91000D01*
X90376Y39507D01*
X90330Y39477D01*
X81154Y48654D01*
X80624Y49007D01*
X80000Y49131D01*
X76891D01*
Y72000D01*
Y74099D01*
X76999Y74143D01*
X77189Y74602D01*
Y77882D01*
X78676Y79369D01*
X80500D01*
X81124Y79493D01*
X81653Y79847D01*
X86412Y84605D01*
X87234D01*
X87360Y84301D01*
D02*
G37*
G36*
X125394Y118308D02*
X125692Y118109D01*
X126043Y118039D01*
X126412D01*
X126650Y117539D01*
X126399Y117163D01*
X126267Y116500D01*
X126399Y115837D01*
X126774Y115274D01*
X127337Y114899D01*
X128000Y114767D01*
X128663Y114899D01*
X129226Y115274D01*
X129601Y115837D01*
X129687Y116267D01*
X133246D01*
X133412Y116156D01*
X133839Y116071D01*
X136072D01*
Y113839D01*
X136156Y113412D01*
X136267Y113246D01*
Y112565D01*
X136120Y112418D01*
X132301D01*
X132233Y112500D01*
X132101Y113163D01*
X131726Y113726D01*
X131163Y114101D01*
X130500Y114233D01*
X129837Y114101D01*
X129274Y113726D01*
X128899Y113163D01*
X128803Y112682D01*
X128300Y112478D01*
X125149Y115629D01*
X124851Y115828D01*
X124500Y115898D01*
X123626D01*
Y116161D01*
X123436Y116621D01*
X122976Y116811D01*
X122418D01*
Y118069D01*
X122726Y118274D01*
X123101Y118837D01*
X123233Y119500D01*
X123168Y119827D01*
X123629Y120073D01*
X125394Y118308D01*
D02*
G37*
G36*
X179000Y139000D02*
X177000Y137000D01*
X177351Y136649D01*
X175851Y135149D01*
X175652Y134851D01*
X175582Y134500D01*
Y111380D01*
X166620Y102418D01*
X165277D01*
Y104640D01*
X165207Y104992D01*
X165008Y105289D01*
X160901Y109397D01*
X161046Y109875D01*
X161163Y109899D01*
X161726Y110274D01*
X162101Y110837D01*
X162233Y111500D01*
X162101Y112163D01*
X161726Y112726D01*
X161418Y112931D01*
Y113500D01*
X161809Y113992D01*
X162343D01*
Y116980D01*
X163342D01*
Y113992D01*
X164614D01*
X165004Y114070D01*
X165335Y114291D01*
X165433Y114437D01*
X165886Y114543D01*
X166035Y114507D01*
X166386Y114362D01*
X169929D01*
X170388Y114553D01*
X170579Y115012D01*
Y118949D01*
X170388Y119408D01*
X169929Y119598D01*
X169075D01*
Y120323D01*
X169005Y120674D01*
X168806Y120972D01*
X166149Y123629D01*
X165851Y123828D01*
X165500Y123898D01*
X164153D01*
Y124732D01*
X163963Y125191D01*
X163569Y125355D01*
X163545Y125654D01*
X163574Y125853D01*
X163894Y125916D01*
X164225Y126137D01*
X164446Y126468D01*
X164523Y126858D01*
Y127791D01*
X164779Y127961D01*
X168806Y131989D01*
X169005Y132287D01*
X169075Y132638D01*
Y132992D01*
X169929D01*
X170319Y133070D01*
X170650Y133291D01*
X170871Y133622D01*
X170949Y134012D01*
Y135480D01*
X168157D01*
Y135980D01*
X167657D01*
Y138968D01*
X166386D01*
X165996Y138891D01*
X165665Y138670D01*
X165567Y138523D01*
X165114Y138417D01*
X164964Y138453D01*
X164614Y138598D01*
X161071D01*
X160612Y138408D01*
X160421Y137949D01*
Y136898D01*
X159500D01*
X159149Y136828D01*
X158851Y136629D01*
X156851Y134629D01*
X156652Y134332D01*
X156582Y133980D01*
Y131012D01*
X155945D01*
X155486Y130821D01*
X155295Y130362D01*
Y129528D01*
X155130D01*
X154779Y129458D01*
X154481Y129259D01*
X152722Y127500D01*
X152261Y127746D01*
X152275Y127815D01*
X152190Y128241D01*
X151996Y128532D01*
X154649Y131186D01*
X154848Y131483D01*
X154918Y131835D01*
Y176620D01*
X164380Y186082D01*
X179000D01*
Y139000D01*
D02*
G37*
G36*
X140591Y109066D02*
Y107264D01*
X140781Y106805D01*
X140781Y106621D01*
X140591Y106161D01*
Y105898D01*
X138890D01*
Y106161D01*
X138699Y106621D01*
X138240Y106811D01*
X135287D01*
X135091Y106730D01*
X134827Y106622D01*
X134435Y106880D01*
X134434Y106882D01*
X134103Y107103D01*
X133713Y107181D01*
X132736D01*
Y104980D01*
Y102780D01*
X133713D01*
X134103Y102857D01*
X134434Y103078D01*
X134435Y103080D01*
X134827Y103339D01*
X135091Y103231D01*
X135287Y103150D01*
X135846D01*
Y96764D01*
X135916Y96413D01*
X136115Y96115D01*
X138379Y93851D01*
X139915Y92315D01*
X139873Y91979D01*
X139390Y91656D01*
X139000Y91733D01*
X138337Y91601D01*
X137774Y91226D01*
X137569Y90918D01*
X110070D01*
X109702Y91344D01*
X109733Y91500D01*
X109601Y92163D01*
X109226Y92726D01*
X108663Y93101D01*
X108000Y93233D01*
X107337Y93101D01*
X106774Y92726D01*
X106399Y92163D01*
X106267Y91500D01*
X106399Y90837D01*
X106774Y90274D01*
X107337Y89899D01*
X108000Y89767D01*
X108363Y89839D01*
X108851Y89351D01*
X109149Y89152D01*
X109500Y89082D01*
X137569D01*
X137774Y88774D01*
X138337Y88399D01*
X139000Y88267D01*
X139582Y88383D01*
X140082Y88138D01*
Y67380D01*
X129851Y57149D01*
X129652Y56851D01*
X129582Y56500D01*
Y41931D01*
X129274Y41726D01*
X128899Y41163D01*
X128767Y40500D01*
X128899Y39837D01*
X129274Y39274D01*
X129837Y38899D01*
X130500Y38767D01*
X131163Y38899D01*
X131726Y39274D01*
X132101Y39837D01*
X132233Y40500D01*
X132101Y41163D01*
X131726Y41726D01*
X131418Y41931D01*
Y56120D01*
X141649Y66351D01*
X141848Y66649D01*
X141918Y67000D01*
Y92528D01*
X141848Y92879D01*
X141712Y93082D01*
X141873Y93582D01*
X149244D01*
X149512Y93082D01*
X149399Y92913D01*
X149267Y92250D01*
X149399Y91587D01*
X149774Y91024D01*
X150337Y90649D01*
X151000Y90517D01*
X151663Y90649D01*
X151869Y90786D01*
X152369Y90519D01*
Y66676D01*
X134846Y49154D01*
X134493Y48624D01*
X134369Y48000D01*
Y44513D01*
X134267Y44000D01*
X134399Y43337D01*
X134774Y42774D01*
X135337Y42399D01*
X136000Y42267D01*
X136327Y42332D01*
X136573Y41871D01*
X131620Y36918D01*
X114695D01*
X112973Y38640D01*
X113180Y39140D01*
X113700D01*
Y41340D01*
X114200D01*
Y41840D01*
X116479D01*
Y42521D01*
X116449Y42673D01*
X116782Y43173D01*
X119606D01*
X119876Y42993D01*
X120500Y42869D01*
X121124Y42993D01*
X121653Y43347D01*
X122007Y43876D01*
X122131Y44500D01*
X122007Y45124D01*
X121653Y45654D01*
X121349Y45958D01*
X120820Y46312D01*
X120195Y46436D01*
X115923D01*
X115919Y46445D01*
X115460Y46635D01*
X113667D01*
X113102Y47200D01*
X112805Y47399D01*
X112453Y47469D01*
X111472D01*
X111205Y47969D01*
X111289Y48094D01*
X111373Y48520D01*
X111289Y48946D01*
X111143Y49163D01*
X111082Y49504D01*
X111143Y49844D01*
X111289Y50062D01*
X111373Y50488D01*
X111289Y50914D01*
X111143Y51132D01*
X111082Y51472D01*
X111143Y51813D01*
X111289Y52031D01*
X111373Y52457D01*
X111289Y52883D01*
X111143Y53101D01*
X111082Y53441D01*
X111143Y53781D01*
X111289Y53999D01*
X111373Y54425D01*
X111289Y54851D01*
X111253Y54904D01*
X111336Y55318D01*
X111665Y55812D01*
X111682Y55894D01*
X109079D01*
Y56394D01*
X108579D01*
Y57915D01*
X107898D01*
X107535Y58353D01*
Y60232D01*
X107450Y60658D01*
X107209Y61020D01*
X106847Y61261D01*
X106421Y61346D01*
X105995Y61261D01*
X105870Y61178D01*
X105370Y61445D01*
Y62809D01*
X105584Y62978D01*
X105649Y62983D01*
X106152Y62812D01*
X106260Y62553D01*
X106719Y62363D01*
X109081D01*
X109342Y62471D01*
X109462Y62292D01*
X109793Y62071D01*
X110184Y61993D01*
X110865D01*
Y64272D01*
Y66552D01*
X110184D01*
X109793Y66474D01*
X109462Y66253D01*
X109342Y66074D01*
X109081Y66182D01*
X106719D01*
X106260Y65991D01*
X106070Y65532D01*
Y65190D01*
X105300D01*
X104949Y65120D01*
X104651Y64921D01*
X103804Y64074D01*
X103605Y63776D01*
X103535Y63425D01*
Y61445D01*
X103035Y61178D01*
X102910Y61261D01*
X102484Y61346D01*
X102058Y61261D01*
X101840Y61116D01*
X101500Y61055D01*
X101160Y61116D01*
X100942Y61261D01*
X100516Y61346D01*
X100090Y61261D01*
X99965Y61178D01*
X99465Y61445D01*
Y64140D01*
X104629Y69304D01*
X104828Y69602D01*
X104898Y69953D01*
Y73953D01*
X105260D01*
X105719Y74143D01*
X105909Y74602D01*
Y75555D01*
X108000D01*
X108351Y75625D01*
X108649Y75824D01*
X110149Y77324D01*
X110348Y77621D01*
X110418Y77972D01*
Y79071D01*
X110681D01*
X111140Y79261D01*
X111330Y79720D01*
Y82673D01*
X111140Y83132D01*
X111001Y83190D01*
Y83731D01*
X111140Y83789D01*
X111330Y84248D01*
Y87201D01*
X111140Y87660D01*
X110681Y87850D01*
X108457D01*
X104654Y91654D01*
X104124Y92007D01*
X103500Y92131D01*
X102876Y92007D01*
X102347Y91654D01*
X101993Y91124D01*
X101869Y90500D01*
X101993Y89876D01*
X102347Y89346D01*
X107122Y84571D01*
X107651Y84217D01*
X107685Y84210D01*
X107860Y83789D01*
X107999Y83731D01*
Y83190D01*
X107860Y83132D01*
X107669Y82673D01*
Y79720D01*
X107860Y79261D01*
X108319Y79071D01*
X108582D01*
Y78352D01*
X107620Y77390D01*
X105909D01*
Y78342D01*
X105719Y78802D01*
X105260Y78992D01*
X102701D01*
X102242Y78802D01*
X102051Y78342D01*
Y74602D01*
X102242Y74143D01*
X102701Y73953D01*
X103063D01*
Y70333D01*
X97898Y65168D01*
X97699Y64871D01*
X97630Y64520D01*
Y64329D01*
X97514Y64247D01*
X97130Y64140D01*
X86918Y74353D01*
Y75555D01*
X87500D01*
X87851Y75625D01*
X88149Y75824D01*
X89649Y77324D01*
X89848Y77621D01*
X89918Y77972D01*
Y79583D01*
X90181D01*
X90640Y79773D01*
X90830Y80232D01*
Y83185D01*
X90640Y83644D01*
X90723Y84151D01*
X90949Y84369D01*
X94324D01*
X94869Y83824D01*
Y78846D01*
X94761Y78802D01*
X94571Y78342D01*
Y74602D01*
X94761Y74143D01*
X95221Y73953D01*
X97780D01*
X98239Y74143D01*
X98429Y74602D01*
Y78342D01*
X98239Y78802D01*
X98131Y78846D01*
Y82915D01*
X98631Y83144D01*
X98961Y83008D01*
X101520D01*
X101979Y83198D01*
X102169Y83657D01*
Y87398D01*
X101979Y87857D01*
X101520Y88047D01*
X101158D01*
Y91360D01*
X115380Y105582D01*
X123569D01*
X123774Y105274D01*
X124337Y104899D01*
X125000Y104767D01*
X125663Y104899D01*
X126226Y105274D01*
X126601Y105837D01*
X126733Y106500D01*
X126601Y107163D01*
X126226Y107726D01*
X125918Y107931D01*
Y109063D01*
X127423D01*
X128154Y108332D01*
X128452Y108133D01*
X128803Y108063D01*
X138500D01*
X138851Y108133D01*
X139149Y108332D01*
X140091Y109273D01*
X140591Y109066D01*
D02*
G37*
G36*
X147301Y106882D02*
X147305Y106772D01*
X147154Y106321D01*
X146860Y106199D01*
X146669Y105740D01*
Y102787D01*
X146860Y102328D01*
X146999Y102271D01*
Y101758D01*
X146961Y101714D01*
X146860Y101672D01*
X146798Y101523D01*
X146665Y101368D01*
X145965D01*
X145726Y101726D01*
X145163Y102101D01*
X144500Y102233D01*
X143837Y102101D01*
X143274Y101726D01*
X142899Y101163D01*
X142767Y100500D01*
X142899Y99837D01*
X143274Y99274D01*
X143709Y98984D01*
X144110Y98583D01*
X144640Y98229D01*
X145264Y98105D01*
X146734D01*
X146860Y97801D01*
X147319Y97610D01*
X149681D01*
X150140Y97801D01*
X150266Y98105D01*
X151947D01*
X152369Y97683D01*
Y94064D01*
X151940Y93808D01*
X151848Y93851D01*
X151649Y94149D01*
X150649Y95149D01*
X150351Y95348D01*
X150000Y95418D01*
X139408D01*
X137681Y97144D01*
Y103150D01*
X138240D01*
X138699Y103340D01*
X138890Y103799D01*
Y104063D01*
X140591D01*
Y103799D01*
X140781Y103340D01*
X141240Y103150D01*
X143760D01*
X144219Y103340D01*
X144409Y103799D01*
Y106161D01*
X144219Y106621D01*
X144219Y106805D01*
X144409Y107264D01*
Y107527D01*
X146655D01*
X147301Y106882D01*
D02*
G37*
G36*
X178139Y134086D02*
X178082Y133803D01*
Y108880D01*
X173851Y104649D01*
X173805Y104580D01*
X173274Y104226D01*
X172899Y103663D01*
X172767Y103000D01*
X172899Y102337D01*
X173274Y101774D01*
X173837Y101399D01*
X174500Y101267D01*
X175163Y101399D01*
X175726Y101774D01*
X176101Y102337D01*
X176233Y103000D01*
X176101Y103663D01*
X175845Y104047D01*
X179649Y107851D01*
X179848Y108149D01*
X179918Y108500D01*
Y126642D01*
X180418Y126975D01*
X180500Y126958D01*
Y129000D01*
X181500D01*
Y126958D01*
X181819Y127022D01*
X182514Y127486D01*
X182684Y127740D01*
X183181Y127789D01*
X184567Y126403D01*
Y126000D01*
X186768D01*
Y125500D01*
X187268D01*
Y123221D01*
X187949D01*
X188339Y123298D01*
X188670Y123519D01*
X188790Y123699D01*
X189051Y123591D01*
X191413D01*
X191873Y123781D01*
X191909Y123869D01*
X194000D01*
X194624Y123993D01*
X195153Y124346D01*
X195291Y124484D01*
X195726Y124774D01*
X196101Y125337D01*
X196233Y126000D01*
X199582D01*
Y123880D01*
X184547Y108845D01*
X184163Y109101D01*
X183500Y109233D01*
X182837Y109101D01*
X182274Y108726D01*
X181899Y108163D01*
X181767Y107500D01*
X181899Y106837D01*
X182274Y106274D01*
X182837Y105899D01*
X183500Y105767D01*
X184163Y105899D01*
X184726Y106274D01*
X185035Y106737D01*
X201149Y122851D01*
X201348Y123149D01*
X201418Y123500D01*
Y126000D01*
X203574D01*
X203891Y125613D01*
X203869Y125500D01*
X203993Y124876D01*
X204346Y124346D01*
X204369Y124324D01*
Y106631D01*
X189657D01*
X189578Y106616D01*
X189500Y106631D01*
X188876Y106507D01*
X188347Y106154D01*
X188194Y105925D01*
X188097Y105884D01*
X187564Y105834D01*
X187163Y106101D01*
X186500Y106233D01*
X185837Y106101D01*
X185274Y105726D01*
X184899Y105163D01*
X184767Y104500D01*
X184869Y103988D01*
Y98146D01*
X184369Y97938D01*
X183950Y98357D01*
Y99791D01*
X184007Y99876D01*
X184131Y100500D01*
X184007Y101124D01*
X183653Y101654D01*
X183124Y102007D01*
X182500Y102131D01*
X177500D01*
X176876Y102007D01*
X176347Y101654D01*
X174005Y99313D01*
X171423D01*
X171297Y99617D01*
X170838Y99807D01*
X168476D01*
X168017Y99617D01*
X167891Y99313D01*
X165400D01*
X164988Y99230D01*
X164553Y99529D01*
X164515Y99958D01*
X164911Y100354D01*
X165064Y100582D01*
X167000D01*
X167351Y100652D01*
X167649Y100851D01*
X177149Y110351D01*
X177348Y110649D01*
X177418Y111000D01*
Y134109D01*
X177752Y134387D01*
X178139Y134086D01*
D02*
G37*
G36*
X179000Y190549D02*
Y187918D01*
X164000D01*
X163649Y187848D01*
X163351Y187649D01*
X153418Y177715D01*
X153149Y177766D01*
X152918Y177900D01*
Y180805D01*
X161195Y189082D01*
X176500D01*
X176851Y189152D01*
X177149Y189351D01*
X178538Y190740D01*
X179000Y190549D01*
D02*
G37*
G36*
X122185Y196855D02*
X123060Y196493D01*
X124000Y196369D01*
X124940Y196493D01*
X125815Y196855D01*
X125833Y196869D01*
X130582Y192120D01*
Y178794D01*
X130418Y178683D01*
X129918Y178949D01*
Y188000D01*
X129848Y188351D01*
X129649Y188649D01*
X121703Y196594D01*
X122034Y196971D01*
X122185Y196855D01*
D02*
G37*
G36*
X259133Y199641D02*
Y194000D01*
X250918D01*
Y196351D01*
X253000D01*
X253459Y196541D01*
X253649Y197000D01*
Y203000D01*
X253459Y203459D01*
X253000Y203649D01*
X247000D01*
X246541Y203459D01*
X246351Y203000D01*
Y197000D01*
X246541Y196541D01*
X247000Y196351D01*
X249082D01*
Y194000D01*
X235951D01*
X235760Y194462D01*
X238167Y196869D01*
X238184Y196855D01*
X239060Y196493D01*
X240000Y196369D01*
X240940Y196493D01*
X241815Y196855D01*
X242567Y197432D01*
X243145Y198185D01*
X243507Y199060D01*
X243631Y200000D01*
X243507Y200940D01*
X243145Y201816D01*
X242567Y202568D01*
X241815Y203145D01*
X240940Y203507D01*
X240000Y203631D01*
X239060Y203507D01*
X238184Y203145D01*
X237433Y202568D01*
X236855Y201816D01*
X236493Y200940D01*
X236369Y200000D01*
X236493Y199060D01*
X236855Y198185D01*
X236869Y198167D01*
X232702Y194000D01*
X225951D01*
X225760Y194462D01*
X228167Y196869D01*
X228185Y196855D01*
X229060Y196493D01*
X230000Y196369D01*
X230940Y196493D01*
X231816Y196855D01*
X232568Y197432D01*
X233145Y198185D01*
X233507Y199060D01*
X233631Y200000D01*
X233507Y200940D01*
X233145Y201816D01*
X232568Y202568D01*
X231816Y203145D01*
X230940Y203507D01*
X230000Y203631D01*
X229060Y203507D01*
X228185Y203145D01*
X227432Y202568D01*
X226855Y201816D01*
X226493Y200940D01*
X226369Y200000D01*
X226493Y199060D01*
X226855Y198185D01*
X226869Y198167D01*
X222702Y194000D01*
X215951D01*
X215760Y194462D01*
X218167Y196869D01*
X218184Y196855D01*
X219060Y196493D01*
X220000Y196369D01*
X220940Y196493D01*
X221815Y196855D01*
X222568Y197432D01*
X223145Y198185D01*
X223507Y199060D01*
X223631Y200000D01*
X223507Y200940D01*
X223145Y201816D01*
X222568Y202568D01*
X221815Y203145D01*
X220940Y203507D01*
X220000Y203631D01*
X219060Y203507D01*
X218184Y203145D01*
X217432Y202568D01*
X216855Y201816D01*
X216493Y200940D01*
X216369Y200000D01*
X216493Y199060D01*
X216855Y198185D01*
X216869Y198167D01*
X212702Y194000D01*
X205951D01*
X205760Y194462D01*
X208167Y196869D01*
X208185Y196855D01*
X209060Y196493D01*
X210000Y196369D01*
X210940Y196493D01*
X211816Y196855D01*
X212567Y197432D01*
X213145Y198185D01*
X213507Y199060D01*
X213631Y200000D01*
X213507Y200940D01*
X213145Y201816D01*
X212567Y202568D01*
X211816Y203145D01*
X210940Y203507D01*
X210000Y203631D01*
X209060Y203507D01*
X208185Y203145D01*
X207433Y202568D01*
X206855Y201816D01*
X206493Y200940D01*
X206369Y200000D01*
X206493Y199060D01*
X206855Y198185D01*
X206869Y198167D01*
X202851Y194149D01*
X202752Y194000D01*
X193451D01*
X193260Y194462D01*
X196642Y197845D01*
X197141Y197812D01*
X197432Y197432D01*
X198185Y196855D01*
X199060Y196493D01*
X200000Y196369D01*
X200940Y196493D01*
X201816Y196855D01*
X202568Y197432D01*
X203145Y198185D01*
X203507Y199060D01*
X203631Y200000D01*
X203507Y200940D01*
X203145Y201816D01*
X202568Y202568D01*
X201816Y203145D01*
X200940Y203507D01*
X200000Y203631D01*
X199060Y203507D01*
X198185Y203145D01*
X197432Y202568D01*
X196855Y201816D01*
X196493Y200940D01*
X196394Y200192D01*
X190202Y194000D01*
X182451D01*
X182260Y194462D01*
X186282Y198484D01*
X186772Y198386D01*
X186855Y198185D01*
X187432Y197432D01*
X188184Y196855D01*
X189060Y196493D01*
X190000Y196369D01*
X190940Y196493D01*
X191815Y196855D01*
X192568Y197432D01*
X193145Y198185D01*
X193507Y199060D01*
X193631Y200000D01*
X193507Y200940D01*
X193145Y201816D01*
X192568Y202568D01*
X191815Y203145D01*
X190940Y203507D01*
X190000Y203631D01*
X189060Y203507D01*
X188184Y203145D01*
X187432Y202568D01*
X186855Y201816D01*
X186493Y200940D01*
X186489Y200916D01*
X186149Y200848D01*
X185851Y200649D01*
X183897Y198695D01*
X183473Y198978D01*
X183507Y199060D01*
X183631Y200000D01*
X183507Y200940D01*
X183145Y201816D01*
X182568Y202568D01*
X181816Y203145D01*
X180940Y203507D01*
X180000Y203631D01*
X179060Y203507D01*
X178184Y203145D01*
X177432Y202568D01*
X176855Y201816D01*
X176493Y200940D01*
X176369Y200000D01*
X176493Y199060D01*
X176855Y198185D01*
X177432Y197432D01*
X177812Y197141D01*
X177845Y196642D01*
X175120Y193918D01*
X161043D01*
X160692Y193848D01*
X160394Y193649D01*
X145689Y178944D01*
X145189Y179151D01*
Y179892D01*
X161648Y196351D01*
X167000D01*
X167459Y196541D01*
X167649Y197000D01*
Y203000D01*
X167459Y203459D01*
X167000Y203649D01*
X161000D01*
X160541Y203459D01*
X160351Y203000D01*
Y197648D01*
X143918Y181215D01*
X143418Y181422D01*
Y182120D01*
X154649Y193351D01*
X154848Y193649D01*
X154918Y194000D01*
Y196490D01*
X154940Y196493D01*
X155815Y196855D01*
X156568Y197432D01*
X157145Y198185D01*
X157507Y199060D01*
X157631Y200000D01*
X157507Y200940D01*
X157145Y201816D01*
X156568Y202568D01*
X155815Y203145D01*
X154940Y203507D01*
X154000Y203631D01*
X153060Y203507D01*
X152184Y203145D01*
X151432Y202568D01*
X150855Y201816D01*
X150493Y200940D01*
X150369Y200000D01*
X150493Y199060D01*
X150855Y198185D01*
X151432Y197432D01*
X152184Y196855D01*
X153060Y196493D01*
X153082Y196490D01*
Y194380D01*
X142380Y183677D01*
X141918Y183869D01*
Y185120D01*
X144649Y187851D01*
X144848Y188149D01*
X144918Y188500D01*
Y196490D01*
X144940Y196493D01*
X145816Y196855D01*
X146568Y197432D01*
X147145Y198185D01*
X147507Y199060D01*
X147631Y200000D01*
X147507Y200940D01*
X147145Y201816D01*
X146568Y202568D01*
X145816Y203145D01*
X144940Y203507D01*
X144000Y203631D01*
X143060Y203507D01*
X142184Y203145D01*
X141432Y202568D01*
X140855Y201816D01*
X140493Y200940D01*
X140369Y200000D01*
X140493Y199060D01*
X140855Y198185D01*
X141432Y197432D01*
X142184Y196855D01*
X143060Y196493D01*
X143082Y196490D01*
Y188880D01*
X140351Y186149D01*
X140152Y185851D01*
X140082Y185500D01*
Y165032D01*
X139582Y164766D01*
X139495Y164825D01*
Y169423D01*
X139425Y169774D01*
X139226Y170072D01*
X136418Y172880D01*
Y197317D01*
X136568Y197432D01*
X137145Y198185D01*
X137507Y199060D01*
X137631Y200000D01*
X137507Y200940D01*
X137145Y201816D01*
X136568Y202568D01*
X135816Y203145D01*
X134940Y203507D01*
X134000Y203631D01*
X133060Y203507D01*
X132185Y203145D01*
X131432Y202568D01*
X130855Y201816D01*
X130493Y200940D01*
X130369Y200000D01*
X130493Y199060D01*
X130855Y198185D01*
X131432Y197432D01*
X132185Y196855D01*
X133060Y196493D01*
X134000Y196369D01*
X134206Y196396D01*
X134582Y196066D01*
Y172500D01*
X134602Y172403D01*
X134141Y172157D01*
X132418Y173880D01*
Y175569D01*
X132726Y175774D01*
X133101Y176337D01*
X133233Y177000D01*
X133101Y177663D01*
X132726Y178226D01*
X132418Y178431D01*
Y192500D01*
X132348Y192851D01*
X132149Y193149D01*
X127131Y198167D01*
X127145Y198185D01*
X127507Y199060D01*
X127631Y200000D01*
X127507Y200940D01*
X127145Y201816D01*
X126568Y202568D01*
X125815Y203145D01*
X124940Y203507D01*
X124000Y203631D01*
X123060Y203507D01*
X122185Y203145D01*
X121432Y202568D01*
X120855Y201816D01*
X120493Y200940D01*
X120369Y200000D01*
X120493Y199060D01*
X120855Y198185D01*
X120971Y198034D01*
X120594Y197703D01*
X117649Y200649D01*
X117536Y200725D01*
X117507Y200940D01*
X117145Y201816D01*
X116568Y202568D01*
X115815Y203145D01*
X114940Y203507D01*
X114000Y203631D01*
X113060Y203507D01*
X112185Y203145D01*
X111432Y202568D01*
X110855Y201816D01*
X110493Y200940D01*
X110369Y200000D01*
X110493Y199060D01*
X110855Y198185D01*
X111432Y197432D01*
X112185Y196855D01*
X113060Y196493D01*
X114000Y196369D01*
X114940Y196493D01*
X115815Y196855D01*
X116568Y197432D01*
X117000Y197995D01*
X117601Y198102D01*
X128082Y187620D01*
Y172500D01*
X128152Y172149D01*
X128351Y171851D01*
X133082Y167120D01*
Y158931D01*
X132774Y158726D01*
X132399Y158163D01*
X132267Y157500D01*
X132399Y156837D01*
X132774Y156274D01*
X133082Y156069D01*
Y153425D01*
X132619Y153186D01*
X132582Y153192D01*
X132226Y153726D01*
X131663Y154101D01*
X131000Y154233D01*
X130637Y154161D01*
X119649Y165149D01*
X119351Y165348D01*
X119000Y165418D01*
X106925D01*
X106686Y165881D01*
X106692Y165918D01*
X107226Y166274D01*
X107601Y166837D01*
X107733Y167500D01*
X107601Y168163D01*
X107226Y168726D01*
X106663Y169101D01*
X106000Y169233D01*
X105488Y169131D01*
X101176D01*
X100016Y170291D01*
X99726Y170726D01*
X99163Y171101D01*
X98500Y171233D01*
X97837Y171101D01*
X97274Y170726D01*
X96899Y170163D01*
X96767Y169500D01*
X96899Y168837D01*
X97274Y168274D01*
X97709Y167984D01*
X98986Y166707D01*
X98794Y166192D01*
X98337Y166101D01*
X97774Y165726D01*
X97399Y165163D01*
X97267Y164500D01*
X97399Y163837D01*
X97774Y163274D01*
X98337Y162899D01*
X99000Y162767D01*
X99663Y162899D01*
X100226Y163274D01*
X100431Y163582D01*
X118620D01*
X129339Y152863D01*
X129267Y152500D01*
X129399Y151837D01*
X129774Y151274D01*
X130337Y150899D01*
X131000Y150767D01*
X131663Y150899D01*
X132226Y151274D01*
X132582Y151808D01*
X132619Y151814D01*
X133082Y151575D01*
Y144362D01*
X132582Y144117D01*
X132000Y144233D01*
X131337Y144101D01*
X130774Y143726D01*
X130399Y143163D01*
X130267Y142500D01*
X130339Y142137D01*
X127705Y139503D01*
X127194Y139699D01*
X127101Y140163D01*
X126726Y140726D01*
X126163Y141101D01*
X125500Y141233D01*
X125137Y141161D01*
X106649Y159649D01*
X106351Y159848D01*
X106000Y159918D01*
X100431D01*
X100226Y160226D01*
X99663Y160601D01*
X99000Y160733D01*
X98337Y160601D01*
X97774Y160226D01*
X97399Y159663D01*
X97267Y159000D01*
X97399Y158337D01*
X97774Y157774D01*
X98337Y157399D01*
X99000Y157267D01*
X99663Y157399D01*
X100226Y157774D01*
X100431Y158082D01*
X105620D01*
X110573Y153129D01*
X110327Y152668D01*
X110000Y152733D01*
X109337Y152601D01*
X108774Y152226D01*
X108399Y151663D01*
X108350Y151421D01*
X95886D01*
Y151680D01*
X95696Y152139D01*
X95237Y152329D01*
X94181D01*
Y158032D01*
X94740D01*
X95199Y158222D01*
X95390Y158681D01*
Y161043D01*
X95199Y161503D01*
X94740Y161693D01*
X94181D01*
Y165055D01*
X95649Y166523D01*
X95848Y166820D01*
X95918Y167172D01*
Y178500D01*
X95848Y178851D01*
X95649Y179149D01*
X84918Y189880D01*
Y196490D01*
X84940Y196493D01*
X85816Y196855D01*
X86568Y197432D01*
X87145Y198185D01*
X87507Y199060D01*
X87631Y200000D01*
X87507Y200940D01*
X87145Y201816D01*
X86568Y202568D01*
X85816Y203145D01*
X84940Y203507D01*
X84000Y203631D01*
X83060Y203507D01*
X82184Y203145D01*
X81432Y202568D01*
X80855Y201816D01*
X80493Y200940D01*
X80369Y200000D01*
X80493Y199060D01*
X80855Y198185D01*
X81432Y197432D01*
X82184Y196855D01*
X83060Y196493D01*
X83082Y196490D01*
Y189500D01*
X83152Y189149D01*
X83351Y188851D01*
X94082Y178120D01*
Y169862D01*
X93582Y169617D01*
X93000Y169733D01*
X92337Y169601D01*
X91774Y169226D01*
X91569Y168918D01*
X91000D01*
X90649Y168848D01*
X90351Y168649D01*
X88120Y166418D01*
X79762D01*
X79662Y166918D01*
X79819Y166982D01*
X80009Y167442D01*
Y168394D01*
X82450D01*
X82801Y168464D01*
X83099Y168663D01*
X84549Y170113D01*
X84748Y170411D01*
X84818Y170762D01*
Y171910D01*
X85081D01*
X85540Y172101D01*
X85730Y172560D01*
Y175513D01*
X85540Y175972D01*
X85401Y176029D01*
Y176571D01*
X85540Y176628D01*
X85730Y177087D01*
Y180040D01*
X85540Y180499D01*
X85531Y180503D01*
Y180600D01*
X85407Y181224D01*
X85053Y181754D01*
X84153Y182653D01*
X83624Y183007D01*
X83000Y183131D01*
X79000D01*
X78376Y183007D01*
X77846Y182653D01*
X77346Y182153D01*
X76993Y181624D01*
X76869Y181000D01*
Y177113D01*
X76769Y177047D01*
X76269Y177314D01*
Y180237D01*
X76079Y180696D01*
X75620Y180886D01*
X74918D01*
Y196490D01*
X74940Y196493D01*
X75815Y196855D01*
X76568Y197432D01*
X77145Y198185D01*
X77507Y199060D01*
X77631Y200000D01*
X77507Y200940D01*
X77145Y201816D01*
X76568Y202568D01*
X75815Y203145D01*
X74940Y203507D01*
X74000Y203631D01*
X73060Y203507D01*
X72184Y203145D01*
X71432Y202568D01*
X70855Y201816D01*
X70493Y200940D01*
X70369Y200000D01*
X70493Y199060D01*
X70855Y198185D01*
X71432Y197432D01*
X72184Y196855D01*
X73060Y196493D01*
X73082Y196490D01*
Y180886D01*
X73061D01*
X72601Y180696D01*
X72411Y180237D01*
Y179285D01*
X66531D01*
Y180040D01*
X66340Y180499D01*
X65881Y180690D01*
X63519D01*
X63060Y180499D01*
X62870Y180040D01*
Y177087D01*
X63060Y176628D01*
X63199Y176571D01*
Y176058D01*
X63161Y176014D01*
X63060Y175972D01*
X62998Y175823D01*
X62865Y175668D01*
X60140D01*
X60016Y175791D01*
X59726Y176226D01*
X59163Y176601D01*
X58500Y176733D01*
X57837Y176601D01*
X57274Y176226D01*
X56899Y175663D01*
X56806Y175199D01*
X56295Y175003D01*
X49918Y181380D01*
Y188500D01*
X49848Y188851D01*
X49649Y189149D01*
X40317Y198480D01*
X40524Y198980D01*
X40760D01*
X41150Y199058D01*
X41481Y199279D01*
X41702Y199610D01*
X41779Y200000D01*
Y202000D01*
X34500D01*
X27221D01*
Y200000D01*
X27298Y199610D01*
X27427Y199418D01*
X27248Y198967D01*
X27205Y198918D01*
X26021D01*
X25922Y199418D01*
X26219Y199541D01*
X26409Y200000D01*
Y205000D01*
X26219Y205459D01*
X25760Y205649D01*
X13240D01*
X12781Y205459D01*
X12591Y205000D01*
Y200000D01*
X12781Y199541D01*
X13240Y199351D01*
X21352D01*
X23351Y197351D01*
X23649Y197152D01*
X24000Y197082D01*
X39120D01*
X39721Y196482D01*
X39529Y196020D01*
X35000D01*
Y193000D01*
X41779D01*
Y193770D01*
X42241Y193961D01*
X48082Y188120D01*
Y181428D01*
X47582Y181221D01*
X40654Y188149D01*
X40357Y188348D01*
X40005Y188418D01*
X25380D01*
X24909Y188889D01*
X25100Y189351D01*
X25760D01*
X26219Y189541D01*
X26409Y190000D01*
Y195000D01*
X26219Y195459D01*
X25760Y195649D01*
X13240D01*
X12781Y195459D01*
X12591Y195000D01*
Y190000D01*
X12781Y189541D01*
X13240Y189351D01*
X21852D01*
X24351Y186851D01*
X24649Y186652D01*
X25000Y186582D01*
X39227D01*
X39269Y186520D01*
X39002Y186020D01*
X35000D01*
Y183000D01*
X41779D01*
Y183775D01*
X42241Y183966D01*
X47328Y178880D01*
X47137Y178418D01*
X24380D01*
X23909Y178889D01*
X24101Y179351D01*
X25760D01*
X26219Y179541D01*
X26409Y180000D01*
Y185000D01*
X26219Y185459D01*
X25760Y185649D01*
X13240D01*
X12781Y185459D01*
X12591Y185000D01*
Y180000D01*
X12781Y179541D01*
X13240Y179351D01*
X20852D01*
X23351Y176851D01*
X23649Y176652D01*
X24000Y176582D01*
X47620D01*
X54573Y169629D01*
X54327Y169168D01*
X54000Y169233D01*
X53337Y169101D01*
X52774Y168726D01*
X52399Y168163D01*
X52267Y167500D01*
X52369Y166988D01*
Y164165D01*
X51869Y163897D01*
X51563Y164101D01*
X50900Y164233D01*
X50237Y164101D01*
X49674Y163726D01*
X49469Y163418D01*
X24500D01*
X24149Y163348D01*
X23851Y163149D01*
X21352Y160649D01*
X13240D01*
X12781Y160459D01*
X12591Y160000D01*
Y155000D01*
X12781Y154541D01*
X13240Y154351D01*
X23846D01*
X24053Y153851D01*
X20852Y150649D01*
X13240D01*
X12781Y150459D01*
X12591Y150000D01*
Y145000D01*
X12781Y144541D01*
X13240Y144351D01*
X25760D01*
X26219Y144541D01*
X26409Y145000D01*
Y150000D01*
X26219Y150459D01*
X25760Y150649D01*
X24101D01*
X23909Y151111D01*
X25380Y152582D01*
X48000D01*
X48351Y152652D01*
X48649Y152851D01*
X50637Y154839D01*
X51000Y154767D01*
X51663Y154899D01*
X51869Y155036D01*
X52369Y154769D01*
Y150500D01*
X52493Y149876D01*
X52846Y149346D01*
X55011Y147182D01*
X55540Y146828D01*
X56165Y146704D01*
X57977D01*
X57981Y146695D01*
X58069Y146659D01*
Y145300D01*
X58193Y144676D01*
X58547Y144147D01*
X64110Y138583D01*
Y138181D01*
X64301Y137722D01*
X64605Y137596D01*
Y135400D01*
X64265Y135206D01*
X64117Y135180D01*
X59649Y139649D01*
X59351Y139848D01*
X59000Y139918D01*
X26500D01*
X26149Y139848D01*
X25851Y139649D01*
X21852Y135649D01*
X13240D01*
X12781Y135459D01*
X12591Y135000D01*
Y130000D01*
X12781Y129541D01*
X13240Y129351D01*
X25760D01*
X26219Y129541D01*
X26409Y130000D01*
Y135000D01*
X26219Y135459D01*
X25760Y135649D01*
X25100D01*
X24909Y136111D01*
X26880Y138082D01*
X58620D01*
X67843Y128859D01*
X67597Y128398D01*
X67500Y128418D01*
X25000D01*
X24649Y128348D01*
X24351Y128149D01*
X21852Y125649D01*
X13240D01*
X12781Y125459D01*
X12591Y125000D01*
Y120000D01*
X12781Y119541D01*
X13240Y119351D01*
X25760D01*
X26219Y119541D01*
X26409Y120000D01*
Y125000D01*
X26219Y125459D01*
X25760Y125649D01*
X25100D01*
X24909Y126111D01*
X25380Y126582D01*
X67120D01*
X69851Y123851D01*
X70149Y123652D01*
X70500Y123582D01*
X117930D01*
X118298Y123156D01*
X118267Y123000D01*
X118383Y122418D01*
X118138Y121918D01*
X98172D01*
X97820Y121848D01*
X97523Y121649D01*
X78351Y102477D01*
X78152Y102180D01*
X78082Y101828D01*
Y88047D01*
X77720D01*
X77261Y87857D01*
X77071Y87398D01*
Y83657D01*
X77261Y83198D01*
X77594Y83060D01*
X77571Y82546D01*
X77376Y82507D01*
X76846Y82153D01*
X74106Y79413D01*
X73765Y78903D01*
X73521Y78802D01*
X73331Y78342D01*
Y74602D01*
X72985Y74131D01*
X61676D01*
X54497Y81310D01*
X54689Y81772D01*
X56000D01*
Y84555D01*
X52823D01*
Y83637D01*
X52361Y83446D01*
X47653Y88153D01*
X47124Y88507D01*
X46500Y88631D01*
X45500D01*
X44876Y88507D01*
X44346Y88153D01*
X43993Y87624D01*
X43869Y87000D01*
X43993Y86376D01*
X44346Y85847D01*
X44876Y85493D01*
X45500Y85369D01*
X45824D01*
X59847Y71346D01*
X60376Y70993D01*
X61000Y70869D01*
X73628D01*
Y49131D01*
X41984D01*
X41704Y49606D01*
X41706Y49631D01*
X41779Y50000D01*
Y52000D01*
X34500D01*
X27221D01*
Y50000D01*
X27294Y49631D01*
X27296Y49606D01*
X27016Y49131D01*
X26463D01*
X26257Y49631D01*
X26409Y50000D01*
Y55000D01*
X26219Y55459D01*
X25760Y55649D01*
X21131D01*
Y59351D01*
X25760D01*
X26219Y59541D01*
X26409Y60000D01*
Y65000D01*
X26219Y65459D01*
X25760Y65649D01*
X13240D01*
X12781Y65459D01*
X12591Y65000D01*
Y64131D01*
X11176D01*
X7131Y68176D01*
Y78987D01*
X7233Y79500D01*
X7101Y80163D01*
X6726Y80726D01*
X6163Y81101D01*
X5500Y81233D01*
X4837Y81101D01*
X4274Y80726D01*
X3899Y80163D01*
X3767Y79500D01*
X3869Y78987D01*
Y67500D01*
X3993Y66876D01*
X4346Y66347D01*
X9347Y61347D01*
X9876Y60993D01*
X10500Y60869D01*
X12591D01*
Y60000D01*
X12781Y59541D01*
X13240Y59351D01*
X17869D01*
Y55649D01*
X13240D01*
X12781Y55459D01*
X12591Y55000D01*
Y50000D01*
X12781Y49541D01*
X13240Y49351D01*
X20342D01*
X23347Y46347D01*
X23641Y46149D01*
X23490Y45649D01*
X13240D01*
X12781Y45459D01*
X12591Y45000D01*
Y40000D01*
X12781Y39541D01*
X13240Y39351D01*
X17869D01*
Y34500D01*
Y30649D01*
X13240D01*
X12781Y30459D01*
X12591Y30000D01*
Y25000D01*
X12781Y24541D01*
X13240Y24351D01*
X25760D01*
X26219Y24541D01*
X26409Y25000D01*
Y30000D01*
X26219Y30459D01*
X25760Y30649D01*
X21131D01*
Y32869D01*
X76017D01*
X76168Y32369D01*
X75846Y32153D01*
X75493Y31624D01*
X75386Y31089D01*
X75243Y30874D01*
X75119Y30250D01*
Y29250D01*
X75110Y29247D01*
X74919Y28787D01*
Y25835D01*
X75110Y25375D01*
X75249Y25318D01*
Y24777D01*
X75110Y24719D01*
X74919Y24260D01*
Y21307D01*
X75110Y20848D01*
X75526Y20675D01*
Y17224D01*
X75175D01*
X74716Y17034D01*
X74526Y16575D01*
Y13425D01*
X74716Y12966D01*
X75175Y12776D01*
X78325D01*
X78784Y12966D01*
X78974Y13425D01*
Y16575D01*
X78784Y17034D01*
X78325Y17224D01*
X77974D01*
Y20675D01*
X78390Y20848D01*
X78581Y21307D01*
Y24260D01*
X78390Y24719D01*
X78251Y24777D01*
Y25318D01*
X78390Y25375D01*
X78581Y25835D01*
Y28787D01*
X78390Y29247D01*
X78519Y29712D01*
X78654Y29847D01*
X79007Y30376D01*
X79131Y31000D01*
X79007Y31624D01*
X78654Y32153D01*
X78332Y32369D01*
X78483Y32869D01*
X83824D01*
X85484Y31209D01*
X85774Y30774D01*
X86337Y30399D01*
X87000Y30267D01*
X87663Y30399D01*
X88226Y30774D01*
X88601Y31337D01*
X88733Y32000D01*
X88601Y32663D01*
X88226Y33226D01*
X87791Y33516D01*
X85654Y35653D01*
X85124Y36007D01*
X84500Y36131D01*
X21131D01*
Y39351D01*
X25760D01*
X26219Y39541D01*
X26409Y40000D01*
Y45000D01*
X26257Y45369D01*
X26463Y45869D01*
X27016D01*
X27296Y45394D01*
X27294Y45369D01*
X27221Y45000D01*
Y43000D01*
X34500D01*
X41779D01*
Y45000D01*
X41706Y45369D01*
X41704Y45394D01*
X41984Y45869D01*
X79324D01*
X89096Y36097D01*
X89626Y35743D01*
X90250Y35619D01*
X90874Y35743D01*
X91404Y36097D01*
X91676Y36369D01*
X93389D01*
X93528Y36341D01*
X95091D01*
X95127Y36253D01*
X95587Y36063D01*
X97949D01*
X98210Y36171D01*
X98330Y35992D01*
X98661Y35771D01*
X99051Y35693D01*
X99732D01*
Y37972D01*
X100732D01*
Y35693D01*
X101413D01*
X101804Y35771D01*
X102082Y35957D01*
X102319Y35897D01*
X102582Y35762D01*
Y34873D01*
X102105Y34719D01*
X101646Y34909D01*
X99283D01*
X99022Y34801D01*
X98902Y34981D01*
X98571Y35202D01*
X98181Y35279D01*
X97500D01*
Y33000D01*
Y30721D01*
X98181D01*
X98571Y30798D01*
X98902Y31019D01*
X99022Y31199D01*
X99283Y31091D01*
X101646D01*
X102105Y31281D01*
X102295Y31740D01*
Y32082D01*
X102500D01*
X102851Y32152D01*
X103149Y32351D01*
X104149Y33351D01*
X104348Y33649D01*
X104418Y34000D01*
Y40705D01*
X104416Y40713D01*
X104446Y41101D01*
X104779Y41256D01*
X105035Y41307D01*
X105528Y41637D01*
X105942Y41719D01*
X105995Y41684D01*
X106421Y41599D01*
X106847Y41684D01*
X107139Y41879D01*
X113666Y35351D01*
X113964Y35152D01*
X114315Y35082D01*
X132000D01*
X132351Y35152D01*
X132649Y35351D01*
X164149Y66851D01*
X164348Y67149D01*
X164418Y67500D01*
Y82622D01*
X164880Y82813D01*
X168869Y78824D01*
Y29000D01*
X168993Y28376D01*
X169346Y27847D01*
X169876Y27493D01*
X170500Y27369D01*
X171124Y27493D01*
X171653Y27847D01*
X172007Y28376D01*
X172131Y29000D01*
Y79364D01*
X172471Y79558D01*
X172619Y79583D01*
X174698Y77505D01*
X174995Y77306D01*
X175347Y77236D01*
X177728D01*
Y76284D01*
X177918Y75824D01*
X178378Y75634D01*
X178740D01*
Y74807D01*
X178476D01*
X178017Y74617D01*
X177826Y74158D01*
Y71205D01*
X178017Y70745D01*
X178156Y70688D01*
Y70147D01*
X178017Y70089D01*
X177826Y69630D01*
Y66677D01*
X178017Y66218D01*
X178476Y66028D01*
X180838D01*
X181297Y66218D01*
X181423Y66522D01*
X191654D01*
X192278Y66646D01*
X192807Y67000D01*
X193000Y67193D01*
X193193Y67000D01*
X193722Y66646D01*
X194346Y66522D01*
X195391D01*
X195517Y66218D01*
X195976Y66028D01*
X198338D01*
X198797Y66218D01*
X198988Y66677D01*
Y69630D01*
X198797Y70089D01*
X198658Y70147D01*
Y70688D01*
X198797Y70745D01*
X198988Y71205D01*
Y71763D01*
X200439D01*
X202847Y69356D01*
X202795Y68739D01*
X202774Y68726D01*
X202399Y68163D01*
X202267Y67500D01*
X202399Y66837D01*
X202774Y66274D01*
X203337Y65899D01*
X204000Y65767D01*
X204663Y65899D01*
X205226Y66274D01*
X205601Y66837D01*
X205733Y67500D01*
X205601Y68163D01*
X205226Y68726D01*
X204918Y68931D01*
Y69500D01*
X204848Y69851D01*
X204649Y70149D01*
X201468Y73330D01*
X201170Y73529D01*
X200901Y73582D01*
X200950Y74082D01*
X208000D01*
X208351Y74152D01*
X208649Y74351D01*
X213582Y79285D01*
X213851Y79234D01*
X214082Y79100D01*
Y69000D01*
X214152Y68649D01*
X214351Y68351D01*
X218851Y63851D01*
X219149Y63652D01*
X219500Y63582D01*
X227591D01*
Y62000D01*
X227781Y61541D01*
X228240Y61351D01*
X240760D01*
X241219Y61541D01*
X241409Y62000D01*
Y67000D01*
X241219Y67459D01*
X240922Y67582D01*
X241021Y68082D01*
X241620D01*
X242623Y67079D01*
X242591Y67000D01*
Y62000D01*
X242781Y61541D01*
X243240Y61351D01*
X255760D01*
X256219Y61541D01*
X256409Y62000D01*
Y67000D01*
X256219Y67459D01*
X255760Y67649D01*
X244648D01*
X242649Y69649D01*
X242351Y69848D01*
X242000Y69918D01*
X228380D01*
X220153Y78144D01*
X220205Y78761D01*
X220226Y78774D01*
X220601Y79337D01*
X220733Y80000D01*
X220601Y80663D01*
X220226Y81226D01*
X219663Y81601D01*
X219000Y81733D01*
X218337Y81601D01*
X217774Y81226D01*
X217399Y80663D01*
X217267Y80000D01*
X217399Y79337D01*
X217774Y78774D01*
X218082Y78569D01*
Y78000D01*
X218152Y77649D01*
X218351Y77351D01*
X227351Y68351D01*
X227649Y68152D01*
X228000Y68082D01*
X228078Y67582D01*
X227781Y67459D01*
X227591Y67000D01*
Y65418D01*
X219880D01*
X215918Y69380D01*
Y83575D01*
X216381Y83814D01*
X216418Y83808D01*
X216774Y83274D01*
X217337Y82899D01*
X218000Y82767D01*
X218663Y82899D01*
X219226Y83274D01*
X219516Y83709D01*
X221676Y85869D01*
X235824D01*
X240984Y80709D01*
X241274Y80274D01*
X241709Y79984D01*
X243582Y78111D01*
X243390Y77649D01*
X243240D01*
X242781Y77459D01*
X242591Y77000D01*
Y72000D01*
X242781Y71541D01*
X243240Y71351D01*
X255760D01*
X256219Y71541D01*
X256409Y72000D01*
Y77000D01*
X256219Y77459D01*
X255760Y77649D01*
X248658D01*
X244016Y82291D01*
X243726Y82726D01*
X243291Y83016D01*
X237653Y88653D01*
X237124Y89007D01*
X236500Y89131D01*
X221000D01*
X220376Y89007D01*
X219847Y88653D01*
X217209Y86016D01*
X216774Y85726D01*
X216418Y85192D01*
X216381Y85186D01*
X215918Y85425D01*
Y105069D01*
X216226Y105274D01*
X216601Y105837D01*
X216733Y106500D01*
X216601Y107163D01*
X216226Y107726D01*
X215663Y108101D01*
X215000Y108233D01*
X214418Y108117D01*
X213918Y108362D01*
Y113638D01*
X214418Y113883D01*
X215000Y113767D01*
X215663Y113899D01*
X215755Y113849D01*
X215917Y113192D01*
X215899Y113163D01*
X215767Y112500D01*
X215899Y111837D01*
X216274Y111274D01*
X216837Y110899D01*
X217500Y110767D01*
X218163Y110899D01*
X218547Y111155D01*
X223351Y106351D01*
X223649Y106152D01*
X224000Y106082D01*
X227591D01*
Y104500D01*
X227781Y104041D01*
X228240Y103851D01*
X240760D01*
X241219Y104041D01*
X241409Y104500D01*
Y109500D01*
X241219Y109959D01*
X240760Y110149D01*
X228240D01*
X227781Y109959D01*
X227591Y109500D01*
Y107918D01*
X224380D01*
X221715Y110582D01*
X221922Y111082D01*
X244120D01*
X244591Y110611D01*
X244399Y110149D01*
X243240D01*
X242781Y109959D01*
X242591Y109500D01*
Y104500D01*
X242781Y104041D01*
X243240Y103851D01*
X255760D01*
X256219Y104041D01*
X256409Y104500D01*
Y109500D01*
X256219Y109959D01*
X255760Y110149D01*
X247648D01*
X245149Y112649D01*
X244851Y112848D01*
X244500Y112918D01*
X221880D01*
X219215Y115582D01*
X219266Y115851D01*
X219400Y116082D01*
X227591D01*
Y114500D01*
X227781Y114041D01*
X228240Y113851D01*
X240760D01*
X241219Y114041D01*
X241409Y114500D01*
Y119500D01*
X241219Y119959D01*
X240760Y120149D01*
X228240D01*
X227781Y119959D01*
X227591Y119500D01*
Y117918D01*
X217380D01*
X217045Y118253D01*
X217101Y118337D01*
X217233Y119000D01*
X217101Y119663D01*
X216726Y120226D01*
X216163Y120601D01*
X215500Y120733D01*
X214837Y120601D01*
X214418Y120321D01*
X213918Y120523D01*
Y126000D01*
X253702D01*
X260839Y118863D01*
X260767Y118500D01*
X260899Y117837D01*
X261274Y117274D01*
X261837Y116899D01*
X262500Y116767D01*
X263163Y116899D01*
X263582Y117179D01*
X264082Y116977D01*
Y105380D01*
X261620Y102918D01*
X240000D01*
X239649Y102848D01*
X239351Y102649D01*
X236852Y100149D01*
X229648D01*
X227661Y102137D01*
X227733Y102500D01*
X227601Y103163D01*
X227226Y103726D01*
X226663Y104101D01*
X226000Y104233D01*
X225337Y104101D01*
X224774Y103726D01*
X224399Y103163D01*
X224267Y102500D01*
X224399Y101837D01*
X224774Y101274D01*
X225337Y100899D01*
X226000Y100767D01*
X226363Y100839D01*
X227623Y99579D01*
X227591Y99500D01*
Y94500D01*
X227781Y94041D01*
X228240Y93851D01*
X240760D01*
X241219Y94041D01*
X241409Y94500D01*
Y99500D01*
X241219Y99959D01*
X240760Y100149D01*
X240101D01*
X239909Y100611D01*
X240380Y101082D01*
X262000D01*
X262351Y101152D01*
X262649Y101351D01*
X265649Y104351D01*
X265848Y104649D01*
X265918Y105000D01*
Y121500D01*
X265848Y121851D01*
X265649Y122149D01*
X262260Y125538D01*
X262451Y126000D01*
X269133D01*
Y15059D01*
X259397Y5622D01*
X259393Y5617D01*
X259387Y5613D01*
X259297Y5478D01*
X259205Y5344D01*
X259203Y5337D01*
X259199Y5332D01*
X259168Y5172D01*
X259134Y5014D01*
X259135Y5007D01*
X259133Y5000D01*
Y3633D01*
X256367Y867D01*
X867D01*
Y209133D01*
X249641D01*
X259133Y199641D01*
D02*
G37*
G36*
X82069Y177087D02*
X82260Y176628D01*
X82399Y176571D01*
Y176029D01*
X82260Y175972D01*
X82069Y175513D01*
Y172560D01*
X82260Y172101D01*
X82719Y171910D01*
X82982D01*
Y171142D01*
X82069Y170229D01*
X80009D01*
Y171182D01*
X79819Y171641D01*
X79360Y171831D01*
X76801D01*
X76342Y171641D01*
X76151Y171182D01*
Y167442D01*
X76342Y166982D01*
X76801Y166792D01*
X77163D01*
Y165460D01*
X73705Y162003D01*
X73194Y162199D01*
X73101Y162663D01*
X72726Y163226D01*
X72163Y163601D01*
X71500Y163733D01*
X70837Y163601D01*
X70274Y163226D01*
X69899Y162663D01*
X69806Y162199D01*
X69295Y162003D01*
X59380Y171917D01*
X59406Y172065D01*
X59600Y172405D01*
X62934D01*
X63060Y172101D01*
X63519Y171910D01*
X65881D01*
X66340Y172101D01*
X66531Y172560D01*
Y175513D01*
X66340Y175972D01*
X66201Y176029D01*
Y176571D01*
X66340Y176628D01*
X66531Y177087D01*
Y177449D01*
X72411D01*
Y176497D01*
X72413Y176494D01*
X72079Y175994D01*
X71862D01*
X71238Y175869D01*
X70709Y175516D01*
X69446Y174253D01*
X69093Y173724D01*
X68969Y173100D01*
Y171686D01*
X68861Y171641D01*
X68671Y171182D01*
Y167442D01*
X68861Y166982D01*
X69320Y166792D01*
X71880D01*
X72339Y166982D01*
X72529Y167442D01*
Y171182D01*
X72339Y171641D01*
X72231Y171686D01*
Y172424D01*
X72538Y172731D01*
X76825D01*
X77450Y172855D01*
X77979Y173209D01*
X79654Y174883D01*
X80007Y175413D01*
X80131Y176037D01*
Y179869D01*
X82069D01*
Y177087D01*
D02*
G37*
%LPC*%
G36*
X34000Y161020D02*
X28240D01*
X27850Y160942D01*
X27519Y160721D01*
X27298Y160390D01*
X27221Y160000D01*
Y158000D01*
X34000D01*
Y161020D01*
D02*
G37*
G36*
X40760D02*
X35000D01*
Y158000D01*
X41779D01*
Y160000D01*
X41702Y160390D01*
X41481Y160721D01*
X41150Y160942D01*
X40760Y161020D01*
D02*
G37*
G36*
X59200Y154001D02*
X58440D01*
X58050Y153923D01*
X57719Y153702D01*
X57498Y153371D01*
X57421Y152981D01*
Y152300D01*
X59200D01*
Y154001D01*
D02*
G37*
G36*
X93421Y57915D02*
X92740D01*
X92158Y57799D01*
X91664Y57469D01*
X91335Y56976D01*
X91318Y56894D01*
X93421D01*
Y57915D01*
D02*
G37*
G36*
X169929Y138968D02*
X168658D01*
Y136480D01*
X170949D01*
Y137949D01*
X170871Y138339D01*
X170650Y138670D01*
X170319Y138891D01*
X169929Y138968D01*
D02*
G37*
G36*
X110260Y57915D02*
X109579D01*
Y56894D01*
X111682D01*
X111665Y56976D01*
X111336Y57469D01*
X110842Y57799D01*
X110260Y57915D01*
D02*
G37*
G36*
X116479Y40840D02*
X114700D01*
Y39140D01*
X115460D01*
X115850Y39217D01*
X116181Y39438D01*
X116402Y39769D01*
X116479Y40159D01*
Y40840D01*
D02*
G37*
G36*
X112546Y66552D02*
X111865D01*
Y64772D01*
X113565D01*
Y65532D01*
X113488Y65922D01*
X113267Y66253D01*
X112936Y66474D01*
X112546Y66552D01*
D02*
G37*
G36*
X113565Y63772D02*
X111865D01*
Y61993D01*
X112546D01*
X112936Y62071D01*
X113267Y62292D01*
X113488Y62622D01*
X113565Y63013D01*
Y63772D01*
D02*
G37*
G36*
X131500Y72233D02*
X130837Y72101D01*
X130274Y71726D01*
X130069Y71418D01*
X111931D01*
X111726Y71726D01*
X111163Y72101D01*
X110500Y72233D01*
X109837Y72101D01*
X109274Y71726D01*
X108899Y71163D01*
X108767Y70500D01*
X108899Y69837D01*
X109274Y69274D01*
X109837Y68899D01*
X110500Y68767D01*
X111163Y68899D01*
X111726Y69274D01*
X111931Y69582D01*
X130069D01*
X130274Y69274D01*
X130837Y68899D01*
X131500Y68767D01*
X132163Y68899D01*
X132726Y69274D01*
X133101Y69837D01*
X133233Y70500D01*
X133101Y71163D01*
X132726Y71726D01*
X132163Y72101D01*
X131500Y72233D01*
D02*
G37*
G36*
X131736Y104480D02*
X129740D01*
Y103799D01*
X129818Y103409D01*
X130039Y103078D01*
X130370Y102857D01*
X130760Y102780D01*
X131736D01*
Y104480D01*
D02*
G37*
G36*
Y107181D02*
X130760D01*
X130370Y107103D01*
X130039Y106882D01*
X129818Y106552D01*
X129740Y106161D01*
Y105480D01*
X131736D01*
Y107181D01*
D02*
G37*
G36*
X128500Y96733D02*
X127837Y96601D01*
X127274Y96226D01*
X127069Y95918D01*
X114931D01*
X114726Y96226D01*
X114163Y96601D01*
X113500Y96733D01*
X112837Y96601D01*
X112274Y96226D01*
X111899Y95663D01*
X111767Y95000D01*
X111899Y94337D01*
X112274Y93774D01*
X112837Y93399D01*
X113500Y93267D01*
X114163Y93399D01*
X114726Y93774D01*
X114931Y94082D01*
X127069D01*
X127274Y93774D01*
X127837Y93399D01*
X128500Y93267D01*
X129163Y93399D01*
X129726Y93774D01*
X130101Y94337D01*
X130233Y95000D01*
X130101Y95663D01*
X129726Y96226D01*
X129163Y96601D01*
X128500Y96733D01*
D02*
G37*
G36*
X186268Y125000D02*
X184567D01*
Y124240D01*
X184645Y123850D01*
X184866Y123519D01*
X185196Y123298D01*
X185587Y123221D01*
X186268D01*
Y125000D01*
D02*
G37*
G36*
X260000Y36979D02*
X259969Y36966D01*
X259936Y36976D01*
X258701Y36854D01*
X258643Y36823D01*
X258577Y36830D01*
X257389Y36469D01*
X257338Y36427D01*
X257272Y36421D01*
X256177Y35836D01*
X256135Y35784D01*
X256071Y35765D01*
X255112Y34978D01*
X255081Y34919D01*
X255022Y34888D01*
X254235Y33929D01*
X254216Y33865D01*
X254164Y33823D01*
X253579Y32728D01*
X253573Y32662D01*
X253531Y32611D01*
X253170Y31423D01*
X253177Y31357D01*
X253146Y31299D01*
X253024Y30064D01*
X253043Y30000D01*
X253024Y29936D01*
X253146Y28701D01*
X253177Y28643D01*
X253170Y28577D01*
X253531Y27389D01*
X253573Y27338D01*
X253579Y27272D01*
X254164Y26177D01*
X254216Y26135D01*
X254235Y26071D01*
X255022Y25112D01*
X255081Y25081D01*
X255112Y25022D01*
X256071Y24235D01*
X256135Y24216D01*
X256177Y24164D01*
X257272Y23579D01*
X257338Y23573D01*
X257389Y23531D01*
X258577Y23170D01*
X258643Y23177D01*
X258701Y23146D01*
X259936Y23024D01*
X259969Y23034D01*
X260000Y23021D01*
X260031Y23034D01*
X260064Y23024D01*
X261298Y23146D01*
X261357Y23177D01*
X261423Y23170D01*
X262611Y23531D01*
X262662Y23573D01*
X262728Y23579D01*
X263823Y24164D01*
X263865Y24216D01*
X263929Y24235D01*
X264888Y25022D01*
X264919Y25081D01*
X264978Y25112D01*
X265765Y26071D01*
X265784Y26135D01*
X265836Y26177D01*
X266421Y27272D01*
X266427Y27338D01*
X266469Y27389D01*
X266829Y28577D01*
X266823Y28643D01*
X266854Y28701D01*
X266976Y29936D01*
X266957Y30000D01*
X266976Y30064D01*
X266854Y31299D01*
X266823Y31357D01*
X266829Y31423D01*
X266469Y32611D01*
X266427Y32662D01*
X266421Y32728D01*
X265836Y33823D01*
X265784Y33865D01*
X265765Y33929D01*
X264978Y34888D01*
X264919Y34919D01*
X264888Y34978D01*
X263929Y35765D01*
X263865Y35784D01*
X263823Y35836D01*
X262728Y36421D01*
X262662Y36427D01*
X262611Y36469D01*
X261423Y36830D01*
X261357Y36823D01*
X261298Y36854D01*
X260064Y36976D01*
X260031Y36966D01*
X260000Y36979D01*
D02*
G37*
G36*
X96500Y32500D02*
X94799D01*
Y31740D01*
X94877Y31350D01*
X95098Y31019D01*
X95429Y30798D01*
X95819Y30721D01*
X96500D01*
Y32500D01*
D02*
G37*
G36*
Y35279D02*
X95819D01*
X95429Y35202D01*
X95098Y34981D01*
X94877Y34650D01*
X94799Y34260D01*
Y33500D01*
X96500D01*
Y35279D01*
D02*
G37*
G36*
X222500Y41500D02*
X218325D01*
X218421Y40773D01*
X218895Y39630D01*
X219648Y38648D01*
X220630Y37894D01*
X221773Y37421D01*
X222500Y37325D01*
Y41500D01*
D02*
G37*
G36*
X213000Y46337D02*
X211877Y46189D01*
X210831Y45756D01*
X209933Y45067D01*
X209244Y44168D01*
X208811Y43123D01*
X208663Y42000D01*
X208811Y40878D01*
X209244Y39832D01*
X209933Y38933D01*
X210831Y38244D01*
X211877Y37811D01*
X213000Y37663D01*
X214123Y37811D01*
X215169Y38244D01*
X216067Y38933D01*
X216756Y39832D01*
X217189Y40878D01*
X217337Y42000D01*
X217189Y43123D01*
X216756Y44168D01*
X216067Y45067D01*
X215169Y45756D01*
X214123Y46189D01*
X213000Y46337D01*
D02*
G37*
G36*
X243000D02*
X241878Y46189D01*
X240831Y45756D01*
X239933Y45067D01*
X239244Y44168D01*
X238811Y43123D01*
X238663Y42000D01*
X238811Y40878D01*
X239244Y39832D01*
X239933Y38933D01*
X240831Y38244D01*
X241878Y37811D01*
X243000Y37663D01*
X244123Y37811D01*
X245169Y38244D01*
X246067Y38933D01*
X246756Y39832D01*
X247189Y40878D01*
X247337Y42000D01*
X247189Y43123D01*
X246756Y44168D01*
X246067Y45067D01*
X245169Y45756D01*
X244123Y46189D01*
X243000Y46337D01*
D02*
G37*
G36*
X227675Y41500D02*
X223500D01*
Y37325D01*
X224227Y37421D01*
X225370Y37894D01*
X226352Y38648D01*
X227105Y39630D01*
X227579Y40773D01*
X227675Y41500D01*
D02*
G37*
G36*
X203000Y46337D02*
X201877Y46189D01*
X200831Y45756D01*
X199933Y45067D01*
X199244Y44168D01*
X198811Y43123D01*
X198663Y42000D01*
X198811Y40878D01*
X199244Y39832D01*
X199933Y38933D01*
X200831Y38244D01*
X201877Y37811D01*
X203000Y37663D01*
X204122Y37811D01*
X205169Y38244D01*
X206067Y38933D01*
X206756Y39832D01*
X207189Y40878D01*
X207337Y42000D01*
X207189Y43123D01*
X206756Y44168D01*
X206067Y45067D01*
X205169Y45756D01*
X204122Y46189D01*
X203000Y46337D01*
D02*
G37*
G36*
X87000Y29631D02*
X85250D01*
X84626Y29507D01*
X84521Y29437D01*
X83819D01*
X83360Y29247D01*
X83170Y28787D01*
Y25835D01*
X83360Y25375D01*
X83499Y25318D01*
Y24777D01*
X83360Y24719D01*
X83170Y24260D01*
Y21307D01*
X83360Y20848D01*
X83776Y20675D01*
Y17224D01*
X83425D01*
X82966Y17034D01*
X82776Y16575D01*
Y13425D01*
X82966Y12966D01*
X83425Y12776D01*
X86575D01*
X87034Y12966D01*
X87224Y13425D01*
Y16575D01*
X87034Y17034D01*
X86575Y17224D01*
X86224D01*
Y20675D01*
X86640Y20848D01*
X86831Y21307D01*
Y24260D01*
X86640Y24719D01*
X86501Y24777D01*
Y25318D01*
X86640Y25375D01*
X87221Y25472D01*
X87484Y25209D01*
X87774Y24774D01*
X88337Y24399D01*
X89000Y24267D01*
X89663Y24399D01*
X90226Y24774D01*
X90601Y25337D01*
X90733Y26000D01*
X90601Y26663D01*
X90226Y27226D01*
X89791Y27516D01*
X88153Y29153D01*
X87624Y29507D01*
X87000Y29631D01*
D02*
G37*
G36*
X94431Y29437D02*
X92069D01*
X91610Y29247D01*
X91420Y28787D01*
Y25835D01*
X91610Y25375D01*
X91749Y25318D01*
Y24777D01*
X91610Y24719D01*
X91420Y24260D01*
Y21307D01*
X91610Y20848D01*
X92027Y20675D01*
Y17224D01*
X91675D01*
X91216Y17034D01*
X91026Y16575D01*
Y13425D01*
X91216Y12966D01*
X91675Y12776D01*
X94825D01*
X95284Y12966D01*
X95474Y13425D01*
Y16575D01*
X95284Y17034D01*
X94825Y17224D01*
X94473D01*
Y20675D01*
X94890Y20848D01*
X95081Y21307D01*
Y24260D01*
X94890Y24719D01*
X95046Y25196D01*
X95230Y25369D01*
X96487D01*
X97000Y25267D01*
X97663Y25399D01*
X98226Y25774D01*
X98601Y26337D01*
X98733Y27000D01*
X98601Y27663D01*
X98226Y28226D01*
X97663Y28601D01*
X97000Y28733D01*
X96487Y28631D01*
X95081D01*
Y28787D01*
X94890Y29247D01*
X94431Y29437D01*
D02*
G37*
G36*
X34000Y27000D02*
X27221D01*
Y25000D01*
X27298Y24610D01*
X27519Y24279D01*
X27850Y24058D01*
X28240Y23980D01*
X34000D01*
Y27000D01*
D02*
G37*
G36*
X41779D02*
X35000D01*
Y23980D01*
X40760D01*
X41150Y24058D01*
X41481Y24279D01*
X41702Y24610D01*
X41779Y25000D01*
Y27000D01*
D02*
G37*
G36*
X40760Y31020D02*
X35000D01*
Y28000D01*
X41779D01*
Y30000D01*
X41702Y30390D01*
X41481Y30721D01*
X41150Y30942D01*
X40760Y31020D01*
D02*
G37*
G36*
X142000Y28233D02*
X141488Y28131D01*
X107512D01*
X107000Y28233D01*
X106337Y28101D01*
X105774Y27726D01*
X105399Y27163D01*
X105267Y26500D01*
X105399Y25837D01*
X105774Y25274D01*
X106337Y24899D01*
X107000Y24767D01*
X107512Y24869D01*
X110017D01*
X110168Y24369D01*
X109846Y24153D01*
X109493Y23624D01*
X109369Y23000D01*
X109493Y22376D01*
X109846Y21847D01*
X110376Y21493D01*
X111000Y21369D01*
X136824D01*
X138369Y19824D01*
Y13221D01*
X138184Y13145D01*
X137432Y12567D01*
X136855Y11816D01*
X136493Y10940D01*
X136369Y10000D01*
X136493Y9060D01*
X136855Y8185D01*
X137432Y7433D01*
X138184Y6855D01*
X139060Y6493D01*
X140000Y6369D01*
X140940Y6493D01*
X141815Y6855D01*
X142568Y7433D01*
X143145Y8185D01*
X143507Y9060D01*
X143631Y10000D01*
X143507Y10940D01*
X143145Y11816D01*
X142568Y12567D01*
X141815Y13145D01*
X141631Y13221D01*
Y20500D01*
X141507Y21124D01*
X141154Y21654D01*
X138654Y24153D01*
X138332Y24369D01*
X138483Y24869D01*
X141488D01*
X141908Y24785D01*
X148369Y18324D01*
Y13221D01*
X148185Y13145D01*
X147432Y12567D01*
X146855Y11816D01*
X146493Y10940D01*
X146369Y10000D01*
X146493Y9060D01*
X146855Y8185D01*
X147432Y7433D01*
X148185Y6855D01*
X149060Y6493D01*
X150000Y6369D01*
X150940Y6493D01*
X151815Y6855D01*
X152568Y7433D01*
X153145Y8185D01*
X153507Y9060D01*
X153631Y10000D01*
X153507Y10940D01*
X153145Y11816D01*
X152568Y12567D01*
X151815Y13145D01*
X151631Y13221D01*
Y19000D01*
X151507Y19624D01*
X151154Y20154D01*
X143654Y27654D01*
X143124Y28007D01*
X142669Y28098D01*
X142663Y28101D01*
X142000Y28233D01*
D02*
G37*
G36*
X234000Y27733D02*
X233337Y27601D01*
X232774Y27226D01*
X232569Y26918D01*
X202931D01*
X202726Y27226D01*
X202163Y27601D01*
X201500Y27733D01*
X200837Y27601D01*
X200274Y27226D01*
X199899Y26663D01*
X199767Y26000D01*
X199899Y25337D01*
X200274Y24774D01*
X200837Y24399D01*
X201500Y24267D01*
X202163Y24399D01*
X202726Y24774D01*
X202931Y25082D01*
X232569D01*
X232774Y24774D01*
X233337Y24399D01*
X234000Y24267D01*
X234663Y24399D01*
X235226Y24774D01*
X235601Y25337D01*
X235733Y26000D01*
X235601Y26663D01*
X235226Y27226D01*
X234663Y27601D01*
X234000Y27733D01*
D02*
G37*
G36*
X34000Y31020D02*
X28240D01*
X27850Y30942D01*
X27519Y30721D01*
X27298Y30390D01*
X27221Y30000D01*
Y28000D01*
X34000D01*
Y31020D01*
D02*
G37*
G36*
X253000Y46337D02*
X251877Y46189D01*
X250831Y45756D01*
X249933Y45067D01*
X249244Y44168D01*
X248811Y43123D01*
X248663Y42000D01*
X248811Y40878D01*
X249244Y39832D01*
X249933Y38933D01*
X250831Y38244D01*
X251877Y37811D01*
X253000Y37663D01*
X254122Y37811D01*
X255169Y38244D01*
X256067Y38933D01*
X256756Y39832D01*
X257189Y40878D01*
X257337Y42000D01*
X257189Y43123D01*
X256756Y44168D01*
X256067Y45067D01*
X255169Y45756D01*
X254122Y46189D01*
X253000Y46337D01*
D02*
G37*
G36*
X249000Y58020D02*
X243240D01*
X242850Y57942D01*
X242519Y57721D01*
X242298Y57390D01*
X242221Y57000D01*
Y55000D01*
X249000D01*
Y58020D01*
D02*
G37*
G36*
X255760D02*
X250000D01*
Y55000D01*
X256779D01*
Y57000D01*
X256702Y57390D01*
X256481Y57721D01*
X256150Y57942D01*
X255760Y58020D01*
D02*
G37*
G36*
X34000Y56020D02*
X28240D01*
X27850Y55942D01*
X27519Y55721D01*
X27298Y55390D01*
X27221Y55000D01*
Y53000D01*
X34000D01*
Y56020D01*
D02*
G37*
G36*
X40760D02*
X35000D01*
Y53000D01*
X41779D01*
Y55000D01*
X41702Y55390D01*
X41481Y55721D01*
X41150Y55942D01*
X40760Y56020D01*
D02*
G37*
G36*
X34000Y62000D02*
X27221D01*
Y60000D01*
X27298Y59610D01*
X27519Y59279D01*
X27850Y59058D01*
X28240Y58980D01*
X34000D01*
Y62000D01*
D02*
G37*
G36*
X60000Y206979D02*
X59969Y206966D01*
X59936Y206976D01*
X58701Y206854D01*
X58643Y206823D01*
X58577Y206830D01*
X57389Y206469D01*
X57338Y206427D01*
X57272Y206421D01*
X56177Y205836D01*
X56135Y205784D01*
X56071Y205765D01*
X55112Y204978D01*
X55081Y204919D01*
X55022Y204888D01*
X54235Y203929D01*
X54216Y203865D01*
X54164Y203823D01*
X53579Y202728D01*
X53573Y202662D01*
X53531Y202611D01*
X53171Y201423D01*
X53177Y201357D01*
X53146Y201298D01*
X53024Y200064D01*
X53043Y200000D01*
X53024Y199936D01*
X53146Y198702D01*
X53177Y198643D01*
X53171Y198577D01*
X53531Y197389D01*
X53573Y197338D01*
X53579Y197272D01*
X54164Y196177D01*
X54216Y196135D01*
X54235Y196071D01*
X55022Y195112D01*
X55081Y195081D01*
X55112Y195022D01*
X56071Y194235D01*
X56135Y194216D01*
X56177Y194164D01*
X57272Y193579D01*
X57338Y193573D01*
X57389Y193531D01*
X58577Y193170D01*
X58643Y193177D01*
X58701Y193146D01*
X59936Y193024D01*
X59969Y193034D01*
X60000Y193021D01*
X60031Y193034D01*
X60064Y193024D01*
X61299Y193146D01*
X61357Y193177D01*
X61423Y193170D01*
X62611Y193531D01*
X62662Y193573D01*
X62728Y193579D01*
X63823Y194164D01*
X63865Y194216D01*
X63929Y194235D01*
X64888Y195022D01*
X64919Y195081D01*
X64978Y195112D01*
X65765Y196071D01*
X65784Y196135D01*
X65836Y196177D01*
X66421Y197272D01*
X66427Y197338D01*
X66469Y197389D01*
X66830Y198577D01*
X66823Y198643D01*
X66854Y198702D01*
X66976Y199936D01*
X66957Y200000D01*
X66976Y200064D01*
X66854Y201298D01*
X66823Y201357D01*
X66830Y201423D01*
X66469Y202611D01*
X66427Y202662D01*
X66421Y202728D01*
X65836Y203823D01*
X65784Y203865D01*
X65765Y203929D01*
X64978Y204888D01*
X64919Y204919D01*
X64888Y204978D01*
X63929Y205765D01*
X63865Y205784D01*
X63823Y205836D01*
X62728Y206421D01*
X62662Y206427D01*
X62611Y206469D01*
X61423Y206830D01*
X61357Y206823D01*
X61299Y206854D01*
X60064Y206976D01*
X60031Y206966D01*
X60000Y206979D01*
D02*
G37*
G36*
X222500Y46675D02*
X221773Y46579D01*
X220630Y46106D01*
X219648Y45352D01*
X218895Y44370D01*
X218421Y43227D01*
X218325Y42500D01*
X222500D01*
Y46675D01*
D02*
G37*
G36*
X34000Y42000D02*
X27221D01*
Y40000D01*
X27298Y39610D01*
X27519Y39279D01*
X27850Y39058D01*
X28240Y38980D01*
X34000D01*
Y42000D01*
D02*
G37*
G36*
X41779D02*
X35000D01*
Y38980D01*
X40760D01*
X41150Y39058D01*
X41481Y39279D01*
X41702Y39610D01*
X41779Y40000D01*
Y42000D01*
D02*
G37*
G36*
X256779Y54000D02*
X250000D01*
Y50980D01*
X255760D01*
X256150Y51058D01*
X256481Y51279D01*
X256702Y51610D01*
X256779Y52000D01*
Y54000D01*
D02*
G37*
G36*
X240760Y57649D02*
X228240D01*
X227781Y57459D01*
X227591Y57000D01*
Y55418D01*
X202000D01*
X201649Y55348D01*
X201351Y55149D01*
X180363Y34161D01*
X180000Y34233D01*
X179337Y34101D01*
X178774Y33726D01*
X178399Y33163D01*
X178267Y32500D01*
X178399Y31837D01*
X178774Y31274D01*
X179337Y30899D01*
X180000Y30767D01*
X180663Y30899D01*
X181226Y31274D01*
X181601Y31837D01*
X181733Y32500D01*
X181661Y32863D01*
X202380Y53582D01*
X227591D01*
Y52000D01*
X227781Y51541D01*
X228240Y51351D01*
X240760D01*
X241219Y51541D01*
X241409Y52000D01*
Y57000D01*
X241219Y57459D01*
X240760Y57649D01*
D02*
G37*
G36*
X223500Y46675D02*
Y42500D01*
X227675D01*
X227579Y43227D01*
X227105Y44370D01*
X226352Y45352D01*
X225370Y46106D01*
X224227Y46579D01*
X223500Y46675D01*
D02*
G37*
G36*
X249000Y54000D02*
X242221D01*
Y52000D01*
X242298Y51610D01*
X242519Y51279D01*
X242786Y51101D01*
X242815Y50815D01*
X242778Y50563D01*
X242562Y50418D01*
X239000D01*
X238649Y50348D01*
X238351Y50149D01*
X234313Y46110D01*
X234122Y46189D01*
X233000Y46337D01*
X231877Y46189D01*
X230831Y45756D01*
X229933Y45067D01*
X229244Y44168D01*
X228811Y43123D01*
X228663Y42000D01*
X228811Y40878D01*
X229244Y39832D01*
X229933Y38933D01*
X230831Y38244D01*
X231877Y37811D01*
X233000Y37663D01*
X234122Y37811D01*
X235169Y38244D01*
X236067Y38933D01*
X236756Y39832D01*
X237189Y40878D01*
X237337Y42000D01*
X237189Y43123D01*
X236756Y44168D01*
X236067Y45067D01*
X236054Y45257D01*
X239380Y48582D01*
X241850D01*
X241899Y48337D01*
X242274Y47774D01*
X242837Y47399D01*
X243500Y47267D01*
X244163Y47399D01*
X244726Y47774D01*
X245101Y48337D01*
X245233Y49000D01*
X245101Y49663D01*
X244726Y50226D01*
X244344Y50480D01*
X244496Y50980D01*
X249000D01*
Y54000D01*
D02*
G37*
G36*
X40760Y21020D02*
X35000D01*
Y18000D01*
X41779D01*
Y20000D01*
X41702Y20390D01*
X41481Y20721D01*
X41150Y20942D01*
X40760Y21020D01*
D02*
G37*
G36*
X41779Y7000D02*
X35000D01*
Y3980D01*
X40760D01*
X41150Y4058D01*
X41481Y4279D01*
X41702Y4610D01*
X41779Y5000D01*
Y7000D01*
D02*
G37*
G36*
X210000Y13631D02*
X209060Y13507D01*
X208185Y13145D01*
X207433Y12567D01*
X206855Y11816D01*
X206493Y10940D01*
X206369Y10000D01*
X206493Y9060D01*
X206855Y8185D01*
X207433Y7433D01*
X208185Y6855D01*
X209060Y6493D01*
X210000Y6369D01*
X210940Y6493D01*
X211816Y6855D01*
X212567Y7433D01*
X213145Y8185D01*
X213507Y9060D01*
X213631Y10000D01*
X213507Y10940D01*
X213145Y11816D01*
X212567Y12567D01*
X211816Y13145D01*
X210940Y13507D01*
X210000Y13631D01*
D02*
G37*
G36*
X120000D02*
X119060Y13507D01*
X118184Y13145D01*
X117432Y12567D01*
X116855Y11816D01*
X116493Y10940D01*
X116369Y10000D01*
X116493Y9060D01*
X116855Y8185D01*
X117432Y7433D01*
X118184Y6855D01*
X119060Y6493D01*
X120000Y6369D01*
X120940Y6493D01*
X121816Y6855D01*
X122568Y7433D01*
X123145Y8185D01*
X123507Y9060D01*
X123631Y10000D01*
X123507Y10940D01*
X123145Y11816D01*
X122568Y12567D01*
X121816Y13145D01*
X120940Y13507D01*
X120000Y13631D01*
D02*
G37*
G36*
X130000D02*
X129060Y13507D01*
X128184Y13145D01*
X127432Y12567D01*
X126855Y11816D01*
X126493Y10940D01*
X126369Y10000D01*
X126493Y9060D01*
X126855Y8185D01*
X127432Y7433D01*
X128184Y6855D01*
X129060Y6493D01*
X130000Y6369D01*
X130940Y6493D01*
X131816Y6855D01*
X132568Y7433D01*
X133145Y8185D01*
X133507Y9060D01*
X133631Y10000D01*
X133507Y10940D01*
X133145Y11816D01*
X132568Y12567D01*
X131816Y13145D01*
X130940Y13507D01*
X130000Y13631D01*
D02*
G37*
G36*
X240000D02*
X239060Y13507D01*
X238184Y13145D01*
X237433Y12567D01*
X236855Y11816D01*
X236493Y10940D01*
X236369Y10000D01*
X236493Y9060D01*
X236855Y8185D01*
X237433Y7433D01*
X238184Y6855D01*
X239060Y6493D01*
X240000Y6369D01*
X240940Y6493D01*
X241815Y6855D01*
X242567Y7433D01*
X243145Y8185D01*
X243507Y9060D01*
X243631Y10000D01*
X243507Y10940D01*
X243145Y11816D01*
X242567Y12567D01*
X241815Y13145D01*
X240940Y13507D01*
X240000Y13631D01*
D02*
G37*
G36*
X250000D02*
X249060Y13507D01*
X248184Y13145D01*
X247432Y12567D01*
X246855Y11816D01*
X246493Y10940D01*
X246369Y10000D01*
X246493Y9060D01*
X246855Y8185D01*
X247432Y7433D01*
X248184Y6855D01*
X249060Y6493D01*
X250000Y6369D01*
X250940Y6493D01*
X251816Y6855D01*
X252568Y7433D01*
X253145Y8185D01*
X253507Y9060D01*
X253631Y10000D01*
X253507Y10940D01*
X253145Y11816D01*
X252568Y12567D01*
X251816Y13145D01*
X250940Y13507D01*
X250000Y13631D01*
D02*
G37*
G36*
X220000D02*
X219060Y13507D01*
X218184Y13145D01*
X217432Y12567D01*
X216855Y11816D01*
X216493Y10940D01*
X216369Y10000D01*
X216493Y9060D01*
X216855Y8185D01*
X217432Y7433D01*
X218184Y6855D01*
X219060Y6493D01*
X220000Y6369D01*
X220940Y6493D01*
X221815Y6855D01*
X222568Y7433D01*
X223145Y8185D01*
X223507Y9060D01*
X223631Y10000D01*
X223507Y10940D01*
X223145Y11816D01*
X222568Y12567D01*
X221815Y13145D01*
X220940Y13507D01*
X220000Y13631D01*
D02*
G37*
G36*
X230000D02*
X229060Y13507D01*
X228185Y13145D01*
X227432Y12567D01*
X226855Y11816D01*
X226493Y10940D01*
X226369Y10000D01*
X226493Y9060D01*
X226855Y8185D01*
X227432Y7433D01*
X228185Y6855D01*
X229060Y6493D01*
X230000Y6369D01*
X230940Y6493D01*
X231816Y6855D01*
X232568Y7433D01*
X233145Y8185D01*
X233507Y9060D01*
X233631Y10000D01*
X233507Y10940D01*
X233145Y11816D01*
X232568Y12567D01*
X231816Y13145D01*
X230940Y13507D01*
X230000Y13631D01*
D02*
G37*
G36*
X169500Y9500D02*
X166031D01*
X166103Y8956D01*
X166506Y7983D01*
X167147Y7147D01*
X167983Y6506D01*
X168956Y6103D01*
X169500Y6031D01*
Y9500D01*
D02*
G37*
G36*
X163969D02*
X160500D01*
Y6031D01*
X161044Y6103D01*
X162017Y6506D01*
X162853Y7147D01*
X163494Y7983D01*
X163897Y8956D01*
X163969Y9500D01*
D02*
G37*
G36*
X25760Y20649D02*
X13240D01*
X12781Y20459D01*
X12591Y20000D01*
Y15000D01*
X12781Y14541D01*
X13240Y14351D01*
X18582D01*
Y10649D01*
X13240D01*
X12781Y10459D01*
X12591Y10000D01*
Y5000D01*
X12781Y4541D01*
X13240Y4351D01*
X25760D01*
X26219Y4541D01*
X26409Y5000D01*
Y10000D01*
X26219Y10459D01*
X25760Y10649D01*
X20418D01*
Y14351D01*
X25760D01*
X26219Y14541D01*
X26409Y15000D01*
Y20000D01*
X26219Y20459D01*
X25760Y20649D01*
D02*
G37*
G36*
X159500Y9500D02*
X156031D01*
X156103Y8956D01*
X156506Y7983D01*
X157147Y7147D01*
X157983Y6506D01*
X158956Y6103D01*
X159500Y6031D01*
Y9500D01*
D02*
G37*
G36*
X203000Y13649D02*
X197000D01*
X196541Y13459D01*
X196351Y13000D01*
Y7000D01*
X196541Y6541D01*
X197000Y6351D01*
X203000D01*
X203459Y6541D01*
X203649Y7000D01*
Y13000D01*
X203459Y13459D01*
X203000Y13649D01*
D02*
G37*
G36*
X110000Y13631D02*
X109060Y13507D01*
X108185Y13145D01*
X107432Y12567D01*
X106855Y11816D01*
X106493Y10940D01*
X106369Y10000D01*
X106493Y9060D01*
X106855Y8185D01*
X107432Y7433D01*
X108185Y6855D01*
X109060Y6493D01*
X110000Y6369D01*
X110940Y6493D01*
X111816Y6855D01*
X112568Y7433D01*
X113145Y8185D01*
X113507Y9060D01*
X113631Y10000D01*
X113507Y10940D01*
X113145Y11816D01*
X112568Y12567D01*
X111816Y13145D01*
X110940Y13507D01*
X110000Y13631D01*
D02*
G37*
G36*
X173969Y9500D02*
X170500D01*
Y6031D01*
X171044Y6103D01*
X172017Y6506D01*
X172853Y7147D01*
X173494Y7983D01*
X173897Y8956D01*
X173969Y9500D01*
D02*
G37*
G36*
X183000Y13649D02*
X177000D01*
X176541Y13459D01*
X176351Y13000D01*
Y7000D01*
X176541Y6541D01*
X177000Y6351D01*
X183000D01*
X183459Y6541D01*
X183649Y7000D01*
Y13000D01*
X183459Y13459D01*
X183000Y13649D01*
D02*
G37*
G36*
X76250Y8595D02*
X74156D01*
Y7520D01*
X74233Y7130D01*
X74454Y6799D01*
X74785Y6578D01*
X75175Y6500D01*
X76250D01*
Y8595D01*
D02*
G37*
G36*
X170500Y13969D02*
Y10500D01*
X173969D01*
X173897Y11044D01*
X173494Y12017D01*
X172853Y12853D01*
X172017Y13494D01*
X171044Y13897D01*
X170500Y13969D01*
D02*
G37*
G36*
X34000Y17000D02*
X27221D01*
Y15000D01*
X27298Y14610D01*
X27519Y14279D01*
X27850Y14058D01*
X28240Y13980D01*
X34000D01*
Y17000D01*
D02*
G37*
G36*
X169500Y13969D02*
X168956Y13897D01*
X167983Y13494D01*
X167147Y12853D01*
X166506Y12017D01*
X166103Y11044D01*
X166031Y10500D01*
X169500D01*
Y13969D01*
D02*
G37*
G36*
X160500D02*
Y10500D01*
X163969D01*
X163897Y11044D01*
X163494Y12017D01*
X162853Y12853D01*
X162017Y13494D01*
X161044Y13897D01*
X160500Y13969D01*
D02*
G37*
G36*
X34000Y7000D02*
X27221D01*
Y5000D01*
X27298Y4610D01*
X27519Y4279D01*
X27850Y4058D01*
X28240Y3980D01*
X34000D01*
Y7000D01*
D02*
G37*
G36*
Y21020D02*
X28240D01*
X27850Y20942D01*
X27519Y20721D01*
X27298Y20390D01*
X27221Y20000D01*
Y18000D01*
X34000D01*
Y21020D01*
D02*
G37*
G36*
X41779Y17000D02*
X35000D01*
Y13980D01*
X40760D01*
X41150Y14058D01*
X41481Y14279D01*
X41702Y14610D01*
X41779Y15000D01*
Y17000D01*
D02*
G37*
G36*
X55000Y16979D02*
X54969Y16966D01*
X54936Y16976D01*
X53702Y16854D01*
X53643Y16823D01*
X53577Y16829D01*
X52389Y16469D01*
X52338Y16427D01*
X52272Y16421D01*
X51177Y15836D01*
X51135Y15784D01*
X51071Y15765D01*
X50112Y14978D01*
X50081Y14919D01*
X50022Y14888D01*
X49235Y13929D01*
X49216Y13865D01*
X49164Y13823D01*
X48579Y12728D01*
X48573Y12662D01*
X48531Y12611D01*
X48171Y11423D01*
X48177Y11357D01*
X48146Y11299D01*
X48024Y10064D01*
X48043Y10000D01*
X48024Y9936D01*
X48146Y8702D01*
X48177Y8643D01*
X48171Y8577D01*
X48531Y7389D01*
X48573Y7338D01*
X48579Y7272D01*
X49164Y6177D01*
X49216Y6135D01*
X49235Y6071D01*
X50022Y5112D01*
X50081Y5081D01*
X50112Y5022D01*
X51071Y4235D01*
X51135Y4216D01*
X51177Y4164D01*
X52272Y3579D01*
X52338Y3573D01*
X52389Y3531D01*
X53577Y3170D01*
X53643Y3177D01*
X53702Y3146D01*
X54936Y3024D01*
X54969Y3034D01*
X55000Y3021D01*
X55031Y3034D01*
X55064Y3024D01*
X56299Y3146D01*
X56357Y3177D01*
X56423Y3170D01*
X57611Y3531D01*
X57662Y3573D01*
X57728Y3579D01*
X58823Y4164D01*
X58865Y4216D01*
X58929Y4235D01*
X59888Y5022D01*
X59919Y5081D01*
X59978Y5112D01*
X60765Y6071D01*
X60784Y6135D01*
X60836Y6177D01*
X61421Y7272D01*
X61427Y7338D01*
X61469Y7389D01*
X61830Y8577D01*
X61823Y8643D01*
X61854Y8702D01*
X61976Y9936D01*
X61957Y10000D01*
X61976Y10064D01*
X61854Y11299D01*
X61823Y11357D01*
X61830Y11423D01*
X61469Y12611D01*
X61427Y12662D01*
X61421Y12728D01*
X60836Y13823D01*
X60784Y13865D01*
X60765Y13929D01*
X59978Y14888D01*
X59919Y14919D01*
X59888Y14978D01*
X58929Y15765D01*
X58865Y15784D01*
X58823Y15836D01*
X57728Y16421D01*
X57662Y16427D01*
X57611Y16469D01*
X56423Y16829D01*
X56357Y16823D01*
X56299Y16854D01*
X55064Y16976D01*
X55031Y16966D01*
X55000Y16979D01*
D02*
G37*
G36*
X40760Y11020D02*
X35000D01*
Y8000D01*
X41779D01*
Y10000D01*
X41702Y10390D01*
X41481Y10721D01*
X41150Y10942D01*
X40760Y11020D01*
D02*
G37*
G36*
X76250Y11689D02*
X75175D01*
X74785Y11611D01*
X74454Y11390D01*
X74233Y11060D01*
X74156Y10669D01*
Y9595D01*
X76250D01*
Y11689D01*
D02*
G37*
G36*
X95844Y8595D02*
X93750D01*
Y6500D01*
X94825D01*
X95215Y6578D01*
X95546Y6799D01*
X95767Y7130D01*
X95844Y7520D01*
Y8595D01*
D02*
G37*
G36*
X34000Y11020D02*
X28240D01*
X27850Y10942D01*
X27519Y10721D01*
X27298Y10390D01*
X27221Y10000D01*
Y8000D01*
X34000D01*
Y11020D01*
D02*
G37*
G36*
X92750Y11689D02*
X91675D01*
X91285Y11611D01*
X90954Y11390D01*
X90733Y11060D01*
X90656Y10669D01*
Y10012D01*
X87594D01*
Y10669D01*
X87517Y11060D01*
X87296Y11390D01*
X86965Y11611D01*
X86575Y11689D01*
X85500D01*
Y9094D01*
Y6500D01*
X86575D01*
X86965Y6578D01*
X87296Y6799D01*
X87517Y7130D01*
X87594Y7520D01*
Y8177D01*
X90656D01*
Y7520D01*
X90733Y7130D01*
X90954Y6799D01*
X91285Y6578D01*
X91675Y6500D01*
X92750D01*
Y9094D01*
Y11689D01*
D02*
G37*
G36*
X159500Y13969D02*
X158956Y13897D01*
X157983Y13494D01*
X157147Y12853D01*
X156506Y12017D01*
X156103Y11044D01*
X156031Y10500D01*
X159500D01*
Y13969D01*
D02*
G37*
G36*
X94825Y11689D02*
X93750D01*
Y9595D01*
X95844D01*
Y10669D01*
X95767Y11060D01*
X95546Y11390D01*
X95215Y11611D01*
X94825Y11689D01*
D02*
G37*
G36*
X84500D02*
X83425D01*
X83035Y11611D01*
X82704Y11390D01*
X82483Y11060D01*
X82406Y10669D01*
Y10012D01*
X79344D01*
Y10669D01*
X79267Y11060D01*
X79046Y11390D01*
X78715Y11611D01*
X78325Y11689D01*
X77250D01*
Y9094D01*
Y6500D01*
X78325D01*
X78715Y6578D01*
X79046Y6799D01*
X79267Y7130D01*
X79344Y7520D01*
Y8177D01*
X82406D01*
Y7520D01*
X82483Y7130D01*
X82704Y6799D01*
X83035Y6578D01*
X83425Y6500D01*
X84500D01*
Y9094D01*
Y11689D01*
D02*
G37*
G36*
X41779Y62000D02*
X35000D01*
Y58980D01*
X40760D01*
X41150Y59058D01*
X41481Y59279D01*
X41702Y59610D01*
X41779Y60000D01*
Y62000D01*
D02*
G37*
G36*
X34000Y192000D02*
X27221D01*
Y190000D01*
X27298Y189610D01*
X27519Y189279D01*
X27850Y189058D01*
X28240Y188980D01*
X34000D01*
Y192000D01*
D02*
G37*
G36*
Y126020D02*
X28240D01*
X27850Y125942D01*
X27519Y125721D01*
X27298Y125390D01*
X27221Y125000D01*
Y123000D01*
X34000D01*
Y126020D01*
D02*
G37*
G36*
X40760D02*
X35000D01*
Y123000D01*
X41779D01*
Y125000D01*
X41702Y125390D01*
X41481Y125721D01*
X41150Y125942D01*
X40760Y126020D01*
D02*
G37*
G36*
X41779Y132000D02*
X35000D01*
Y128980D01*
X40760D01*
X41150Y129058D01*
X41481Y129279D01*
X41702Y129610D01*
X41779Y130000D01*
Y132000D01*
D02*
G37*
G36*
X46500Y137233D02*
X45837Y137101D01*
X45274Y136726D01*
X44899Y136163D01*
X44767Y135500D01*
X44899Y134837D01*
X45274Y134274D01*
X45837Y133899D01*
X46500Y133767D01*
X47012Y133869D01*
X53824D01*
X55984Y131709D01*
X56274Y131274D01*
X56837Y130899D01*
X57500Y130767D01*
X58163Y130899D01*
X58726Y131274D01*
X59101Y131837D01*
X59233Y132500D01*
X59101Y133163D01*
X58726Y133726D01*
X58291Y134016D01*
X55654Y136653D01*
X55124Y137007D01*
X54500Y137131D01*
X47012D01*
X46500Y137233D01*
D02*
G37*
G36*
X34000Y186020D02*
X28240D01*
X27850Y185942D01*
X27519Y185721D01*
X27298Y185390D01*
X27221Y185000D01*
Y183000D01*
X34000D01*
Y186020D01*
D02*
G37*
G36*
Y132000D02*
X27221D01*
Y130000D01*
X27298Y129610D01*
X27519Y129279D01*
X27850Y129058D01*
X28240Y128980D01*
X34000D01*
Y132000D01*
D02*
G37*
G36*
X40760Y116020D02*
X35000D01*
Y113000D01*
X41779D01*
Y115000D01*
X41702Y115390D01*
X41481Y115721D01*
X41150Y115942D01*
X40760Y116020D01*
D02*
G37*
G36*
X84500Y118418D02*
X24500D01*
X24149Y118348D01*
X23851Y118149D01*
X21352Y115649D01*
X13240D01*
X12781Y115459D01*
X12591Y115000D01*
Y110000D01*
X12781Y109541D01*
X13240Y109351D01*
X25760D01*
X26219Y109541D01*
X26409Y110000D01*
Y115000D01*
X26219Y115459D01*
X25760Y115649D01*
X24600D01*
X24409Y116111D01*
X24880Y116582D01*
X84120D01*
X84839Y115863D01*
X84767Y115500D01*
X84899Y114837D01*
X85274Y114274D01*
X85837Y113899D01*
X86500Y113767D01*
X87163Y113899D01*
X87726Y114274D01*
X88101Y114837D01*
X88233Y115500D01*
X88101Y116163D01*
X87726Y116726D01*
X87163Y117101D01*
X86500Y117233D01*
X86137Y117161D01*
X85149Y118149D01*
X84851Y118348D01*
X84500Y118418D01*
D02*
G37*
G36*
X41779Y112000D02*
X35000D01*
Y108980D01*
X40760D01*
X41150Y109058D01*
X41481Y109279D01*
X41702Y109610D01*
X41779Y110000D01*
Y112000D01*
D02*
G37*
G36*
X34000Y116020D02*
X28240D01*
X27850Y115942D01*
X27519Y115721D01*
X27298Y115390D01*
X27221Y115000D01*
Y113000D01*
X34000D01*
Y116020D01*
D02*
G37*
G36*
Y122000D02*
X27221D01*
Y120000D01*
X27298Y119610D01*
X27519Y119279D01*
X27850Y119058D01*
X28240Y118980D01*
X34000D01*
Y122000D01*
D02*
G37*
G36*
X41779D02*
X35000D01*
Y118980D01*
X40760D01*
X41150Y119058D01*
X41481Y119279D01*
X41702Y119610D01*
X41779Y120000D01*
Y122000D01*
D02*
G37*
G36*
X34000Y196020D02*
X28240D01*
X27850Y195942D01*
X27519Y195721D01*
X27298Y195390D01*
X27221Y195000D01*
Y193000D01*
X34000D01*
Y196020D01*
D02*
G37*
G36*
X41779Y192000D02*
X35000D01*
Y188980D01*
X40760D01*
X41150Y189058D01*
X41481Y189279D01*
X41702Y189610D01*
X41779Y190000D01*
Y192000D01*
D02*
G37*
G36*
Y182000D02*
X35000D01*
Y178980D01*
X40760D01*
X41150Y179058D01*
X41481Y179279D01*
X41702Y179610D01*
X41779Y180000D01*
Y182000D01*
D02*
G37*
G36*
X34000Y171020D02*
X28240D01*
X27850Y170942D01*
X27519Y170721D01*
X27298Y170390D01*
X27221Y170000D01*
Y168000D01*
X34000D01*
Y171020D01*
D02*
G37*
G36*
X44000Y175918D02*
X27000D01*
X26649Y175848D01*
X26351Y175649D01*
X21352Y170649D01*
X13240D01*
X12781Y170459D01*
X12591Y170000D01*
Y165000D01*
X12781Y164541D01*
X13240Y164351D01*
X25760D01*
X26219Y164541D01*
X26409Y165000D01*
Y170000D01*
X26219Y170459D01*
X25760Y170649D01*
X24600D01*
X24409Y171111D01*
X27380Y174082D01*
X43620D01*
X46082Y171620D01*
Y170931D01*
X45774Y170726D01*
X45399Y170163D01*
X45267Y169500D01*
X45399Y168837D01*
X45774Y168274D01*
X46337Y167899D01*
X47000Y167767D01*
X47663Y167899D01*
X48226Y168274D01*
X48601Y168837D01*
X48733Y169500D01*
X48601Y170163D01*
X48226Y170726D01*
X47918Y170931D01*
Y172000D01*
X47848Y172351D01*
X47649Y172649D01*
X44649Y175649D01*
X44351Y175848D01*
X44000Y175918D01*
D02*
G37*
G36*
X40760Y171020D02*
X35000D01*
Y168000D01*
X41779D01*
Y170000D01*
X41702Y170390D01*
X41481Y170721D01*
X41150Y170942D01*
X40760Y171020D01*
D02*
G37*
G36*
X34000Y167000D02*
X27221D01*
Y165000D01*
X27298Y164610D01*
X27519Y164279D01*
X27850Y164058D01*
X28240Y163980D01*
X34000D01*
Y167000D01*
D02*
G37*
G36*
X41779D02*
X35000D01*
Y163980D01*
X40760D01*
X41150Y164058D01*
X41481Y164279D01*
X41702Y164610D01*
X41779Y165000D01*
Y167000D01*
D02*
G37*
G36*
X34000Y182000D02*
X27221D01*
Y180000D01*
X27298Y179610D01*
X27519Y179279D01*
X27850Y179058D01*
X28240Y178980D01*
X34000D01*
Y182000D01*
D02*
G37*
G36*
Y136020D02*
X28240D01*
X27850Y135942D01*
X27519Y135721D01*
X27298Y135390D01*
X27221Y135000D01*
Y133000D01*
X34000D01*
Y136020D01*
D02*
G37*
G36*
X40760D02*
X35000D01*
Y133000D01*
X41779D01*
Y135000D01*
X41702Y135390D01*
X41481Y135721D01*
X41150Y135942D01*
X40760Y136020D01*
D02*
G37*
G36*
X34000Y151020D02*
X28240D01*
X27850Y150942D01*
X27519Y150721D01*
X27298Y150390D01*
X27221Y150000D01*
Y148000D01*
X34000D01*
Y151020D01*
D02*
G37*
G36*
X40760D02*
X35000D01*
Y148000D01*
X41779D01*
Y150000D01*
X41702Y150390D01*
X41481Y150721D01*
X41150Y150942D01*
X40760Y151020D01*
D02*
G37*
G36*
X34000Y147000D02*
X27221D01*
Y145000D01*
X27298Y144610D01*
X27519Y144279D01*
X27850Y144058D01*
X28240Y143980D01*
X34000D01*
Y147000D01*
D02*
G37*
G36*
X41779D02*
X35000D01*
Y143980D01*
X40760D01*
X41150Y144058D01*
X41481Y144279D01*
X41702Y144610D01*
X41779Y145000D01*
Y147000D01*
D02*
G37*
G36*
X34000Y112000D02*
X27221D01*
Y110000D01*
X27298Y109610D01*
X27519Y109279D01*
X27850Y109058D01*
X28240Y108980D01*
X34000D01*
Y112000D01*
D02*
G37*
G36*
X40760Y81020D02*
X35000D01*
Y78000D01*
X41779D01*
Y80000D01*
X41702Y80390D01*
X41481Y80721D01*
X41150Y80942D01*
X40760Y81020D01*
D02*
G37*
G36*
X60177Y84555D02*
X57000D01*
Y81772D01*
X59158D01*
X59548Y81849D01*
X59878Y82070D01*
X60100Y82401D01*
X60177Y82791D01*
Y84555D01*
D02*
G37*
G36*
X40760Y206020D02*
X35000D01*
Y203000D01*
X41779D01*
Y205000D01*
X41702Y205390D01*
X41481Y205721D01*
X41150Y205942D01*
X40760Y206020D01*
D02*
G37*
G36*
X34000Y81020D02*
X28240D01*
X27850Y80942D01*
X27519Y80721D01*
X27298Y80390D01*
X27221Y80000D01*
Y78000D01*
X34000D01*
Y81020D01*
D02*
G37*
G36*
X104500Y203969D02*
Y200500D01*
X107969D01*
X107897Y201044D01*
X107494Y202017D01*
X106853Y202853D01*
X106017Y203494D01*
X105044Y203897D01*
X104500Y203969D01*
D02*
G37*
G36*
X103500D02*
X102956Y203897D01*
X101983Y203494D01*
X101147Y202853D01*
X100506Y202017D01*
X100103Y201044D01*
X100031Y200500D01*
X103500D01*
Y203969D01*
D02*
G37*
G36*
X34000Y206020D02*
X28240D01*
X27850Y205942D01*
X27519Y205721D01*
X27298Y205390D01*
X27221Y205000D01*
Y203000D01*
X34000D01*
Y206020D01*
D02*
G37*
G36*
X40760Y90649D02*
X28240D01*
X27781Y90459D01*
X27591Y90000D01*
Y85000D01*
X27781Y84541D01*
X28078Y84418D01*
X27979Y83918D01*
X26021D01*
X25922Y84418D01*
X26219Y84541D01*
X26409Y85000D01*
Y90000D01*
X26219Y90459D01*
X25760Y90649D01*
X13240D01*
X12781Y90459D01*
X12591Y90000D01*
Y85000D01*
X12781Y84541D01*
X13240Y84351D01*
X24614D01*
X24707Y83859D01*
X24649Y83848D01*
X24351Y83649D01*
X21352Y80649D01*
X13240D01*
X12781Y80459D01*
X12591Y80000D01*
Y75000D01*
X12781Y74541D01*
X13240Y74351D01*
X25760D01*
X26219Y74541D01*
X26409Y75000D01*
Y80000D01*
X26219Y80459D01*
X25760Y80649D01*
X24600D01*
X24409Y81111D01*
X25380Y82082D01*
X44120D01*
X55339Y70863D01*
X55267Y70500D01*
X55399Y69837D01*
X55774Y69274D01*
X56337Y68899D01*
X57000Y68767D01*
X57663Y68899D01*
X58226Y69274D01*
X58601Y69837D01*
X58733Y70500D01*
X58601Y71163D01*
X58226Y71726D01*
X57663Y72101D01*
X57000Y72233D01*
X56637Y72161D01*
X45149Y83649D01*
X44851Y83848D01*
X44500Y83918D01*
X41021D01*
X40922Y84418D01*
X41219Y84541D01*
X41409Y85000D01*
Y90000D01*
X41219Y90459D01*
X40760Y90649D01*
D02*
G37*
G36*
Y66020D02*
X35000D01*
Y63000D01*
X41779D01*
Y65000D01*
X41702Y65390D01*
X41481Y65721D01*
X41150Y65942D01*
X40760Y66020D01*
D02*
G37*
G36*
X34000D02*
X28240D01*
X27850Y65942D01*
X27519Y65721D01*
X27298Y65390D01*
X27221Y65000D01*
Y63000D01*
X34000D01*
Y66020D01*
D02*
G37*
G36*
Y77000D02*
X27221D01*
Y75000D01*
X27298Y74610D01*
X27519Y74279D01*
X27850Y74058D01*
X28240Y73980D01*
X34000D01*
Y77000D01*
D02*
G37*
G36*
X41779D02*
X35000D01*
Y73980D01*
X40760D01*
X41150Y74058D01*
X41481Y74279D01*
X41702Y74610D01*
X41779Y75000D01*
Y77000D01*
D02*
G37*
G36*
X226000Y84733D02*
X225337Y84601D01*
X224774Y84226D01*
X224399Y83663D01*
X224267Y83000D01*
X224399Y82337D01*
X224774Y81774D01*
X225337Y81399D01*
X226000Y81267D01*
X226363Y81339D01*
X229591Y78111D01*
X229399Y77649D01*
X228240D01*
X227781Y77459D01*
X227591Y77000D01*
Y72000D01*
X227781Y71541D01*
X228240Y71351D01*
X240760D01*
X241219Y71541D01*
X241409Y72000D01*
Y77000D01*
X241219Y77459D01*
X240760Y77649D01*
X232648D01*
X227661Y82637D01*
X227733Y83000D01*
X227601Y83663D01*
X227226Y84226D01*
X226663Y84601D01*
X226000Y84733D01*
D02*
G37*
G36*
X56000Y88339D02*
X53843D01*
X53452Y88261D01*
X53122Y88040D01*
X52900Y87709D01*
X52823Y87319D01*
Y85555D01*
X56000D01*
Y88339D01*
D02*
G37*
G36*
X94000Y203631D02*
X93060Y203507D01*
X92185Y203145D01*
X91432Y202568D01*
X90855Y201816D01*
X90493Y200940D01*
X90369Y200000D01*
X90493Y199060D01*
X90855Y198185D01*
X91432Y197432D01*
X92185Y196855D01*
X93060Y196493D01*
X94000Y196369D01*
X94940Y196493D01*
X95815Y196855D01*
X96568Y197432D01*
X97145Y198185D01*
X97507Y199060D01*
X97631Y200000D01*
X97507Y200940D01*
X97145Y201816D01*
X96568Y202568D01*
X95815Y203145D01*
X94940Y203507D01*
X94000Y203631D01*
D02*
G37*
G36*
X255760Y100520D02*
X250000D01*
Y97500D01*
X256779D01*
Y99500D01*
X256702Y99890D01*
X256481Y100221D01*
X256150Y100442D01*
X255760Y100520D01*
D02*
G37*
G36*
X40760Y101020D02*
X35000D01*
Y98000D01*
X41779D01*
Y100000D01*
X41702Y100390D01*
X41481Y100721D01*
X41150Y100942D01*
X40760Y101020D01*
D02*
G37*
G36*
X107969Y199500D02*
X104500D01*
Y196031D01*
X105044Y196103D01*
X106017Y196506D01*
X106853Y197147D01*
X107494Y197983D01*
X107897Y198956D01*
X107969Y199500D01*
D02*
G37*
G36*
X103500D02*
X100031D01*
X100103Y198956D01*
X100506Y197983D01*
X101147Y197147D01*
X101983Y196506D01*
X102956Y196103D01*
X103500Y196031D01*
Y199500D01*
D02*
G37*
G36*
X255760Y120149D02*
X243240D01*
X242781Y119959D01*
X242591Y119500D01*
Y114500D01*
X242781Y114041D01*
X243240Y113851D01*
X255760D01*
X256172Y114021D01*
X258369Y111824D01*
Y106012D01*
X258267Y105500D01*
X258399Y104837D01*
X258774Y104274D01*
X259337Y103899D01*
X260000Y103767D01*
X260663Y103899D01*
X261226Y104274D01*
X261601Y104837D01*
X261733Y105500D01*
X261631Y106012D01*
Y112500D01*
X261507Y113124D01*
X261154Y113654D01*
X256653Y118154D01*
X256409Y118317D01*
Y119500D01*
X256219Y119959D01*
X255760Y120149D01*
D02*
G37*
G36*
X249000Y96500D02*
X242221D01*
Y94500D01*
X242298Y94110D01*
X242519Y93779D01*
X242850Y93558D01*
X243240Y93480D01*
X249000D01*
Y96500D01*
D02*
G37*
G36*
X256779D02*
X250000D01*
Y93480D01*
X255760D01*
X256150Y93558D01*
X256481Y93779D01*
X256702Y94110D01*
X256779Y94500D01*
Y96500D01*
D02*
G37*
G36*
X59158Y88339D02*
X57000D01*
Y85555D01*
X60177D01*
Y87319D01*
X60100Y87709D01*
X59878Y88040D01*
X59548Y88261D01*
X59158Y88339D01*
D02*
G37*
G36*
X55000Y108233D02*
X54337Y108101D01*
X53774Y107726D01*
X53569Y107418D01*
X32500D01*
X32149Y107348D01*
X31851Y107149D01*
X25352Y100649D01*
X13240D01*
X12781Y100459D01*
X12591Y100000D01*
Y95000D01*
X12781Y94541D01*
X13240Y94351D01*
X25760D01*
X26219Y94541D01*
X26409Y95000D01*
Y99112D01*
X26759Y99461D01*
X27221Y99270D01*
Y98000D01*
X34000D01*
Y101020D01*
X28971D01*
X28779Y101481D01*
X32880Y105582D01*
X44269D01*
X44471Y105204D01*
X44484Y105082D01*
X44369Y104500D01*
X44493Y103876D01*
X44846Y103347D01*
X45376Y102993D01*
X46000Y102869D01*
X46824D01*
X48374Y101319D01*
Y100319D01*
X48564Y99860D01*
X49024Y99669D01*
X51976D01*
X52436Y99860D01*
X52493Y99999D01*
X53034D01*
X53092Y99860D01*
X53551Y99669D01*
X54110D01*
Y98000D01*
X54180Y97649D01*
X54379Y97351D01*
X55582Y96148D01*
Y94858D01*
X53843D01*
X53383Y94668D01*
X53193Y94209D01*
Y89681D01*
X53383Y89222D01*
X53843Y89032D01*
X59158D01*
X59617Y89222D01*
X59807Y89681D01*
Y94209D01*
X59617Y94668D01*
X59158Y94858D01*
X57418D01*
Y96528D01*
X57348Y96879D01*
X57149Y97176D01*
X55945Y98380D01*
Y99669D01*
X56504D01*
X56963Y99860D01*
X57153Y100319D01*
Y102681D01*
X56963Y103140D01*
X56504Y103331D01*
X55945D01*
Y105087D01*
X56226Y105274D01*
X56601Y105837D01*
X56733Y106500D01*
X56601Y107163D01*
X56226Y107726D01*
X55663Y108101D01*
X55000Y108233D01*
D02*
G37*
G36*
X249000Y100520D02*
X243240D01*
X242850Y100442D01*
X242519Y100221D01*
X242298Y99890D01*
X242221Y99500D01*
Y97500D01*
X249000D01*
Y100520D01*
D02*
G37*
G36*
X34000Y97000D02*
X27221D01*
Y95000D01*
X27298Y94610D01*
X27519Y94279D01*
X27850Y94058D01*
X28240Y93980D01*
X34000D01*
Y97000D01*
D02*
G37*
G36*
X41779D02*
X35000D01*
Y93980D01*
X40760D01*
X41150Y94058D01*
X41481Y94279D01*
X41702Y94610D01*
X41779Y95000D01*
Y97000D01*
D02*
G37*
%LPD*%
D10*
X93921Y56394D02*
D03*
Y54425D02*
D03*
Y52457D02*
D03*
Y50488D02*
D03*
Y48520D02*
D03*
Y46551D02*
D03*
X109079D02*
D03*
Y48520D02*
D03*
Y50488D02*
D03*
Y52457D02*
D03*
Y54425D02*
D03*
Y56394D02*
D03*
X149980Y117185D02*
D03*
Y118957D02*
D03*
Y120728D02*
D03*
Y122500D02*
D03*
Y124272D02*
D03*
Y126043D02*
D03*
Y127815D02*
D03*
X135020D02*
D03*
Y126043D02*
D03*
Y124272D02*
D03*
Y122500D02*
D03*
Y120728D02*
D03*
Y118957D02*
D03*
Y117185D02*
D03*
D11*
X96579Y43894D02*
D03*
X98547D02*
D03*
X100516D02*
D03*
X102484D02*
D03*
X104453D02*
D03*
X106421D02*
D03*
Y59051D02*
D03*
X104453D02*
D03*
X102484D02*
D03*
X100516D02*
D03*
X98547D02*
D03*
X96579D02*
D03*
X147815Y129980D02*
D03*
X146043D02*
D03*
X144272D02*
D03*
X142500D02*
D03*
X140728D02*
D03*
X138957D02*
D03*
X137185D02*
D03*
Y115020D02*
D03*
X138957D02*
D03*
X140728D02*
D03*
X142500D02*
D03*
X144272D02*
D03*
X146043D02*
D03*
X147815D02*
D03*
D12*
X101500Y51472D02*
D03*
X142500Y122500D02*
D03*
D13*
X157500Y128610D02*
D03*
Y122980D02*
D03*
X161949Y128610D02*
D03*
Y122980D02*
D03*
D14*
X197157Y68154D02*
D03*
Y72681D02*
D03*
X179657Y68154D02*
D03*
Y72681D02*
D03*
X169657Y97681D02*
D03*
Y93154D02*
D03*
X148500Y99736D02*
D03*
Y104264D02*
D03*
X64700Y174036D02*
D03*
Y178564D02*
D03*
X83900Y178564D02*
D03*
Y174036D02*
D03*
X189657Y97681D02*
D03*
Y93154D02*
D03*
X76750Y27311D02*
D03*
Y22783D02*
D03*
X85000Y27311D02*
D03*
Y22783D02*
D03*
X93250D02*
D03*
Y27311D02*
D03*
X89000Y86236D02*
D03*
Y81709D02*
D03*
X109500Y85724D02*
D03*
Y81197D02*
D03*
D15*
X183397Y87209D02*
D03*
X175917D02*
D03*
X179657Y78154D02*
D03*
X70600Y169312D02*
D03*
X78080D02*
D03*
X74340Y178367D02*
D03*
X200897Y87209D02*
D03*
X193417D02*
D03*
X197157Y78154D02*
D03*
X75260Y76472D02*
D03*
X82740D02*
D03*
X79000Y85528D02*
D03*
X96500Y76472D02*
D03*
X103980D02*
D03*
X100240Y85528D02*
D03*
D16*
X168157Y116980D02*
D03*
X162843D02*
D03*
Y135980D02*
D03*
X168157D02*
D03*
D17*
X142500Y108445D02*
D03*
Y104980D02*
D03*
X59700Y151800D02*
D03*
Y148335D02*
D03*
X129600Y126745D02*
D03*
Y123280D02*
D03*
X114200Y44805D02*
D03*
Y41340D02*
D03*
D18*
X136764Y104980D02*
D03*
X132236D02*
D03*
X121500Y114980D02*
D03*
X116972D02*
D03*
X121500Y109980D02*
D03*
X116972D02*
D03*
X88736Y159862D02*
D03*
X93264D02*
D03*
X93264Y140862D02*
D03*
X88736D02*
D03*
X66236Y139362D02*
D03*
X70764D02*
D03*
X50500Y101500D02*
D03*
X55028D02*
D03*
D19*
X84312Y154140D02*
D03*
Y146660D02*
D03*
X93367Y150400D02*
D03*
D20*
X56500Y91945D02*
D03*
Y85055D02*
D03*
D21*
X111365Y64272D02*
D03*
X107900D02*
D03*
X186768Y125500D02*
D03*
X190232D02*
D03*
X100465Y33000D02*
D03*
X97000D02*
D03*
X96768Y37972D02*
D03*
X100232D02*
D03*
D22*
X34500Y62500D02*
D03*
X19500D02*
D03*
X34500Y52500D02*
D03*
X19500D02*
D03*
Y42500D02*
D03*
X34500D02*
D03*
Y27500D02*
D03*
X19500D02*
D03*
X34500Y17500D02*
D03*
X19500D02*
D03*
Y7500D02*
D03*
X34500D02*
D03*
Y167500D02*
D03*
X19500D02*
D03*
X34500Y157500D02*
D03*
X19500D02*
D03*
Y147500D02*
D03*
X34500D02*
D03*
Y202500D02*
D03*
X19500D02*
D03*
X34500Y192500D02*
D03*
X19500D02*
D03*
Y182500D02*
D03*
X34500D02*
D03*
Y132500D02*
D03*
X19500D02*
D03*
X34500Y122500D02*
D03*
X19500D02*
D03*
Y112500D02*
D03*
X34500D02*
D03*
Y97500D02*
D03*
X19500D02*
D03*
X34500Y87500D02*
D03*
X19500D02*
D03*
Y77500D02*
D03*
X34500D02*
D03*
X234500Y54500D02*
D03*
X249500D02*
D03*
X234500Y64500D02*
D03*
X249500D02*
D03*
Y74500D02*
D03*
X234500D02*
D03*
Y97000D02*
D03*
X249500D02*
D03*
X234500Y107000D02*
D03*
X249500D02*
D03*
Y117000D02*
D03*
X234500D02*
D03*
D23*
X70500Y151000D02*
D03*
D24*
X76406Y154543D02*
D03*
Y147457D02*
D03*
X64595D02*
D03*
Y154543D02*
D03*
D25*
X76012Y152772D02*
D03*
Y151000D02*
D03*
Y149228D02*
D03*
X64988D02*
D03*
Y151000D02*
D03*
Y152772D02*
D03*
D26*
X74043Y145095D02*
D03*
X66957D02*
D03*
Y156905D02*
D03*
X74043D02*
D03*
D27*
X72272Y145488D02*
D03*
X70500D02*
D03*
X68728D02*
D03*
Y156512D02*
D03*
X70500D02*
D03*
X72272D02*
D03*
D28*
X76750Y15000D02*
D03*
Y9094D02*
D03*
X85000Y15000D02*
D03*
Y9094D02*
D03*
X93250D02*
D03*
Y15000D02*
D03*
D29*
X152929Y99429D02*
X154000Y98359D01*
X76750Y30250D02*
X77500Y31000D01*
X76750Y27311D02*
Y30250D01*
X87000Y28000D02*
X89000Y26000D01*
X85250Y28000D02*
X87000D01*
X93561Y27000D02*
X97000D01*
X93250Y27311D02*
X93561Y27000D01*
X77000Y31000D02*
X77500D01*
X19500Y34500D02*
X84500D01*
X59700Y145300D02*
X65638Y139362D01*
X255500Y117000D02*
X260000Y112500D01*
Y105500D02*
Y112500D01*
X56165Y148335D02*
X59700D01*
X54000Y150500D02*
X56165Y148335D01*
X54000Y150500D02*
Y167500D01*
X45500Y87000D02*
X46500D01*
X61000Y72500D01*
X182319Y97681D02*
Y100319D01*
X182500Y100500D01*
X169657Y97681D02*
X174681D01*
X177500Y100500D01*
X182500D01*
X111000Y23000D02*
X137500D01*
X69500Y47500D02*
X74500D01*
X24500D02*
X69500D01*
X77000Y31000D02*
X77000Y31000D01*
X100500Y106500D02*
Y111500D01*
X89000Y95000D02*
X100500Y106500D01*
X165400Y97681D02*
X169657D01*
X165400Y84600D02*
Y97681D01*
Y84600D02*
X170500Y79500D01*
Y29000D02*
Y79500D01*
X71862Y174362D02*
X76825D01*
X70600Y173100D02*
X71862Y174362D01*
X70600Y169312D02*
Y173100D01*
X76825Y174362D02*
X78500Y176037D01*
Y181000D01*
X79000Y181500D01*
X83000D01*
X83900Y180600D01*
Y178564D02*
Y180600D01*
X194500Y105000D02*
X206000D01*
X189657D02*
X194500D01*
Y100000D02*
Y105000D01*
X206000Y96500D02*
Y125000D01*
X205500Y125500D02*
X206000Y125000D01*
X200897Y91397D02*
X206000Y96500D01*
X189500Y105000D02*
X189657Y104843D01*
Y97681D02*
Y104843D01*
X96500Y84500D02*
Y90500D01*
X103500D02*
X108276Y85724D01*
X109500D01*
X200897Y87209D02*
Y91397D01*
X182319Y97681D02*
X183397Y96603D01*
Y87209D02*
Y96603D01*
X75260Y72000D02*
Y76472D01*
Y48260D02*
Y72000D01*
X74760Y72500D02*
X75260Y72000D01*
X61000Y72500D02*
X74760D01*
X46000Y104500D02*
X47500D01*
X50500Y101500D01*
X89000Y86236D02*
Y95000D01*
X98862Y140862D02*
X99000Y141000D01*
X93264Y140862D02*
X98862D01*
X74500Y47500D02*
X80000D01*
X74500D02*
X75260Y48260D01*
X90250Y37250D02*
X91000Y38000D01*
X80000Y47500D02*
X90250Y37250D01*
X19500Y52500D02*
X24500Y47500D01*
X19500Y52500D02*
Y62500D01*
X120195Y44805D02*
X120500Y44500D01*
X114200Y44805D02*
X120195D01*
X91000Y38000D02*
X93500D01*
X140000Y10000D02*
Y20500D01*
X137500Y23000D02*
X140000Y20500D01*
X84500Y34500D02*
X87000Y32000D01*
X93500Y38000D02*
X93528Y37972D01*
X96768D01*
X5500Y67500D02*
Y79500D01*
Y67500D02*
X10500Y62500D01*
X19500D01*
X84312Y154140D02*
X87222D01*
X89500Y151862D01*
X93264Y140862D02*
Y143598D01*
X190232Y125500D02*
X194000D01*
X194500Y126000D01*
X96500Y76472D02*
Y84500D01*
X95000Y86000D02*
X96500Y84500D01*
X89236Y86000D02*
X95000D01*
X89000Y86236D02*
X89236Y86000D01*
X75260Y76472D02*
Y78260D01*
X78000Y81000D01*
X80500D01*
X85736Y86236D01*
X89000D01*
X89500Y147362D02*
X93264Y143598D01*
X89500Y147362D02*
Y151862D01*
X150000Y10000D02*
Y19000D01*
X142500Y26500D02*
X150000Y19000D01*
X145264Y99736D02*
X148500D01*
X144500Y100500D02*
X145264Y99736D01*
X186500Y76000D02*
Y104500D01*
X190000Y68154D02*
Y72500D01*
X186500Y76000D02*
X190000Y72500D01*
X142000Y26500D02*
X142500D01*
X116453Y115500D02*
X116972Y114980D01*
X112000Y115500D02*
X116453D01*
X111500Y116000D02*
X112000Y115500D01*
Y110000D02*
X112020Y109980D01*
X116972D01*
X107000Y26500D02*
X142000D01*
X19500Y27500D02*
Y34500D01*
Y42500D01*
X46500Y135500D02*
X54500D01*
X57500Y132500D01*
X66236Y135264D02*
Y139362D01*
Y135264D02*
X67500Y134000D01*
X65638Y139362D02*
X66236D01*
X59700Y145300D02*
Y148335D01*
X59464Y174036D02*
X64700D01*
X58500Y175000D02*
X59464Y174036D01*
X82500Y163500D02*
X86138Y159862D01*
X88736D01*
X249500Y117000D02*
X255500D01*
X242500Y81500D02*
X249500Y74500D01*
X236500Y87500D02*
X242500Y81500D01*
X221000Y87500D02*
X236500D01*
X218000Y84500D02*
X221000Y87500D01*
X207500Y77500D02*
Y82000D01*
X207000Y77000D02*
X207500Y77500D01*
X191654Y68154D02*
X193000Y69500D01*
X190000Y68154D02*
X191654D01*
X194346D02*
X197157D01*
X193000Y69500D02*
X194346Y68154D01*
X179657D02*
X190000D01*
X123000Y128500D02*
X131500Y137000D01*
X123000Y128000D02*
Y128500D01*
X124255Y126745D02*
X129600D01*
X123000Y128000D02*
X124255Y126745D01*
X136000Y44000D02*
Y48000D01*
X154000Y66000D01*
Y98359D01*
X148500Y99736D02*
X152764D01*
X153000Y99500D01*
X100500Y167500D02*
X106000D01*
X98500Y169500D02*
X100500Y167500D01*
D30*
X93264Y150503D02*
X109503D01*
X80000Y130000D02*
X119500D01*
X138577Y130360D02*
Y169423D01*
X184000Y107000D02*
X200500Y123500D01*
X120000Y122500D02*
X122500D01*
X168500Y85000D02*
X175347Y78154D01*
X219500Y64500D02*
X234500D01*
X215000Y69000D02*
X219500Y64500D01*
X215000Y69000D02*
Y106500D01*
X84000Y189500D02*
X95000Y178500D01*
X93264Y165435D02*
X95000Y167172D01*
X88500Y165500D02*
X91000Y168000D01*
X95000Y167172D02*
Y178500D01*
X91000Y168000D02*
X93000D01*
X93264Y159862D02*
Y165435D01*
X78500Y165500D02*
X88500D01*
X93264Y150503D02*
Y159862D01*
X88736Y136764D02*
Y140862D01*
X70500Y139626D02*
Y145488D01*
X70764Y139362D02*
X76126Y134000D01*
X204000Y67500D02*
Y69500D01*
X200819Y72681D02*
X204000Y69500D01*
X191000Y76000D02*
X196657D01*
X197157Y75500D01*
X183500Y107500D02*
X184000Y107000D01*
X151000Y92250D02*
Y93500D01*
X150000Y94500D02*
X151000Y93500D01*
X160500Y111500D02*
Y113500D01*
X153272Y120728D02*
X160500Y113500D01*
X149980Y120728D02*
X153272D01*
X131500Y127000D02*
X132500D01*
X129855D02*
X131500D01*
X132000Y126500D01*
Y125500D02*
Y126500D01*
Y125500D02*
X133228Y124272D01*
X135020D01*
X129600Y126745D02*
X129855Y127000D01*
X132500D02*
X133457Y126043D01*
X135020D01*
X59700Y148335D02*
X60593Y149228D01*
X64988D01*
X55028Y101500D02*
Y106472D01*
X55000Y106500D02*
X55028Y106472D01*
X32500Y106500D02*
X55000D01*
X44500Y83000D02*
X57000Y70500D01*
X25000Y83000D02*
X44500D01*
X112453Y46551D02*
X114200Y44805D01*
X109079Y46551D02*
X112453D01*
X96768Y37972D02*
Y39768D01*
X98547Y41547D01*
Y43894D01*
X98172Y121000D02*
X120000D01*
X79000Y101828D02*
X98172Y121000D01*
X164360Y101500D02*
X167000D01*
X74000Y178707D02*
Y200000D01*
X64897Y178367D02*
X74340D01*
X163500Y67500D02*
Y100241D01*
X132000Y36000D02*
X163500Y67500D01*
Y100241D02*
X164262Y101003D01*
Y101403D02*
X164360Y101500D01*
X164262Y101003D02*
Y101403D01*
X160500Y81000D02*
X161000Y80500D01*
X102484Y41721D02*
Y43894D01*
Y41721D02*
X103500Y40705D01*
Y34000D02*
Y40705D01*
X114315Y36000D02*
X132000D01*
X106421Y43894D02*
X114315Y36000D01*
X218500Y115000D02*
X221500Y112000D01*
X215500Y115000D02*
X218500D01*
X221500Y112000D02*
X244500D01*
X131980Y122500D02*
X135020D01*
X131200Y123280D02*
X131980Y122500D01*
X129600Y123280D02*
X131200D01*
X149980Y126043D02*
X152563D01*
X157500Y133980D02*
X159500Y135980D01*
X157500Y128610D02*
Y133980D01*
X161949Y128610D02*
X164130D01*
X168157Y132638D01*
X161949Y122980D02*
X165500D01*
X161949D02*
Y125509D01*
X149980Y124272D02*
X152791D01*
X154500Y125980D01*
X161500Y125958D02*
X161949Y125509D01*
X154500Y125980D02*
X154522Y125958D01*
X161500D01*
X168157Y116980D02*
Y120323D01*
X165500Y122980D02*
X168157Y120323D01*
X157500Y118980D02*
Y122980D01*
X159500Y116980D02*
X162843D01*
X157500Y118980D02*
X159500Y116980D01*
X168157Y132638D02*
Y135980D01*
X159500D02*
X162843D01*
X62862Y151000D02*
X64988D01*
X62062Y151800D02*
X62862Y151000D01*
X59700Y151800D02*
X62062D01*
X70500Y139626D02*
X70764Y139362D01*
X76406Y147457D02*
X78405D01*
X79202Y146660D01*
X84312D01*
X85500Y140862D02*
X88736D01*
X84000Y142362D02*
X85500Y140862D01*
X84000Y142362D02*
Y146348D01*
X84312Y146660D01*
X64700Y178564D02*
X64897Y178367D01*
X83900Y170762D02*
Y174036D01*
X82450Y169312D02*
X83900Y170762D01*
X78080Y169312D02*
X82450D01*
X100232Y37972D02*
Y40705D01*
X100500Y40972D01*
Y43878D01*
X100516Y43894D01*
X104453Y59051D02*
Y63425D01*
X105300Y64272D01*
X107900D01*
X103980Y69953D02*
Y76472D01*
X98547Y59051D02*
Y64520D01*
X103980Y69953D01*
Y76472D02*
X108000D01*
X109500Y77972D01*
Y81197D01*
X89000Y77972D02*
Y81709D01*
X87500Y76472D02*
X89000Y77972D01*
X96579Y59051D02*
Y63394D01*
X86000Y73972D02*
X96579Y63394D01*
X86000Y73972D02*
Y76472D01*
X82740D02*
X86000D01*
X87500D01*
X183268Y129000D02*
X186768Y125500D01*
X181000Y129000D02*
X183268D01*
X152563Y126043D02*
X155130Y128610D01*
X157500D01*
X85000Y9094D02*
X93250D01*
X76750D02*
X85000D01*
X161043Y193000D02*
X175500D01*
X180000Y197500D01*
Y200000D01*
X142500Y182500D02*
X154000Y194000D01*
Y200000D01*
X146043Y129980D02*
Y178000D01*
X161043Y193000D01*
X144272Y129980D02*
Y180272D01*
X164000Y200000D01*
X144000Y188500D02*
Y200000D01*
X142500Y108445D02*
X147035D01*
X148500Y106980D01*
Y104980D02*
Y106980D01*
X136764Y104980D02*
X142500D01*
X127803Y109980D02*
X128803Y108980D01*
X138500D01*
X121500Y114980D02*
X124500D01*
X130500Y112500D02*
X131500Y111500D01*
X136500D01*
X137185Y112185D01*
Y115020D01*
X128685Y117185D02*
X135020D01*
X124500Y114980D02*
X129300Y110180D01*
X201500Y26000D02*
X234000D01*
X125000Y106500D02*
Y109980D01*
X127803D01*
X160815Y190000D02*
X176500D01*
X186500Y200000D01*
X190000D01*
X197500D02*
X200000D01*
X184500Y187000D02*
X197500Y200000D01*
X164000Y187000D02*
X184500D01*
X124000Y200000D02*
X131500Y192500D01*
X114000Y200000D02*
X117000D01*
X129000Y188000D01*
Y172500D02*
Y188000D01*
X149980Y122500D02*
X157020D01*
X157500Y122980D01*
X121764Y109980D02*
X125000D01*
X163062Y101500D02*
Y104103D01*
X149980Y118957D02*
X152043D01*
X157500Y111500D02*
Y113500D01*
X152043Y118957D02*
X157500Y113500D01*
X149980Y117185D02*
X163062Y104103D01*
X19500Y182000D02*
Y182500D01*
Y192500D02*
X20000D01*
X19500Y202500D02*
X24000Y198000D01*
X39500D01*
X19500Y182000D02*
X24000Y177500D01*
X68728Y156512D02*
Y158777D01*
X24000Y177500D02*
X48000D01*
X66957Y156905D02*
Y158543D01*
X48000Y177500D02*
X66957Y158543D01*
X20000Y192500D02*
X25000Y187500D01*
X39500Y198000D02*
X49000Y188500D01*
X40005Y187500D02*
X68728Y158777D01*
X25000Y187500D02*
X40005D01*
X19500Y167500D02*
X27000Y175000D01*
X19500Y147500D02*
Y148000D01*
X27000Y175000D02*
X44000D01*
X72272Y156512D02*
Y161228D01*
X71500Y162000D02*
X72272Y161228D01*
X76406Y154543D02*
X78043D01*
X79500Y156000D01*
Y160500D01*
X74043Y156905D02*
Y161043D01*
X78080Y165080D01*
Y169312D01*
X74000Y178707D02*
X74340Y178367D01*
X84000Y189500D02*
Y200000D01*
X157500Y111500D02*
X164360Y104640D01*
X161500Y99938D02*
X163062Y101500D01*
X100465Y33000D02*
X102500D01*
X103500Y34000D01*
X129300Y110180D02*
X138003D01*
X138957Y111134D01*
Y115020D01*
X138500Y108980D02*
X140728Y111209D01*
Y115020D01*
X142500Y108445D02*
Y115020D01*
X130500Y40500D02*
Y56500D01*
X136764Y96764D02*
Y104980D01*
X167000Y101500D02*
X176500Y111000D01*
X164360Y101500D02*
Y104640D01*
X203500Y193500D02*
X210000Y200000D01*
X179000Y108500D02*
Y133803D01*
X176500Y111000D02*
Y134500D01*
X203500Y161500D01*
Y193500D01*
X174500Y103000D02*
Y104000D01*
X179000Y108500D01*
X161500Y99500D02*
Y99938D01*
X209700Y179700D02*
X230000Y200000D01*
X179000Y133803D02*
X206000Y160803D01*
Y186000D01*
X220000Y200000D01*
X200500Y123500D02*
Y151500D01*
X209700Y160700D01*
Y179700D01*
X213000Y173000D02*
X240000Y200000D01*
X197157Y72681D02*
Y75500D01*
X213000Y80000D02*
Y173000D01*
X130500Y56500D02*
X141000Y67000D01*
Y92528D01*
X19500Y77500D02*
X25000Y83000D01*
X110500Y70500D02*
X131500D01*
X19500Y97500D02*
X23500D01*
X32500Y106500D01*
X56500Y91945D02*
Y96528D01*
X55028Y98000D02*
X56500Y96528D01*
X55028Y98000D02*
Y101500D01*
X19500Y132500D02*
X20000D01*
X122500Y122500D02*
X126043Y118957D01*
X135020D01*
X126772Y120728D02*
X135020D01*
X121500Y114980D02*
Y119500D01*
X120000Y127500D02*
X126772Y120728D01*
X120000Y122500D02*
Y123000D01*
X108500Y127500D02*
X120000D01*
X20000Y132500D02*
X26500Y139000D01*
X59000D01*
X19500Y122500D02*
X20000D01*
X25000Y127500D01*
X118500Y124500D02*
X120000Y123000D01*
X19500Y112500D02*
X24500Y117500D01*
X84500D01*
X86500Y115500D01*
X149980Y127815D02*
X154000Y131835D01*
Y177000D01*
X164000Y187000D01*
X147815Y129980D02*
X152000Y134165D01*
Y181185D02*
X160815Y190000D01*
X149000Y142500D02*
X152000D01*
X25000Y127500D02*
X67500D01*
X70500Y124500D01*
X118500D01*
X119500Y130000D02*
X132000Y142500D01*
X80000Y130000D02*
Y130500D01*
X152000Y134165D02*
Y142500D01*
Y181185D01*
X113500Y95000D02*
X128500D01*
X59000Y139000D02*
X70500Y127500D01*
X108500D01*
X76126Y134000D02*
X86000D01*
X202000Y54500D02*
X234500D01*
X180000Y32500D02*
X202000Y54500D01*
X168500Y85000D02*
X169000D01*
X147815Y115020D02*
X149980D01*
X146043Y112957D02*
Y115020D01*
Y112957D02*
X147500Y111500D01*
X150500D01*
X144272Y112728D02*
Y115020D01*
Y112728D02*
X147355Y109645D01*
X149855D01*
X121500Y109980D02*
Y112000D01*
X121000Y112500D02*
X121500Y112000D01*
X103000Y117500D02*
X108000Y112500D01*
X74043Y145095D02*
X77500Y141638D01*
Y139000D02*
Y141638D01*
X49000Y181000D02*
Y188500D01*
Y181000D02*
X70500Y159500D01*
Y156512D02*
Y159500D01*
X189657Y93154D02*
X192347D01*
X193417Y87209D02*
Y92083D01*
X193000Y92500D02*
X201000Y100500D01*
X192347Y93154D02*
X193000Y92500D01*
X193417Y92083D01*
X99000Y164500D02*
X119000D01*
X131000Y152500D01*
X246500Y64500D02*
X249500D01*
X219000Y78000D02*
X228000Y69000D01*
X219000Y78000D02*
Y80000D01*
X115000Y106500D02*
X125000D01*
X100240Y85528D02*
Y91740D01*
X115000Y106500D01*
X109500Y90000D02*
X139000D01*
X108000Y91500D02*
X109500Y90000D01*
X95000Y107500D02*
Y115000D01*
X97000Y117000D01*
X79000Y85528D02*
Y101828D01*
X88736Y136764D02*
X90000Y135500D01*
X99000Y159000D02*
X106000D01*
X125500Y139500D01*
X128000Y116500D02*
X128685Y117185D01*
X226000Y83000D02*
X234500Y74500D01*
X175917Y87209D02*
Y93154D01*
X169657D02*
X175917D01*
Y87209D02*
X176000Y87292D01*
Y95000D01*
X224000Y107000D02*
X234500D01*
X218500Y112500D02*
X224000Y107000D01*
X217500Y112500D02*
X218500D01*
X217000Y117000D02*
X234500D01*
X215500Y118500D02*
X217000Y117000D01*
X215500Y118500D02*
Y119000D01*
X142500Y129980D02*
Y182500D01*
X135500Y172500D02*
Y198500D01*
X131500Y173500D02*
Y177000D01*
Y192500D01*
X134000Y200000D02*
X135500Y198500D01*
X231500Y97000D02*
X234500D01*
X226000Y102500D02*
X231500Y97000D01*
X136764Y96764D02*
X139028Y94500D01*
X141000Y92528D01*
X139028Y94500D02*
X150000D01*
X215000Y115500D02*
X215500Y115000D01*
X140728Y129980D02*
X141000Y130252D01*
Y185500D01*
X134000Y128835D02*
X135020Y127815D01*
X129000Y172500D02*
X134000Y167500D01*
Y128835D02*
Y157500D01*
Y167500D01*
X136000Y131165D02*
Y169000D01*
X131500Y173500D02*
X136000Y169000D01*
Y131165D02*
X137185Y129980D01*
X138577Y130360D02*
X138957Y129980D01*
X135500Y172500D02*
X138577Y169423D01*
X141000Y185500D02*
X144000Y188500D01*
X244500Y112000D02*
X249500Y107000D01*
X243500Y143000D02*
Y192000D01*
X234500Y97000D02*
X235000D01*
X240000Y102000D01*
X242000Y69000D02*
X246500Y64500D01*
X228000Y69000D02*
X242000D01*
X250000Y165500D02*
Y200000D01*
X247500Y163000D02*
X250000Y165500D01*
X233000Y42000D02*
Y43500D01*
X239000Y49500D01*
X243000D01*
X243500Y49000D01*
X197157Y72681D02*
X200819D01*
X179657D02*
X185319D01*
X159000Y103500D02*
Y106000D01*
X150500Y111500D02*
X156000Y106000D01*
X197157Y75500D02*
X197657Y75000D01*
X208000D01*
X213000Y80000D01*
X197157Y75500D02*
Y78154D01*
X179657Y72681D02*
Y78154D01*
X175347D02*
X179657D01*
X108000Y112500D02*
X121000D01*
X19500Y7500D02*
Y17500D01*
Y157500D02*
X24500Y162500D01*
X50900D01*
X19500Y148000D02*
X25000Y153500D01*
X44000Y175000D02*
X47000Y172000D01*
Y169500D02*
Y172000D01*
X48000Y153500D02*
X51000Y156500D01*
X25000Y153500D02*
X48000D01*
X120000Y121000D02*
X121500Y119500D01*
X109503Y150503D02*
X110000Y151000D01*
X78080Y165080D02*
X78500Y165500D01*
X235000Y146000D02*
Y159500D01*
X240000Y102000D02*
X262000D01*
X265000Y105000D01*
Y121500D01*
X243500Y143000D02*
X265000Y121500D01*
X235000Y146000D02*
X262500Y118500D01*
X149855Y109645D02*
X153500Y106000D01*
X160500Y81000D02*
Y97672D01*
X156000Y102172D02*
X160500Y97672D01*
X157000Y84500D02*
Y98328D01*
X153500Y101828D02*
Y106000D01*
Y101828D02*
X157000Y98328D01*
X156000Y102172D02*
Y106000D01*
X149980Y115020D02*
X159000Y106000D01*
D31*
X76750Y15000D02*
X76750Y15000D01*
Y22783D01*
Y23020D01*
X85000Y15000D02*
Y22783D01*
X85000Y15000D02*
X85000Y15000D01*
X93250Y15000D02*
Y22783D01*
D32*
X200000Y10000D02*
D03*
X180000D02*
D03*
X164000Y200000D02*
D03*
X250000D02*
D03*
D33*
X210000Y10000D02*
D03*
X220000D02*
D03*
X230000D02*
D03*
X240000D02*
D03*
X250000D02*
D03*
X150000D02*
D03*
X140000D02*
D03*
X130000D02*
D03*
X120000D02*
D03*
X110000D02*
D03*
X170000D02*
D03*
X160000D02*
D03*
X154000Y200000D02*
D03*
X144000D02*
D03*
X134000D02*
D03*
X124000D02*
D03*
X114000D02*
D03*
X104000D02*
D03*
X94000D02*
D03*
X84000D02*
D03*
X74000D02*
D03*
X230000D02*
D03*
X240000D02*
D03*
X180000D02*
D03*
X190000D02*
D03*
X200000D02*
D03*
X210000D02*
D03*
X220000D02*
D03*
D34*
X203000Y42000D02*
D03*
X213000D02*
D03*
X223000D02*
D03*
X233000D02*
D03*
X243000D02*
D03*
X253000D02*
D03*
D35*
X260000Y30000D02*
D03*
X55000Y10000D02*
D03*
X60000Y200000D02*
D03*
D36*
X265000Y57000D02*
D03*
Y47000D02*
D03*
Y17000D02*
D03*
X262500Y62000D02*
D03*
X260000Y57000D02*
D03*
X262500Y52000D02*
D03*
X260000Y47000D02*
D03*
X262500Y42000D02*
D03*
X260000Y17000D02*
D03*
X262500Y12000D02*
D03*
X255000Y87000D02*
D03*
X257500Y82000D02*
D03*
X255000Y17000D02*
D03*
X257500Y12000D02*
D03*
X255000Y7000D02*
D03*
X252500Y82000D02*
D03*
X250000Y27000D02*
D03*
X252500Y22000D02*
D03*
X250000Y17000D02*
D03*
X247500Y32000D02*
D03*
X245000Y27000D02*
D03*
X247500Y22000D02*
D03*
X245000Y7000D02*
D03*
X242500Y32000D02*
D03*
X240000Y27000D02*
D03*
X242500Y22000D02*
D03*
X237500Y92000D02*
D03*
Y32000D02*
D03*
X235000Y17000D02*
D03*
Y7000D02*
D03*
X232500Y92000D02*
D03*
Y82000D02*
D03*
Y32000D02*
D03*
X227500Y92000D02*
D03*
X225000Y77000D02*
D03*
Y17000D02*
D03*
Y7000D02*
D03*
X220000Y107000D02*
D03*
X222500Y92000D02*
D03*
Y82000D02*
D03*
X217500Y62000D02*
D03*
X215000Y17000D02*
D03*
Y7000D02*
D03*
X210000Y67000D02*
D03*
X212500Y62000D02*
D03*
Y22000D02*
D03*
X210000Y17000D02*
D03*
X207500Y92000D02*
D03*
Y72000D02*
D03*
Y62000D02*
D03*
Y22000D02*
D03*
X202500D02*
D03*
X197500Y92000D02*
D03*
X195000Y57000D02*
D03*
X190000D02*
D03*
X192500Y52000D02*
D03*
X190000Y27000D02*
D03*
Y17000D02*
D03*
X192500Y12000D02*
D03*
X190000Y7000D02*
D03*
X187500Y62000D02*
D03*
X185000Y57000D02*
D03*
Y27000D02*
D03*
X187500Y22000D02*
D03*
X185000Y17000D02*
D03*
X187500Y12000D02*
D03*
X182500Y62000D02*
D03*
X180000Y57000D02*
D03*
Y27000D02*
D03*
X182500Y22000D02*
D03*
X180000Y17000D02*
D03*
X175000Y197000D02*
D03*
Y67000D02*
D03*
X177500Y62000D02*
D03*
X175000Y57000D02*
D03*
Y27000D02*
D03*
X177500Y22000D02*
D03*
X175000Y17000D02*
D03*
X172500Y202000D02*
D03*
X170000Y197000D02*
D03*
X172500Y182000D02*
D03*
X170000Y177000D02*
D03*
X172500Y172000D02*
D03*
X170000Y167000D02*
D03*
X172500Y162000D02*
D03*
X170000Y157000D02*
D03*
X172500Y152000D02*
D03*
X170000Y147000D02*
D03*
X172500Y142000D02*
D03*
Y112000D02*
D03*
Y22000D02*
D03*
X170000Y17000D02*
D03*
X167500Y182000D02*
D03*
X165000Y177000D02*
D03*
X167500Y172000D02*
D03*
X165000Y167000D02*
D03*
X167500Y162000D02*
D03*
X165000Y157000D02*
D03*
X167500Y152000D02*
D03*
X165000Y147000D02*
D03*
X167500Y112000D02*
D03*
X165000Y57000D02*
D03*
X167500Y22000D02*
D03*
X165000Y17000D02*
D03*
X160000Y177000D02*
D03*
X162500Y172000D02*
D03*
X160000Y167000D02*
D03*
X162500Y162000D02*
D03*
X160000Y157000D02*
D03*
X162500Y152000D02*
D03*
X160000Y77000D02*
D03*
X162500Y62000D02*
D03*
X160000Y57000D02*
D03*
X162500Y22000D02*
D03*
X160000Y17000D02*
D03*
X157500Y172000D02*
D03*
Y162000D02*
D03*
Y72000D02*
D03*
Y22000D02*
D03*
X155000Y17000D02*
D03*
X150000Y77000D02*
D03*
Y67000D02*
D03*
Y27000D02*
D03*
X147500Y192000D02*
D03*
Y82000D02*
D03*
X145000Y77000D02*
D03*
X147500Y72000D02*
D03*
X145000Y67000D02*
D03*
X147500Y32000D02*
D03*
X145000Y7000D02*
D03*
X137500Y32000D02*
D03*
X135000Y17000D02*
D03*
Y7000D02*
D03*
X130000Y167000D02*
D03*
Y147000D02*
D03*
X125000Y187000D02*
D03*
Y177000D02*
D03*
Y167000D02*
D03*
X127500Y162000D02*
D03*
X125000Y147000D02*
D03*
X127500Y52000D02*
D03*
X125000Y47000D02*
D03*
Y17000D02*
D03*
Y7000D02*
D03*
X120000Y187000D02*
D03*
X122500Y182000D02*
D03*
X120000Y177000D02*
D03*
X122500Y172000D02*
D03*
X120000Y157000D02*
D03*
X122500Y152000D02*
D03*
X120000Y57000D02*
D03*
X122500Y52000D02*
D03*
Y32000D02*
D03*
X120000Y17000D02*
D03*
X117500Y192000D02*
D03*
X115000Y187000D02*
D03*
X117500Y182000D02*
D03*
X115000Y177000D02*
D03*
X117500Y172000D02*
D03*
X115000Y157000D02*
D03*
X117500Y152000D02*
D03*
Y62000D02*
D03*
X115000Y57000D02*
D03*
X117500Y52000D02*
D03*
Y32000D02*
D03*
X115000Y17000D02*
D03*
Y7000D02*
D03*
X112500Y192000D02*
D03*
X110000Y187000D02*
D03*
X112500Y182000D02*
D03*
X110000Y177000D02*
D03*
X112500Y172000D02*
D03*
X110000Y17000D02*
D03*
X107500Y192000D02*
D03*
X105000Y187000D02*
D03*
X107500Y182000D02*
D03*
Y172000D02*
D03*
X105000Y107000D02*
D03*
X107500Y32000D02*
D03*
Y22000D02*
D03*
X105000Y17000D02*
D03*
Y7000D02*
D03*
X102500Y192000D02*
D03*
X100000Y187000D02*
D03*
X102500Y182000D02*
D03*
X100000Y147000D02*
D03*
Y17000D02*
D03*
X102500Y12000D02*
D03*
X100000Y7000D02*
D03*
X97500Y192000D02*
D03*
X95000Y137000D02*
D03*
X97500Y12000D02*
D03*
X92500Y192000D02*
D03*
X90000Y177000D02*
D03*
Y107000D02*
D03*
X92500Y62000D02*
D03*
Y42000D02*
D03*
X87500Y192000D02*
D03*
Y182000D02*
D03*
Y102000D02*
D03*
X85000Y67000D02*
D03*
X87500Y62000D02*
D03*
X85000Y57000D02*
D03*
X87500Y52000D02*
D03*
X82500Y112000D02*
D03*
Y92000D02*
D03*
X80000Y67000D02*
D03*
X82500Y62000D02*
D03*
X80000Y57000D02*
D03*
X82500Y52000D02*
D03*
X77500Y192000D02*
D03*
X75000Y107000D02*
D03*
Y97000D02*
D03*
Y87000D02*
D03*
X72500Y132000D02*
D03*
Y112000D02*
D03*
X70000Y107000D02*
D03*
X72500Y102000D02*
D03*
X70000Y97000D02*
D03*
X72500Y92000D02*
D03*
X70000Y87000D02*
D03*
X72500Y82000D02*
D03*
X70000Y77000D02*
D03*
Y67000D02*
D03*
Y27000D02*
D03*
X72500Y22000D02*
D03*
X70000Y17000D02*
D03*
X72500Y12000D02*
D03*
X70000Y7000D02*
D03*
X67500Y192000D02*
D03*
Y122000D02*
D03*
Y112000D02*
D03*
X65000Y107000D02*
D03*
X67500Y102000D02*
D03*
X65000Y97000D02*
D03*
X67500Y92000D02*
D03*
X65000Y87000D02*
D03*
X67500Y82000D02*
D03*
X65000Y77000D02*
D03*
Y67000D02*
D03*
X67500Y62000D02*
D03*
Y42000D02*
D03*
X65000Y27000D02*
D03*
X67500Y22000D02*
D03*
X65000Y17000D02*
D03*
X67500Y12000D02*
D03*
X65000Y7000D02*
D03*
X60000Y157000D02*
D03*
X62500Y122000D02*
D03*
Y102000D02*
D03*
X60000Y97000D02*
D03*
X62500Y92000D02*
D03*
Y82000D02*
D03*
X60000Y67000D02*
D03*
X62500Y62000D02*
D03*
Y52000D02*
D03*
Y42000D02*
D03*
X60000Y27000D02*
D03*
X62500Y22000D02*
D03*
X57500Y122000D02*
D03*
Y112000D02*
D03*
X55000Y67000D02*
D03*
X57500Y62000D02*
D03*
Y52000D02*
D03*
Y42000D02*
D03*
X55000Y27000D02*
D03*
X57500Y22000D02*
D03*
X50000Y197000D02*
D03*
X52500Y192000D02*
D03*
X50000Y67000D02*
D03*
X52500Y62000D02*
D03*
Y52000D02*
D03*
Y42000D02*
D03*
X50000Y27000D02*
D03*
X52500Y22000D02*
D03*
X47500Y202000D02*
D03*
X45000Y197000D02*
D03*
X47500Y62000D02*
D03*
Y52000D02*
D03*
Y42000D02*
D03*
X45000Y27000D02*
D03*
X47500Y22000D02*
D03*
X45000Y17000D02*
D03*
Y7000D02*
D03*
X32500Y142000D02*
D03*
X27500D02*
D03*
X25000Y107000D02*
D03*
X27500Y72000D02*
D03*
X22500Y142000D02*
D03*
X20000Y107000D02*
D03*
X22500Y72000D02*
D03*
X15000Y107000D02*
D03*
Y37000D02*
D03*
X10000Y197000D02*
D03*
Y187000D02*
D03*
Y177000D02*
D03*
Y97000D02*
D03*
Y57000D02*
D03*
Y47000D02*
D03*
Y37000D02*
D03*
Y27000D02*
D03*
Y17000D02*
D03*
Y7000D02*
D03*
X7500Y202000D02*
D03*
X5000Y197000D02*
D03*
X7500Y192000D02*
D03*
X5000Y187000D02*
D03*
X7500Y182000D02*
D03*
X5000Y177000D02*
D03*
Y97000D02*
D03*
X7500Y92000D02*
D03*
X5000Y87000D02*
D03*
Y57000D02*
D03*
X7500Y52000D02*
D03*
X5000Y47000D02*
D03*
X7500Y42000D02*
D03*
X5000Y37000D02*
D03*
X7500Y32000D02*
D03*
X5000Y27000D02*
D03*
X7500Y22000D02*
D03*
X5000Y17000D02*
D03*
X7500Y12000D02*
D03*
X5000Y7000D02*
D03*
D37*
X97000Y27000D02*
D03*
X93000Y168000D02*
D03*
X262500Y118500D02*
D03*
X204000Y67500D02*
D03*
X191000Y76000D02*
D03*
X185319Y72681D02*
D03*
X183500Y107500D02*
D03*
X151000Y92250D02*
D03*
X55000Y106500D02*
D03*
X161000Y80500D02*
D03*
X194500Y126000D02*
D03*
X181000Y129000D02*
D03*
X130500Y112500D02*
D03*
X201500Y26000D02*
D03*
X234000D02*
D03*
X125000Y106500D02*
D03*
X71500Y162000D02*
D03*
X79500Y160500D02*
D03*
X130500Y40500D02*
D03*
X174500Y103000D02*
D03*
X161500Y99500D02*
D03*
X57000Y70500D02*
D03*
X110500D02*
D03*
X131500D02*
D03*
X121500Y119500D02*
D03*
X120000Y123000D02*
D03*
X108500Y127500D02*
D03*
X86500Y115500D02*
D03*
X149000Y142500D02*
D03*
X132000D02*
D03*
X80000Y130500D02*
D03*
X113500Y95000D02*
D03*
X128500D02*
D03*
X86000Y134000D02*
D03*
X180000Y32500D02*
D03*
X169000Y85000D02*
D03*
X103000Y117500D02*
D03*
X77500Y139000D02*
D03*
X201000Y100500D02*
D03*
X99000Y164500D02*
D03*
X131000Y152500D02*
D03*
X215000Y106500D02*
D03*
X219000Y80000D02*
D03*
X139000Y90000D02*
D03*
X108000Y91500D02*
D03*
X95000Y107500D02*
D03*
X97000Y117000D02*
D03*
X90000Y135500D02*
D03*
X99000Y159000D02*
D03*
X125500Y139500D02*
D03*
X128000Y116500D02*
D03*
X226000Y83000D02*
D03*
X176000Y95000D02*
D03*
X217500Y112500D02*
D03*
X215500Y119000D02*
D03*
X131500Y177000D02*
D03*
X226000Y102500D02*
D03*
X215000Y115500D02*
D03*
X134000Y157500D02*
D03*
X138500Y163000D02*
D03*
X243500Y192000D02*
D03*
X247500Y163000D02*
D03*
X235000Y159500D02*
D03*
X243500Y49000D02*
D03*
X89000Y26000D02*
D03*
X144500Y100500D02*
D03*
X186500Y104500D02*
D03*
X159000Y103500D02*
D03*
X157000Y84500D02*
D03*
X136000Y44000D02*
D03*
X142000Y26500D02*
D03*
X218000Y84500D02*
D03*
X207500Y82000D02*
D03*
X207000Y77000D02*
D03*
X193000Y69500D02*
D03*
X160500Y111500D02*
D03*
X111500Y116000D02*
D03*
X123000Y128000D02*
D03*
X112000Y110000D02*
D03*
X107000Y26500D02*
D03*
X87000Y32000D02*
D03*
X5500Y79500D02*
D03*
X46500Y135500D02*
D03*
X57500Y132500D02*
D03*
X67500Y134000D02*
D03*
X47000Y169500D02*
D03*
X51000Y156500D02*
D03*
X50900Y162500D02*
D03*
X54000Y167500D02*
D03*
X58500Y175000D02*
D03*
X110000Y151000D02*
D03*
X106000Y167500D02*
D03*
X82500Y163500D02*
D03*
X242500Y81500D02*
D03*
X260000Y105500D02*
D03*
X131500Y137000D02*
D03*
X153000Y99500D02*
D03*
X98500Y169500D02*
D03*
D38*
X77500Y31000D02*
D03*
X45500Y87000D02*
D03*
X111000Y23000D02*
D03*
X69500Y47500D02*
D03*
X100500Y111500D02*
D03*
X78500Y181000D02*
D03*
X194500Y100000D02*
D03*
X182500Y100500D02*
D03*
X205500Y125500D02*
D03*
X96500Y90500D02*
D03*
X103500D02*
D03*
X189500Y105000D02*
D03*
X170500Y29000D02*
D03*
X46000Y104500D02*
D03*
X99000Y141000D02*
D03*
X93500Y38000D02*
D03*
X120500Y44500D02*
D03*
M02*
