G04 Layer_Physical_Order=2*
G04 Layer_Color=16711680*
%FSLAX25Y25*%
%MOIN*%
G70*
G01*
G75*
%ADD16R,0.03543X0.03937*%
%ADD29C,0.02400*%
%ADD30C,0.00600*%
%ADD31C,0.01200*%
%ADD32C,0.01500*%
%ADD33C,0.07400*%
%ADD34R,0.06000X0.06000*%
%ADD35C,0.06000*%
%ADD36C,0.12598*%
%ADD37C,0.02900*%
%ADD38C,0.02200*%
%ADD39C,0.00200*%
%ADD40C,0.01000*%
%ADD41R,0.07874X0.14961*%
%ADD42R,0.07874X0.05905*%
%ADD43R,0.05118X0.03937*%
%ADD44R,0.03937X0.05118*%
G36*
X260000Y200000D02*
Y160000D01*
X270000Y150000D01*
Y15000D01*
X260000Y5000D01*
Y867D01*
X259668Y801D01*
X259538Y714D01*
X714D01*
Y209538D01*
X801Y209668D01*
X867Y210000D01*
X250000D01*
X260000Y200000D01*
D02*
G37*
%LPC*%
G36*
X199500Y49398D02*
X199044Y49308D01*
X198234Y48766D01*
X197692Y47956D01*
X197601Y47500D01*
X199500D01*
Y49398D01*
D02*
G37*
G36*
X200500D02*
Y47500D01*
X202398D01*
X202308Y47956D01*
X201766Y48766D01*
X200956Y49308D01*
X200500Y49398D01*
D02*
G37*
G36*
X119500D02*
X119044Y49308D01*
X118234Y48766D01*
X117692Y47956D01*
X117602Y47500D01*
X119500D01*
Y49398D01*
D02*
G37*
G36*
X120500D02*
Y47500D01*
X122398D01*
X122308Y47956D01*
X121766Y48766D01*
X120956Y49308D01*
X120500Y49398D01*
D02*
G37*
G36*
X209500D02*
X209044Y49308D01*
X208234Y48766D01*
X207692Y47956D01*
X207601Y47500D01*
X209500D01*
Y49398D01*
D02*
G37*
G36*
X250500D02*
Y47500D01*
X252398D01*
X252308Y47956D01*
X251766Y48766D01*
X250956Y49308D01*
X250500Y49398D01*
D02*
G37*
G36*
X259500D02*
X259044Y49308D01*
X258234Y48766D01*
X257692Y47956D01*
X257601Y47500D01*
X259500D01*
Y49398D01*
D02*
G37*
G36*
X210500D02*
Y47500D01*
X212399D01*
X212308Y47956D01*
X211766Y48766D01*
X210956Y49308D01*
X210500Y49398D01*
D02*
G37*
G36*
X249500D02*
X249044Y49308D01*
X248234Y48766D01*
X247692Y47956D01*
X247602Y47500D01*
X249500D01*
Y49398D01*
D02*
G37*
G36*
X50500D02*
Y47500D01*
X52399D01*
X52308Y47956D01*
X51766Y48766D01*
X50956Y49308D01*
X50500Y49398D01*
D02*
G37*
G36*
X59500D02*
X59044Y49308D01*
X58234Y48766D01*
X57692Y47956D01*
X57601Y47500D01*
X59500D01*
Y49398D01*
D02*
G37*
G36*
X10500D02*
Y47500D01*
X12398D01*
X12308Y47956D01*
X11766Y48766D01*
X10956Y49308D01*
X10500Y49398D01*
D02*
G37*
G36*
X49500D02*
X49044Y49308D01*
X48234Y48766D01*
X47692Y47956D01*
X47602Y47500D01*
X49500D01*
Y49398D01*
D02*
G37*
G36*
X60500D02*
Y47500D01*
X62398D01*
X62308Y47956D01*
X61766Y48766D01*
X60956Y49308D01*
X60500Y49398D01*
D02*
G37*
G36*
X89500D02*
X89044Y49308D01*
X88234Y48766D01*
X87692Y47956D01*
X87602Y47500D01*
X89500D01*
Y49398D01*
D02*
G37*
G36*
X90500D02*
Y47500D01*
X92399D01*
X92308Y47956D01*
X91766Y48766D01*
X90956Y49308D01*
X90500Y49398D01*
D02*
G37*
G36*
X69500D02*
X69044Y49308D01*
X68234Y48766D01*
X67692Y47956D01*
X67602Y47500D01*
X69500D01*
Y49398D01*
D02*
G37*
G36*
X70500D02*
Y47500D01*
X72399D01*
X72308Y47956D01*
X71766Y48766D01*
X70956Y49308D01*
X70500Y49398D01*
D02*
G37*
G36*
X260500D02*
Y47500D01*
X262399D01*
X262308Y47956D01*
X261766Y48766D01*
X260956Y49308D01*
X260500Y49398D01*
D02*
G37*
G36*
X184500Y56500D02*
X182601D01*
X182692Y56044D01*
X183234Y55234D01*
X184044Y54692D01*
X184500Y54602D01*
Y56500D01*
D02*
G37*
G36*
X187399D02*
X185500D01*
Y54602D01*
X185956Y54692D01*
X186766Y55234D01*
X187308Y56044D01*
X187399Y56500D01*
D02*
G37*
G36*
X174500D02*
X172601D01*
X172692Y56044D01*
X173234Y55234D01*
X174044Y54692D01*
X174500Y54602D01*
Y56500D01*
D02*
G37*
G36*
X177399D02*
X175500D01*
Y54602D01*
X175956Y54692D01*
X176766Y55234D01*
X177308Y56044D01*
X177399Y56500D01*
D02*
G37*
G36*
X194500D02*
X192602D01*
X192692Y56044D01*
X193234Y55234D01*
X194044Y54692D01*
X194500Y54602D01*
Y56500D01*
D02*
G37*
G36*
X267399D02*
X265500D01*
Y54602D01*
X265956Y54692D01*
X266766Y55234D01*
X267308Y56044D01*
X267399Y56500D01*
D02*
G37*
G36*
X74500Y59399D02*
X74044Y59308D01*
X73234Y58766D01*
X72692Y57956D01*
X72601Y57500D01*
X74500D01*
Y59399D01*
D02*
G37*
G36*
X197398Y56500D02*
X195500D01*
Y54602D01*
X195956Y54692D01*
X196766Y55234D01*
X197308Y56044D01*
X197398Y56500D01*
D02*
G37*
G36*
X264500D02*
X262601D01*
X262692Y56044D01*
X263234Y55234D01*
X264044Y54692D01*
X264500Y54602D01*
Y56500D01*
D02*
G37*
G36*
X77399D02*
X75500D01*
Y54602D01*
X75956Y54692D01*
X76766Y55234D01*
X77308Y56044D01*
X77399Y56500D01*
D02*
G37*
G36*
X84500D02*
X82601D01*
X82692Y56044D01*
X83234Y55234D01*
X84044Y54692D01*
X84500Y54602D01*
Y56500D01*
D02*
G37*
G36*
X34366Y57000D02*
X32075D01*
Y55532D01*
X32153Y55141D01*
X32373Y54811D01*
X32704Y54589D01*
X33094Y54512D01*
X34366D01*
Y57000D01*
D02*
G37*
G36*
X74500Y56500D02*
X72601D01*
X72692Y56044D01*
X73234Y55234D01*
X74044Y54692D01*
X74500Y54602D01*
Y56500D01*
D02*
G37*
G36*
X87398D02*
X85500D01*
Y54602D01*
X85956Y54692D01*
X86766Y55234D01*
X87308Y56044D01*
X87398Y56500D01*
D02*
G37*
G36*
X164500D02*
X162601D01*
X162692Y56044D01*
X163234Y55234D01*
X164044Y54692D01*
X164500Y54602D01*
Y56500D01*
D02*
G37*
G36*
X167399D02*
X165500D01*
Y54602D01*
X165956Y54692D01*
X166766Y55234D01*
X167308Y56044D01*
X167399Y56500D01*
D02*
G37*
G36*
X114500D02*
X112601D01*
X112692Y56044D01*
X113234Y55234D01*
X114044Y54692D01*
X114500Y54602D01*
Y56500D01*
D02*
G37*
G36*
X117399D02*
X115500D01*
Y54602D01*
X115956Y54692D01*
X116766Y55234D01*
X117308Y56044D01*
X117399Y56500D01*
D02*
G37*
G36*
X64500Y39399D02*
X64044Y39308D01*
X63234Y38766D01*
X62692Y37956D01*
X62602Y37500D01*
X64500D01*
Y39399D01*
D02*
G37*
G36*
X65500D02*
Y37500D01*
X67399D01*
X67308Y37956D01*
X66766Y38766D01*
X65956Y39308D01*
X65500Y39399D01*
D02*
G37*
G36*
X54500D02*
X54044Y39308D01*
X53234Y38766D01*
X52692Y37956D01*
X52601Y37500D01*
X54500D01*
Y39399D01*
D02*
G37*
G36*
X55500D02*
Y37500D01*
X57398D01*
X57308Y37956D01*
X56766Y38766D01*
X55956Y39308D01*
X55500Y39399D01*
D02*
G37*
G36*
X74500D02*
X74044Y39308D01*
X73234Y38766D01*
X72692Y37956D01*
X72601Y37500D01*
X74500D01*
Y39399D01*
D02*
G37*
G36*
X202594Y46500D02*
X197601D01*
X197692Y46044D01*
X198234Y45234D01*
X199025Y44705D01*
X199125Y44618D01*
X199262Y44256D01*
X199234Y44145D01*
X198811Y43123D01*
X198663Y42000D01*
X198811Y40878D01*
X199244Y39832D01*
X199933Y38933D01*
X200831Y38244D01*
X201877Y37811D01*
X203000Y37663D01*
X204122Y37811D01*
X205169Y38244D01*
X206067Y38933D01*
X206756Y39832D01*
X207189Y40878D01*
X207337Y42000D01*
X207189Y43123D01*
X206756Y44168D01*
X206067Y45067D01*
X205169Y45756D01*
X204122Y46189D01*
X203000Y46337D01*
X202775Y46307D01*
X202594Y46500D01*
D02*
G37*
G36*
X212594D02*
X207601D01*
X207692Y46044D01*
X208234Y45234D01*
X209025Y44705D01*
X209125Y44618D01*
X209261Y44256D01*
X209234Y44145D01*
X208811Y43123D01*
X208663Y42000D01*
X208811Y40878D01*
X209244Y39832D01*
X209933Y38933D01*
X210831Y38244D01*
X211877Y37811D01*
X213000Y37663D01*
X214123Y37811D01*
X215169Y38244D01*
X216067Y38933D01*
X216756Y39832D01*
X217189Y40878D01*
X217337Y42000D01*
X217189Y43123D01*
X216756Y44168D01*
X216067Y45067D01*
X215169Y45756D01*
X214123Y46189D01*
X213000Y46337D01*
X212775Y46307D01*
X212594Y46500D01*
D02*
G37*
G36*
X75500Y39399D02*
Y37500D01*
X77399D01*
X77308Y37956D01*
X76766Y38766D01*
X75956Y39308D01*
X75500Y39399D01*
D02*
G37*
G36*
X265500D02*
Y37500D01*
X267399D01*
X267308Y37956D01*
X266766Y38766D01*
X265956Y39308D01*
X265500Y39399D01*
D02*
G37*
G36*
X15500D02*
Y37500D01*
X17399D01*
X17308Y37956D01*
X16766Y38766D01*
X15956Y39308D01*
X15500Y39399D01*
D02*
G37*
G36*
X24500D02*
X24044Y39308D01*
X23234Y38766D01*
X22692Y37956D01*
X22602Y37500D01*
X24500D01*
Y39399D01*
D02*
G37*
G36*
X227675Y41500D02*
X223500D01*
Y37325D01*
X224227Y37421D01*
X225370Y37894D01*
X226352Y38648D01*
X227105Y39630D01*
X227579Y40773D01*
X227675Y41500D01*
D02*
G37*
G36*
X14500Y39399D02*
X14044Y39308D01*
X13234Y38766D01*
X12692Y37956D01*
X12601Y37500D01*
X14500D01*
Y39399D01*
D02*
G37*
G36*
X25500D02*
Y37500D01*
X27398D01*
X27308Y37956D01*
X26766Y38766D01*
X25956Y39308D01*
X25500Y39399D01*
D02*
G37*
G36*
X44500D02*
X44044Y39308D01*
X43234Y38766D01*
X42692Y37956D01*
X42601Y37500D01*
X44500D01*
Y39399D01*
D02*
G37*
G36*
X45500D02*
Y37500D01*
X47398D01*
X47308Y37956D01*
X46766Y38766D01*
X45956Y39308D01*
X45500Y39399D01*
D02*
G37*
G36*
X34500D02*
X34044Y39308D01*
X33234Y38766D01*
X32692Y37956D01*
X32601Y37500D01*
X34500D01*
Y39399D01*
D02*
G37*
G36*
X35500D02*
Y37500D01*
X37398D01*
X37308Y37956D01*
X36766Y38766D01*
X35956Y39308D01*
X35500Y39399D01*
D02*
G37*
G36*
X187500Y72233D02*
X186837Y72101D01*
X186274Y71726D01*
X185899Y71163D01*
X185767Y70500D01*
X185899Y69837D01*
X186274Y69274D01*
X186837Y68899D01*
X187500Y68767D01*
X187863Y68839D01*
X204351Y52351D01*
X204649Y52152D01*
X205000Y52082D01*
X221620D01*
X229370Y44333D01*
X229244Y44168D01*
X228811Y43123D01*
X228663Y42000D01*
X228811Y40878D01*
X229244Y39832D01*
X229933Y38933D01*
X230831Y38244D01*
X231877Y37811D01*
X233000Y37663D01*
X234122Y37811D01*
X235169Y38244D01*
X236067Y38933D01*
X236756Y39832D01*
X237189Y40878D01*
X237337Y42000D01*
X237189Y43123D01*
X236756Y44168D01*
X236067Y45067D01*
X235169Y45756D01*
X234122Y46189D01*
X233000Y46337D01*
X231877Y46189D01*
X230831Y45756D01*
X230667Y45630D01*
X222649Y53649D01*
X222351Y53848D01*
X222000Y53918D01*
X205380D01*
X189161Y70137D01*
X189233Y70500D01*
X189101Y71163D01*
X188726Y71726D01*
X188163Y72101D01*
X187500Y72233D01*
D02*
G37*
G36*
X89500Y46500D02*
X87602D01*
X87692Y46044D01*
X88234Y45234D01*
X89044Y44692D01*
X89500Y44602D01*
Y46500D01*
D02*
G37*
G36*
X92399D02*
X90500D01*
Y44602D01*
X90956Y44692D01*
X91766Y45234D01*
X92308Y46044D01*
X92399Y46500D01*
D02*
G37*
G36*
X69500D02*
X67602D01*
X67692Y46044D01*
X68234Y45234D01*
X69044Y44692D01*
X69500Y44602D01*
Y46500D01*
D02*
G37*
G36*
X72399D02*
X70500D01*
Y44602D01*
X70956Y44692D01*
X71766Y45234D01*
X72308Y46044D01*
X72399Y46500D01*
D02*
G37*
G36*
X119500D02*
X117602D01*
X117692Y46044D01*
X118234Y45234D01*
X119044Y44692D01*
X119500Y44602D01*
Y46500D01*
D02*
G37*
G36*
X262399D02*
X260500D01*
Y44602D01*
X260956Y44692D01*
X261766Y45234D01*
X262308Y46044D01*
X262399Y46500D01*
D02*
G37*
G36*
X9500Y49398D02*
X9044Y49308D01*
X8234Y48766D01*
X7692Y47956D01*
X7602Y47500D01*
X9500D01*
Y49398D01*
D02*
G37*
G36*
X122398Y46500D02*
X120500D01*
Y44602D01*
X120956Y44692D01*
X121766Y45234D01*
X122308Y46044D01*
X122398Y46500D01*
D02*
G37*
G36*
X259500D02*
X257601D01*
X257692Y46044D01*
X258234Y45234D01*
X259044Y44692D01*
X259500Y44602D01*
Y46500D01*
D02*
G37*
G36*
X223500Y46675D02*
Y42500D01*
X227675D01*
X227579Y43227D01*
X227105Y44370D01*
X226352Y45352D01*
X225370Y46106D01*
X224227Y46579D01*
X223500Y46675D01*
D02*
G37*
G36*
X9500Y46500D02*
X7602D01*
X7692Y46044D01*
X8234Y45234D01*
X9044Y44692D01*
X9500Y44602D01*
Y46500D01*
D02*
G37*
G36*
X252594D02*
X247602D01*
X247692Y46044D01*
X248234Y45234D01*
X249025Y44705D01*
X249125Y44618D01*
X249261Y44256D01*
X249234Y44145D01*
X248811Y43123D01*
X248663Y42000D01*
X248811Y40878D01*
X249244Y39832D01*
X249933Y38933D01*
X250831Y38244D01*
X251877Y37811D01*
X253000Y37663D01*
X254122Y37811D01*
X255169Y38244D01*
X256067Y38933D01*
X256756Y39832D01*
X257189Y40878D01*
X257337Y42000D01*
X257189Y43123D01*
X256756Y44168D01*
X256067Y45067D01*
X255169Y45756D01*
X254122Y46189D01*
X253000Y46337D01*
X252775Y46307D01*
X252594Y46500D01*
D02*
G37*
G36*
X222500Y46675D02*
X221773Y46579D01*
X220630Y46106D01*
X219648Y45352D01*
X218895Y44370D01*
X218421Y43227D01*
X218325Y42500D01*
X222500D01*
Y46675D01*
D02*
G37*
G36*
X12398Y46500D02*
X10500D01*
Y44602D01*
X10956Y44692D01*
X11766Y45234D01*
X12308Y46044D01*
X12398Y46500D01*
D02*
G37*
G36*
X59500D02*
X57601D01*
X57692Y46044D01*
X58234Y45234D01*
X59044Y44692D01*
X59500Y44602D01*
Y46500D01*
D02*
G37*
G36*
X62398D02*
X60500D01*
Y44602D01*
X60956Y44692D01*
X61766Y45234D01*
X62308Y46044D01*
X62398Y46500D01*
D02*
G37*
G36*
X49500D02*
X47602D01*
X47692Y46044D01*
X48234Y45234D01*
X49044Y44692D01*
X49500Y44602D01*
Y46500D01*
D02*
G37*
G36*
X52399D02*
X50500D01*
Y44602D01*
X50956Y44692D01*
X51766Y45234D01*
X52308Y46044D01*
X52399Y46500D01*
D02*
G37*
G36*
X67399Y76500D02*
X65500D01*
Y74602D01*
X65956Y74692D01*
X66766Y75234D01*
X67308Y76044D01*
X67399Y76500D01*
D02*
G37*
G36*
X144500D02*
X142602D01*
X142692Y76044D01*
X143234Y75234D01*
X144044Y74692D01*
X144500Y74602D01*
Y76500D01*
D02*
G37*
G36*
X57398D02*
X55500D01*
Y74602D01*
X55956Y74692D01*
X56766Y75234D01*
X57308Y76044D01*
X57398Y76500D01*
D02*
G37*
G36*
X64500D02*
X62602D01*
X62692Y76044D01*
X63234Y75234D01*
X64044Y74692D01*
X64500Y74602D01*
Y76500D01*
D02*
G37*
G36*
X147398D02*
X145500D01*
Y74602D01*
X145956Y74692D01*
X146766Y75234D01*
X147308Y76044D01*
X147398Y76500D01*
D02*
G37*
G36*
X267399D02*
X265500D01*
Y74602D01*
X265956Y74692D01*
X266766Y75234D01*
X267308Y76044D01*
X267399Y76500D01*
D02*
G37*
G36*
X54500Y79399D02*
X54044Y79308D01*
X53234Y78766D01*
X52692Y77956D01*
X52601Y77500D01*
X54500D01*
Y79399D01*
D02*
G37*
G36*
X224500Y76500D02*
X222602D01*
X222692Y76044D01*
X223234Y75234D01*
X224044Y74692D01*
X224500Y74602D01*
Y76500D01*
D02*
G37*
G36*
X227398D02*
X225500D01*
Y74602D01*
X225956Y74692D01*
X226766Y75234D01*
X227308Y76044D01*
X227398Y76500D01*
D02*
G37*
G36*
X170500Y69398D02*
Y67500D01*
X172398D01*
X172308Y67956D01*
X171766Y68766D01*
X170956Y69308D01*
X170500Y69398D01*
D02*
G37*
G36*
X209500D02*
X209044Y69308D01*
X208234Y68766D01*
X207692Y67956D01*
X207601Y67500D01*
X209500D01*
Y69398D01*
D02*
G37*
G36*
X150500D02*
Y67500D01*
X152399D01*
X152308Y67956D01*
X151766Y68766D01*
X150956Y69308D01*
X150500Y69398D01*
D02*
G37*
G36*
X169500D02*
X169044Y69308D01*
X168234Y68766D01*
X167692Y67956D01*
X167602Y67500D01*
X169500D01*
Y69398D01*
D02*
G37*
G36*
X210500D02*
Y67500D01*
X212399D01*
X212308Y67956D01*
X211766Y68766D01*
X210956Y69308D01*
X210500Y69398D01*
D02*
G37*
G36*
X47398Y76500D02*
X45500D01*
Y74602D01*
X45956Y74692D01*
X46766Y75234D01*
X47308Y76044D01*
X47398Y76500D01*
D02*
G37*
G36*
X54500D02*
X52601D01*
X52692Y76044D01*
X53234Y75234D01*
X54044Y74692D01*
X54500Y74602D01*
Y76500D01*
D02*
G37*
G36*
X86000Y135733D02*
X85337Y135601D01*
X84774Y135226D01*
X84399Y134663D01*
X84267Y134000D01*
X84399Y133337D01*
X84774Y132774D01*
X85082Y132569D01*
Y121880D01*
X78851Y115649D01*
X78652Y115351D01*
X78582Y115000D01*
Y104328D01*
X78652Y103977D01*
X78851Y103680D01*
X109948Y72582D01*
X109768Y72056D01*
X109274Y71726D01*
X109069Y71418D01*
X58431D01*
X58226Y71726D01*
X57663Y72101D01*
X57000Y72233D01*
X56337Y72101D01*
X55774Y71726D01*
X55399Y71163D01*
X55267Y70500D01*
X55399Y69837D01*
X55774Y69274D01*
X56337Y68899D01*
X57000Y68767D01*
X57663Y68899D01*
X57767Y68968D01*
X58127Y68607D01*
X57692Y67956D01*
X57601Y67500D01*
X62398D01*
X62308Y67956D01*
X61766Y68766D01*
X61293Y69082D01*
X61445Y69582D01*
X68555D01*
X68707Y69082D01*
X68234Y68766D01*
X67692Y67956D01*
X67602Y67500D01*
X72399D01*
X72308Y67956D01*
X71766Y68766D01*
X71293Y69082D01*
X71445Y69582D01*
X78555D01*
X78707Y69082D01*
X78234Y68766D01*
X77692Y67956D01*
X77601Y67500D01*
X82398D01*
X82308Y67956D01*
X81766Y68766D01*
X81293Y69082D01*
X81445Y69582D01*
X109069D01*
X109274Y69274D01*
X109837Y68899D01*
X110500Y68767D01*
X111163Y68899D01*
X111726Y69274D01*
X111924Y69571D01*
X112538Y69664D01*
X135997Y46205D01*
X135801Y45694D01*
X135337Y45601D01*
X134774Y45226D01*
X134399Y44663D01*
X134267Y44000D01*
X134399Y43337D01*
X134774Y42774D01*
X135337Y42399D01*
X136000Y42267D01*
X136363Y42339D01*
X141082Y37620D01*
Y27931D01*
X140774Y27726D01*
X140399Y27163D01*
X140267Y26500D01*
X140399Y25837D01*
X140774Y25274D01*
X141337Y24899D01*
X142000Y24767D01*
X142663Y24899D01*
X143226Y25274D01*
X143601Y25837D01*
X143733Y26500D01*
X143601Y27163D01*
X143226Y27726D01*
X142918Y27931D01*
Y38000D01*
X142848Y38351D01*
X142649Y38649D01*
X137938Y43360D01*
X137973Y43522D01*
X138518Y43684D01*
X150351Y31851D01*
X150649Y31652D01*
X151000Y31582D01*
X178569D01*
X178774Y31274D01*
X179337Y30899D01*
X180000Y30767D01*
X180663Y30899D01*
X181226Y31274D01*
X181601Y31837D01*
X181733Y32500D01*
X181601Y33163D01*
X181226Y33726D01*
X180663Y34101D01*
X180000Y34233D01*
X179337Y34101D01*
X178774Y33726D01*
X178569Y33418D01*
X151380D01*
X113405Y71393D01*
X113348Y71680D01*
X113149Y71977D01*
X80418Y104709D01*
Y114620D01*
X86649Y120851D01*
X86848Y121149D01*
X86918Y121500D01*
Y132569D01*
X87226Y132774D01*
X87601Y133337D01*
X87733Y134000D01*
X87601Y134663D01*
X87226Y135226D01*
X86663Y135601D01*
X86000Y135733D01*
D02*
G37*
G36*
X161500Y81233D02*
X160837Y81101D01*
X160274Y80726D01*
X159899Y80163D01*
X159767Y79500D01*
X159899Y78837D01*
X160274Y78274D01*
X160837Y77899D01*
X161500Y77767D01*
X162163Y77899D01*
X162726Y78274D01*
X162931Y78582D01*
X186120D01*
X188455Y76247D01*
X188399Y76163D01*
X188267Y75500D01*
X188399Y74837D01*
X188774Y74274D01*
X189337Y73899D01*
X190000Y73767D01*
X190663Y73899D01*
X191226Y74274D01*
X191601Y74837D01*
X191733Y75500D01*
X191601Y76163D01*
X191226Y76726D01*
X190663Y77101D01*
X190080Y77217D01*
X187149Y80149D01*
X186851Y80348D01*
X186500Y80418D01*
X162931D01*
X162726Y80726D01*
X162163Y81101D01*
X161500Y81233D01*
D02*
G37*
G36*
X55500Y79399D02*
Y77500D01*
X57398D01*
X57308Y77956D01*
X56766Y78766D01*
X55956Y79308D01*
X55500Y79399D01*
D02*
G37*
G36*
X43858Y88327D02*
X39402D01*
Y84854D01*
X42839D01*
X43229Y84932D01*
X43560Y85153D01*
X43781Y85484D01*
X43858Y85874D01*
Y88327D01*
D02*
G37*
G36*
X69500Y89398D02*
X69044Y89308D01*
X68234Y88766D01*
X67692Y87956D01*
X67602Y87500D01*
X69500D01*
Y89398D01*
D02*
G37*
G36*
X259500Y86500D02*
X257601D01*
X257692Y86044D01*
X258234Y85234D01*
X259044Y84692D01*
X259500Y84601D01*
Y86500D01*
D02*
G37*
G36*
X38402Y88327D02*
X33945D01*
Y85874D01*
X34023Y85484D01*
X34244Y85153D01*
X34574Y84932D01*
X34965Y84854D01*
X38402D01*
Y88327D01*
D02*
G37*
G36*
X70500Y89398D02*
Y87500D01*
X72399D01*
X72308Y87956D01*
X71766Y88766D01*
X70956Y89308D01*
X70500Y89398D01*
D02*
G37*
G36*
X42839Y92799D02*
X39402D01*
Y89327D01*
X43858D01*
Y91780D01*
X43781Y92170D01*
X43560Y92501D01*
X43229Y92721D01*
X42839Y92799D01*
D02*
G37*
G36*
X95000Y109233D02*
X94337Y109101D01*
X93774Y108726D01*
X93399Y108163D01*
X93267Y107500D01*
X93399Y106837D01*
X93774Y106274D01*
X94082Y106069D01*
Y104500D01*
X94152Y104149D01*
X94351Y103851D01*
X106339Y91863D01*
X106267Y91500D01*
X106399Y90837D01*
X106774Y90274D01*
X107337Y89899D01*
X108000Y89767D01*
X108663Y89899D01*
X109226Y90274D01*
X109601Y90837D01*
X109733Y91500D01*
X109601Y92163D01*
X109226Y92726D01*
X108663Y93101D01*
X108000Y93233D01*
X107637Y93161D01*
X95918Y104880D01*
Y106069D01*
X96226Y106274D01*
X96601Y106837D01*
X96733Y107500D01*
X96601Y108163D01*
X96226Y108726D01*
X95663Y109101D01*
X95000Y109233D01*
D02*
G37*
G36*
X259500Y89398D02*
X259044Y89308D01*
X258234Y88766D01*
X257692Y87956D01*
X257601Y87500D01*
X259500D01*
Y89398D01*
D02*
G37*
G36*
X38402Y92799D02*
X34965D01*
X34574Y92721D01*
X34244Y92501D01*
X34023Y92170D01*
X33945Y91780D01*
Y89327D01*
X38402D01*
Y92799D01*
D02*
G37*
G36*
X144500Y79399D02*
X144044Y79308D01*
X143234Y78766D01*
X142692Y77956D01*
X142602Y77500D01*
X144500D01*
Y79399D01*
D02*
G37*
G36*
X145500D02*
Y77500D01*
X147398D01*
X147308Y77956D01*
X146766Y78766D01*
X145956Y79308D01*
X145500Y79399D01*
D02*
G37*
G36*
X64500D02*
X64044Y79308D01*
X63234Y78766D01*
X62692Y77956D01*
X62602Y77500D01*
X64500D01*
Y79399D01*
D02*
G37*
G36*
X65500D02*
Y77500D01*
X67399D01*
X67308Y77956D01*
X66766Y78766D01*
X65956Y79308D01*
X65500Y79399D01*
D02*
G37*
G36*
X224500D02*
X224044Y79308D01*
X223234Y78766D01*
X222692Y77956D01*
X222602Y77500D01*
X224500D01*
Y79399D01*
D02*
G37*
G36*
X69500Y86500D02*
X67602D01*
X67692Y86044D01*
X68234Y85234D01*
X69044Y84692D01*
X69500Y84601D01*
Y86500D01*
D02*
G37*
G36*
X72399D02*
X70500D01*
Y84601D01*
X70956Y84692D01*
X71766Y85234D01*
X72308Y86044D01*
X72399Y86500D01*
D02*
G37*
G36*
X225500Y79399D02*
Y77500D01*
X227398D01*
X227308Y77956D01*
X226766Y78766D01*
X225956Y79308D01*
X225500Y79399D01*
D02*
G37*
G36*
X265500D02*
Y77500D01*
X267399D01*
X267308Y77956D01*
X266766Y78766D01*
X265956Y79308D01*
X265500Y79399D01*
D02*
G37*
G36*
X194500Y59399D02*
X194044Y59308D01*
X193234Y58766D01*
X192692Y57956D01*
X192602Y57500D01*
X194500D01*
Y59399D01*
D02*
G37*
G36*
X195500D02*
Y57500D01*
X197398D01*
X197308Y57956D01*
X196766Y58766D01*
X195956Y59308D01*
X195500Y59399D01*
D02*
G37*
G36*
X184500D02*
X184044Y59308D01*
X183234Y58766D01*
X182692Y57956D01*
X182601Y57500D01*
X184500D01*
Y59399D01*
D02*
G37*
G36*
X185500D02*
Y57500D01*
X187399D01*
X187308Y57956D01*
X186766Y58766D01*
X185956Y59308D01*
X185500Y59399D01*
D02*
G37*
G36*
X264500D02*
X264044Y59308D01*
X263234Y58766D01*
X262692Y57956D01*
X262601Y57500D01*
X264500D01*
Y59399D01*
D02*
G37*
G36*
X9500Y66500D02*
X7602D01*
X7692Y66044D01*
X8234Y65234D01*
X9044Y64692D01*
X9500Y64601D01*
Y66500D01*
D02*
G37*
G36*
X12398D02*
X10500D01*
Y64601D01*
X10956Y64692D01*
X11766Y65234D01*
X12308Y66044D01*
X12398Y66500D01*
D02*
G37*
G36*
X265500Y59399D02*
Y57500D01*
X267399D01*
X267308Y57956D01*
X266766Y58766D01*
X265956Y59308D01*
X265500Y59399D01*
D02*
G37*
G36*
X34366Y66488D02*
X33094D01*
X32704Y66410D01*
X32373Y66189D01*
X32153Y65859D01*
X32075Y65469D01*
Y64000D01*
X34366D01*
Y66488D01*
D02*
G37*
G36*
X85500Y59399D02*
Y57500D01*
X87398D01*
X87308Y57956D01*
X86766Y58766D01*
X85956Y59308D01*
X85500Y59399D01*
D02*
G37*
G36*
X114500D02*
X114044Y59308D01*
X113234Y58766D01*
X112692Y57956D01*
X112601Y57500D01*
X114500D01*
Y59399D01*
D02*
G37*
G36*
X75500D02*
Y57500D01*
X77399D01*
X77308Y57956D01*
X76766Y58766D01*
X75956Y59308D01*
X75500Y59399D01*
D02*
G37*
G36*
X84500D02*
X84044Y59308D01*
X83234Y58766D01*
X82692Y57956D01*
X82601Y57500D01*
X84500D01*
Y59399D01*
D02*
G37*
G36*
X115500D02*
Y57500D01*
X117399D01*
X117308Y57956D01*
X116766Y58766D01*
X115956Y59308D01*
X115500Y59399D01*
D02*
G37*
G36*
X174500D02*
X174044Y59308D01*
X173234Y58766D01*
X172692Y57956D01*
X172601Y57500D01*
X174500D01*
Y59399D01*
D02*
G37*
G36*
X175500D02*
Y57500D01*
X177399D01*
X177308Y57956D01*
X176766Y58766D01*
X175956Y59308D01*
X175500Y59399D01*
D02*
G37*
G36*
X164500D02*
X164044Y59308D01*
X163234Y58766D01*
X162692Y57956D01*
X162601Y57500D01*
X164500D01*
Y59399D01*
D02*
G37*
G36*
X165500D02*
Y57500D01*
X167399D01*
X167308Y57956D01*
X166766Y58766D01*
X165956Y59308D01*
X165500Y59399D01*
D02*
G37*
G36*
X49500Y66500D02*
X47602D01*
X47692Y66044D01*
X48234Y65234D01*
X49044Y64692D01*
X49500Y64601D01*
Y66500D01*
D02*
G37*
G36*
X209500D02*
X207601D01*
X207692Y66044D01*
X208234Y65234D01*
X209044Y64692D01*
X209500Y64601D01*
Y66500D01*
D02*
G37*
G36*
X212399D02*
X210500D01*
Y64601D01*
X210956Y64692D01*
X211766Y65234D01*
X212308Y66044D01*
X212399Y66500D01*
D02*
G37*
G36*
X169500D02*
X167602D01*
X167692Y66044D01*
X168234Y65234D01*
X169044Y64692D01*
X169500Y64601D01*
Y66500D01*
D02*
G37*
G36*
X172398D02*
X170500D01*
Y64601D01*
X170956Y64692D01*
X171766Y65234D01*
X172308Y66044D01*
X172398Y66500D01*
D02*
G37*
G36*
X9500Y69398D02*
X9044Y69308D01*
X8234Y68766D01*
X7692Y67956D01*
X7602Y67500D01*
X9500D01*
Y69398D01*
D02*
G37*
G36*
X50500D02*
Y67500D01*
X52399D01*
X52308Y67956D01*
X51766Y68766D01*
X50956Y69308D01*
X50500Y69398D01*
D02*
G37*
G36*
X149500D02*
X149044Y69308D01*
X148234Y68766D01*
X147692Y67956D01*
X147601Y67500D01*
X149500D01*
Y69398D01*
D02*
G37*
G36*
X10500D02*
Y67500D01*
X12398D01*
X12308Y67956D01*
X11766Y68766D01*
X10956Y69308D01*
X10500Y69398D01*
D02*
G37*
G36*
X49500D02*
X49044Y69308D01*
X48234Y68766D01*
X47692Y67956D01*
X47602Y67500D01*
X49500D01*
Y69398D01*
D02*
G37*
G36*
X62398Y66500D02*
X60500D01*
Y64601D01*
X60956Y64692D01*
X61766Y65234D01*
X62308Y66044D01*
X62398Y66500D01*
D02*
G37*
G36*
X69500D02*
X67602D01*
X67692Y66044D01*
X68234Y65234D01*
X69044Y64692D01*
X69500Y64601D01*
Y66500D01*
D02*
G37*
G36*
X52399D02*
X50500D01*
Y64601D01*
X50956Y64692D01*
X51766Y65234D01*
X52308Y66044D01*
X52399Y66500D01*
D02*
G37*
G36*
X59500D02*
X57601D01*
X57692Y66044D01*
X58234Y65234D01*
X59044Y64692D01*
X59500Y64601D01*
Y66500D01*
D02*
G37*
G36*
X72399D02*
X70500D01*
Y64601D01*
X70956Y64692D01*
X71766Y65234D01*
X72308Y66044D01*
X72399Y66500D01*
D02*
G37*
G36*
X149500D02*
X147601D01*
X147692Y66044D01*
X148234Y65234D01*
X149044Y64692D01*
X149500Y64601D01*
Y66500D01*
D02*
G37*
G36*
X152399D02*
X150500D01*
Y64601D01*
X150956Y64692D01*
X151766Y65234D01*
X152308Y66044D01*
X152399Y66500D01*
D02*
G37*
G36*
X79500D02*
X77601D01*
X77692Y66044D01*
X78234Y65234D01*
X79044Y64692D01*
X79500Y64601D01*
Y66500D01*
D02*
G37*
G36*
X82398D02*
X80500D01*
Y64601D01*
X80956Y64692D01*
X81766Y65234D01*
X82308Y66044D01*
X82398Y66500D01*
D02*
G37*
G36*
X222500Y41500D02*
X218325D01*
X218421Y40773D01*
X218895Y39630D01*
X219648Y38648D01*
X220630Y37894D01*
X221773Y37421D01*
X222500Y37325D01*
Y41500D01*
D02*
G37*
G36*
X174500Y16500D02*
X172601D01*
X172692Y16044D01*
X173234Y15234D01*
X174044Y14692D01*
X174500Y14602D01*
Y16500D01*
D02*
G37*
G36*
X177399D02*
X175500D01*
Y14602D01*
X175956Y14692D01*
X176766Y15234D01*
X177308Y16044D01*
X177399Y16500D01*
D02*
G37*
G36*
X164500D02*
X162601D01*
X162692Y16044D01*
X163234Y15234D01*
X164044Y14692D01*
X164500Y14602D01*
Y16500D01*
D02*
G37*
G36*
X167399D02*
X165500D01*
Y14602D01*
X165956Y14692D01*
X166766Y15234D01*
X167308Y16044D01*
X167399Y16500D01*
D02*
G37*
G36*
X184500D02*
X182601D01*
X182692Y16044D01*
X183234Y15234D01*
X184044Y14692D01*
X184500Y14602D01*
Y16500D01*
D02*
G37*
G36*
X217399D02*
X215500D01*
Y14602D01*
X215956Y14692D01*
X216766Y15234D01*
X217308Y16044D01*
X217399Y16500D01*
D02*
G37*
G36*
X224500D02*
X222602D01*
X222692Y16044D01*
X223234Y15234D01*
X224044Y14692D01*
X224500Y14602D01*
Y16500D01*
D02*
G37*
G36*
X187399D02*
X185500D01*
Y14602D01*
X185956Y14692D01*
X186766Y15234D01*
X187308Y16044D01*
X187399Y16500D01*
D02*
G37*
G36*
X214500D02*
X212601D01*
X212692Y16044D01*
X213234Y15234D01*
X214044Y14692D01*
X214500Y14602D01*
Y16500D01*
D02*
G37*
G36*
X127399D02*
X125500D01*
Y14602D01*
X125956Y14692D01*
X126766Y15234D01*
X127308Y16044D01*
X127399Y16500D01*
D02*
G37*
G36*
X134500D02*
X132601D01*
X132692Y16044D01*
X133234Y15234D01*
X134044Y14692D01*
X134500Y14602D01*
Y16500D01*
D02*
G37*
G36*
X117399D02*
X115500D01*
Y14602D01*
X115956Y14692D01*
X116766Y15234D01*
X117308Y16044D01*
X117399Y16500D01*
D02*
G37*
G36*
X124500D02*
X122601D01*
X122692Y16044D01*
X123234Y15234D01*
X124044Y14692D01*
X124500Y14602D01*
Y16500D01*
D02*
G37*
G36*
X137399D02*
X135500D01*
Y14602D01*
X135956Y14692D01*
X136766Y15234D01*
X137308Y16044D01*
X137399Y16500D01*
D02*
G37*
G36*
X154500D02*
X152602D01*
X152692Y16044D01*
X153234Y15234D01*
X154044Y14692D01*
X154500Y14602D01*
Y16500D01*
D02*
G37*
G36*
X157398D02*
X155500D01*
Y14602D01*
X155956Y14692D01*
X156766Y15234D01*
X157308Y16044D01*
X157398Y16500D01*
D02*
G37*
G36*
X144500D02*
X142602D01*
X142692Y16044D01*
X143234Y15234D01*
X144044Y14692D01*
X144500Y14602D01*
Y16500D01*
D02*
G37*
G36*
X147398D02*
X145500D01*
Y14602D01*
X145956Y14692D01*
X146766Y15234D01*
X147308Y16044D01*
X147398Y16500D01*
D02*
G37*
G36*
X227398D02*
X225500D01*
Y14602D01*
X225956Y14692D01*
X226766Y15234D01*
X227308Y16044D01*
X227398Y16500D01*
D02*
G37*
G36*
X105500Y19399D02*
Y17500D01*
X107398D01*
X107308Y17956D01*
X106766Y18766D01*
X105956Y19308D01*
X105500Y19399D01*
D02*
G37*
G36*
X114500D02*
X114044Y19308D01*
X113234Y18766D01*
X112692Y17956D01*
X112601Y17500D01*
X114500D01*
Y19399D01*
D02*
G37*
G36*
X65500D02*
Y17500D01*
X67399D01*
X67308Y17956D01*
X66766Y18766D01*
X65956Y19308D01*
X65500Y19399D01*
D02*
G37*
G36*
X104500D02*
X104044Y19308D01*
X103234Y18766D01*
X102692Y17956D01*
X102602Y17500D01*
X104500D01*
Y19399D01*
D02*
G37*
G36*
X115500D02*
Y17500D01*
X117399D01*
X117308Y17956D01*
X116766Y18766D01*
X115956Y19308D01*
X115500Y19399D01*
D02*
G37*
G36*
X134500D02*
X134044Y19308D01*
X133234Y18766D01*
X132692Y17956D01*
X132601Y17500D01*
X134500D01*
Y19399D01*
D02*
G37*
G36*
X135500D02*
Y17500D01*
X137399D01*
X137308Y17956D01*
X136766Y18766D01*
X135956Y19308D01*
X135500Y19399D01*
D02*
G37*
G36*
X124500D02*
X124044Y19308D01*
X123234Y18766D01*
X122692Y17956D01*
X122601Y17500D01*
X124500D01*
Y19399D01*
D02*
G37*
G36*
X125500D02*
Y17500D01*
X127399D01*
X127308Y17956D01*
X126766Y18766D01*
X125956Y19308D01*
X125500Y19399D01*
D02*
G37*
G36*
X257399Y16500D02*
X255500D01*
Y14602D01*
X255956Y14692D01*
X256766Y15234D01*
X257308Y16044D01*
X257399Y16500D01*
D02*
G37*
G36*
X264500D02*
X262601D01*
X262692Y16044D01*
X263234Y15234D01*
X264044Y14692D01*
X264500Y14602D01*
Y16500D01*
D02*
G37*
G36*
X234500D02*
X232601D01*
X232692Y16044D01*
X233234Y15234D01*
X234044Y14692D01*
X234500Y14602D01*
Y16500D01*
D02*
G37*
G36*
X254500D02*
X252602D01*
X252692Y16044D01*
X253234Y15234D01*
X254044Y14692D01*
X254500Y14602D01*
Y16500D01*
D02*
G37*
G36*
X267399D02*
X265500D01*
Y14602D01*
X265956Y14692D01*
X266766Y15234D01*
X267308Y16044D01*
X267399Y16500D01*
D02*
G37*
G36*
X45500Y19399D02*
Y17500D01*
X47398D01*
X47308Y17956D01*
X46766Y18766D01*
X45956Y19308D01*
X45500Y19399D01*
D02*
G37*
G36*
X64500D02*
X64044Y19308D01*
X63234Y18766D01*
X62692Y17956D01*
X62602Y17500D01*
X64500D01*
Y19399D01*
D02*
G37*
G36*
X55000Y16979D02*
X54969Y16966D01*
X54936Y16976D01*
X53702Y16854D01*
X53643Y16823D01*
X53577Y16829D01*
X52389Y16469D01*
X52338Y16427D01*
X52272Y16421D01*
X51177Y15836D01*
X51135Y15784D01*
X51071Y15765D01*
X50112Y14978D01*
X50081Y14919D01*
X50022Y14888D01*
X49235Y13929D01*
X49216Y13865D01*
X49164Y13823D01*
X48579Y12728D01*
X48573Y12662D01*
X48531Y12611D01*
X48171Y11423D01*
X48177Y11357D01*
X48146Y11299D01*
X48024Y10064D01*
X48043Y10000D01*
X48024Y9936D01*
X48146Y8702D01*
X48177Y8643D01*
X48171Y8577D01*
X48531Y7389D01*
X48573Y7338D01*
X48579Y7272D01*
X49164Y6177D01*
X49216Y6135D01*
X49235Y6071D01*
X50022Y5112D01*
X50081Y5081D01*
X50112Y5022D01*
X51071Y4235D01*
X51135Y4216D01*
X51177Y4164D01*
X52272Y3579D01*
X52338Y3573D01*
X52389Y3531D01*
X53577Y3170D01*
X53643Y3177D01*
X53702Y3146D01*
X54936Y3024D01*
X54969Y3034D01*
X55000Y3021D01*
X55031Y3034D01*
X55064Y3024D01*
X56299Y3146D01*
X56357Y3177D01*
X56423Y3170D01*
X57611Y3531D01*
X57662Y3573D01*
X57728Y3579D01*
X58823Y4164D01*
X58865Y4216D01*
X58929Y4235D01*
X59888Y5022D01*
X59919Y5081D01*
X59978Y5112D01*
X60765Y6071D01*
X60784Y6135D01*
X60836Y6177D01*
X61421Y7272D01*
X61427Y7338D01*
X61469Y7389D01*
X61830Y8577D01*
X61823Y8643D01*
X61854Y8702D01*
X61976Y9936D01*
X61957Y10000D01*
X61976Y10064D01*
X61854Y11299D01*
X61823Y11357D01*
X61830Y11423D01*
X61469Y12611D01*
X61427Y12662D01*
X61421Y12728D01*
X60836Y13823D01*
X60784Y13865D01*
X60765Y13929D01*
X59978Y14888D01*
X59919Y14919D01*
X59888Y14978D01*
X58929Y15765D01*
X58865Y15784D01*
X58823Y15836D01*
X57728Y16421D01*
X57662Y16427D01*
X57611Y16469D01*
X56423Y16829D01*
X56357Y16823D01*
X56299Y16854D01*
X55064Y16976D01*
X55031Y16966D01*
X55000Y16979D01*
D02*
G37*
G36*
X44500Y19399D02*
X44044Y19308D01*
X43234Y18766D01*
X42692Y17956D01*
X42601Y17500D01*
X44500D01*
Y19399D01*
D02*
G37*
G36*
X173969Y9500D02*
X170500D01*
Y6031D01*
X171044Y6103D01*
X172017Y6506D01*
X172853Y7147D01*
X173494Y7983D01*
X173897Y8956D01*
X173969Y9500D01*
D02*
G37*
G36*
X183000Y13649D02*
X177000D01*
X176541Y13459D01*
X176351Y13000D01*
Y7000D01*
X176541Y6541D01*
X177000Y6351D01*
X183000D01*
X183459Y6541D01*
X183649Y7000D01*
Y13000D01*
X183459Y13459D01*
X183000Y13649D01*
D02*
G37*
G36*
X169500Y9500D02*
X166031D01*
X166103Y8956D01*
X166506Y7983D01*
X167147Y7147D01*
X167983Y6506D01*
X168956Y6103D01*
X169500Y6031D01*
Y9500D01*
D02*
G37*
G36*
X163969D02*
X160500D01*
Y6031D01*
X161044Y6103D01*
X162017Y6506D01*
X162853Y7147D01*
X163494Y7983D01*
X163897Y8956D01*
X163969Y9500D01*
D02*
G37*
G36*
X110000Y13631D02*
X109060Y13507D01*
X108185Y13145D01*
X107432Y12567D01*
X106855Y11816D01*
X106493Y10940D01*
X106369Y10000D01*
X106493Y9060D01*
X106855Y8185D01*
X107432Y7433D01*
X108185Y6855D01*
X109060Y6493D01*
X110000Y6369D01*
X110940Y6493D01*
X111816Y6855D01*
X112568Y7433D01*
X113145Y8185D01*
X113507Y9060D01*
X113631Y10000D01*
X113507Y10940D01*
X113145Y11816D01*
X112568Y12567D01*
X111816Y13145D01*
X110940Y13507D01*
X110000Y13631D01*
D02*
G37*
G36*
X140000D02*
X139060Y13507D01*
X138184Y13145D01*
X137432Y12567D01*
X136855Y11816D01*
X136493Y10940D01*
X136369Y10000D01*
X136493Y9060D01*
X136855Y8185D01*
X137432Y7433D01*
X138184Y6855D01*
X139060Y6493D01*
X140000Y6369D01*
X140940Y6493D01*
X141815Y6855D01*
X142568Y7433D01*
X143145Y8185D01*
X143507Y9060D01*
X143631Y10000D01*
X143507Y10940D01*
X143145Y11816D01*
X142568Y12567D01*
X141815Y13145D01*
X140940Y13507D01*
X140000Y13631D01*
D02*
G37*
G36*
X150000D02*
X149060Y13507D01*
X148185Y13145D01*
X147432Y12567D01*
X146855Y11816D01*
X146493Y10940D01*
X146369Y10000D01*
X146493Y9060D01*
X146855Y8185D01*
X147432Y7433D01*
X148185Y6855D01*
X149060Y6493D01*
X150000Y6369D01*
X150940Y6493D01*
X151815Y6855D01*
X152568Y7433D01*
X153145Y8185D01*
X153507Y9060D01*
X153631Y10000D01*
X153507Y10940D01*
X153145Y11816D01*
X152568Y12567D01*
X151815Y13145D01*
X150940Y13507D01*
X150000Y13631D01*
D02*
G37*
G36*
X120000D02*
X119060Y13507D01*
X118184Y13145D01*
X117432Y12567D01*
X116855Y11816D01*
X116493Y10940D01*
X116369Y10000D01*
X116493Y9060D01*
X116855Y8185D01*
X117432Y7433D01*
X118184Y6855D01*
X119060Y6493D01*
X120000Y6369D01*
X120940Y6493D01*
X121816Y6855D01*
X122568Y7433D01*
X123145Y8185D01*
X123507Y9060D01*
X123631Y10000D01*
X123507Y10940D01*
X123145Y11816D01*
X122568Y12567D01*
X121816Y13145D01*
X120940Y13507D01*
X120000Y13631D01*
D02*
G37*
G36*
X130500Y42233D02*
X129837Y42101D01*
X129274Y41726D01*
X128899Y41163D01*
X128767Y40500D01*
X128899Y39837D01*
X129082Y39562D01*
Y13510D01*
X129060Y13507D01*
X128184Y13145D01*
X127432Y12567D01*
X126855Y11816D01*
X126493Y10940D01*
X126369Y10000D01*
X126493Y9060D01*
X126855Y8185D01*
X127432Y7433D01*
X128184Y6855D01*
X129060Y6493D01*
X130000Y6369D01*
X130940Y6493D01*
X131816Y6855D01*
X132568Y7433D01*
X133145Y8185D01*
X133507Y9060D01*
X133631Y10000D01*
X133507Y10940D01*
X133145Y11816D01*
X132568Y12567D01*
X131816Y13145D01*
X130940Y13507D01*
X130918Y13510D01*
Y38850D01*
X131163Y38899D01*
X131726Y39274D01*
X132101Y39837D01*
X132233Y40500D01*
X132101Y41163D01*
X131726Y41726D01*
X131163Y42101D01*
X130500Y42233D01*
D02*
G37*
G36*
X69500Y6500D02*
X67602D01*
X67692Y6044D01*
X68234Y5234D01*
X69044Y4692D01*
X69500Y4602D01*
Y6500D01*
D02*
G37*
G36*
X72399D02*
X70500D01*
Y4602D01*
X70956Y4692D01*
X71766Y5234D01*
X72308Y6044D01*
X72399Y6500D01*
D02*
G37*
G36*
X9500D02*
X7602D01*
X7692Y6044D01*
X8234Y5234D01*
X9044Y4692D01*
X9500Y4602D01*
Y6500D01*
D02*
G37*
G36*
X12398D02*
X10500D01*
Y4602D01*
X10956Y4692D01*
X11766Y5234D01*
X12308Y6044D01*
X12398Y6500D01*
D02*
G37*
G36*
X99500D02*
X97601D01*
X97692Y6044D01*
X98234Y5234D01*
X99044Y4692D01*
X99500Y4602D01*
Y6500D01*
D02*
G37*
G36*
X192399D02*
X190500D01*
Y4602D01*
X190956Y4692D01*
X191766Y5234D01*
X192308Y6044D01*
X192399Y6500D01*
D02*
G37*
G36*
X159500Y9500D02*
X156031D01*
X156103Y8956D01*
X156506Y7983D01*
X157147Y7147D01*
X157983Y6506D01*
X158956Y6103D01*
X159500Y6031D01*
Y9500D01*
D02*
G37*
G36*
X102399Y6500D02*
X100500D01*
Y4602D01*
X100956Y4692D01*
X101766Y5234D01*
X102308Y6044D01*
X102399Y6500D01*
D02*
G37*
G36*
X189500D02*
X187601D01*
X187692Y6044D01*
X188234Y5234D01*
X189044Y4692D01*
X189500Y4602D01*
Y6500D01*
D02*
G37*
G36*
X9500Y9398D02*
X9044Y9308D01*
X8234Y8766D01*
X7692Y7956D01*
X7602Y7500D01*
X9500D01*
Y9398D01*
D02*
G37*
G36*
X44500Y16500D02*
X42601D01*
X42692Y16044D01*
X43234Y15234D01*
X44044Y14692D01*
X44500Y14602D01*
Y16500D01*
D02*
G37*
G36*
X47398D02*
X45500D01*
Y14602D01*
X45956Y14692D01*
X46766Y15234D01*
X47308Y16044D01*
X47398Y16500D01*
D02*
G37*
G36*
X160500Y13969D02*
Y10500D01*
X163969D01*
X163897Y11044D01*
X163494Y12017D01*
X162853Y12853D01*
X162017Y13494D01*
X161044Y13897D01*
X160500Y13969D01*
D02*
G37*
G36*
X170500D02*
Y10500D01*
X173969D01*
X173897Y11044D01*
X173494Y12017D01*
X172853Y12853D01*
X172017Y13494D01*
X171044Y13897D01*
X170500Y13969D01*
D02*
G37*
G36*
X64500Y16500D02*
X62602D01*
X62692Y16044D01*
X63234Y15234D01*
X64044Y14692D01*
X64500Y14602D01*
Y16500D01*
D02*
G37*
G36*
X107398D02*
X105500D01*
Y14602D01*
X105956Y14692D01*
X106766Y15234D01*
X107308Y16044D01*
X107398Y16500D01*
D02*
G37*
G36*
X114500D02*
X112601D01*
X112692Y16044D01*
X113234Y15234D01*
X114044Y14692D01*
X114500Y14602D01*
Y16500D01*
D02*
G37*
G36*
X67399D02*
X65500D01*
Y14602D01*
X65956Y14692D01*
X66766Y15234D01*
X67308Y16044D01*
X67399Y16500D01*
D02*
G37*
G36*
X104500D02*
X102602D01*
X102692Y16044D01*
X103234Y15234D01*
X104044Y14692D01*
X104500Y14602D01*
Y16500D01*
D02*
G37*
G36*
X70500Y9398D02*
Y7500D01*
X72399D01*
X72308Y7956D01*
X71766Y8766D01*
X70956Y9308D01*
X70500Y9398D01*
D02*
G37*
G36*
X99500D02*
X99044Y9308D01*
X98234Y8766D01*
X97692Y7956D01*
X97601Y7500D01*
X99500D01*
Y9398D01*
D02*
G37*
G36*
X10500D02*
Y7500D01*
X12398D01*
X12308Y7956D01*
X11766Y8766D01*
X10956Y9308D01*
X10500Y9398D01*
D02*
G37*
G36*
X69500D02*
X69044Y9308D01*
X68234Y8766D01*
X67692Y7956D01*
X67602Y7500D01*
X69500D01*
Y9398D01*
D02*
G37*
G36*
X100500D02*
Y7500D01*
X102399D01*
X102308Y7956D01*
X101766Y8766D01*
X100956Y9308D01*
X100500Y9398D01*
D02*
G37*
G36*
X159500Y13969D02*
X158956Y13897D01*
X157983Y13494D01*
X157147Y12853D01*
X156506Y12017D01*
X156103Y11044D01*
X156031Y10500D01*
X159500D01*
Y13969D01*
D02*
G37*
G36*
X169500D02*
X168956Y13897D01*
X167983Y13494D01*
X167147Y12853D01*
X166506Y12017D01*
X166103Y11044D01*
X166031Y10500D01*
X169500D01*
Y13969D01*
D02*
G37*
G36*
X189500Y9398D02*
X189044Y9308D01*
X188234Y8766D01*
X187692Y7956D01*
X187601Y7500D01*
X189500D01*
Y9398D01*
D02*
G37*
G36*
X190500D02*
Y7500D01*
X192399D01*
X192308Y7956D01*
X191766Y8766D01*
X190956Y9308D01*
X190500Y9398D01*
D02*
G37*
G36*
X150500Y29399D02*
Y27500D01*
X152399D01*
X152308Y27956D01*
X151766Y28766D01*
X150956Y29308D01*
X150500Y29399D01*
D02*
G37*
G36*
X159500D02*
X159044Y29308D01*
X158234Y28766D01*
X157692Y27956D01*
X157601Y27500D01*
X159500D01*
Y29399D01*
D02*
G37*
G36*
X70500D02*
Y27500D01*
X72399D01*
X72308Y27956D01*
X71766Y28766D01*
X70956Y29308D01*
X70500Y29399D01*
D02*
G37*
G36*
X149500D02*
X149044Y29308D01*
X148234Y28766D01*
X147692Y27956D01*
X147601Y27500D01*
X149500D01*
Y29399D01*
D02*
G37*
G36*
X160500D02*
Y27500D01*
X162399D01*
X162308Y27956D01*
X161766Y28766D01*
X160956Y29308D01*
X160500Y29399D01*
D02*
G37*
G36*
X179500D02*
X179044Y29308D01*
X178234Y28766D01*
X177692Y27956D01*
X177602Y27500D01*
X179500D01*
Y29399D01*
D02*
G37*
G36*
X180500D02*
Y27500D01*
X182398D01*
X182308Y27956D01*
X181766Y28766D01*
X180956Y29308D01*
X180500Y29399D01*
D02*
G37*
G36*
X169500D02*
X169044Y29308D01*
X168234Y28766D01*
X167692Y27956D01*
X167602Y27500D01*
X169500D01*
Y29399D01*
D02*
G37*
G36*
X170500D02*
Y27500D01*
X172398D01*
X172308Y27956D01*
X171766Y28766D01*
X170956Y29308D01*
X170500Y29399D01*
D02*
G37*
G36*
X9500D02*
X9044Y29308D01*
X8234Y28766D01*
X7692Y27956D01*
X7602Y27500D01*
X9500D01*
Y29399D01*
D02*
G37*
G36*
X10500D02*
Y27500D01*
X12398D01*
X12308Y27956D01*
X11766Y28766D01*
X10956Y29308D01*
X10500Y29399D01*
D02*
G37*
G36*
X249500Y26500D02*
X247602D01*
X247692Y26044D01*
X248234Y25234D01*
X249044Y24692D01*
X249500Y24601D01*
Y26500D01*
D02*
G37*
G36*
X252398D02*
X250500D01*
Y24601D01*
X250956Y24692D01*
X251766Y25234D01*
X252308Y26044D01*
X252398Y26500D01*
D02*
G37*
G36*
X49500Y29399D02*
X49044Y29308D01*
X48234Y28766D01*
X47692Y27956D01*
X47602Y27500D01*
X49500D01*
Y29399D01*
D02*
G37*
G36*
X60500D02*
Y27500D01*
X62398D01*
X62308Y27956D01*
X61766Y28766D01*
X60956Y29308D01*
X60500Y29399D01*
D02*
G37*
G36*
X69500D02*
X69044Y29308D01*
X68234Y28766D01*
X67692Y27956D01*
X67602Y27500D01*
X69500D01*
Y29399D01*
D02*
G37*
G36*
X50500D02*
Y27500D01*
X52399D01*
X52308Y27956D01*
X51766Y28766D01*
X50956Y29308D01*
X50500Y29399D01*
D02*
G37*
G36*
X59500D02*
X59044Y29308D01*
X58234Y28766D01*
X57692Y27956D01*
X57601Y27500D01*
X59500D01*
Y29399D01*
D02*
G37*
G36*
X239500D02*
X239044Y29308D01*
X238234Y28766D01*
X237692Y27956D01*
X237601Y27500D01*
X239500D01*
Y29399D01*
D02*
G37*
G36*
X54500Y36500D02*
X52601D01*
X52692Y36044D01*
X53234Y35234D01*
X54044Y34692D01*
X54500Y34602D01*
Y36500D01*
D02*
G37*
G36*
X57398D02*
X55500D01*
Y34602D01*
X55956Y34692D01*
X56766Y35234D01*
X57308Y36044D01*
X57398Y36500D01*
D02*
G37*
G36*
X44500D02*
X42601D01*
X42692Y36044D01*
X43234Y35234D01*
X44044Y34692D01*
X44500Y34602D01*
Y36500D01*
D02*
G37*
G36*
X47398D02*
X45500D01*
Y34602D01*
X45956Y34692D01*
X46766Y35234D01*
X47308Y36044D01*
X47398Y36500D01*
D02*
G37*
G36*
X64500D02*
X62602D01*
X62692Y36044D01*
X63234Y35234D01*
X64044Y34692D01*
X64500Y34602D01*
Y36500D01*
D02*
G37*
G36*
X77399D02*
X75500D01*
Y34602D01*
X75956Y34692D01*
X76766Y35234D01*
X77308Y36044D01*
X77399Y36500D01*
D02*
G37*
G36*
X264500Y39399D02*
X264044Y39308D01*
X263234Y38766D01*
X262692Y37956D01*
X262507Y37023D01*
X262466Y36905D01*
X262142Y36612D01*
X261423Y36830D01*
X261357Y36823D01*
X261298Y36854D01*
X260064Y36976D01*
X260031Y36966D01*
X260000Y36979D01*
X259969Y36966D01*
X259936Y36976D01*
X258701Y36854D01*
X258643Y36823D01*
X258577Y36830D01*
X257389Y36469D01*
X257338Y36427D01*
X257272Y36421D01*
X256177Y35836D01*
X256135Y35784D01*
X256071Y35765D01*
X255112Y34978D01*
X255081Y34919D01*
X255022Y34888D01*
X254235Y33929D01*
X254216Y33865D01*
X254164Y33823D01*
X253579Y32728D01*
X253573Y32662D01*
X253531Y32611D01*
X253170Y31423D01*
X253177Y31357D01*
X253146Y31299D01*
X253024Y30064D01*
X253043Y30000D01*
X253024Y29936D01*
X253146Y28701D01*
X253177Y28643D01*
X253170Y28577D01*
X253531Y27389D01*
X253573Y27338D01*
X253579Y27272D01*
X254164Y26177D01*
X254216Y26135D01*
X254235Y26071D01*
X255022Y25112D01*
X255081Y25081D01*
X255112Y25022D01*
X256071Y24235D01*
X256135Y24216D01*
X256177Y24164D01*
X257272Y23579D01*
X257338Y23573D01*
X257389Y23531D01*
X258577Y23170D01*
X258643Y23177D01*
X258701Y23146D01*
X259936Y23024D01*
X259969Y23034D01*
X260000Y23021D01*
X260031Y23034D01*
X260064Y23024D01*
X261298Y23146D01*
X261357Y23177D01*
X261423Y23170D01*
X262611Y23531D01*
X262662Y23573D01*
X262728Y23579D01*
X263823Y24164D01*
X263865Y24216D01*
X263929Y24235D01*
X264888Y25022D01*
X264919Y25081D01*
X264978Y25112D01*
X265765Y26071D01*
X265784Y26135D01*
X265836Y26177D01*
X266421Y27272D01*
X266427Y27338D01*
X266469Y27389D01*
X266829Y28577D01*
X266823Y28643D01*
X266854Y28701D01*
X266976Y29936D01*
X266957Y30000D01*
X266976Y30064D01*
X266854Y31299D01*
X266823Y31357D01*
X266829Y31423D01*
X266469Y32611D01*
X266427Y32662D01*
X266421Y32728D01*
X265836Y33823D01*
X265784Y33865D01*
X265765Y33929D01*
X265562Y34176D01*
X265730Y34647D01*
X265956Y34692D01*
X266766Y35234D01*
X267308Y36044D01*
X267399Y36500D01*
X265000D01*
Y37000D01*
X264500D01*
Y39399D01*
D02*
G37*
G36*
X67399Y36500D02*
X65500D01*
Y34602D01*
X65956Y34692D01*
X66766Y35234D01*
X67308Y36044D01*
X67399Y36500D01*
D02*
G37*
G36*
X74500D02*
X72601D01*
X72692Y36044D01*
X73234Y35234D01*
X74044Y34692D01*
X74500Y34602D01*
Y36500D01*
D02*
G37*
G36*
X250500Y29399D02*
Y27500D01*
X252398D01*
X252308Y27956D01*
X251766Y28766D01*
X250956Y29308D01*
X250500Y29399D01*
D02*
G37*
G36*
X14500Y36500D02*
X12601D01*
X12692Y36044D01*
X13234Y35234D01*
X14044Y34692D01*
X14500Y34602D01*
Y36500D01*
D02*
G37*
G36*
X240500Y29399D02*
Y27500D01*
X242399D01*
X242308Y27956D01*
X241766Y28766D01*
X240956Y29308D01*
X240500Y29399D01*
D02*
G37*
G36*
X249500D02*
X249044Y29308D01*
X248234Y28766D01*
X247692Y27956D01*
X247602Y27500D01*
X249500D01*
Y29399D01*
D02*
G37*
G36*
X17399Y36500D02*
X15500D01*
Y34602D01*
X15956Y34692D01*
X16766Y35234D01*
X17308Y36044D01*
X17399Y36500D01*
D02*
G37*
G36*
X34500D02*
X32601D01*
X32692Y36044D01*
X33234Y35234D01*
X34044Y34692D01*
X34500Y34602D01*
Y36500D01*
D02*
G37*
G36*
X37398D02*
X35500D01*
Y34602D01*
X35956Y34692D01*
X36766Y35234D01*
X37308Y36044D01*
X37398Y36500D01*
D02*
G37*
G36*
X24500D02*
X22602D01*
X22692Y36044D01*
X23234Y35234D01*
X24044Y34692D01*
X24500Y34602D01*
Y36500D01*
D02*
G37*
G36*
X27398D02*
X25500D01*
Y34602D01*
X25956Y34692D01*
X26766Y35234D01*
X27308Y36044D01*
X27398Y36500D01*
D02*
G37*
G36*
X215500Y19399D02*
Y17500D01*
X217399D01*
X217308Y17956D01*
X216766Y18766D01*
X215956Y19308D01*
X215500Y19399D01*
D02*
G37*
G36*
X224500D02*
X224044Y19308D01*
X223234Y18766D01*
X222692Y17956D01*
X222602Y17500D01*
X224500D01*
Y19399D01*
D02*
G37*
G36*
X185500D02*
Y17500D01*
X187399D01*
X187308Y17956D01*
X186766Y18766D01*
X185956Y19308D01*
X185500Y19399D01*
D02*
G37*
G36*
X214500D02*
X214044Y19308D01*
X213234Y18766D01*
X212692Y17956D01*
X212601Y17500D01*
X214500D01*
Y19399D01*
D02*
G37*
G36*
X225500D02*
Y17500D01*
X227398D01*
X227308Y17956D01*
X226766Y18766D01*
X225956Y19308D01*
X225500Y19399D01*
D02*
G37*
G36*
X264500D02*
X264044Y19308D01*
X263234Y18766D01*
X262692Y17956D01*
X262601Y17500D01*
X264500D01*
Y19399D01*
D02*
G37*
G36*
X265500D02*
Y17500D01*
X267399D01*
X267308Y17956D01*
X266766Y18766D01*
X265956Y19308D01*
X265500Y19399D01*
D02*
G37*
G36*
X254500D02*
X254044Y19308D01*
X253234Y18766D01*
X252692Y17956D01*
X252602Y17500D01*
X254500D01*
Y19399D01*
D02*
G37*
G36*
X255500D02*
Y17500D01*
X257399D01*
X257308Y17956D01*
X256766Y18766D01*
X255956Y19308D01*
X255500Y19399D01*
D02*
G37*
G36*
X154500D02*
X154044Y19308D01*
X153234Y18766D01*
X152692Y17956D01*
X152602Y17500D01*
X154500D01*
Y19399D01*
D02*
G37*
G36*
X155500D02*
Y17500D01*
X157398D01*
X157308Y17956D01*
X156766Y18766D01*
X155956Y19308D01*
X155500Y19399D01*
D02*
G37*
G36*
X144500D02*
X144044Y19308D01*
X143234Y18766D01*
X142692Y17956D01*
X142602Y17500D01*
X144500D01*
Y19399D01*
D02*
G37*
G36*
X145500D02*
Y17500D01*
X147398D01*
X147308Y17956D01*
X146766Y18766D01*
X145956Y19308D01*
X145500Y19399D01*
D02*
G37*
G36*
X164500D02*
X164044Y19308D01*
X163234Y18766D01*
X162692Y17956D01*
X162601Y17500D01*
X164500D01*
Y19399D01*
D02*
G37*
G36*
X175500D02*
Y17500D01*
X177399D01*
X177308Y17956D01*
X176766Y18766D01*
X175956Y19308D01*
X175500Y19399D01*
D02*
G37*
G36*
X184500D02*
X184044Y19308D01*
X183234Y18766D01*
X182692Y17956D01*
X182601Y17500D01*
X184500D01*
Y19399D01*
D02*
G37*
G36*
X165500D02*
Y17500D01*
X167399D01*
X167308Y17956D01*
X166766Y18766D01*
X165956Y19308D01*
X165500Y19399D01*
D02*
G37*
G36*
X174500D02*
X174044Y19308D01*
X173234Y18766D01*
X172692Y17956D01*
X172601Y17500D01*
X174500D01*
Y19399D01*
D02*
G37*
G36*
X9500Y26500D02*
X7602D01*
X7692Y26044D01*
X8234Y25234D01*
X9044Y24692D01*
X9500Y24601D01*
Y26500D01*
D02*
G37*
G36*
X169500D02*
X167602D01*
X167692Y26044D01*
X168234Y25234D01*
X169044Y24692D01*
X169500Y24601D01*
Y26500D01*
D02*
G37*
G36*
X172398D02*
X170500D01*
Y24601D01*
X170956Y24692D01*
X171766Y25234D01*
X172308Y26044D01*
X172398Y26500D01*
D02*
G37*
G36*
X159500D02*
X157601D01*
X157692Y26044D01*
X158234Y25234D01*
X159044Y24692D01*
X159500Y24601D01*
Y26500D01*
D02*
G37*
G36*
X162399D02*
X160500D01*
Y24601D01*
X160956Y24692D01*
X161766Y25234D01*
X162308Y26044D01*
X162399Y26500D01*
D02*
G37*
G36*
X179500D02*
X177602D01*
X177692Y26044D01*
X178234Y25234D01*
X179044Y24692D01*
X179500Y24601D01*
Y26500D01*
D02*
G37*
G36*
X239500D02*
X237601D01*
X237692Y26044D01*
X238234Y25234D01*
X239044Y24692D01*
X239500Y24601D01*
Y26500D01*
D02*
G37*
G36*
X242399D02*
X240500D01*
Y24601D01*
X240956Y24692D01*
X241766Y25234D01*
X242308Y26044D01*
X242399Y26500D01*
D02*
G37*
G36*
X182398D02*
X180500D01*
Y24601D01*
X180956Y24692D01*
X181766Y25234D01*
X182308Y26044D01*
X182398Y26500D01*
D02*
G37*
G36*
X189500D02*
X187601D01*
X187692Y26044D01*
X188234Y25234D01*
X189044Y24692D01*
X189500Y24601D01*
Y26500D01*
D02*
G37*
G36*
X52399D02*
X50500D01*
Y24601D01*
X50956Y24692D01*
X51766Y25234D01*
X52308Y26044D01*
X52399Y26500D01*
D02*
G37*
G36*
X59500D02*
X57601D01*
X57692Y26044D01*
X58234Y25234D01*
X59044Y24692D01*
X59500Y24601D01*
Y26500D01*
D02*
G37*
G36*
X12398D02*
X10500D01*
Y24601D01*
X10956Y24692D01*
X11766Y25234D01*
X12308Y26044D01*
X12398Y26500D01*
D02*
G37*
G36*
X49500D02*
X47602D01*
X47692Y26044D01*
X48234Y25234D01*
X49044Y24692D01*
X49500Y24601D01*
Y26500D01*
D02*
G37*
G36*
X62398D02*
X60500D01*
Y24601D01*
X60956Y24692D01*
X61766Y25234D01*
X62308Y26044D01*
X62398Y26500D01*
D02*
G37*
G36*
X149500D02*
X147601D01*
X147692Y26044D01*
X148234Y25234D01*
X149044Y24692D01*
X149500Y24601D01*
Y26500D01*
D02*
G37*
G36*
X152399D02*
X150500D01*
Y24601D01*
X150956Y24692D01*
X151766Y25234D01*
X152308Y26044D01*
X152399Y26500D01*
D02*
G37*
G36*
X69500D02*
X67602D01*
X67692Y26044D01*
X68234Y25234D01*
X69044Y24692D01*
X69500Y24601D01*
Y26500D01*
D02*
G37*
G36*
X72399D02*
X70500D01*
Y24601D01*
X70956Y24692D01*
X71766Y25234D01*
X72308Y26044D01*
X72399Y26500D01*
D02*
G37*
G36*
X34366Y97000D02*
X32075D01*
Y95531D01*
X32153Y95141D01*
X32373Y94810D01*
X32704Y94590D01*
X33094Y94512D01*
X34366D01*
Y97000D01*
D02*
G37*
G36*
X14500Y176500D02*
X12601D01*
X12692Y176044D01*
X13234Y175234D01*
X14044Y174692D01*
X14500Y174601D01*
Y176500D01*
D02*
G37*
G36*
X17399D02*
X15500D01*
Y174601D01*
X15956Y174692D01*
X16766Y175234D01*
X17308Y176044D01*
X17399Y176500D01*
D02*
G37*
G36*
X240500Y169398D02*
Y167500D01*
X242399D01*
X242308Y167956D01*
X241766Y168766D01*
X240956Y169308D01*
X240500Y169398D01*
D02*
G37*
G36*
X58500Y176733D02*
X57837Y176601D01*
X57274Y176226D01*
X56899Y175663D01*
X56767Y175000D01*
X56767Y174997D01*
X53135Y171365D01*
X52870Y170968D01*
X52776Y170500D01*
Y168727D01*
X52774Y168726D01*
X52585Y168442D01*
X51983D01*
X51766Y168766D01*
X50956Y169308D01*
X50500Y169398D01*
Y167000D01*
X49500D01*
Y169398D01*
X49211Y169341D01*
X49104Y169377D01*
X48783Y169587D01*
X48698Y169678D01*
X48601Y170163D01*
X48226Y170726D01*
X47663Y171101D01*
X47000Y171233D01*
X46337Y171101D01*
X45774Y170726D01*
X45399Y170163D01*
X45267Y169500D01*
X45399Y168837D01*
X45774Y168274D01*
X46337Y167899D01*
X46582Y167850D01*
Y155000D01*
X46652Y154649D01*
X46851Y154351D01*
X62851Y138351D01*
X63149Y138152D01*
X63500Y138082D01*
X76069D01*
X76274Y137774D01*
X76837Y137399D01*
X77500Y137267D01*
X78163Y137399D01*
X78726Y137774D01*
X79101Y138337D01*
X79233Y139000D01*
X79101Y139663D01*
X78726Y140226D01*
X78163Y140601D01*
X77500Y140733D01*
X76837Y140601D01*
X76274Y140226D01*
X76069Y139918D01*
X63880D01*
X48418Y155380D01*
Y164580D01*
X48859Y164816D01*
X49044Y164692D01*
X49951Y164512D01*
X50029Y164365D01*
X50104Y164013D01*
X49674Y163726D01*
X49299Y163163D01*
X49167Y162500D01*
X49299Y161837D01*
X49674Y161274D01*
X50237Y160899D01*
X50900Y160767D01*
X51563Y160899D01*
X52126Y161274D01*
X52501Y161837D01*
X52633Y162500D01*
X52561Y162863D01*
X53280Y163582D01*
X69551D01*
X69817Y163082D01*
X69706Y162918D01*
X56500D01*
X56149Y162848D01*
X55851Y162649D01*
X51363Y158161D01*
X51000Y158233D01*
X50337Y158101D01*
X49774Y157726D01*
X49399Y157163D01*
X49267Y156500D01*
X49399Y155837D01*
X49774Y155274D01*
X50337Y154899D01*
X51000Y154767D01*
X51663Y154899D01*
X52226Y155274D01*
X52601Y155837D01*
X52733Y156500D01*
X52661Y156863D01*
X56880Y161082D01*
X70069D01*
X70274Y160774D01*
X70837Y160399D01*
X71500Y160267D01*
X72163Y160399D01*
X72726Y160774D01*
X73101Y161337D01*
X73233Y162000D01*
X73101Y162663D01*
X72821Y163082D01*
X73023Y163582D01*
X75120D01*
X77839Y160863D01*
X77767Y160500D01*
X77899Y159837D01*
X78274Y159274D01*
X78837Y158899D01*
X79500Y158767D01*
X80163Y158899D01*
X80726Y159274D01*
X80931Y159582D01*
X96930D01*
X97298Y159156D01*
X97267Y159000D01*
X97399Y158337D01*
X97774Y157774D01*
X98337Y157399D01*
X99000Y157267D01*
X99663Y157399D01*
X100226Y157774D01*
X100601Y158337D01*
X100733Y159000D01*
X100601Y159663D01*
X100226Y160226D01*
X99663Y160601D01*
X99000Y160733D01*
X98637Y160661D01*
X98149Y161149D01*
X97851Y161348D01*
X97500Y161418D01*
X83425D01*
X83186Y161881D01*
X83192Y161918D01*
X83726Y162274D01*
X84101Y162837D01*
X84233Y163500D01*
X84161Y163863D01*
X88880Y168582D01*
X97069D01*
X97274Y168274D01*
X97837Y167899D01*
X98500Y167767D01*
X99163Y167899D01*
X99726Y168274D01*
X100101Y168837D01*
X100233Y169500D01*
X100101Y170163D01*
X99726Y170726D01*
X99163Y171101D01*
X98500Y171233D01*
X97837Y171101D01*
X97274Y170726D01*
X97069Y170418D01*
X88500D01*
X88149Y170348D01*
X87851Y170149D01*
X82863Y165161D01*
X82500Y165233D01*
X82498Y165233D01*
X79365Y168365D01*
X78968Y168630D01*
X78500Y168723D01*
X55227D01*
X55226Y168726D01*
X55224Y168727D01*
Y169993D01*
X58498Y173267D01*
X58500Y173267D01*
X59163Y173399D01*
X59726Y173774D01*
X60101Y174337D01*
X60233Y175000D01*
X60101Y175663D01*
X59726Y176226D01*
X59163Y176601D01*
X58500Y176733D01*
D02*
G37*
G36*
X74000Y203631D02*
X73060Y203507D01*
X72184Y203145D01*
X71432Y202568D01*
X70855Y201816D01*
X70493Y200940D01*
X70369Y200000D01*
X70493Y199060D01*
X70855Y198185D01*
X71432Y197432D01*
X72184Y196855D01*
X73060Y196493D01*
X73082Y196490D01*
Y189500D01*
X73152Y189149D01*
X73351Y188851D01*
X77851Y184351D01*
X78149Y184152D01*
X78500Y184082D01*
X93120D01*
X102082Y175120D01*
Y149125D01*
X101582Y148889D01*
X100956Y149308D01*
X100500Y149399D01*
Y147000D01*
Y144602D01*
X100956Y144692D01*
X101582Y145111D01*
X102082Y144875D01*
Y118931D01*
X101774Y118726D01*
X101399Y118163D01*
X101267Y117500D01*
X101399Y116837D01*
X101774Y116274D01*
X102337Y115899D01*
X103000Y115767D01*
X103663Y115899D01*
X104226Y116274D01*
X104601Y116837D01*
X104733Y117500D01*
X104601Y118163D01*
X104226Y118726D01*
X103918Y118931D01*
Y143977D01*
X104418Y144128D01*
X104702Y143702D01*
X117053Y131351D01*
X111851Y126149D01*
X111652Y125851D01*
X111582Y125500D01*
Y117801D01*
X111500Y117733D01*
X110837Y117601D01*
X110274Y117226D01*
X109918Y116692D01*
X109881Y116686D01*
X109418Y116925D01*
Y126069D01*
X109726Y126274D01*
X110101Y126837D01*
X110233Y127500D01*
X110101Y128163D01*
X109726Y128726D01*
X109163Y129101D01*
X108500Y129233D01*
X107837Y129101D01*
X107274Y128726D01*
X106899Y128163D01*
X106767Y127500D01*
X106899Y126837D01*
X107274Y126274D01*
X107582Y126069D01*
Y109000D01*
X107652Y108649D01*
X107851Y108351D01*
X116082Y100120D01*
Y70000D01*
X116152Y69649D01*
X116351Y69351D01*
X150351Y35351D01*
X150649Y35152D01*
X151000Y35082D01*
X184620D01*
X189745Y29957D01*
X189581Y29415D01*
X189044Y29308D01*
X188234Y28766D01*
X187692Y27956D01*
X187601Y27500D01*
X190000D01*
Y27000D01*
X190500D01*
Y24601D01*
X190956Y24692D01*
X191766Y25234D01*
X192308Y26044D01*
X192338Y26195D01*
X192890Y26406D01*
X193082Y26261D01*
Y16000D01*
X193152Y15649D01*
X193351Y15351D01*
X196351Y12352D01*
Y7000D01*
X196541Y6541D01*
X197000Y6351D01*
X203000D01*
X203459Y6541D01*
X203649Y7000D01*
Y13000D01*
X203459Y13459D01*
X203000Y13649D01*
X197648D01*
X194918Y16380D01*
Y27000D01*
X194848Y27351D01*
X194649Y27649D01*
X185649Y36649D01*
X185351Y36848D01*
X185000Y36918D01*
X151380D01*
X117918Y70380D01*
Y100500D01*
X117848Y100851D01*
X117649Y101149D01*
X109418Y109380D01*
Y115075D01*
X109881Y115314D01*
X109918Y115308D01*
X110274Y114774D01*
X110582Y114569D01*
Y110938D01*
X110399Y110663D01*
X110267Y110000D01*
X110399Y109337D01*
X110774Y108774D01*
X111337Y108399D01*
X112000Y108267D01*
X112663Y108399D01*
X113226Y108774D01*
X113601Y109337D01*
X113733Y110000D01*
X113601Y110663D01*
X113226Y111226D01*
X112663Y111601D01*
X112418Y111650D01*
Y114569D01*
X112726Y114774D01*
X113101Y115337D01*
X113233Y116000D01*
X113160Y116368D01*
X113348Y116649D01*
X113418Y117000D01*
Y125120D01*
X118351Y130053D01*
X121702Y126702D01*
X122298Y126304D01*
X123000Y126165D01*
X123702Y126304D01*
X124082Y126558D01*
X124582Y126297D01*
Y120418D01*
X122931D01*
X122726Y120726D01*
X122163Y121101D01*
X121500Y121233D01*
X121238Y121181D01*
X121043Y121652D01*
X121226Y121774D01*
X121601Y122337D01*
X121733Y123000D01*
X121601Y123663D01*
X121226Y124226D01*
X120663Y124601D01*
X120000Y124733D01*
X119337Y124601D01*
X118774Y124226D01*
X118399Y123663D01*
X118267Y123000D01*
X118399Y122337D01*
X118582Y122062D01*
Y106000D01*
X118652Y105649D01*
X118851Y105351D01*
X120082Y104120D01*
Y70000D01*
X120152Y69649D01*
X120351Y69351D01*
X151351Y38351D01*
X151649Y38152D01*
X152000Y38082D01*
X185620D01*
X196582Y27120D01*
Y22500D01*
X196652Y22149D01*
X196851Y21851D01*
X206869Y11833D01*
X206855Y11816D01*
X206493Y10940D01*
X206369Y10000D01*
X206493Y9060D01*
X206855Y8185D01*
X207433Y7433D01*
X208185Y6855D01*
X209060Y6493D01*
X210000Y6369D01*
X210940Y6493D01*
X211816Y6855D01*
X212567Y7433D01*
X213145Y8185D01*
X213507Y9060D01*
X213631Y10000D01*
X213507Y10940D01*
X213145Y11816D01*
X212567Y12567D01*
X211816Y13145D01*
X210940Y13507D01*
X210000Y13631D01*
X209060Y13507D01*
X208185Y13145D01*
X208167Y13131D01*
X198418Y22880D01*
Y27077D01*
X198918Y27285D01*
X199839Y26363D01*
X199767Y26000D01*
X199899Y25337D01*
X200274Y24774D01*
X200837Y24399D01*
X201500Y24267D01*
X202163Y24399D01*
X202726Y24774D01*
X203101Y25337D01*
X203233Y26000D01*
X203101Y26663D01*
X202726Y27226D01*
X202163Y27601D01*
X201500Y27733D01*
X201137Y27661D01*
X187149Y41649D01*
X186851Y41848D01*
X186500Y41918D01*
X153105D01*
X152985Y42088D01*
X153250Y42582D01*
X187120D01*
X200051Y29651D01*
X200349Y29452D01*
X200700Y29382D01*
X213820D01*
X219082Y24120D01*
Y13510D01*
X219060Y13507D01*
X218184Y13145D01*
X217432Y12567D01*
X216855Y11816D01*
X216493Y10940D01*
X216369Y10000D01*
X216493Y9060D01*
X216855Y8185D01*
X217432Y7433D01*
X218184Y6855D01*
X219060Y6493D01*
X220000Y6369D01*
X220940Y6493D01*
X221815Y6855D01*
X222568Y7433D01*
X223145Y8185D01*
X223507Y9060D01*
X223631Y10000D01*
X223507Y10940D01*
X223145Y11816D01*
X222568Y12567D01*
X221815Y13145D01*
X220940Y13507D01*
X220918Y13510D01*
Y24500D01*
X220848Y24851D01*
X220649Y25149D01*
X215677Y30120D01*
X215869Y30582D01*
X222120D01*
X229082Y23620D01*
Y13510D01*
X229060Y13507D01*
X228185Y13145D01*
X227432Y12567D01*
X226855Y11816D01*
X226493Y10940D01*
X226369Y10000D01*
X226493Y9060D01*
X226855Y8185D01*
X227432Y7433D01*
X228185Y6855D01*
X229060Y6493D01*
X230000Y6369D01*
X230940Y6493D01*
X231816Y6855D01*
X232568Y7433D01*
X233145Y8185D01*
X233507Y9060D01*
X233631Y10000D01*
X233507Y10940D01*
X233145Y11816D01*
X232568Y12567D01*
X231816Y13145D01*
X230940Y13507D01*
X230918Y13510D01*
Y23577D01*
X231418Y23785D01*
X235270Y19932D01*
X235034Y19491D01*
X235000Y19498D01*
X234044Y19308D01*
X233234Y18766D01*
X232692Y17956D01*
X232601Y17500D01*
X235000D01*
Y17000D01*
X235500D01*
Y14602D01*
X235956Y14692D01*
X236766Y15234D01*
X237308Y16044D01*
X237498Y17000D01*
X237491Y17034D01*
X237932Y17270D01*
X239082Y16120D01*
Y13510D01*
X239060Y13507D01*
X238184Y13145D01*
X237433Y12567D01*
X236855Y11816D01*
X236493Y10940D01*
X236369Y10000D01*
X236493Y9060D01*
X236855Y8185D01*
X237433Y7433D01*
X238184Y6855D01*
X239060Y6493D01*
X240000Y6369D01*
X240940Y6493D01*
X241815Y6855D01*
X242567Y7433D01*
X243145Y8185D01*
X243507Y9060D01*
X243631Y10000D01*
X243507Y10940D01*
X243145Y11816D01*
X242567Y12567D01*
X241815Y13145D01*
X240940Y13507D01*
X240918Y13510D01*
Y16500D01*
X240848Y16851D01*
X240649Y17149D01*
X234316Y23482D01*
X234478Y24027D01*
X234640Y24062D01*
X246869Y11833D01*
X246855Y11816D01*
X246493Y10940D01*
X246369Y10000D01*
X246493Y9060D01*
X246855Y8185D01*
X247432Y7433D01*
X248184Y6855D01*
X249060Y6493D01*
X250000Y6369D01*
X250940Y6493D01*
X251816Y6855D01*
X252568Y7433D01*
X253145Y8185D01*
X253507Y9060D01*
X253631Y10000D01*
X253507Y10940D01*
X253145Y11816D01*
X252568Y12567D01*
X251816Y13145D01*
X250940Y13507D01*
X250000Y13631D01*
X249060Y13507D01*
X248184Y13145D01*
X248167Y13131D01*
X235661Y25637D01*
X235733Y26000D01*
X235601Y26663D01*
X235226Y27226D01*
X234663Y27601D01*
X234000Y27733D01*
X233337Y27601D01*
X232774Y27226D01*
X232399Y26663D01*
X232306Y26199D01*
X231795Y26002D01*
X223649Y34149D01*
X223351Y34348D01*
X223000Y34418D01*
X203380D01*
X187149Y50649D01*
X186851Y50848D01*
X186500Y50918D01*
X154380D01*
X137418Y67880D01*
Y88477D01*
X137918Y88679D01*
X138337Y88399D01*
X139000Y88267D01*
X139663Y88399D01*
X139938Y88582D01*
X145620D01*
X147351Y86851D01*
X147649Y86652D01*
X148000Y86582D01*
X156075D01*
X156314Y86119D01*
X156308Y86082D01*
X155774Y85726D01*
X155399Y85163D01*
X155267Y84500D01*
X155399Y83837D01*
X155774Y83274D01*
X156337Y82899D01*
X157000Y82767D01*
X157663Y82899D01*
X158226Y83274D01*
X158601Y83837D01*
X158650Y84082D01*
X167569D01*
X167774Y83774D01*
X168337Y83399D01*
X169000Y83267D01*
X169663Y83399D01*
X170226Y83774D01*
X170601Y84337D01*
X170733Y85000D01*
X170601Y85663D01*
X170321Y86082D01*
X170523Y86582D01*
X183120D01*
X190351Y79351D01*
X190649Y79152D01*
X191000Y79082D01*
X206075D01*
X206314Y78619D01*
X206308Y78582D01*
X205774Y78226D01*
X205399Y77663D01*
X205267Y77000D01*
X205339Y76637D01*
X198120Y69418D01*
X194801D01*
X194733Y69500D01*
X194601Y70163D01*
X194226Y70726D01*
X193663Y71101D01*
X193000Y71233D01*
X192337Y71101D01*
X191774Y70726D01*
X191399Y70163D01*
X191267Y69500D01*
X191399Y68837D01*
X191774Y68274D01*
X192337Y67899D01*
X193000Y67767D01*
X193368Y67840D01*
X193649Y67652D01*
X194000Y67582D01*
X198500D01*
X198851Y67652D01*
X199149Y67851D01*
X201295Y69998D01*
X201806Y69801D01*
X201899Y69337D01*
X202274Y68774D01*
X202582Y68569D01*
Y61000D01*
X202652Y60649D01*
X202851Y60351D01*
X206851Y56351D01*
X207149Y56152D01*
X207500Y56082D01*
X228620D01*
X239804Y44898D01*
X239244Y44168D01*
X238811Y43123D01*
X238663Y42000D01*
X238811Y40878D01*
X239244Y39832D01*
X239933Y38933D01*
X240831Y38244D01*
X241878Y37811D01*
X243000Y37663D01*
X244123Y37811D01*
X245169Y38244D01*
X246067Y38933D01*
X246756Y39832D01*
X247189Y40878D01*
X247337Y42000D01*
X247189Y43123D01*
X246756Y44168D01*
X246067Y45067D01*
X245169Y45756D01*
X244123Y46189D01*
X243000Y46337D01*
X241878Y46189D01*
X241334Y45964D01*
X229649Y57649D01*
X229351Y57848D01*
X229000Y57918D01*
X207880D01*
X204418Y61380D01*
Y68569D01*
X204726Y68774D01*
X205101Y69337D01*
X205233Y70000D01*
X205101Y70663D01*
X204726Y71226D01*
X204163Y71601D01*
X203699Y71694D01*
X203502Y72205D01*
X206637Y75339D01*
X207000Y75267D01*
X207663Y75399D01*
X208226Y75774D01*
X208601Y76337D01*
X208733Y77000D01*
X208601Y77663D01*
X208226Y78226D01*
X207692Y78582D01*
X207686Y78619D01*
X207925Y79082D01*
X217569D01*
X217774Y78774D01*
X218337Y78399D01*
X219000Y78267D01*
X219663Y78399D01*
X220226Y78774D01*
X220601Y79337D01*
X220733Y80000D01*
X220601Y80663D01*
X220226Y81226D01*
X219663Y81601D01*
X219000Y81733D01*
X218337Y81601D01*
X217774Y81226D01*
X217569Y80918D01*
X216855D01*
X216648Y81418D01*
X217998Y82767D01*
X218000Y82767D01*
X218663Y82899D01*
X219226Y83274D01*
X219601Y83837D01*
X219733Y84500D01*
X219601Y85163D01*
X219226Y85726D01*
X218663Y86101D01*
X218000Y86233D01*
X217337Y86101D01*
X216774Y85726D01*
X216399Y85163D01*
X216267Y84500D01*
X216267Y84497D01*
X214993Y83223D01*
X208727D01*
X208726Y83226D01*
X208163Y83601D01*
X207500Y83733D01*
X206837Y83601D01*
X206274Y83226D01*
X205899Y82663D01*
X205767Y82000D01*
X205883Y81418D01*
X205638Y80918D01*
X191380D01*
X184149Y88149D01*
X183851Y88348D01*
X183500Y88418D01*
X148380D01*
X146649Y90149D01*
X146351Y90348D01*
X146000Y90418D01*
X140650D01*
X140601Y90663D01*
X140226Y91226D01*
X139663Y91601D01*
X139000Y91733D01*
X138337Y91601D01*
X137918Y91321D01*
X137418Y91523D01*
Y111000D01*
X137348Y111351D01*
X137149Y111649D01*
X128649Y120149D01*
X128351Y120348D01*
X128000Y120418D01*
X126418D01*
Y132000D01*
X126348Y132351D01*
X126149Y132649D01*
X110918Y147880D01*
Y149569D01*
X111226Y149774D01*
X111601Y150337D01*
X111733Y151000D01*
X111601Y151663D01*
X111226Y152226D01*
X110663Y152601D01*
X110000Y152733D01*
X109337Y152601D01*
X108774Y152226D01*
X108399Y151663D01*
X108335Y151345D01*
X107835Y151394D01*
Y164998D01*
X108335Y165166D01*
X109044Y164692D01*
X109500Y164602D01*
Y167000D01*
Y169398D01*
X109044Y169308D01*
X108234Y168766D01*
X108077Y168532D01*
X107475D01*
X107298Y168798D01*
X106702Y169196D01*
X106000Y169335D01*
X105298Y169196D01*
X104702Y168798D01*
X104418Y168372D01*
X103918Y168523D01*
Y174221D01*
X104418Y174618D01*
X104500Y174601D01*
Y177000D01*
Y179399D01*
X104044Y179308D01*
X103234Y178766D01*
X102692Y177956D01*
X102655Y177767D01*
X102176Y177622D01*
X94149Y185649D01*
X93851Y185848D01*
X93500Y185918D01*
X78880D01*
X74918Y189880D01*
Y196490D01*
X74940Y196493D01*
X75815Y196855D01*
X76568Y197432D01*
X77145Y198185D01*
X77507Y199060D01*
X77631Y200000D01*
X77507Y200940D01*
X77145Y201816D01*
X76568Y202568D01*
X75815Y203145D01*
X74940Y203507D01*
X74000Y203631D01*
D02*
G37*
G36*
X117399Y176500D02*
X115500D01*
Y174601D01*
X115956Y174692D01*
X116766Y175234D01*
X117308Y176044D01*
X117399Y176500D01*
D02*
G37*
G36*
X124500D02*
X122601D01*
X122692Y176044D01*
X123234Y175234D01*
X124044Y174692D01*
X124500Y174601D01*
Y176500D01*
D02*
G37*
G36*
X107398D02*
X105500D01*
Y174601D01*
X105956Y174692D01*
X106766Y175234D01*
X107308Y176044D01*
X107398Y176500D01*
D02*
G37*
G36*
X114500D02*
X112601D01*
X112692Y176044D01*
X113234Y175234D01*
X114044Y174692D01*
X114500Y174601D01*
Y176500D01*
D02*
G37*
G36*
X199500Y169398D02*
X199044Y169308D01*
X198234Y168766D01*
X197692Y167956D01*
X197601Y167500D01*
X199500D01*
Y169398D01*
D02*
G37*
G36*
X200500D02*
Y167500D01*
X202398D01*
X202308Y167956D01*
X201766Y168766D01*
X200956Y169308D01*
X200500Y169398D01*
D02*
G37*
G36*
X189500D02*
X189044Y169308D01*
X188234Y168766D01*
X187692Y167956D01*
X187601Y167500D01*
X189500D01*
Y169398D01*
D02*
G37*
G36*
X190500D02*
Y167500D01*
X192399D01*
X192308Y167956D01*
X191766Y168766D01*
X190956Y169308D01*
X190500Y169398D01*
D02*
G37*
G36*
X219500D02*
X219044Y169308D01*
X218234Y168766D01*
X217692Y167956D01*
X217601Y167500D01*
X219500D01*
Y169398D01*
D02*
G37*
G36*
X230500D02*
Y167500D01*
X232399D01*
X232308Y167956D01*
X231766Y168766D01*
X230956Y169308D01*
X230500Y169398D01*
D02*
G37*
G36*
X239500D02*
X239044Y169308D01*
X238234Y168766D01*
X237692Y167956D01*
X237601Y167500D01*
X239500D01*
Y169398D01*
D02*
G37*
G36*
X220500D02*
Y167500D01*
X222398D01*
X222308Y167956D01*
X221766Y168766D01*
X220956Y169308D01*
X220500Y169398D01*
D02*
G37*
G36*
X229500D02*
X229044Y169308D01*
X228234Y168766D01*
X227692Y167956D01*
X227602Y167500D01*
X229500D01*
Y169398D01*
D02*
G37*
G36*
X127399Y176500D02*
X125500D01*
Y174601D01*
X125956Y174692D01*
X126766Y175234D01*
X127308Y176044D01*
X127399Y176500D01*
D02*
G37*
G36*
X257399D02*
X255500D01*
Y174601D01*
X255956Y174692D01*
X256766Y175234D01*
X257308Y176044D01*
X257399Y176500D01*
D02*
G37*
G36*
X14500Y179399D02*
X14044Y179308D01*
X13234Y178766D01*
X12692Y177956D01*
X12601Y177500D01*
X14500D01*
Y179399D01*
D02*
G37*
G36*
X237399Y176500D02*
X235500D01*
Y174601D01*
X235956Y174692D01*
X236766Y175234D01*
X237308Y176044D01*
X237399Y176500D01*
D02*
G37*
G36*
X254500D02*
X252602D01*
X252692Y176044D01*
X253234Y175234D01*
X254044Y174692D01*
X254500Y174601D01*
Y176500D01*
D02*
G37*
G36*
X15500Y179399D02*
Y177500D01*
X17399D01*
X17308Y177956D01*
X16766Y178766D01*
X15956Y179308D01*
X15500Y179399D01*
D02*
G37*
G36*
X115500D02*
Y177500D01*
X117399D01*
X117308Y177956D01*
X116766Y178766D01*
X115956Y179308D01*
X115500Y179399D01*
D02*
G37*
G36*
X124500D02*
X124044Y179308D01*
X123234Y178766D01*
X122692Y177956D01*
X122601Y177500D01*
X124500D01*
Y179399D01*
D02*
G37*
G36*
X105500D02*
Y177500D01*
X107398D01*
X107308Y177956D01*
X106766Y178766D01*
X105956Y179308D01*
X105500Y179399D01*
D02*
G37*
G36*
X114500D02*
X114044Y179308D01*
X113234Y178766D01*
X112692Y177956D01*
X112601Y177500D01*
X114500D01*
Y179399D01*
D02*
G37*
G36*
X181417Y181567D02*
X179358D01*
Y178579D01*
X178858D01*
Y178079D01*
X175280D01*
Y176610D01*
X175357Y176220D01*
X175578Y175889D01*
X175909Y175668D01*
X175956Y175149D01*
X175840Y175101D01*
X175650Y174642D01*
Y170705D01*
X175840Y170246D01*
X176299Y170055D01*
X181417D01*
X181877Y170246D01*
X182067Y170705D01*
Y174642D01*
X181877Y175101D01*
X181760Y175149D01*
X181807Y175668D01*
X182138Y175889D01*
X182196Y175976D01*
X182360Y175998D01*
X182768Y175931D01*
X183234Y175234D01*
X184044Y174692D01*
X184500Y174601D01*
Y177000D01*
Y179399D01*
X184044Y179308D01*
X183234Y178766D01*
X182937Y178322D01*
X182437Y178474D01*
Y180547D01*
X182359Y180937D01*
X182138Y181268D01*
X181807Y181489D01*
X181417Y181567D01*
D02*
G37*
G36*
X187399Y176500D02*
X185500D01*
Y174601D01*
X185956Y174692D01*
X186766Y175234D01*
X187308Y176044D01*
X187399Y176500D01*
D02*
G37*
G36*
X164500D02*
X162601D01*
X162692Y176044D01*
X163234Y175234D01*
X164044Y174692D01*
X164500Y174601D01*
Y176500D01*
D02*
G37*
G36*
X167399D02*
X165500D01*
Y174601D01*
X165956Y174692D01*
X166766Y175234D01*
X167308Y176044D01*
X167399Y176500D01*
D02*
G37*
G36*
X194500D02*
X192602D01*
X192692Y176044D01*
X193234Y175234D01*
X194044Y174692D01*
X194500Y174601D01*
Y176500D01*
D02*
G37*
G36*
X227398D02*
X225500D01*
Y174601D01*
X225956Y174692D01*
X226766Y175234D01*
X227308Y176044D01*
X227398Y176500D01*
D02*
G37*
G36*
X234500D02*
X232601D01*
X232692Y176044D01*
X233234Y175234D01*
X234044Y174692D01*
X234500Y174601D01*
Y176500D01*
D02*
G37*
G36*
X197398D02*
X195500D01*
Y174601D01*
X195956Y174692D01*
X196766Y175234D01*
X197308Y176044D01*
X197398Y176500D01*
D02*
G37*
G36*
X224500D02*
X222602D01*
X222692Y176044D01*
X223234Y175234D01*
X224044Y174692D01*
X224500Y174601D01*
Y176500D01*
D02*
G37*
G36*
X170500Y169398D02*
Y167500D01*
X172398D01*
X172308Y167956D01*
X171766Y168766D01*
X170956Y169308D01*
X170500Y169398D01*
D02*
G37*
G36*
X132398Y166500D02*
X130500D01*
Y164602D01*
X130956Y164692D01*
X131766Y165234D01*
X132308Y166044D01*
X132398Y166500D01*
D02*
G37*
G36*
X159500D02*
X157601D01*
X157692Y166044D01*
X158234Y165234D01*
X159044Y164692D01*
X159500Y164602D01*
Y166500D01*
D02*
G37*
G36*
X122398D02*
X120500D01*
Y164602D01*
X120956Y164692D01*
X121766Y165234D01*
X122308Y166044D01*
X122398Y166500D01*
D02*
G37*
G36*
X129500D02*
X127602D01*
X127692Y166044D01*
X128234Y165234D01*
X129044Y164692D01*
X129500Y164602D01*
Y166500D01*
D02*
G37*
G36*
X162399D02*
X160500D01*
Y164602D01*
X160956Y164692D01*
X161766Y165234D01*
X162308Y166044D01*
X162399Y166500D01*
D02*
G37*
G36*
X189500D02*
X187601D01*
X187692Y166044D01*
X188234Y165234D01*
X189044Y164692D01*
X189500Y164602D01*
Y166500D01*
D02*
G37*
G36*
X192399D02*
X190500D01*
Y164602D01*
X190956Y164692D01*
X191766Y165234D01*
X192308Y166044D01*
X192399Y166500D01*
D02*
G37*
G36*
X169500D02*
X167602D01*
X167692Y166044D01*
X168234Y165234D01*
X169044Y164692D01*
X169500Y164602D01*
Y166500D01*
D02*
G37*
G36*
X172398D02*
X170500D01*
Y164602D01*
X170956Y164692D01*
X171766Y165234D01*
X172308Y166044D01*
X172398Y166500D01*
D02*
G37*
G36*
X36638Y167488D02*
X35366D01*
Y164500D01*
X34866D01*
Y164000D01*
X32075D01*
Y162531D01*
X32153Y162141D01*
X32373Y161811D01*
X32388Y161801D01*
Y161199D01*
X32373Y161189D01*
X32153Y160859D01*
X32075Y160468D01*
Y159000D01*
X34866D01*
Y158500D01*
X35366D01*
Y155512D01*
X36638D01*
X37028Y155589D01*
X37359Y155810D01*
X37457Y155957D01*
X37910Y156063D01*
X38059Y156027D01*
X38409Y155882D01*
X41501D01*
X49082Y148301D01*
Y129862D01*
X43488D01*
Y131898D01*
X43298Y132357D01*
X42839Y132547D01*
X34965D01*
X34505Y132357D01*
X34315Y131898D01*
Y125992D01*
X34426Y125724D01*
X34161Y125224D01*
X32507D01*
X30224Y127507D01*
Y136776D01*
X34315D01*
Y135047D01*
X34505Y134588D01*
X34965Y134398D01*
X42839D01*
X43298Y134588D01*
X43488Y135047D01*
Y136075D01*
X43988Y136282D01*
X44767Y135503D01*
X44767Y135500D01*
X44899Y134837D01*
X45274Y134274D01*
X45837Y133899D01*
X46500Y133767D01*
X47163Y133899D01*
X47726Y134274D01*
X48101Y134837D01*
X48233Y135500D01*
X48101Y136163D01*
X47726Y136726D01*
X47163Y137101D01*
X46500Y137233D01*
X46497Y137233D01*
X44865Y138865D01*
X44468Y139130D01*
X44000Y139224D01*
X43488D01*
Y140953D01*
X43298Y141412D01*
X42839Y141602D01*
X34965D01*
X34505Y141412D01*
X34315Y140953D01*
Y139224D01*
X18685D01*
Y145480D01*
X18495Y145940D01*
X18035Y146130D01*
X10161D01*
X9702Y145940D01*
X9512Y145480D01*
Y130520D01*
X9702Y130061D01*
X9885Y129985D01*
X9833Y129465D01*
X9044Y129308D01*
X8234Y128766D01*
X7692Y127956D01*
X7602Y127500D01*
X12398D01*
X12308Y127956D01*
X11766Y128766D01*
X10956Y129308D01*
X10642Y129370D01*
X10691Y129870D01*
X18035D01*
X18495Y130061D01*
X18685Y130520D01*
Y136776D01*
X27777D01*
Y127000D01*
X27870Y126532D01*
X28135Y126135D01*
X31135Y123135D01*
X31532Y122870D01*
X32000Y122776D01*
X32329D01*
X32480Y122276D01*
X32350Y122189D01*
X32129Y121859D01*
X32051Y121468D01*
Y120000D01*
X34843D01*
Y119000D01*
X32051D01*
Y117532D01*
X32129Y117141D01*
X32350Y116811D01*
X32365Y116801D01*
Y116199D01*
X32350Y116190D01*
X32129Y115859D01*
X32051Y115469D01*
Y114000D01*
X34843D01*
Y113500D01*
X35342D01*
Y110512D01*
X36614D01*
X37004Y110590D01*
X37335Y110810D01*
X37433Y110957D01*
X37886Y111063D01*
X38036Y111027D01*
X38386Y110882D01*
X41929D01*
X42388Y111072D01*
X42579Y111531D01*
Y115277D01*
X43000D01*
X43468Y115370D01*
X43865Y115635D01*
X46865Y118635D01*
X47130Y119032D01*
X47223Y119500D01*
Y122000D01*
X47130Y122468D01*
X46865Y122865D01*
X44865Y124865D01*
X44468Y125130D01*
X44000Y125224D01*
X43642D01*
X43377Y125724D01*
X43488Y125992D01*
Y128027D01*
X49027D01*
Y125055D01*
X49082Y124778D01*
Y94355D01*
X48582Y94148D01*
X44365Y98365D01*
X43968Y98630D01*
X43500Y98724D01*
X42602D01*
Y99468D01*
X42412Y99928D01*
X42287Y99979D01*
Y100521D01*
X42412Y100572D01*
X42602Y101031D01*
Y104969D01*
X42412Y105428D01*
X41953Y105618D01*
X38409D01*
X38059Y105473D01*
X37910Y105437D01*
X37457Y105543D01*
X37359Y105690D01*
X37028Y105911D01*
X36638Y105988D01*
X35366D01*
Y103000D01*
X34866D01*
Y102500D01*
X32075D01*
Y101031D01*
X32153Y100641D01*
X32344Y100250D01*
X32153Y99859D01*
X32075Y99468D01*
Y98000D01*
X34866D01*
Y97500D01*
X35366D01*
Y94512D01*
X36638D01*
X37028Y94590D01*
X37359Y94810D01*
X37457Y94957D01*
X37910Y95063D01*
X38059Y95027D01*
X38409Y94882D01*
X41953D01*
X42412Y95072D01*
X42602Y95531D01*
Y96013D01*
X43102Y96167D01*
X46777Y92493D01*
Y83507D01*
X45493Y82223D01*
X43488D01*
Y82724D01*
X43298Y83184D01*
X42839Y83374D01*
X34965D01*
X34505Y83184D01*
X34315Y82724D01*
Y81918D01*
X18685D01*
Y87252D01*
X18495Y87711D01*
X18035Y87901D01*
X10161D01*
X9702Y87711D01*
X9512Y87252D01*
Y80689D01*
X6750D01*
X6726Y80726D01*
X6163Y81101D01*
X5500Y81233D01*
X4837Y81101D01*
X4274Y80726D01*
X3899Y80163D01*
X3767Y79500D01*
X3899Y78837D01*
X4274Y78274D01*
X4837Y77899D01*
X5500Y77767D01*
X6163Y77899D01*
X6726Y78274D01*
X7101Y78837D01*
X7105Y78854D01*
X9512D01*
Y72291D01*
X9702Y71832D01*
X10161Y71642D01*
X18035D01*
X18495Y71832D01*
X18685Y72291D01*
Y80082D01*
X34315D01*
Y76819D01*
X34505Y76360D01*
X34965Y76170D01*
X42667D01*
X42692Y76044D01*
X43234Y75234D01*
X44044Y74692D01*
X44500Y74602D01*
Y77000D01*
X45000D01*
Y77500D01*
X47398D01*
X47308Y77956D01*
X46766Y78766D01*
X46002Y79277D01*
X45981Y79578D01*
X46000Y79777D01*
X46468Y79870D01*
X46865Y80135D01*
X48582Y81852D01*
X49082Y81645D01*
Y72880D01*
X47836Y71634D01*
X43488D01*
Y73669D01*
X43298Y74129D01*
X42839Y74319D01*
X34965D01*
X34505Y74129D01*
X34315Y73669D01*
Y67764D01*
X34505Y67305D01*
X34965Y67114D01*
X39263D01*
Y66118D01*
X38409D01*
X38059Y65973D01*
X37910Y65937D01*
X37457Y66043D01*
X37359Y66189D01*
X37028Y66410D01*
X36638Y66488D01*
X35366D01*
Y63500D01*
X34866D01*
Y63000D01*
X32075D01*
Y61532D01*
X32153Y61141D01*
X32373Y60811D01*
X32388Y60801D01*
Y60199D01*
X32373Y60189D01*
X32153Y59859D01*
X32075Y59469D01*
Y58000D01*
X34866D01*
Y57500D01*
X35366D01*
Y54512D01*
X36638D01*
X37028Y54589D01*
X37359Y54811D01*
X37457Y54957D01*
X37910Y55063D01*
X38059Y55027D01*
X38409Y54882D01*
X41953D01*
X42412Y55072D01*
X42602Y55532D01*
Y56582D01*
X66448D01*
X96086Y26944D01*
X95899Y26663D01*
X95767Y26000D01*
X95899Y25337D01*
X96274Y24774D01*
X96808Y24418D01*
X96814Y24381D01*
X96575Y23918D01*
X92380D01*
X90661Y25637D01*
X90733Y26000D01*
X90601Y26663D01*
X90226Y27226D01*
X89918Y27431D01*
Y30000D01*
X89848Y30351D01*
X89649Y30649D01*
X88661Y31637D01*
X88733Y32000D01*
X88601Y32663D01*
X88226Y33226D01*
X87663Y33601D01*
X87000Y33733D01*
X86337Y33601D01*
X85774Y33226D01*
X85399Y32663D01*
X85267Y32000D01*
X85399Y31337D01*
X85774Y30774D01*
X86337Y30399D01*
X87000Y30267D01*
X87363Y30339D01*
X88082Y29620D01*
Y27431D01*
X87774Y27226D01*
X87399Y26663D01*
X87267Y26000D01*
X87399Y25337D01*
X87774Y24774D01*
X88337Y24399D01*
X89000Y24267D01*
X89363Y24339D01*
X91351Y22351D01*
X91649Y22152D01*
X92000Y22082D01*
X103500D01*
X103851Y22152D01*
X104149Y22351D01*
X106637Y24839D01*
X107000Y24767D01*
X107663Y24899D01*
X108226Y25274D01*
X108601Y25837D01*
X108733Y26500D01*
X108601Y27163D01*
X108226Y27726D01*
X107663Y28101D01*
X107000Y28233D01*
X106337Y28101D01*
X105774Y27726D01*
X105399Y27163D01*
X105267Y26500D01*
X105339Y26137D01*
X103120Y23918D01*
X98425D01*
X98186Y24381D01*
X98192Y24418D01*
X98726Y24774D01*
X99101Y25337D01*
X99233Y26000D01*
X99101Y26663D01*
X98726Y27226D01*
X98163Y27601D01*
X97990Y27636D01*
X67477Y58149D01*
X67180Y58348D01*
X66828Y58418D01*
X42602D01*
Y59469D01*
X42412Y59928D01*
X41953Y60118D01*
X41099D01*
Y60882D01*
X41953D01*
X42412Y61072D01*
X42602Y61532D01*
Y65469D01*
X42412Y65928D01*
X41953Y66118D01*
X41099D01*
Y67114D01*
X42839D01*
X43298Y67305D01*
X43488Y67764D01*
Y69799D01*
X48217D01*
X48568Y69869D01*
X48865Y70068D01*
X50649Y71851D01*
X50848Y72149D01*
X50918Y72500D01*
Y104977D01*
X51418Y105179D01*
X51837Y104899D01*
X52500Y104767D01*
X53163Y104899D01*
X53726Y105274D01*
X53931Y105582D01*
X56000D01*
X56351Y105652D01*
X56649Y105851D01*
X57176Y106378D01*
X57655Y106233D01*
X57692Y106044D01*
X58234Y105234D01*
X59044Y104692D01*
X59500Y104602D01*
Y107000D01*
X60000D01*
Y107500D01*
X62398D01*
X62308Y107956D01*
X61766Y108766D01*
X60956Y109308D01*
X60767Y109345D01*
X60622Y109824D01*
X79637Y128839D01*
X80000Y128767D01*
X80663Y128899D01*
X81226Y129274D01*
X81601Y129837D01*
X81733Y130500D01*
X81601Y131163D01*
X81226Y131726D01*
X80663Y132101D01*
X80000Y132233D01*
X79337Y132101D01*
X78774Y131726D01*
X78399Y131163D01*
X78267Y130500D01*
X78339Y130137D01*
X55620Y107418D01*
X53931D01*
X53726Y107726D01*
X53163Y108101D01*
X52500Y108233D01*
X51837Y108101D01*
X51418Y107821D01*
X50918Y108023D01*
Y125000D01*
X50862Y125277D01*
Y128723D01*
X50918Y129000D01*
Y148681D01*
X50848Y149032D01*
X50649Y149330D01*
X42602Y157377D01*
Y160468D01*
X42412Y160928D01*
X41953Y161118D01*
X38409D01*
X38059Y160973D01*
X37910Y160937D01*
X37457Y161043D01*
X37359Y161189D01*
X37344Y161199D01*
Y161801D01*
X37359Y161811D01*
X37457Y161957D01*
X37910Y162063D01*
X38059Y162027D01*
X38409Y161882D01*
X41953D01*
X42412Y162072D01*
X42602Y162531D01*
Y166469D01*
X42412Y166928D01*
X41953Y167118D01*
X38409D01*
X38059Y166973D01*
X37910Y166937D01*
X37457Y167043D01*
X37359Y167190D01*
X37028Y167411D01*
X36638Y167488D01*
D02*
G37*
G36*
X89000Y166733D02*
X88337Y166601D01*
X87774Y166226D01*
X87399Y165663D01*
X87267Y165000D01*
X87399Y164337D01*
X87774Y163774D01*
X88337Y163399D01*
X89000Y163267D01*
X89663Y163399D01*
X90226Y163774D01*
X90431Y164082D01*
X97350D01*
X97399Y163837D01*
X97774Y163274D01*
X98337Y162899D01*
X99000Y162767D01*
X99663Y162899D01*
X100226Y163274D01*
X100601Y163837D01*
X100733Y164500D01*
X100601Y165163D01*
X100226Y165726D01*
X99663Y166101D01*
X99000Y166233D01*
X98337Y166101D01*
X98062Y165918D01*
X90431D01*
X90226Y166226D01*
X89663Y166601D01*
X89000Y166733D01*
D02*
G37*
G36*
X131500Y178733D02*
X130837Y178601D01*
X130274Y178226D01*
X129899Y177663D01*
X129767Y177000D01*
X129899Y176337D01*
X130274Y175774D01*
X130837Y175399D01*
X131500Y175267D01*
X132163Y175399D01*
X132547Y175655D01*
X146332Y161870D01*
Y160172D01*
X145832Y159965D01*
X142149Y163649D01*
X141851Y163848D01*
X141500Y163918D01*
X139931D01*
X139726Y164226D01*
X139163Y164601D01*
X138500Y164733D01*
X137837Y164601D01*
X137274Y164226D01*
X136899Y163663D01*
X136767Y163000D01*
X136899Y162337D01*
X137274Y161774D01*
X137837Y161399D01*
X138500Y161267D01*
X139163Y161399D01*
X139726Y161774D01*
X139931Y162082D01*
X141120D01*
X144343Y158859D01*
X144097Y158398D01*
X144000Y158418D01*
X135431D01*
X135226Y158726D01*
X134663Y159101D01*
X134000Y159233D01*
X133337Y159101D01*
X132774Y158726D01*
X132399Y158163D01*
X132267Y157500D01*
X132399Y156837D01*
X132774Y156274D01*
X133337Y155899D01*
X134000Y155767D01*
X134663Y155899D01*
X135226Y156274D01*
X135431Y156582D01*
X143620D01*
X188351Y111851D01*
X188649Y111652D01*
X189000Y111582D01*
X216069D01*
X216274Y111274D01*
X216837Y110899D01*
X217500Y110767D01*
X218163Y110899D01*
X218726Y111274D01*
X219101Y111837D01*
X219233Y112500D01*
X219101Y113163D01*
X218726Y113726D01*
X218163Y114101D01*
X217500Y114233D01*
X216837Y114101D01*
X216528Y113895D01*
X216226Y114274D01*
X216332Y114434D01*
X216601Y114837D01*
X216733Y115500D01*
X216601Y116163D01*
X216226Y116726D01*
X216023Y116861D01*
X216129Y117392D01*
X216163Y117399D01*
X216726Y117774D01*
X217101Y118337D01*
X217233Y119000D01*
X217101Y119663D01*
X216726Y120226D01*
X216163Y120601D01*
X215500Y120733D01*
X214837Y120601D01*
X214274Y120226D01*
X214069Y119918D01*
X188380D01*
X181759Y126539D01*
X181918Y127087D01*
X182514Y127486D01*
X182978Y128181D01*
X183056Y128571D01*
X183579Y128815D01*
X183614Y128812D01*
X183976Y128740D01*
X185445D01*
Y132319D01*
Y135898D01*
X183976D01*
X183586Y135820D01*
X183255Y135599D01*
X183034Y135268D01*
X182957Y134878D01*
Y132918D01*
X181380D01*
X180918Y133380D01*
Y134252D01*
X181417D01*
X181807Y134330D01*
X182138Y134551D01*
X182359Y134881D01*
X182437Y135272D01*
Y136740D01*
X175280D01*
Y135272D01*
X175357Y134881D01*
X175578Y134551D01*
X175909Y134330D01*
X176299Y134252D01*
X179082D01*
Y133000D01*
X179152Y132649D01*
X179351Y132351D01*
X180082Y131620D01*
Y130912D01*
X179486Y130514D01*
X179087Y129918D01*
X178539Y129759D01*
X148168Y160130D01*
Y162250D01*
X148098Y162601D01*
X147899Y162899D01*
X133149Y177649D01*
X133080Y177694D01*
X132726Y178226D01*
X132163Y178601D01*
X131500Y178733D01*
D02*
G37*
G36*
X247500Y164733D02*
X246837Y164601D01*
X246274Y164226D01*
X245899Y163663D01*
X245767Y163000D01*
X245839Y162637D01*
X243620Y160418D01*
X236431D01*
X236226Y160726D01*
X235663Y161101D01*
X235000Y161233D01*
X234337Y161101D01*
X233774Y160726D01*
X233399Y160163D01*
X233267Y159500D01*
X233399Y158837D01*
X233774Y158274D01*
X234337Y157899D01*
X235000Y157767D01*
X235663Y157899D01*
X236226Y158274D01*
X236431Y158582D01*
X244000D01*
X244351Y158652D01*
X244649Y158851D01*
X247137Y161339D01*
X247500Y161267D01*
X248163Y161399D01*
X248726Y161774D01*
X249101Y162337D01*
X249233Y163000D01*
X249101Y163663D01*
X248726Y164226D01*
X248163Y164601D01*
X247500Y164733D01*
D02*
G37*
G36*
X181417Y169386D02*
X176299D01*
X175840Y169195D01*
X175650Y168736D01*
Y164799D01*
X175840Y164340D01*
X176299Y164150D01*
X181417D01*
X181877Y164340D01*
X182067Y164799D01*
Y168736D01*
X181877Y169195D01*
X181417Y169386D01*
D02*
G37*
G36*
X112399Y166500D02*
X110500D01*
Y164602D01*
X110956Y164692D01*
X111766Y165234D01*
X112308Y166044D01*
X112399Y166500D01*
D02*
G37*
G36*
X119500D02*
X117602D01*
X117692Y166044D01*
X118234Y165234D01*
X119044Y164692D01*
X119500Y164602D01*
Y166500D01*
D02*
G37*
G36*
X9500D02*
X7602D01*
X7692Y166044D01*
X8234Y165234D01*
X9044Y164692D01*
X9500Y164602D01*
Y166500D01*
D02*
G37*
G36*
X12398D02*
X10500D01*
Y164602D01*
X10956Y164692D01*
X11766Y165234D01*
X12308Y166044D01*
X12398Y166500D01*
D02*
G37*
G36*
X199500D02*
X197601D01*
X197692Y166044D01*
X198234Y165234D01*
X199044Y164692D01*
X199500Y164602D01*
Y166500D01*
D02*
G37*
G36*
X119500Y169398D02*
X119044Y169308D01*
X118234Y168766D01*
X117692Y167956D01*
X117602Y167500D01*
X119500D01*
Y169398D01*
D02*
G37*
G36*
X120500D02*
Y167500D01*
X122398D01*
X122308Y167956D01*
X121766Y168766D01*
X120956Y169308D01*
X120500Y169398D01*
D02*
G37*
G36*
X10500D02*
Y167500D01*
X12398D01*
X12308Y167956D01*
X11766Y168766D01*
X10956Y169308D01*
X10500Y169398D01*
D02*
G37*
G36*
X110500D02*
Y167500D01*
X112399D01*
X112308Y167956D01*
X111766Y168766D01*
X110956Y169308D01*
X110500Y169398D01*
D02*
G37*
G36*
X129500D02*
X129044Y169308D01*
X128234Y168766D01*
X127692Y167956D01*
X127602Y167500D01*
X129500D01*
Y169398D01*
D02*
G37*
G36*
X160500D02*
Y167500D01*
X162399D01*
X162308Y167956D01*
X161766Y168766D01*
X160956Y169308D01*
X160500Y169398D01*
D02*
G37*
G36*
X169500D02*
X169044Y169308D01*
X168234Y168766D01*
X167692Y167956D01*
X167602Y167500D01*
X169500D01*
Y169398D01*
D02*
G37*
G36*
X130500D02*
Y167500D01*
X132398D01*
X132308Y167956D01*
X131766Y168766D01*
X130956Y169308D01*
X130500Y169398D01*
D02*
G37*
G36*
X159500D02*
X159044Y169308D01*
X158234Y168766D01*
X157692Y167956D01*
X157601Y167500D01*
X159500D01*
Y169398D01*
D02*
G37*
G36*
X222398Y166500D02*
X220500D01*
Y164602D01*
X220956Y164692D01*
X221766Y165234D01*
X222308Y166044D01*
X222398Y166500D01*
D02*
G37*
G36*
X229500D02*
X227602D01*
X227692Y166044D01*
X228234Y165234D01*
X229044Y164692D01*
X229500Y164602D01*
Y166500D01*
D02*
G37*
G36*
X202398D02*
X200500D01*
Y164602D01*
X200956Y164692D01*
X201766Y165234D01*
X202308Y166044D01*
X202398Y166500D01*
D02*
G37*
G36*
X219500D02*
X217601D01*
X217692Y166044D01*
X218234Y165234D01*
X219044Y164692D01*
X219500Y164602D01*
Y166500D01*
D02*
G37*
G36*
X232399D02*
X230500D01*
Y164602D01*
X230956Y164692D01*
X231766Y165234D01*
X232308Y166044D01*
X232399Y166500D01*
D02*
G37*
G36*
X34366Y167488D02*
X33094D01*
X32704Y167411D01*
X32373Y167190D01*
X32153Y166859D01*
X32075Y166469D01*
Y165000D01*
X34366D01*
Y167488D01*
D02*
G37*
G36*
X9500Y169398D02*
X9044Y169308D01*
X8234Y168766D01*
X7692Y167956D01*
X7602Y167500D01*
X9500D01*
Y169398D01*
D02*
G37*
G36*
X239500Y166500D02*
X237601D01*
X237692Y166044D01*
X238234Y165234D01*
X239044Y164692D01*
X239500Y164602D01*
Y166500D01*
D02*
G37*
G36*
X242399D02*
X240500D01*
Y164602D01*
X240956Y164692D01*
X241766Y165234D01*
X242308Y166044D01*
X242399Y166500D01*
D02*
G37*
G36*
X120500Y189399D02*
Y187500D01*
X122398D01*
X122308Y187956D01*
X121766Y188766D01*
X120956Y189308D01*
X120500Y189399D01*
D02*
G37*
G36*
X44500Y196500D02*
X42601D01*
X42692Y196044D01*
X43234Y195234D01*
X44044Y194692D01*
X44500Y194602D01*
Y196500D01*
D02*
G37*
G36*
X110500Y189399D02*
Y187500D01*
X112399D01*
X112308Y187956D01*
X111766Y188766D01*
X110956Y189308D01*
X110500Y189399D01*
D02*
G37*
G36*
X119500D02*
X119044Y189308D01*
X118234Y188766D01*
X117692Y187956D01*
X117602Y187500D01*
X119500D01*
Y189399D01*
D02*
G37*
G36*
X47398Y196500D02*
X45500D01*
Y194602D01*
X45956Y194692D01*
X46766Y195234D01*
X47308Y196044D01*
X47398Y196500D01*
D02*
G37*
G36*
X107969Y199500D02*
X104500D01*
Y196031D01*
X105044Y196103D01*
X106017Y196506D01*
X106853Y197147D01*
X107494Y197983D01*
X107897Y198956D01*
X107969Y199500D01*
D02*
G37*
G36*
X167000Y203649D02*
X161000D01*
X160541Y203459D01*
X160351Y203000D01*
Y197000D01*
X160541Y196541D01*
X161000Y196351D01*
X167000D01*
X167459Y196541D01*
X167649Y197000D01*
Y203000D01*
X167459Y203459D01*
X167000Y203649D01*
D02*
G37*
G36*
X174500Y196500D02*
X172601D01*
X172692Y196044D01*
X173234Y195234D01*
X174044Y194692D01*
X174500Y194602D01*
Y196500D01*
D02*
G37*
G36*
X103500Y199500D02*
X100031D01*
X100103Y198956D01*
X100506Y197983D01*
X101147Y197147D01*
X101983Y196506D01*
X102956Y196103D01*
X103500Y196031D01*
Y199500D01*
D02*
G37*
G36*
X59500Y189399D02*
X59044Y189308D01*
X58234Y188766D01*
X57692Y187956D01*
X57601Y187500D01*
X59500D01*
Y189399D01*
D02*
G37*
G36*
X60500D02*
Y187500D01*
X62398D01*
X62308Y187956D01*
X61766Y188766D01*
X60956Y189308D01*
X60500Y189399D01*
D02*
G37*
G36*
X9500D02*
X9044Y189308D01*
X8234Y188766D01*
X7692Y187956D01*
X7602Y187500D01*
X9500D01*
Y189399D01*
D02*
G37*
G36*
X10500D02*
Y187500D01*
X12398D01*
X12308Y187956D01*
X11766Y188766D01*
X10956Y189308D01*
X10500Y189399D01*
D02*
G37*
G36*
X69500D02*
X69044Y189308D01*
X68234Y188766D01*
X67692Y187956D01*
X67602Y187500D01*
X69500D01*
Y189399D01*
D02*
G37*
G36*
X100500D02*
Y187500D01*
X102399D01*
X102308Y187956D01*
X101766Y188766D01*
X100956Y189308D01*
X100500Y189399D01*
D02*
G37*
G36*
X109500D02*
X109044Y189308D01*
X108234Y188766D01*
X107692Y187956D01*
X107601Y187500D01*
X109500D01*
Y189399D01*
D02*
G37*
G36*
X70500D02*
Y187500D01*
X72399D01*
X72308Y187956D01*
X71766Y188766D01*
X70956Y189308D01*
X70500Y189399D01*
D02*
G37*
G36*
X99500D02*
X99044Y189308D01*
X98234Y188766D01*
X97692Y187956D01*
X97601Y187500D01*
X99500D01*
Y189399D01*
D02*
G37*
G36*
X84000Y203631D02*
X83060Y203507D01*
X82184Y203145D01*
X81432Y202568D01*
X80855Y201816D01*
X80493Y200940D01*
X80369Y200000D01*
X80493Y199060D01*
X80855Y198185D01*
X81432Y197432D01*
X82184Y196855D01*
X83060Y196493D01*
X84000Y196369D01*
X84940Y196493D01*
X85816Y196855D01*
X86568Y197432D01*
X87145Y198185D01*
X87507Y199060D01*
X87631Y200000D01*
X87507Y200940D01*
X87145Y201816D01*
X86568Y202568D01*
X85816Y203145D01*
X84940Y203507D01*
X84000Y203631D01*
D02*
G37*
G36*
X44500Y199399D02*
X44044Y199308D01*
X43234Y198766D01*
X42692Y197956D01*
X42601Y197500D01*
X44500D01*
Y199399D01*
D02*
G37*
G36*
X45500D02*
Y197500D01*
X47398D01*
X47308Y197956D01*
X46766Y198766D01*
X45956Y199308D01*
X45500Y199399D01*
D02*
G37*
G36*
X230000Y203631D02*
X229060Y203507D01*
X228185Y203145D01*
X227432Y202568D01*
X226855Y201816D01*
X226493Y200940D01*
X226369Y200000D01*
X226493Y199060D01*
X226855Y198185D01*
X227432Y197432D01*
X228185Y196855D01*
X229060Y196493D01*
X230000Y196369D01*
X230940Y196493D01*
X231816Y196855D01*
X232568Y197432D01*
X233145Y198185D01*
X233507Y199060D01*
X233631Y200000D01*
X233507Y200940D01*
X233145Y201816D01*
X232568Y202568D01*
X231816Y203145D01*
X230940Y203507D01*
X230000Y203631D01*
D02*
G37*
G36*
X240000D02*
X239060Y203507D01*
X238184Y203145D01*
X237433Y202568D01*
X236855Y201816D01*
X236493Y200940D01*
X236369Y200000D01*
X236493Y199060D01*
X236855Y198185D01*
X237433Y197432D01*
X238184Y196855D01*
X239060Y196493D01*
X240000Y196369D01*
X240940Y196493D01*
X241815Y196855D01*
X242567Y197432D01*
X243145Y198185D01*
X243507Y199060D01*
X243631Y200000D01*
X243507Y200940D01*
X243145Y201816D01*
X242567Y202568D01*
X241815Y203145D01*
X240940Y203507D01*
X240000Y203631D01*
D02*
G37*
G36*
X174500Y199399D02*
X174044Y199308D01*
X173234Y198766D01*
X172692Y197956D01*
X172601Y197500D01*
X174500D01*
Y199399D01*
D02*
G37*
G36*
X104500Y203969D02*
Y200500D01*
X107969D01*
X107897Y201044D01*
X107494Y202017D01*
X106853Y202853D01*
X106017Y203494D01*
X105044Y203897D01*
X104500Y203969D01*
D02*
G37*
G36*
X60000Y206979D02*
X59969Y206966D01*
X59936Y206976D01*
X58701Y206854D01*
X58643Y206823D01*
X58577Y206830D01*
X57389Y206469D01*
X57338Y206427D01*
X57272Y206421D01*
X56177Y205836D01*
X56135Y205784D01*
X56071Y205765D01*
X55112Y204978D01*
X55081Y204919D01*
X55022Y204888D01*
X54235Y203929D01*
X54216Y203865D01*
X54164Y203823D01*
X53579Y202728D01*
X53573Y202662D01*
X53531Y202611D01*
X53171Y201423D01*
X53177Y201357D01*
X53146Y201298D01*
X53024Y200064D01*
X53043Y200000D01*
X53024Y199936D01*
X53146Y198702D01*
X53177Y198643D01*
X53171Y198577D01*
X53531Y197389D01*
X53573Y197338D01*
X53579Y197272D01*
X54164Y196177D01*
X54216Y196135D01*
X54235Y196071D01*
X55022Y195112D01*
X55081Y195081D01*
X55112Y195022D01*
X56071Y194235D01*
X56135Y194216D01*
X56177Y194164D01*
X57272Y193579D01*
X57338Y193573D01*
X57389Y193531D01*
X58577Y193170D01*
X58643Y193177D01*
X58701Y193146D01*
X59936Y193024D01*
X59969Y193034D01*
X60000Y193021D01*
X60031Y193034D01*
X60064Y193024D01*
X61299Y193146D01*
X61357Y193177D01*
X61423Y193170D01*
X62611Y193531D01*
X62662Y193573D01*
X62728Y193579D01*
X63823Y194164D01*
X63865Y194216D01*
X63929Y194235D01*
X64888Y195022D01*
X64919Y195081D01*
X64978Y195112D01*
X65765Y196071D01*
X65784Y196135D01*
X65836Y196177D01*
X66421Y197272D01*
X66427Y197338D01*
X66469Y197389D01*
X66830Y198577D01*
X66823Y198643D01*
X66854Y198702D01*
X66976Y199936D01*
X66957Y200000D01*
X66976Y200064D01*
X66854Y201298D01*
X66823Y201357D01*
X66830Y201423D01*
X66469Y202611D01*
X66427Y202662D01*
X66421Y202728D01*
X65836Y203823D01*
X65784Y203865D01*
X65765Y203929D01*
X64978Y204888D01*
X64919Y204919D01*
X64888Y204978D01*
X63929Y205765D01*
X63865Y205784D01*
X63823Y205836D01*
X62728Y206421D01*
X62662Y206427D01*
X62611Y206469D01*
X61423Y206830D01*
X61357Y206823D01*
X61299Y206854D01*
X60064Y206976D01*
X60031Y206966D01*
X60000Y206979D01*
D02*
G37*
G36*
X180000Y203631D02*
X179060Y203507D01*
X178184Y203145D01*
X177432Y202568D01*
X176855Y201816D01*
X176493Y200940D01*
X176369Y200000D01*
X176422Y199598D01*
X175956Y199308D01*
X175500Y199399D01*
Y197000D01*
Y194602D01*
X175956Y194692D01*
X176766Y195234D01*
X177308Y196044D01*
X177455Y196785D01*
X177948Y197017D01*
X177973Y197018D01*
X178184Y196855D01*
X179060Y196493D01*
X180000Y196369D01*
X180940Y196493D01*
X181816Y196855D01*
X182568Y197432D01*
X183145Y198185D01*
X183507Y199060D01*
X183631Y200000D01*
X183507Y200940D01*
X183145Y201816D01*
X182568Y202568D01*
X181816Y203145D01*
X180940Y203507D01*
X180000Y203631D01*
D02*
G37*
G36*
X103500Y203969D02*
X102956Y203897D01*
X101983Y203494D01*
X101147Y202853D01*
X100506Y202017D01*
X100103Y201044D01*
X100031Y200500D01*
X103500D01*
Y203969D01*
D02*
G37*
G36*
X124000Y203631D02*
X123060Y203507D01*
X122185Y203145D01*
X121432Y202568D01*
X120855Y201816D01*
X120493Y200940D01*
X120369Y200000D01*
X120493Y199060D01*
X120855Y198185D01*
X121432Y197432D01*
X122185Y196855D01*
X123060Y196493D01*
X124000Y196369D01*
X124940Y196493D01*
X125815Y196855D01*
X126568Y197432D01*
X127145Y198185D01*
X127507Y199060D01*
X127631Y200000D01*
X127507Y200940D01*
X127145Y201816D01*
X126568Y202568D01*
X125815Y203145D01*
X124940Y203507D01*
X124000Y203631D01*
D02*
G37*
G36*
X134000D02*
X133060Y203507D01*
X132185Y203145D01*
X131432Y202568D01*
X130855Y201816D01*
X130493Y200940D01*
X130369Y200000D01*
X130493Y199060D01*
X130855Y198185D01*
X131432Y197432D01*
X132185Y196855D01*
X133060Y196493D01*
X134000Y196369D01*
X134940Y196493D01*
X135816Y196855D01*
X136568Y197432D01*
X137145Y198185D01*
X137507Y199060D01*
X137631Y200000D01*
X137507Y200940D01*
X137145Y201816D01*
X136568Y202568D01*
X135816Y203145D01*
X134940Y203507D01*
X134000Y203631D01*
D02*
G37*
G36*
X94000D02*
X93060Y203507D01*
X92185Y203145D01*
X91432Y202568D01*
X90855Y201816D01*
X90493Y200940D01*
X90369Y200000D01*
X90493Y199060D01*
X90855Y198185D01*
X91432Y197432D01*
X92185Y196855D01*
X93060Y196493D01*
X94000Y196369D01*
X94940Y196493D01*
X95815Y196855D01*
X96568Y197432D01*
X97145Y198185D01*
X97507Y199060D01*
X97631Y200000D01*
X97507Y200940D01*
X97145Y201816D01*
X96568Y202568D01*
X95815Y203145D01*
X94940Y203507D01*
X94000Y203631D01*
D02*
G37*
G36*
X114000D02*
X113060Y203507D01*
X112185Y203145D01*
X111432Y202568D01*
X110855Y201816D01*
X110493Y200940D01*
X110369Y200000D01*
X110493Y199060D01*
X110855Y198185D01*
X111432Y197432D01*
X112185Y196855D01*
X113060Y196493D01*
X114000Y196369D01*
X114940Y196493D01*
X115815Y196855D01*
X116568Y197432D01*
X117145Y198185D01*
X117507Y199060D01*
X117631Y200000D01*
X117507Y200940D01*
X117145Y201816D01*
X116568Y202568D01*
X115815Y203145D01*
X114940Y203507D01*
X114000Y203631D01*
D02*
G37*
G36*
X144000D02*
X143060Y203507D01*
X142184Y203145D01*
X141432Y202568D01*
X140855Y201816D01*
X140493Y200940D01*
X140369Y200000D01*
X140493Y199060D01*
X140855Y198185D01*
X141432Y197432D01*
X142184Y196855D01*
X143060Y196493D01*
X144000Y196369D01*
X144940Y196493D01*
X145816Y196855D01*
X146568Y197432D01*
X147145Y198185D01*
X147507Y199060D01*
X147631Y200000D01*
X147507Y200940D01*
X147145Y201816D01*
X146568Y202568D01*
X145816Y203145D01*
X144940Y203507D01*
X144000Y203631D01*
D02*
G37*
G36*
X210000D02*
X209060Y203507D01*
X208185Y203145D01*
X207433Y202568D01*
X206855Y201816D01*
X206493Y200940D01*
X206369Y200000D01*
X206493Y199060D01*
X206855Y198185D01*
X207433Y197432D01*
X208185Y196855D01*
X209060Y196493D01*
X210000Y196369D01*
X210940Y196493D01*
X211816Y196855D01*
X212567Y197432D01*
X213145Y198185D01*
X213507Y199060D01*
X213631Y200000D01*
X213507Y200940D01*
X213145Y201816D01*
X212567Y202568D01*
X211816Y203145D01*
X210940Y203507D01*
X210000Y203631D01*
D02*
G37*
G36*
X220000D02*
X219060Y203507D01*
X218184Y203145D01*
X217432Y202568D01*
X216855Y201816D01*
X216493Y200940D01*
X216369Y200000D01*
X216493Y199060D01*
X216855Y198185D01*
X217432Y197432D01*
X218184Y196855D01*
X219060Y196493D01*
X220000Y196369D01*
X220940Y196493D01*
X221815Y196855D01*
X222568Y197432D01*
X223145Y198185D01*
X223507Y199060D01*
X223631Y200000D01*
X223507Y200940D01*
X223145Y201816D01*
X222568Y202568D01*
X221815Y203145D01*
X220940Y203507D01*
X220000Y203631D01*
D02*
G37*
G36*
X154000D02*
X153060Y203507D01*
X152184Y203145D01*
X151432Y202568D01*
X150855Y201816D01*
X150493Y200940D01*
X150369Y200000D01*
X150493Y199060D01*
X150855Y198185D01*
X151432Y197432D01*
X152184Y196855D01*
X153060Y196493D01*
X154000Y196369D01*
X154940Y196493D01*
X155815Y196855D01*
X156568Y197432D01*
X157145Y198185D01*
X157507Y199060D01*
X157631Y200000D01*
X157507Y200940D01*
X157145Y201816D01*
X156568Y202568D01*
X155815Y203145D01*
X154940Y203507D01*
X154000Y203631D01*
D02*
G37*
G36*
X190000D02*
X189060Y203507D01*
X188184Y203145D01*
X187432Y202568D01*
X186855Y201816D01*
X186493Y200940D01*
X186369Y200000D01*
X186493Y199060D01*
X186855Y198185D01*
X187432Y197432D01*
X188184Y196855D01*
X189060Y196493D01*
X190000Y196369D01*
X190940Y196493D01*
X191815Y196855D01*
X192568Y197432D01*
X193145Y198185D01*
X193507Y199060D01*
X193631Y200000D01*
X193507Y200940D01*
X193145Y201816D01*
X192568Y202568D01*
X191815Y203145D01*
X190940Y203507D01*
X190000Y203631D01*
D02*
G37*
G36*
X122398Y186500D02*
X120500D01*
Y184601D01*
X120956Y184692D01*
X121766Y185234D01*
X122308Y186044D01*
X122398Y186500D01*
D02*
G37*
G36*
X255500Y179399D02*
Y177500D01*
X257399D01*
X257308Y177956D01*
X256766Y178766D01*
X255956Y179308D01*
X255500Y179399D01*
D02*
G37*
G36*
X178358Y181567D02*
X176299D01*
X175909Y181489D01*
X175578Y181268D01*
X175357Y180937D01*
X175280Y180547D01*
Y179079D01*
X178358D01*
Y181567D01*
D02*
G37*
G36*
X235500Y179399D02*
Y177500D01*
X237399D01*
X237308Y177956D01*
X236766Y178766D01*
X235956Y179308D01*
X235500Y179399D01*
D02*
G37*
G36*
X254500D02*
X254044Y179308D01*
X253234Y178766D01*
X252692Y177956D01*
X252602Y177500D01*
X254500D01*
Y179399D01*
D02*
G37*
G36*
X187913Y186708D02*
X183976D01*
X183517Y186518D01*
X183327Y186059D01*
Y180941D01*
X183517Y180482D01*
X183976Y180291D01*
X187913D01*
X188373Y180482D01*
X188563Y180941D01*
Y186059D01*
X188373Y186518D01*
X187913Y186708D01*
D02*
G37*
G36*
X205630D02*
X201693D01*
X201234Y186518D01*
X201044Y186059D01*
Y180941D01*
X201234Y180482D01*
X201693Y180291D01*
X205630D01*
X206089Y180482D01*
X206279Y180941D01*
Y186059D01*
X206089Y186518D01*
X205630Y186708D01*
D02*
G37*
G36*
X211535D02*
X207598D01*
X207139Y186518D01*
X206949Y186059D01*
Y180941D01*
X207139Y180482D01*
X207598Y180291D01*
X211535D01*
X211995Y180482D01*
X212185Y180941D01*
Y186059D01*
X211995Y186518D01*
X211535Y186708D01*
D02*
G37*
G36*
X193819D02*
X189882D01*
X189423Y186518D01*
X189233Y186059D01*
Y180941D01*
X189423Y180482D01*
X189882Y180291D01*
X193819D01*
X194278Y180482D01*
X194468Y180941D01*
Y186059D01*
X194278Y186518D01*
X193819Y186708D01*
D02*
G37*
G36*
X199724D02*
X195787D01*
X195328Y186518D01*
X195138Y186059D01*
Y180941D01*
X195328Y180482D01*
X195787Y180291D01*
X199724D01*
X200184Y180482D01*
X200374Y180941D01*
Y186059D01*
X200184Y186518D01*
X199724Y186708D01*
D02*
G37*
G36*
X165500Y179399D02*
Y177500D01*
X167399D01*
X167308Y177956D01*
X166766Y178766D01*
X165956Y179308D01*
X165500Y179399D01*
D02*
G37*
G36*
X185500D02*
Y177500D01*
X187399D01*
X187308Y177956D01*
X186766Y178766D01*
X185956Y179308D01*
X185500Y179399D01*
D02*
G37*
G36*
X125500D02*
Y177500D01*
X127399D01*
X127308Y177956D01*
X126766Y178766D01*
X125956Y179308D01*
X125500Y179399D01*
D02*
G37*
G36*
X164500D02*
X164044Y179308D01*
X163234Y178766D01*
X162692Y177956D01*
X162601Y177500D01*
X164500D01*
Y179399D01*
D02*
G37*
G36*
X194500D02*
X194044Y179308D01*
X193234Y178766D01*
X192692Y177956D01*
X192602Y177500D01*
X194500D01*
Y179399D01*
D02*
G37*
G36*
X225500D02*
Y177500D01*
X227398D01*
X227308Y177956D01*
X226766Y178766D01*
X225956Y179308D01*
X225500Y179399D01*
D02*
G37*
G36*
X234500D02*
X234044Y179308D01*
X233234Y178766D01*
X232692Y177956D01*
X232601Y177500D01*
X234500D01*
Y179399D01*
D02*
G37*
G36*
X195500D02*
Y177500D01*
X197398D01*
X197308Y177956D01*
X196766Y178766D01*
X195956Y179308D01*
X195500Y179399D01*
D02*
G37*
G36*
X224500D02*
X224044Y179308D01*
X223234Y178766D01*
X222692Y177956D01*
X222602Y177500D01*
X224500D01*
Y179399D01*
D02*
G37*
G36*
X217441Y186708D02*
X213504D01*
X213045Y186518D01*
X212855Y186059D01*
Y180941D01*
X213045Y180482D01*
X213504Y180291D01*
X217441D01*
X217900Y180482D01*
X218090Y180941D01*
Y186059D01*
X217900Y186518D01*
X217441Y186708D01*
D02*
G37*
G36*
X69500Y186500D02*
X67602D01*
X67692Y186044D01*
X68234Y185234D01*
X69044Y184692D01*
X69500Y184601D01*
Y186500D01*
D02*
G37*
G36*
X72399D02*
X70500D01*
Y184601D01*
X70956Y184692D01*
X71766Y185234D01*
X72308Y186044D01*
X72399Y186500D01*
D02*
G37*
G36*
X59500D02*
X57601D01*
X57692Y186044D01*
X58234Y185234D01*
X59044Y184692D01*
X59500Y184601D01*
Y186500D01*
D02*
G37*
G36*
X62398D02*
X60500D01*
Y184601D01*
X60956Y184692D01*
X61766Y185234D01*
X62308Y186044D01*
X62398Y186500D01*
D02*
G37*
G36*
X99500D02*
X97601D01*
X97692Y186044D01*
X98234Y185234D01*
X99044Y184692D01*
X99500Y184601D01*
Y186500D01*
D02*
G37*
G36*
X112399D02*
X110500D01*
Y184601D01*
X110956Y184692D01*
X111766Y185234D01*
X112308Y186044D01*
X112399Y186500D01*
D02*
G37*
G36*
X119500D02*
X117602D01*
X117692Y186044D01*
X118234Y185234D01*
X119044Y184692D01*
X119500Y184601D01*
Y186500D01*
D02*
G37*
G36*
X102399D02*
X100500D01*
Y184601D01*
X100956Y184692D01*
X101766Y185234D01*
X102308Y186044D01*
X102399Y186500D01*
D02*
G37*
G36*
X109500D02*
X107601D01*
X107692Y186044D01*
X108234Y185234D01*
X109044Y184692D01*
X109500Y184601D01*
Y186500D01*
D02*
G37*
G36*
X235157Y186708D02*
X231221D01*
X230761Y186518D01*
X230571Y186059D01*
Y180941D01*
X230761Y180482D01*
X231221Y180291D01*
X235157D01*
X235617Y180482D01*
X235807Y180941D01*
Y186059D01*
X235617Y186518D01*
X235157Y186708D01*
D02*
G37*
G36*
X241063D02*
X237126D01*
X236667Y186518D01*
X236476Y186059D01*
Y180941D01*
X236667Y180482D01*
X237126Y180291D01*
X241063D01*
X241522Y180482D01*
X241712Y180941D01*
Y186059D01*
X241522Y186518D01*
X241063Y186708D01*
D02*
G37*
G36*
X223346D02*
X219409D01*
X218950Y186518D01*
X218760Y186059D01*
Y180941D01*
X218950Y180482D01*
X219409Y180291D01*
X223346D01*
X223806Y180482D01*
X223996Y180941D01*
Y186059D01*
X223806Y186518D01*
X223346Y186708D01*
D02*
G37*
G36*
X229252D02*
X225315D01*
X224856Y186518D01*
X224665Y186059D01*
Y180941D01*
X224856Y180482D01*
X225315Y180291D01*
X229252D01*
X229711Y180482D01*
X229901Y180941D01*
Y186059D01*
X229711Y186518D01*
X229252Y186708D01*
D02*
G37*
G36*
X243500Y193733D02*
X242837Y193601D01*
X242274Y193226D01*
X241899Y192663D01*
X241767Y192000D01*
X241899Y191337D01*
X242274Y190774D01*
X242837Y190399D01*
X243082Y190350D01*
Y189500D01*
X243152Y189149D01*
X243351Y188851D01*
X244082Y188120D01*
Y186708D01*
X243032D01*
X242572Y186518D01*
X242382Y186059D01*
Y180941D01*
X242572Y180482D01*
X243032Y180291D01*
X246969D01*
X247428Y180482D01*
X247618Y180941D01*
Y186059D01*
X247428Y186518D01*
X246969Y186708D01*
X245918D01*
Y188500D01*
X245848Y188851D01*
X245649Y189149D01*
X244918Y189880D01*
Y191062D01*
X245101Y191337D01*
X245233Y192000D01*
X245101Y192663D01*
X244726Y193226D01*
X244163Y193601D01*
X243500Y193733D01*
D02*
G37*
G36*
X9500Y186500D02*
X7602D01*
X7692Y186044D01*
X8234Y185234D01*
X9044Y184692D01*
X9500Y184601D01*
Y186500D01*
D02*
G37*
G36*
X12398D02*
X10500D01*
Y184601D01*
X10956Y184692D01*
X11766Y185234D01*
X12308Y186044D01*
X12398Y186500D01*
D02*
G37*
G36*
X252874Y186708D02*
X248937D01*
X248478Y186518D01*
X248288Y186059D01*
Y180941D01*
X248478Y180482D01*
X248937Y180291D01*
X252874D01*
X253333Y180482D01*
X253523Y180941D01*
Y186059D01*
X253333Y186518D01*
X252874Y186708D01*
D02*
G37*
G36*
X241100Y207418D02*
X206000D01*
X205649Y207348D01*
X205351Y207149D01*
X201484Y203282D01*
X200940Y203507D01*
X200000Y203631D01*
X199060Y203507D01*
X198185Y203145D01*
X197432Y202568D01*
X196855Y201816D01*
X196493Y200940D01*
X196369Y200000D01*
X196493Y199060D01*
X196855Y198185D01*
X197432Y197432D01*
X198185Y196855D01*
X199060Y196493D01*
X200000Y196369D01*
X200940Y196493D01*
X201816Y196855D01*
X202568Y197432D01*
X203145Y198185D01*
X203507Y199060D01*
X203631Y200000D01*
X203507Y200940D01*
X203145Y201816D01*
X202914Y202116D01*
X206380Y205582D01*
X240720D01*
X245182Y201120D01*
Y196627D01*
X245252Y196276D01*
X245451Y195978D01*
X254471Y186959D01*
X254383Y186518D01*
X254193Y186059D01*
Y180941D01*
X254383Y180482D01*
X254842Y180291D01*
X258780D01*
X259239Y180482D01*
X259429Y180941D01*
Y186059D01*
X259239Y186518D01*
X258780Y186708D01*
X257316D01*
X248136Y195889D01*
X248328Y196351D01*
X253000D01*
X253459Y196541D01*
X253649Y197000D01*
Y203000D01*
X253459Y203459D01*
X253000Y203649D01*
X247000D01*
X246541Y203459D01*
X246425Y203180D01*
X245889Y203009D01*
X241749Y207149D01*
X241451Y207348D01*
X241100Y207418D01*
D02*
G37*
G36*
X12398Y126500D02*
X10500D01*
Y124601D01*
X10956Y124692D01*
X11766Y125234D01*
X12308Y126044D01*
X12398Y126500D01*
D02*
G37*
G36*
X209500D02*
X207601D01*
X207692Y126044D01*
X208234Y125234D01*
X209044Y124692D01*
X209500Y124601D01*
Y126500D01*
D02*
G37*
G36*
X90000Y137233D02*
X89337Y137101D01*
X88774Y136726D01*
X88399Y136163D01*
X88267Y135500D01*
X88399Y134837D01*
X88774Y134274D01*
X89337Y133899D01*
X90000Y133767D01*
X90363Y133839D01*
X96082Y128120D01*
Y118431D01*
X95774Y118226D01*
X95399Y117663D01*
X95267Y117000D01*
X95399Y116337D01*
X95679Y115918D01*
X95477Y115418D01*
X88301D01*
X88233Y115500D01*
X88101Y116163D01*
X87726Y116726D01*
X87163Y117101D01*
X86500Y117233D01*
X85837Y117101D01*
X85274Y116726D01*
X84899Y116163D01*
X84767Y115500D01*
X84899Y114837D01*
X85274Y114274D01*
X85837Y113899D01*
X86500Y113767D01*
X86868Y113840D01*
X87149Y113652D01*
X87500Y113582D01*
X99120D01*
X112582Y100120D01*
Y96431D01*
X112274Y96226D01*
X111899Y95663D01*
X111767Y95000D01*
X111899Y94337D01*
X112274Y93774D01*
X112837Y93399D01*
X113500Y93267D01*
X114163Y93399D01*
X114726Y93774D01*
X115101Y94337D01*
X115233Y95000D01*
X115101Y95663D01*
X114726Y96226D01*
X114418Y96431D01*
Y100500D01*
X114348Y100851D01*
X114149Y101149D01*
X100149Y115149D01*
X99851Y115348D01*
X99500Y115418D01*
X98523D01*
X98321Y115918D01*
X98601Y116337D01*
X98733Y117000D01*
X98601Y117663D01*
X98226Y118226D01*
X97918Y118431D01*
Y128500D01*
X97848Y128851D01*
X97649Y129149D01*
X91661Y135137D01*
X91733Y135500D01*
X91601Y136163D01*
X91226Y136726D01*
X90663Y137101D01*
X90000Y137233D01*
D02*
G37*
G36*
X9500Y126500D02*
X7602D01*
X7692Y126044D01*
X8234Y125234D01*
X9044Y124692D01*
X9500Y124601D01*
Y126500D01*
D02*
G37*
G36*
X212399D02*
X210500D01*
Y124601D01*
X210956Y124692D01*
X211766Y125234D01*
X212308Y126044D01*
X212399Y126500D01*
D02*
G37*
G36*
X229500D02*
X227602D01*
X227692Y126044D01*
X228234Y125234D01*
X229044Y124692D01*
X229500Y124601D01*
Y126500D01*
D02*
G37*
G36*
X232399D02*
X230500D01*
Y124601D01*
X230956Y124692D01*
X231766Y125234D01*
X232308Y126044D01*
X232399Y126500D01*
D02*
G37*
G36*
X219500D02*
X217601D01*
X217692Y126044D01*
X218234Y125234D01*
X219044Y124692D01*
X219500Y124601D01*
Y126500D01*
D02*
G37*
G36*
X222398D02*
X220500D01*
Y124601D01*
X220956Y124692D01*
X221766Y125234D01*
X222308Y126044D01*
X222398Y126500D01*
D02*
G37*
G36*
X89500Y109398D02*
X89044Y109308D01*
X88234Y108766D01*
X87692Y107956D01*
X87602Y107500D01*
X89500D01*
Y109398D01*
D02*
G37*
G36*
X90500D02*
Y107500D01*
X92399D01*
X92308Y107956D01*
X91766Y108766D01*
X90956Y109308D01*
X90500Y109398D01*
D02*
G37*
G36*
X69500D02*
X69044Y109308D01*
X68234Y108766D01*
X67692Y107956D01*
X67602Y107500D01*
X69500D01*
Y109398D01*
D02*
G37*
G36*
X70500D02*
Y107500D01*
X72399D01*
X72308Y107956D01*
X71766Y108766D01*
X70956Y109308D01*
X70500Y109398D01*
D02*
G37*
G36*
X99500D02*
X99044Y109308D01*
X98234Y108766D01*
X97692Y107956D01*
X97601Y107500D01*
X99500D01*
Y109398D01*
D02*
G37*
G36*
X220500D02*
Y107500D01*
X222398D01*
X222308Y107956D01*
X221766Y108766D01*
X220956Y109308D01*
X220500Y109398D01*
D02*
G37*
G36*
X34343Y113000D02*
X32051D01*
Y111531D01*
X32129Y111141D01*
X32350Y110810D01*
X32681Y110590D01*
X33071Y110512D01*
X34343D01*
Y113000D01*
D02*
G37*
G36*
X100500Y109398D02*
Y107500D01*
X102399D01*
X102308Y107956D01*
X101766Y108766D01*
X100956Y109308D01*
X100500Y109398D01*
D02*
G37*
G36*
X219500D02*
X219044Y109308D01*
X218234Y108766D01*
X217692Y107956D01*
X217601Y107500D01*
X219500D01*
Y109398D01*
D02*
G37*
G36*
X264500Y136500D02*
X262601D01*
X262692Y136044D01*
X263234Y135234D01*
X264044Y134692D01*
X264500Y134601D01*
Y136500D01*
D02*
G37*
G36*
X267399D02*
X265500D01*
Y134601D01*
X265956Y134692D01*
X266766Y135234D01*
X267308Y136044D01*
X267399Y136500D01*
D02*
G37*
G36*
X94500D02*
X92602D01*
X92692Y136044D01*
X93234Y135234D01*
X94044Y134692D01*
X94500Y134601D01*
Y136500D01*
D02*
G37*
G36*
X97399D02*
X95500D01*
Y134601D01*
X95956Y134692D01*
X96766Y135234D01*
X97308Y136044D01*
X97399Y136500D01*
D02*
G37*
G36*
X197398D02*
X192602D01*
X192692Y136044D01*
X192743Y135968D01*
X192507Y135527D01*
X189882D01*
X189423Y135337D01*
X189374Y135221D01*
X188855Y135268D01*
X188634Y135599D01*
X188304Y135820D01*
X187913Y135898D01*
X186445D01*
Y132319D01*
Y128740D01*
X187913D01*
X188304Y128818D01*
X188634Y129039D01*
X188855Y129370D01*
X189374Y129417D01*
X189423Y129301D01*
X189882Y129110D01*
X192271D01*
Y127311D01*
X192341Y126960D01*
X192540Y126662D01*
X192839Y126363D01*
X192767Y126000D01*
X192899Y125337D01*
X193274Y124774D01*
X193837Y124399D01*
X194500Y124267D01*
X195163Y124399D01*
X195726Y124774D01*
X196101Y125337D01*
X196233Y126000D01*
X196101Y126663D01*
X195726Y127226D01*
X195163Y127601D01*
X194500Y127733D01*
X194107Y128165D01*
Y129230D01*
X194278Y129301D01*
X194468Y129760D01*
Y133880D01*
X194968Y134197D01*
X195138Y134116D01*
Y129760D01*
X195328Y129301D01*
X195787Y129110D01*
X199724D01*
X200184Y129301D01*
X200374Y129760D01*
Y134878D01*
X200184Y135337D01*
X199724Y135527D01*
X197493D01*
X197257Y135968D01*
X197308Y136044D01*
X197398Y136500D01*
D02*
G37*
G36*
X194500Y139399D02*
X194044Y139308D01*
X193234Y138766D01*
X192692Y137956D01*
X192602Y137500D01*
X194500D01*
Y139399D01*
D02*
G37*
G36*
X195500D02*
Y137500D01*
X197398D01*
X197308Y137956D01*
X196766Y138766D01*
X195956Y139308D01*
X195500Y139399D01*
D02*
G37*
G36*
X94500D02*
X94044Y139308D01*
X93234Y138766D01*
X92692Y137956D01*
X92602Y137500D01*
X94500D01*
Y139399D01*
D02*
G37*
G36*
X95500D02*
Y137500D01*
X97399D01*
X97308Y137956D01*
X96766Y138766D01*
X95956Y139308D01*
X95500Y139399D01*
D02*
G37*
G36*
X211535Y135527D02*
X207598D01*
X207139Y135337D01*
X206949Y134878D01*
Y129760D01*
X207139Y129301D01*
X207598Y129110D01*
X207917D01*
X208129Y128610D01*
X207692Y127956D01*
X207601Y127500D01*
X212399D01*
X212308Y127956D01*
X211820Y128687D01*
X211856Y129067D01*
X211916Y129268D01*
X211995Y129301D01*
X212185Y129760D01*
Y134878D01*
X211995Y135337D01*
X211535Y135527D01*
D02*
G37*
G36*
X227398Y136500D02*
X222602D01*
X222692Y136044D01*
X222743Y135968D01*
X222507Y135527D01*
X219409D01*
X218950Y135337D01*
X218760Y134878D01*
Y129760D01*
X218950Y129301D01*
X218955Y129249D01*
X218234Y128766D01*
X217692Y127956D01*
X217601Y127500D01*
X222398D01*
X222308Y127956D01*
X221871Y128610D01*
X222083Y129110D01*
X223346D01*
X223806Y129301D01*
X223996Y129760D01*
Y133858D01*
X224496Y134175D01*
X224665Y134095D01*
Y129760D01*
X224856Y129301D01*
X225315Y129110D01*
X227917D01*
X228129Y128610D01*
X227692Y127956D01*
X227602Y127500D01*
X232399D01*
X232308Y127956D01*
X231871Y128610D01*
X232083Y129110D01*
X235157D01*
X235617Y129301D01*
X235807Y129760D01*
Y134878D01*
X235617Y135337D01*
X235157Y135527D01*
X231221D01*
X230761Y135337D01*
X230571Y134878D01*
Y130210D01*
X230092Y129845D01*
X229919Y129903D01*
X229901Y129988D01*
Y134878D01*
X229711Y135337D01*
X229252Y135527D01*
X227493D01*
X227257Y135968D01*
X227308Y136044D01*
X227398Y136500D01*
D02*
G37*
G36*
X239500Y126500D02*
X237601D01*
X237692Y126044D01*
X238234Y125234D01*
X239044Y124692D01*
X239500Y124601D01*
Y126500D01*
D02*
G37*
G36*
X242399D02*
X240500D01*
Y124601D01*
X240956Y124692D01*
X241766Y125234D01*
X242308Y126044D01*
X242399Y126500D01*
D02*
G37*
G36*
X241063Y135527D02*
X237126D01*
X236667Y135337D01*
X236476Y134878D01*
Y129760D01*
X236667Y129301D01*
X237126Y129110D01*
X237917D01*
X238129Y128610D01*
X237692Y127956D01*
X237601Y127500D01*
X242399D01*
X242308Y127956D01*
X241766Y128766D01*
X241488Y128952D01*
X241522Y129301D01*
X241712Y129760D01*
Y134878D01*
X241522Y135337D01*
X241063Y135527D01*
D02*
G37*
G36*
X246969D02*
X243032D01*
X242572Y135337D01*
X242382Y134878D01*
Y129760D01*
X242572Y129301D01*
X243032Y129110D01*
X246969D01*
X247428Y129301D01*
X247618Y129760D01*
Y134878D01*
X247428Y135337D01*
X246969Y135527D01*
D02*
G37*
G36*
X67500Y135733D02*
X66837Y135601D01*
X66274Y135226D01*
X65899Y134663D01*
X65767Y134000D01*
X65395Y133723D01*
X58727D01*
X58726Y133726D01*
X58163Y134101D01*
X57500Y134233D01*
X56837Y134101D01*
X56274Y133726D01*
X55899Y133163D01*
X55767Y132500D01*
X55899Y131837D01*
X56274Y131274D01*
X56837Y130899D01*
X57500Y130767D01*
X58163Y130899D01*
X58726Y131274D01*
X58727Y131277D01*
X66000D01*
X66468Y131370D01*
X66865Y131635D01*
X67497Y132267D01*
X67500Y132267D01*
X68163Y132399D01*
X68726Y132774D01*
X69101Y133337D01*
X69233Y134000D01*
X69101Y134663D01*
X68726Y135226D01*
X68163Y135601D01*
X67500Y135733D01*
D02*
G37*
G36*
X205630Y135527D02*
X201693D01*
X201234Y135337D01*
X201044Y134878D01*
Y129760D01*
X201234Y129301D01*
X201693Y129110D01*
X205630D01*
X206089Y129301D01*
X206279Y129760D01*
Y134878D01*
X206089Y135337D01*
X205630Y135527D01*
D02*
G37*
G36*
X217441D02*
X213504D01*
X213045Y135337D01*
X212855Y134878D01*
Y129760D01*
X213045Y129301D01*
X213504Y129110D01*
X217441D01*
X217900Y129301D01*
X218090Y129760D01*
Y134878D01*
X217900Y135337D01*
X217441Y135527D01*
D02*
G37*
G36*
X75500Y99398D02*
Y97500D01*
X77399D01*
X77308Y97956D01*
X76766Y98766D01*
X75956Y99308D01*
X75500Y99398D01*
D02*
G37*
G36*
X94500D02*
X94044Y99308D01*
X93234Y98766D01*
X92692Y97956D01*
X92602Y97500D01*
X94500D01*
Y99398D01*
D02*
G37*
G36*
X65500D02*
Y97500D01*
X67399D01*
X67308Y97956D01*
X66766Y98766D01*
X65956Y99308D01*
X65500Y99398D01*
D02*
G37*
G36*
X74500D02*
X74044Y99308D01*
X73234Y98766D01*
X72692Y97956D01*
X72601Y97500D01*
X74500D01*
Y99398D01*
D02*
G37*
G36*
X95500D02*
Y97500D01*
X97399D01*
X97308Y97956D01*
X96766Y98766D01*
X95956Y99308D01*
X95500Y99398D01*
D02*
G37*
G36*
X34366Y105988D02*
X33094D01*
X32704Y105911D01*
X32373Y105690D01*
X32153Y105359D01*
X32075Y104969D01*
Y103500D01*
X34366D01*
Y105988D01*
D02*
G37*
G36*
X9500Y106500D02*
X7602D01*
X7692Y106044D01*
X8234Y105234D01*
X9044Y104692D01*
X9500Y104602D01*
Y106500D01*
D02*
G37*
G36*
X265500Y99398D02*
Y97500D01*
X267399D01*
X267308Y97956D01*
X266766Y98766D01*
X265956Y99308D01*
X265500Y99398D01*
D02*
G37*
G36*
X125500Y141233D02*
X124837Y141101D01*
X124274Y140726D01*
X123899Y140163D01*
X123767Y139500D01*
X123899Y138837D01*
X124274Y138274D01*
X124837Y137899D01*
X125500Y137767D01*
X125863Y137839D01*
X140582Y123120D01*
Y98500D01*
X140652Y98149D01*
X140851Y97851D01*
X149351Y89351D01*
X149649Y89152D01*
X150000Y89082D01*
X185620D01*
X187351Y87351D01*
X187649Y87152D01*
X188000Y87082D01*
X221620D01*
X224655Y84047D01*
X224399Y83663D01*
X224267Y83000D01*
X224399Y82337D01*
X224774Y81774D01*
X225337Y81399D01*
X226000Y81267D01*
X226663Y81399D01*
X227226Y81774D01*
X227601Y82337D01*
X227733Y83000D01*
X227601Y83663D01*
X227226Y84226D01*
X226695Y84580D01*
X226649Y84649D01*
X222649Y88649D01*
X222351Y88848D01*
X222000Y88918D01*
X188380D01*
X186649Y90649D01*
X186351Y90848D01*
X186000Y90918D01*
X150380D01*
X142418Y98880D01*
Y99575D01*
X142881Y99814D01*
X142918Y99808D01*
X143274Y99274D01*
X143837Y98899D01*
X144500Y98767D01*
X144863Y98839D01*
X148351Y95351D01*
X148649Y95152D01*
X148899Y94663D01*
X148767Y94000D01*
X148899Y93337D01*
X149274Y92774D01*
X149837Y92399D01*
X150500Y92267D01*
X151163Y92399D01*
X151726Y92774D01*
X151931Y93082D01*
X170500D01*
X170851Y93152D01*
X171149Y93351D01*
X179380Y101582D01*
X199138D01*
X199382Y101082D01*
X199267Y100500D01*
X199399Y99837D01*
X199774Y99274D01*
X200337Y98899D01*
X201000Y98767D01*
X201663Y98899D01*
X202226Y99274D01*
X202431Y99582D01*
X236500D01*
X236851Y99652D01*
X237149Y99851D01*
X252593Y115295D01*
X252792Y115593D01*
X252862Y115944D01*
Y129110D01*
X252874D01*
X253333Y129301D01*
X253523Y129760D01*
Y134878D01*
X253333Y135337D01*
X252874Y135527D01*
X248937D01*
X248478Y135337D01*
X248288Y134878D01*
Y129760D01*
X248478Y129301D01*
X248937Y129110D01*
X251027D01*
Y116324D01*
X236120Y101418D01*
X227862D01*
X227618Y101918D01*
X227733Y102500D01*
X227601Y103163D01*
X227226Y103726D01*
X226663Y104101D01*
X226000Y104233D01*
X225337Y104101D01*
X224774Y103726D01*
X224569Y103418D01*
X188362D01*
X188118Y103918D01*
X188233Y104500D01*
X188101Y105163D01*
X187726Y105726D01*
X187163Y106101D01*
X186500Y106233D01*
X185837Y106101D01*
X185274Y105726D01*
X185069Y105418D01*
X182023D01*
X181821Y105918D01*
X182101Y106337D01*
X182233Y107000D01*
X182101Y107663D01*
X181726Y108226D01*
X181163Y108601D01*
X180500Y108733D01*
X179837Y108601D01*
X179274Y108226D01*
X179069Y107918D01*
X163000D01*
X162649Y107848D01*
X162351Y107649D01*
X159747Y105045D01*
X159663Y105101D01*
X159000Y105233D01*
X158337Y105101D01*
X157774Y104726D01*
X157399Y104163D01*
X157267Y103500D01*
X157399Y102837D01*
X157774Y102274D01*
X158337Y101899D01*
X159000Y101767D01*
X159663Y101899D01*
X160226Y102274D01*
X160601Y102837D01*
X160717Y103420D01*
X163380Y106082D01*
X178706D01*
X178820Y105914D01*
X178821Y105851D01*
X178584Y105369D01*
X178477Y105348D01*
X178180Y105149D01*
X176582Y103552D01*
X176056Y103732D01*
X175726Y104226D01*
X175163Y104601D01*
X174500Y104733D01*
X173837Y104601D01*
X173274Y104226D01*
X173069Y103918D01*
X165000D01*
X164649Y103848D01*
X164351Y103649D01*
X161863Y101161D01*
X161500Y101233D01*
X160837Y101101D01*
X160274Y100726D01*
X159899Y100163D01*
X159767Y99500D01*
X159899Y98837D01*
X160274Y98274D01*
X160837Y97899D01*
X161500Y97767D01*
X162163Y97899D01*
X162726Y98274D01*
X163101Y98837D01*
X163233Y99500D01*
X163161Y99863D01*
X165380Y102082D01*
X173069D01*
X173274Y101774D01*
X173768Y101444D01*
X173948Y100918D01*
X169948Y96918D01*
X149380D01*
X146161Y100137D01*
X146233Y100500D01*
X146101Y101163D01*
X145726Y101726D01*
X145163Y102101D01*
X144500Y102233D01*
X143837Y102101D01*
X143274Y101726D01*
X142918Y101192D01*
X142881Y101186D01*
X142418Y101425D01*
Y123500D01*
X142348Y123851D01*
X142149Y124149D01*
X132106Y134192D01*
X132352Y134653D01*
X132500Y134624D01*
X153930D01*
X159124Y129430D01*
Y112719D01*
X151702Y105298D01*
X151304Y104702D01*
X151165Y104000D01*
Y99500D01*
X151304Y98798D01*
X151702Y98202D01*
X152298Y97804D01*
X153000Y97665D01*
X153702Y97804D01*
X154298Y98202D01*
X154696Y98798D01*
X154835Y99500D01*
Y103240D01*
X161798Y110202D01*
X162196Y110798D01*
X162335Y111500D01*
X162196Y112202D01*
X161876Y112680D01*
Y130000D01*
X161772Y130527D01*
X161473Y130973D01*
X155473Y136973D01*
X155027Y137272D01*
X154500Y137376D01*
X133158D01*
X133101Y137663D01*
X132726Y138226D01*
X132163Y138601D01*
X131500Y138733D01*
X130837Y138601D01*
X130274Y138226D01*
X129899Y137663D01*
X129806Y137199D01*
X129295Y137003D01*
X127161Y139137D01*
X127233Y139500D01*
X127101Y140163D01*
X126726Y140726D01*
X126163Y141101D01*
X125500Y141233D01*
D02*
G37*
G36*
X74500Y96500D02*
X72601D01*
X72692Y96044D01*
X73234Y95234D01*
X74044Y94692D01*
X74500Y94602D01*
Y96500D01*
D02*
G37*
G36*
X77399D02*
X75500D01*
Y94602D01*
X75956Y94692D01*
X76766Y95234D01*
X77308Y96044D01*
X77399Y96500D01*
D02*
G37*
G36*
X64500D02*
X62602D01*
X62692Y96044D01*
X63234Y95234D01*
X64044Y94692D01*
X64500Y94602D01*
Y96500D01*
D02*
G37*
G36*
X67399D02*
X65500D01*
Y94602D01*
X65956Y94692D01*
X66766Y95234D01*
X67308Y96044D01*
X67399Y96500D01*
D02*
G37*
G36*
X94500D02*
X92602D01*
X92692Y96044D01*
X93234Y95234D01*
X94044Y94692D01*
X94500Y94602D01*
Y96500D01*
D02*
G37*
G36*
X258780Y135527D02*
X254842D01*
X254383Y135337D01*
X254193Y134878D01*
Y129760D01*
X254383Y129301D01*
X254842Y129110D01*
X256932D01*
Y113878D01*
X240296Y97242D01*
X205176D01*
X204825Y97172D01*
X204527Y96973D01*
X204296Y96742D01*
X178324D01*
X177973Y96672D01*
X177675Y96473D01*
X177410Y96207D01*
X177226Y96226D01*
X176663Y96601D01*
X176000Y96733D01*
X175337Y96601D01*
X174774Y96226D01*
X174399Y95663D01*
X174267Y95000D01*
X174399Y94337D01*
X174774Y93774D01*
X175337Y93399D01*
X176000Y93267D01*
X176663Y93399D01*
X177226Y93774D01*
X177431Y94082D01*
X177500D01*
X177851Y94152D01*
X178149Y94351D01*
X178704Y94907D01*
X204676D01*
X205027Y94976D01*
X205325Y95175D01*
X205556Y95407D01*
X240676D01*
X241027Y95476D01*
X241325Y95675D01*
X258499Y112849D01*
X258697Y113147D01*
X258767Y113498D01*
Y129110D01*
X258780D01*
X259239Y129301D01*
X259429Y129760D01*
Y134878D01*
X259239Y135337D01*
X258780Y135527D01*
D02*
G37*
G36*
X64500Y99398D02*
X64044Y99308D01*
X63234Y98766D01*
X62692Y97956D01*
X62602Y97500D01*
X64500D01*
Y99398D01*
D02*
G37*
G36*
X97399Y96500D02*
X95500D01*
Y94602D01*
X95956Y94692D01*
X96766Y95234D01*
X97308Y96044D01*
X97399Y96500D01*
D02*
G37*
G36*
X267399D02*
X265500D01*
Y94602D01*
X265956Y94692D01*
X266766Y95234D01*
X267308Y96044D01*
X267399Y96500D01*
D02*
G37*
G36*
X222398Y106500D02*
X220500D01*
Y104602D01*
X220956Y104692D01*
X221766Y105234D01*
X222308Y106044D01*
X222398Y106500D01*
D02*
G37*
G36*
X131000Y154233D02*
X130337Y154101D01*
X129774Y153726D01*
X129399Y153163D01*
X129267Y152500D01*
X129399Y151837D01*
X129774Y151274D01*
X130337Y150899D01*
X131000Y150767D01*
X131663Y150899D01*
X132226Y151274D01*
X132431Y151582D01*
X144620D01*
X190351Y105851D01*
X190649Y105652D01*
X191000Y105582D01*
X213569D01*
X213774Y105274D01*
X214337Y104899D01*
X215000Y104767D01*
X215663Y104899D01*
X216226Y105274D01*
X216601Y105837D01*
X216733Y106500D01*
X216601Y107163D01*
X216226Y107726D01*
X215663Y108101D01*
X215000Y108233D01*
X214337Y108101D01*
X213774Y107726D01*
X213569Y107418D01*
X191380D01*
X145649Y153149D01*
X145351Y153348D01*
X145000Y153418D01*
X132431D01*
X132226Y153726D01*
X131663Y154101D01*
X131000Y154233D01*
D02*
G37*
G36*
X102399Y106500D02*
X100500D01*
Y104602D01*
X100956Y104692D01*
X101766Y105234D01*
X102308Y106044D01*
X102399Y106500D01*
D02*
G37*
G36*
X219500D02*
X217601D01*
X217692Y106044D01*
X218234Y105234D01*
X219044Y104692D01*
X219500Y104602D01*
Y106500D01*
D02*
G37*
G36*
X262500Y110733D02*
X261837Y110601D01*
X261274Y110226D01*
X260899Y109663D01*
X260767Y109000D01*
X260899Y108337D01*
X261274Y107774D01*
X261582Y107569D01*
Y107023D01*
X261082Y106821D01*
X260663Y107101D01*
X260000Y107233D01*
X259337Y107101D01*
X258774Y106726D01*
X258399Y106163D01*
X258267Y105500D01*
X258399Y104837D01*
X258774Y104274D01*
X258776Y104273D01*
Y99507D01*
X242502Y83233D01*
X242500Y83233D01*
X241837Y83101D01*
X241274Y82726D01*
X240899Y82163D01*
X240767Y81500D01*
X240899Y80837D01*
X241274Y80274D01*
X241837Y79899D01*
X242500Y79767D01*
X243163Y79899D01*
X243726Y80274D01*
X244101Y80837D01*
X244233Y81500D01*
X244233Y81502D01*
X260865Y98135D01*
X261082Y98460D01*
X261381Y98446D01*
X261582Y98377D01*
Y89420D01*
X261141Y89184D01*
X260956Y89308D01*
X260500Y89398D01*
Y87000D01*
Y84601D01*
X260956Y84692D01*
X261141Y84816D01*
X261582Y84580D01*
Y68380D01*
X243863Y50661D01*
X243500Y50733D01*
X242837Y50601D01*
X242274Y50226D01*
X241899Y49663D01*
X241767Y49000D01*
X241899Y48337D01*
X242274Y47774D01*
X242837Y47399D01*
X243500Y47267D01*
X244163Y47399D01*
X244726Y47774D01*
X245101Y48337D01*
X245233Y49000D01*
X245161Y49363D01*
X263149Y67351D01*
X263348Y67649D01*
X263418Y68000D01*
Y74580D01*
X263859Y74816D01*
X264044Y74692D01*
X264500Y74602D01*
Y77000D01*
Y79399D01*
X264044Y79308D01*
X263859Y79184D01*
X263418Y79420D01*
Y94580D01*
X263859Y94816D01*
X264044Y94692D01*
X264500Y94602D01*
Y97000D01*
Y99398D01*
X264044Y99308D01*
X263859Y99184D01*
X263418Y99420D01*
Y107569D01*
X263726Y107774D01*
X264101Y108337D01*
X264233Y109000D01*
X264101Y109663D01*
X263726Y110226D01*
X263163Y110601D01*
X262500Y110733D01*
D02*
G37*
G36*
X19500Y109398D02*
X19044Y109308D01*
X18234Y108766D01*
X17692Y107956D01*
X17602Y107500D01*
X19500D01*
Y109398D01*
D02*
G37*
G36*
X20500D02*
Y107500D01*
X22399D01*
X22308Y107956D01*
X21766Y108766D01*
X20956Y109308D01*
X20500Y109398D01*
D02*
G37*
G36*
X9500D02*
X9044Y109308D01*
X8234Y108766D01*
X7692Y107956D01*
X7602Y107500D01*
X9500D01*
Y109398D01*
D02*
G37*
G36*
X10500D02*
Y107500D01*
X12398D01*
X12308Y107956D01*
X11766Y108766D01*
X10956Y109308D01*
X10500Y109398D01*
D02*
G37*
G36*
X22399Y106500D02*
X20500D01*
Y104602D01*
X20956Y104692D01*
X21766Y105234D01*
X22308Y106044D01*
X22399Y106500D01*
D02*
G37*
G36*
X62398D02*
X60500D01*
Y104602D01*
X60956Y104692D01*
X61766Y105234D01*
X62308Y106044D01*
X62398Y106500D01*
D02*
G37*
G36*
X12398D02*
X10500D01*
Y104602D01*
X10956Y104692D01*
X11766Y105234D01*
X12308Y106044D01*
X12398Y106500D01*
D02*
G37*
G36*
X19500D02*
X17602D01*
X17692Y106044D01*
X18234Y105234D01*
X19044Y104692D01*
X19500Y104602D01*
Y106500D01*
D02*
G37*
G36*
X69500D02*
X67602D01*
X67692Y106044D01*
X68234Y105234D01*
X69044Y104692D01*
X69500Y104602D01*
Y106500D01*
D02*
G37*
G36*
X92399D02*
X90500D01*
Y104602D01*
X90956Y104692D01*
X91766Y105234D01*
X92308Y106044D01*
X92399Y106500D01*
D02*
G37*
G36*
X99500D02*
X97601D01*
X97692Y106044D01*
X98234Y105234D01*
X99044Y104692D01*
X99500Y104602D01*
Y106500D01*
D02*
G37*
G36*
X72399D02*
X70500D01*
Y104602D01*
X70956Y104692D01*
X71766Y105234D01*
X72308Y106044D01*
X72399Y106500D01*
D02*
G37*
G36*
X89500D02*
X87602D01*
X87692Y106044D01*
X88234Y105234D01*
X89044Y104692D01*
X89500Y104602D01*
Y106500D01*
D02*
G37*
G36*
X224500Y139399D02*
X224044Y139308D01*
X223234Y138766D01*
X222692Y137956D01*
X222602Y137500D01*
X224500D01*
Y139399D01*
D02*
G37*
G36*
X259500Y149399D02*
X259044Y149308D01*
X258234Y148766D01*
X257692Y147956D01*
X257601Y147500D01*
X259500D01*
Y149399D01*
D02*
G37*
G36*
X195500Y159398D02*
Y157500D01*
X197398D01*
X197308Y157956D01*
X196766Y158766D01*
X195956Y159308D01*
X195500Y159398D01*
D02*
G37*
G36*
X250500Y149399D02*
Y147500D01*
X252398D01*
X252308Y147956D01*
X251766Y148766D01*
X250956Y149308D01*
X250500Y149399D01*
D02*
G37*
G36*
X224500Y159398D02*
X224044Y159308D01*
X223234Y158766D01*
X222692Y157956D01*
X222602Y157500D01*
X224500D01*
Y159398D01*
D02*
G37*
G36*
X42839Y151028D02*
X39402D01*
Y147555D01*
X43858D01*
Y150008D01*
X43781Y150398D01*
X43560Y150729D01*
X43229Y150950D01*
X42839Y151028D01*
D02*
G37*
G36*
X114500Y156500D02*
X112601D01*
X112692Y156044D01*
X113234Y155234D01*
X114044Y154692D01*
X114500Y154602D01*
Y156500D01*
D02*
G37*
G36*
X260500Y149399D02*
Y147500D01*
X262399D01*
X262308Y147956D01*
X261766Y148766D01*
X260956Y149308D01*
X260500Y149399D01*
D02*
G37*
G36*
X38402Y151028D02*
X34965D01*
X34574Y150950D01*
X34244Y150729D01*
X34023Y150398D01*
X33945Y150008D01*
Y147555D01*
X38402D01*
Y151028D01*
D02*
G37*
G36*
X249500Y149399D02*
X249044Y149308D01*
X248234Y148766D01*
X247692Y147956D01*
X247602Y147500D01*
X249500D01*
Y149399D01*
D02*
G37*
G36*
X220500D02*
Y147500D01*
X222398D01*
X222308Y147956D01*
X221766Y148766D01*
X220956Y149308D01*
X220500Y149399D01*
D02*
G37*
G36*
X225500Y159398D02*
Y157500D01*
X227398D01*
X227308Y157956D01*
X226766Y158766D01*
X225956Y159308D01*
X225500Y159398D01*
D02*
G37*
G36*
X210500Y149399D02*
Y147500D01*
X212399D01*
X212308Y147956D01*
X211766Y148766D01*
X210956Y149308D01*
X210500Y149399D01*
D02*
G37*
G36*
X219500D02*
X219044Y149308D01*
X218234Y148766D01*
X217692Y147956D01*
X217601Y147500D01*
X219500D01*
Y149399D01*
D02*
G37*
G36*
X239500D02*
X239044Y149308D01*
X238234Y148766D01*
X237692Y147956D01*
X237601Y147500D01*
X239500D01*
Y149399D01*
D02*
G37*
G36*
X240500D02*
Y147500D01*
X242399D01*
X242308Y147956D01*
X241766Y148766D01*
X240956Y149308D01*
X240500Y149399D01*
D02*
G37*
G36*
X229500D02*
X229044Y149308D01*
X228234Y148766D01*
X227692Y147956D01*
X227602Y147500D01*
X229500D01*
Y149399D01*
D02*
G37*
G36*
X230500D02*
Y147500D01*
X232399D01*
X232308Y147956D01*
X231766Y148766D01*
X230956Y149308D01*
X230500Y149399D01*
D02*
G37*
G36*
X117399Y156500D02*
X115500D01*
Y154602D01*
X115956Y154692D01*
X116766Y155234D01*
X117308Y156044D01*
X117399Y156500D01*
D02*
G37*
G36*
X184500Y159398D02*
X184044Y159308D01*
X183234Y158766D01*
X182692Y157956D01*
X182535Y157167D01*
X182526Y157122D01*
X182027Y157022D01*
X181991Y157108D01*
X181877Y157384D01*
X181417Y157575D01*
X176299D01*
X175840Y157384D01*
X175650Y156925D01*
Y152988D01*
X175840Y152529D01*
X176299Y152339D01*
X181417D01*
X181877Y152529D01*
X182067Y152988D01*
Y156543D01*
X182067Y156625D01*
X182567Y156674D01*
X182692Y156044D01*
X183234Y155234D01*
X184044Y154692D01*
X184500Y154602D01*
Y157000D01*
Y159398D01*
D02*
G37*
G36*
X114500D02*
X114044Y159308D01*
X113234Y158766D01*
X112692Y157956D01*
X112601Y157500D01*
X114500D01*
Y159398D01*
D02*
G37*
G36*
X257399Y156500D02*
X255500D01*
Y154602D01*
X255956Y154692D01*
X256766Y155234D01*
X257308Y156044D01*
X257399Y156500D01*
D02*
G37*
G36*
X34366Y158000D02*
X32075D01*
Y156532D01*
X32153Y156141D01*
X32373Y155810D01*
X32704Y155589D01*
X33094Y155512D01*
X34366D01*
Y158000D01*
D02*
G37*
G36*
X165500Y159398D02*
Y157500D01*
X167399D01*
X167308Y157956D01*
X166766Y158766D01*
X165956Y159308D01*
X165500Y159398D01*
D02*
G37*
G36*
X185500D02*
Y157500D01*
X187399D01*
X187308Y157956D01*
X186766Y158766D01*
X185956Y159308D01*
X185500Y159398D01*
D02*
G37*
G36*
X115500D02*
Y157500D01*
X117399D01*
X117308Y157956D01*
X116766Y158766D01*
X115956Y159308D01*
X115500Y159398D01*
D02*
G37*
G36*
X164500D02*
X164044Y159308D01*
X163234Y158766D01*
X162692Y157956D01*
X162601Y157500D01*
X164500D01*
Y159398D01*
D02*
G37*
G36*
X254500Y156500D02*
X252602D01*
X252692Y156044D01*
X253234Y155234D01*
X254044Y154692D01*
X254500Y154602D01*
Y156500D01*
D02*
G37*
G36*
X194500Y159398D02*
X194044Y159308D01*
X193234Y158766D01*
X192692Y157956D01*
X192602Y157500D01*
X194500D01*
Y159398D01*
D02*
G37*
G36*
X187399Y156500D02*
X185500D01*
Y154602D01*
X185956Y154692D01*
X186766Y155234D01*
X187308Y156044D01*
X187399Y156500D01*
D02*
G37*
G36*
X164500D02*
X162601D01*
X162692Y156044D01*
X163234Y155234D01*
X164044Y154692D01*
X164500Y154602D01*
Y156500D01*
D02*
G37*
G36*
X167399D02*
X165500D01*
Y154602D01*
X165956Y154692D01*
X166766Y155234D01*
X167308Y156044D01*
X167399Y156500D01*
D02*
G37*
G36*
X224500D02*
X222602D01*
X222692Y156044D01*
X223234Y155234D01*
X224044Y154692D01*
X224500Y154602D01*
Y156500D01*
D02*
G37*
G36*
X227398D02*
X225500D01*
Y154602D01*
X225956Y154692D01*
X226766Y155234D01*
X227308Y156044D01*
X227398Y156500D01*
D02*
G37*
G36*
X194500D02*
X192602D01*
X192692Y156044D01*
X193234Y155234D01*
X194044Y154692D01*
X194500Y154602D01*
Y156500D01*
D02*
G37*
G36*
X197398D02*
X195500D01*
Y154602D01*
X195956Y154692D01*
X196766Y155234D01*
X197308Y156044D01*
X197398Y156500D01*
D02*
G37*
G36*
X169500Y146500D02*
X167602D01*
X167692Y146044D01*
X168234Y145234D01*
X169044Y144692D01*
X169500Y144602D01*
Y146500D01*
D02*
G37*
G36*
X172398D02*
X170500D01*
Y144602D01*
X170956Y144692D01*
X171766Y145234D01*
X172308Y146044D01*
X172398Y146500D01*
D02*
G37*
G36*
X132398D02*
X130500D01*
Y144602D01*
X130956Y144692D01*
X131766Y145234D01*
X132308Y146044D01*
X132398Y146500D01*
D02*
G37*
G36*
X181417Y163480D02*
X176299D01*
X175840Y163290D01*
X175650Y162831D01*
Y158894D01*
X175840Y158434D01*
X176299Y158244D01*
X181417D01*
X181877Y158434D01*
X182067Y158894D01*
Y162831D01*
X181877Y163290D01*
X181417Y163480D01*
D02*
G37*
G36*
X219500Y146500D02*
X217601D01*
X217692Y146044D01*
X218234Y145234D01*
X219044Y144692D01*
X219500Y144602D01*
Y146500D01*
D02*
G37*
G36*
X222398D02*
X220500D01*
Y144602D01*
X220956Y144692D01*
X221766Y145234D01*
X222308Y146044D01*
X222398Y146500D01*
D02*
G37*
G36*
X209500D02*
X207601D01*
X207692Y146044D01*
X208234Y145234D01*
X209044Y144692D01*
X209500Y144602D01*
Y146500D01*
D02*
G37*
G36*
X212399D02*
X210500D01*
Y144602D01*
X210956Y144692D01*
X211766Y145234D01*
X212308Y146044D01*
X212399Y146500D01*
D02*
G37*
G36*
X129500D02*
X127602D01*
X127692Y146044D01*
X128234Y145234D01*
X129044Y144692D01*
X129500Y144602D01*
Y146500D01*
D02*
G37*
G36*
X265500Y139399D02*
Y137500D01*
X267399D01*
X267308Y137956D01*
X266766Y138766D01*
X265956Y139308D01*
X265500Y139399D01*
D02*
G37*
G36*
X181417Y145764D02*
X176299D01*
X175840Y145573D01*
X175650Y145114D01*
Y141177D01*
X175840Y140718D01*
X175956Y140670D01*
X175909Y140151D01*
X175578Y139930D01*
X175357Y139599D01*
X175280Y139209D01*
Y137740D01*
X182437D01*
Y139209D01*
X182359Y139599D01*
X182138Y139930D01*
X181807Y140151D01*
X181760Y140670D01*
X181877Y140718D01*
X182067Y141177D01*
Y145114D01*
X181877Y145573D01*
X181417Y145764D01*
D02*
G37*
G36*
X225500Y139399D02*
Y137500D01*
X227398D01*
X227308Y137956D01*
X226766Y138766D01*
X225956Y139308D01*
X225500Y139399D01*
D02*
G37*
G36*
X264500D02*
X264044Y139308D01*
X263234Y138766D01*
X262692Y137956D01*
X262601Y137500D01*
X264500D01*
Y139399D01*
D02*
G37*
G36*
X149000Y144233D02*
X148337Y144101D01*
X147774Y143726D01*
X147569Y143418D01*
X133431D01*
X133226Y143726D01*
X132663Y144101D01*
X132000Y144233D01*
X131337Y144101D01*
X130774Y143726D01*
X130399Y143163D01*
X130267Y142500D01*
X130399Y141837D01*
X130774Y141274D01*
X131337Y140899D01*
X132000Y140767D01*
X132663Y140899D01*
X133226Y141274D01*
X133431Y141582D01*
X147569D01*
X147774Y141274D01*
X148337Y140899D01*
X149000Y140767D01*
X149663Y140899D01*
X150226Y141274D01*
X150601Y141837D01*
X150733Y142500D01*
X150601Y143163D01*
X150226Y143726D01*
X149663Y144101D01*
X149000Y144233D01*
D02*
G37*
G36*
X99500Y146500D02*
X97601D01*
X97692Y146044D01*
X98234Y145234D01*
X99044Y144692D01*
X99500Y144602D01*
Y146500D01*
D02*
G37*
G36*
X38402Y146555D02*
X33945D01*
Y144102D01*
X34023Y143712D01*
X34244Y143381D01*
X34574Y143160D01*
X34965Y143083D01*
X38402D01*
Y146555D01*
D02*
G37*
G36*
X43858D02*
X39402D01*
Y143083D01*
X42839D01*
X43229Y143160D01*
X43560Y143381D01*
X43781Y143712D01*
X43858Y144102D01*
Y146555D01*
D02*
G37*
G36*
X229500Y146500D02*
X227602D01*
X227692Y146044D01*
X228234Y145234D01*
X229044Y144692D01*
X229500Y144602D01*
Y146500D01*
D02*
G37*
G36*
X129500Y149399D02*
X129044Y149308D01*
X128234Y148766D01*
X127692Y147956D01*
X127602Y147500D01*
X129500D01*
Y149399D01*
D02*
G37*
G36*
X254500Y159398D02*
X254044Y159308D01*
X253234Y158766D01*
X252692Y157956D01*
X252602Y157500D01*
X254500D01*
Y159398D01*
D02*
G37*
G36*
X99500Y149399D02*
X99044Y149308D01*
X98234Y148766D01*
X97692Y147956D01*
X97601Y147500D01*
X99500D01*
Y149399D01*
D02*
G37*
G36*
X255500Y159398D02*
Y157500D01*
X257399D01*
X257308Y157956D01*
X256766Y158766D01*
X255956Y159308D01*
X255500Y159398D01*
D02*
G37*
G36*
X170500Y149399D02*
Y147500D01*
X172398D01*
X172308Y147956D01*
X171766Y148766D01*
X170956Y149308D01*
X170500Y149399D01*
D02*
G37*
G36*
X209500D02*
X209044Y149308D01*
X208234Y148766D01*
X207692Y147956D01*
X207601Y147500D01*
X209500D01*
Y149399D01*
D02*
G37*
G36*
X130500D02*
Y147500D01*
X132398D01*
X132308Y147956D01*
X131766Y148766D01*
X130956Y149308D01*
X130500Y149399D01*
D02*
G37*
G36*
X169500D02*
X169044Y149308D01*
X168234Y148766D01*
X167692Y147956D01*
X167602Y147500D01*
X169500D01*
Y149399D01*
D02*
G37*
G36*
X242399Y146500D02*
X240500D01*
Y144602D01*
X240956Y144692D01*
X241766Y145234D01*
X242308Y146044D01*
X242399Y146500D01*
D02*
G37*
G36*
X249500D02*
X247602D01*
X247692Y146044D01*
X248234Y145234D01*
X249044Y144692D01*
X249500Y144602D01*
Y146500D01*
D02*
G37*
G36*
X232399D02*
X230500D01*
Y144602D01*
X230956Y144692D01*
X231766Y145234D01*
X232308Y146044D01*
X232399Y146500D01*
D02*
G37*
G36*
X239500D02*
X237601D01*
X237692Y146044D01*
X238234Y145234D01*
X239044Y144692D01*
X239500Y144602D01*
Y146500D01*
D02*
G37*
G36*
X252398D02*
X250500D01*
Y144602D01*
X250956Y144692D01*
X251766Y145234D01*
X252308Y146044D01*
X252398Y146500D01*
D02*
G37*
G36*
X262399D02*
X260500D01*
Y144602D01*
X260956Y144692D01*
X261766Y145234D01*
X262308Y146044D01*
X262399Y146500D01*
D02*
G37*
G36*
X181417Y151669D02*
X176299D01*
X175840Y151479D01*
X175650Y151020D01*
Y147083D01*
X175840Y146624D01*
X176299Y146433D01*
X181417D01*
X181877Y146624D01*
X182067Y147083D01*
Y151020D01*
X181877Y151479D01*
X181417Y151669D01*
D02*
G37*
G36*
X259500Y146500D02*
X257601D01*
X257692Y146044D01*
X258234Y145234D01*
X259044Y144692D01*
X259500Y144602D01*
Y146500D01*
D02*
G37*
%LPD*%
G36*
X80767Y163503D02*
X80767Y163500D01*
X80899Y162837D01*
X81274Y162274D01*
X81808Y161918D01*
X81814Y161881D01*
X81575Y161418D01*
X80931D01*
X80726Y161726D01*
X80163Y162101D01*
X79500Y162233D01*
X79137Y162161D01*
X76149Y165149D01*
X75851Y165348D01*
X75500Y165418D01*
X54925D01*
X54686Y165881D01*
X54692Y165918D01*
X55226Y166274D01*
X55227Y166277D01*
X77993D01*
X80767Y163503D01*
D02*
G37*
G36*
X108399Y150337D02*
X108774Y149774D01*
X109082Y149569D01*
Y147500D01*
X109152Y147149D01*
X109351Y146851D01*
X124582Y131620D01*
Y129720D01*
X124082Y129513D01*
X120298Y133298D01*
X120298Y133298D01*
X107835Y145760D01*
Y150606D01*
X108335Y150655D01*
X108399Y150337D01*
D02*
G37*
G36*
X127314Y118119D02*
X127308Y118082D01*
X126774Y117726D01*
X126399Y117163D01*
X126267Y116500D01*
X126399Y115837D01*
X126774Y115274D01*
X127082Y115069D01*
Y107425D01*
X126619Y107186D01*
X126582Y107192D01*
X126226Y107726D01*
X125663Y108101D01*
X125000Y108233D01*
X124337Y108101D01*
X123774Y107726D01*
X123399Y107163D01*
X123267Y106500D01*
X123339Y106137D01*
X122851Y105649D01*
X122652Y105351D01*
X122582Y105000D01*
Y70834D01*
X122082Y70574D01*
X121918Y70688D01*
Y104500D01*
X121848Y104851D01*
X121649Y105149D01*
X120418Y106380D01*
Y117638D01*
X120918Y117883D01*
X121500Y117767D01*
X122163Y117899D01*
X122726Y118274D01*
X122931Y118582D01*
X127075D01*
X127314Y118119D01*
D02*
G37*
G36*
X127152Y105977D02*
X127351Y105680D01*
X127582Y105448D01*
Y96431D01*
X127274Y96226D01*
X126899Y95663D01*
X126767Y95000D01*
X126899Y94337D01*
X127274Y93774D01*
X127582Y93569D01*
Y68000D01*
X127602Y67903D01*
X127141Y67657D01*
X124418Y70380D01*
Y104430D01*
X124844Y104798D01*
X125000Y104767D01*
X125663Y104899D01*
X126226Y105274D01*
X126601Y105837D01*
X126636Y106010D01*
X127146D01*
X127152Y105977D01*
D02*
G37*
G36*
X129918Y69808D02*
X130274Y69274D01*
X130582Y69069D01*
Y69000D01*
X130652Y68649D01*
X130851Y68351D01*
X153351Y45851D01*
X153649Y45652D01*
X154000Y45582D01*
X187120D01*
X187843Y44859D01*
X187597Y44398D01*
X187500Y44418D01*
X153380D01*
X129418Y68380D01*
Y69575D01*
X129881Y69814D01*
X129918Y69808D01*
D02*
G37*
G36*
X135582Y110620D02*
Y67500D01*
X135652Y67149D01*
X135851Y66851D01*
X153351Y49351D01*
X153649Y49152D01*
X154000Y49082D01*
X186120D01*
X187285Y47918D01*
X187077Y47418D01*
X154380D01*
X132708Y69090D01*
X132726Y69274D01*
X133101Y69837D01*
X133233Y70500D01*
X133101Y71163D01*
X132726Y71726D01*
X132418Y71931D01*
Y111500D01*
X132348Y111851D01*
X132160Y112132D01*
X132233Y112500D01*
X132101Y113163D01*
X131726Y113726D01*
X131163Y114101D01*
X130500Y114233D01*
X129837Y114101D01*
X129418Y113821D01*
X128918Y114023D01*
Y115069D01*
X129226Y115274D01*
X129601Y115837D01*
X129625Y115954D01*
X130103Y116099D01*
X135582Y110620D01*
D02*
G37*
G36*
X130582Y94075D02*
Y71931D01*
X130274Y71726D01*
X129918Y71192D01*
X129881Y71186D01*
X129418Y71425D01*
Y93569D01*
X129726Y93774D01*
X130082Y94308D01*
X130119Y94314D01*
X130582Y94075D01*
D02*
G37*
G36*
X214274Y117774D02*
X214477Y117639D01*
X214371Y117108D01*
X214337Y117101D01*
X213774Y116726D01*
X213569Y116418D01*
X189380D01*
X188215Y117582D01*
X188423Y118082D01*
X214069D01*
X214274Y117774D01*
D02*
G37*
G36*
X189000Y114582D02*
X213569D01*
X213774Y114274D01*
X214308Y113918D01*
X214314Y113881D01*
X214075Y113418D01*
X189380D01*
X188657Y114141D01*
X188903Y114602D01*
X189000Y114582D01*
D02*
G37*
D16*
X40181Y63500D02*
D03*
X34866D02*
D03*
X40181Y57500D02*
D03*
X34866D02*
D03*
X40181Y97500D02*
D03*
X34866D02*
D03*
X40181Y103000D02*
D03*
X34866D02*
D03*
X40157Y113500D02*
D03*
X34843D02*
D03*
X40157Y119500D02*
D03*
X34843D02*
D03*
X40181Y164500D02*
D03*
X34866D02*
D03*
X40181Y158500D02*
D03*
X34866D02*
D03*
D29*
X119000Y132000D02*
X123000Y128000D01*
X106000Y145000D02*
Y167500D01*
Y145000D02*
X119000Y132000D01*
X153000Y99500D02*
Y104000D01*
X160500Y111500D01*
D30*
X103000Y117500D02*
Y175500D01*
X88500Y169500D02*
X98500D01*
X149000Y96000D02*
X170328D01*
X144500Y100500D02*
X149000Y96000D01*
X159000Y103000D02*
X163000Y107000D01*
X186500Y79500D02*
X190500Y75500D01*
X112500Y125500D02*
X119000Y132000D01*
X243500Y49000D02*
X262500Y68000D01*
Y109000D01*
X244000Y189500D02*
Y192500D01*
X82500Y163500D02*
X88500Y169500D01*
X110000Y147500D02*
Y151000D01*
Y147500D02*
X125500Y132000D01*
X121500Y119500D02*
X125500D01*
X51000Y156500D02*
X56500Y162000D01*
X71500D01*
X50900Y162500D02*
X52900Y164500D01*
X47500Y155000D02*
Y169000D01*
X47000Y169500D02*
X47500Y169000D01*
Y155000D02*
X63500Y139000D01*
X40181Y158500D02*
X50000Y148681D01*
Y129000D02*
Y148681D01*
X49945Y125055D02*
Y128945D01*
X38902D02*
X49945D01*
Y125055D02*
X50000Y125000D01*
X49945Y128945D02*
X50000Y129000D01*
X40130Y70717D02*
X40181Y70665D01*
X40130Y70717D02*
X48217D01*
X38902D02*
X40130D01*
X50000Y72500D02*
Y125000D01*
X48217Y70717D02*
X50000Y72500D01*
X14098Y81000D02*
X38902D01*
X5500Y79500D02*
X5772Y79772D01*
X14098D01*
X89000Y26000D02*
Y30000D01*
X87000Y32000D02*
X89000Y30000D01*
X97500Y26000D02*
Y26828D01*
X40181Y57500D02*
X66828D01*
X97500Y26828D01*
X103500Y23000D02*
X107000Y26500D01*
X92000Y23000D02*
X103500D01*
X89000Y26000D02*
X92000Y23000D01*
X108500Y109000D02*
Y127500D01*
X111500Y110500D02*
Y116000D01*
Y110500D02*
X112000Y110000D01*
X117000Y70000D02*
Y100500D01*
X108500Y109000D02*
X117000Y100500D01*
X112500Y117000D02*
Y125500D01*
X111500Y116000D02*
X112500Y117000D01*
X194000Y68500D02*
X198500D01*
X193000Y69500D02*
X194000Y68500D01*
X198500D02*
X207000Y77000D01*
X142000Y26500D02*
Y38000D01*
X136000Y44000D02*
X142000Y38000D01*
X157000Y84500D02*
X157500Y85000D01*
X169000D01*
X163000Y107000D02*
X180500D01*
X159000Y103000D02*
Y103500D01*
X190000Y75500D02*
X190500D01*
X191000Y80000D02*
X219000D01*
X183500Y87500D02*
X191000Y80000D01*
X148000Y87500D02*
X183500D01*
X161500Y79500D02*
X186500D01*
X178324Y95824D02*
X204676D01*
X177500Y95000D02*
X178324Y95824D01*
X204676D02*
X205176Y96324D01*
X179000Y102500D02*
X226000D01*
X178828Y104500D02*
X186500D01*
X170328Y96000D02*
X178828Y104500D01*
X186000Y90000D02*
X188000Y88000D01*
X150000Y90000D02*
X186000D01*
X141500Y98500D02*
X150000Y90000D01*
X141500Y98500D02*
Y123500D01*
X146000Y89500D02*
X148000Y87500D01*
X139500Y89500D02*
X146000D01*
X235000Y159500D02*
X244000D01*
X247500Y163000D01*
X243500Y192000D02*
X244000Y192500D01*
Y189500D02*
X245000Y188500D01*
Y183500D02*
Y188500D01*
X256811Y183500D02*
Y185916D01*
X246100Y196627D02*
Y201500D01*
X206000Y206500D02*
X241100D01*
X246100Y201500D01*
Y196627D02*
X256811Y185916D01*
X200000Y200500D02*
X206000Y206500D01*
X200000Y200000D02*
Y200500D01*
X203500Y61000D02*
Y70000D01*
Y61000D02*
X207500Y57000D01*
X229000D01*
X243000Y43000D01*
Y42000D02*
Y43000D01*
X222000Y53000D02*
X233000Y42000D01*
X205000Y53000D02*
X222000D01*
X187500Y70500D02*
X205000Y53000D01*
X138500Y163000D02*
X141500D01*
X144000Y157500D02*
X189000Y112500D01*
X134000Y157500D02*
X144000D01*
X141500Y163000D02*
X189000Y115500D01*
X215000D01*
X170500Y94000D02*
X179000Y102500D01*
X150500Y94000D02*
X170500D01*
X147250Y159750D02*
Y162250D01*
X132500Y177000D02*
X147250Y162250D01*
X131500Y177000D02*
X132500D01*
X147250Y159750D02*
X188000Y119000D01*
X215500D01*
X189000Y112500D02*
X217500D01*
X176000Y95000D02*
X177500D01*
X226000Y83000D02*
Y84000D01*
X222000Y88000D02*
X226000Y84000D01*
X188000Y88000D02*
X222000D01*
X125500Y139500D02*
X141500Y123500D01*
X125500Y119500D02*
X128000D01*
Y106328D02*
Y116500D01*
X97500Y160500D02*
X99000Y159000D01*
X79500Y160500D02*
X97500D01*
X90000Y135500D02*
X97000Y128500D01*
Y117000D02*
Y128500D01*
X95000Y104500D02*
Y107500D01*
Y104500D02*
X108000Y91500D01*
X139000Y90000D02*
X139500Y89500D01*
X145000Y152500D02*
X191000Y106500D01*
X131000Y152500D02*
X145000D01*
X191000Y106500D02*
X215000D01*
X205176Y96324D02*
X240676D01*
X257850Y113498D01*
X98500Y165000D02*
X99000Y164500D01*
X89000Y165000D02*
X98500D01*
X201000Y100500D02*
X236500D01*
X257850Y113498D02*
Y131700D01*
X258150Y132000D01*
X236500Y100500D02*
X251944Y115944D01*
Y131700D01*
X252244Y132000D01*
X63500Y139000D02*
X77500D01*
X52900Y164500D02*
X75500D01*
X125500Y119500D02*
Y132000D01*
X74000Y189500D02*
Y200000D01*
Y189500D02*
X78500Y185000D01*
X93500D01*
X103000Y175500D01*
X151000Y32500D02*
X180000D01*
X112500Y71000D02*
X151000Y32500D01*
X112500Y71000D02*
Y71328D01*
X79500Y104328D02*
X112500Y71328D01*
X79500Y104328D02*
Y115000D01*
X86000Y121500D01*
Y134000D01*
X128500Y95000D02*
Y105828D01*
Y68000D02*
Y95000D01*
X87500Y114500D02*
X99500D01*
X113500Y95000D02*
Y100500D01*
X99500Y114500D02*
X113500Y100500D01*
X52500Y106500D02*
X56000D01*
X80000Y130500D01*
X132000Y142500D02*
X149000D01*
X123500Y105000D02*
X125000Y106500D01*
X123500Y70000D02*
Y105000D01*
Y70000D02*
X152500Y41000D01*
X117000Y70000D02*
X151000Y36000D01*
X119500Y106000D02*
X121000Y104500D01*
Y70000D02*
Y104500D01*
Y70000D02*
X152000Y39000D01*
X86500Y115500D02*
X87500Y114500D01*
X151000Y36000D02*
X185000D01*
X194000Y27000D01*
Y16000D02*
Y27000D01*
Y16000D02*
X200000Y10000D01*
X119500Y106000D02*
Y122500D01*
X120000Y123000D01*
X152000Y39000D02*
X186000D01*
X152500Y41000D02*
X186500D01*
X128000Y106328D02*
X128500Y105828D01*
Y68000D02*
X153000Y43500D01*
X187500D01*
X154000Y50000D02*
X186500D01*
X136500Y67500D02*
X154000Y50000D01*
X136500Y67500D02*
Y111000D01*
X131500Y70500D02*
Y111500D01*
Y69000D02*
Y70500D01*
X57000D02*
X110500D01*
X128000Y119500D02*
X136500Y111000D01*
X154000Y46500D02*
X187500D01*
X131500Y69000D02*
X154000Y46500D01*
X130500Y112500D02*
X131500Y111500D01*
X161500Y99500D02*
X165000Y103000D01*
X174500D01*
X130000Y40000D02*
X130500Y40500D01*
X130000Y10000D02*
Y40000D01*
X75500Y164500D02*
X79500Y160500D01*
X186000Y39000D02*
X197500Y27500D01*
Y22500D02*
Y27500D01*
Y22500D02*
X210000Y10000D01*
X234000Y26000D02*
X250000Y10000D01*
X186500Y41000D02*
X201500Y26000D01*
X187500Y46500D02*
X202500Y31500D01*
X187500Y43500D02*
X200700Y30300D01*
X220000Y10000D02*
Y24500D01*
X200700Y30300D02*
X214200D01*
X220000Y24500D01*
X222500Y31500D02*
X230000Y24000D01*
X202500Y31500D02*
X222500D01*
X230000Y10000D02*
Y24000D01*
X203000Y33500D02*
X223000D01*
X240000Y16500D01*
Y10000D02*
Y16500D01*
X186500Y50000D02*
X203000Y33500D01*
X193189Y127311D02*
Y132000D01*
Y127311D02*
X194500Y126000D01*
X181000Y132000D02*
X187284D01*
X34866Y97500D02*
Y103000D01*
X40181Y97500D02*
Y103000D01*
X34866Y57500D02*
Y63500D01*
X40181Y57500D02*
Y63500D01*
Y70665D01*
X181000Y129000D02*
Y132000D01*
X180000Y136724D02*
X180197Y136921D01*
X180000Y133000D02*
Y136724D01*
Y133000D02*
X181000Y132000D01*
X394700Y0D02*
X396699D01*
X395700D01*
Y5998D01*
X394700Y4998D01*
X399698D02*
X400698Y5998D01*
X402697D01*
X403697Y4998D01*
Y1000D01*
X402697Y0D01*
X400698D01*
X399698Y1000D01*
Y4998D01*
X405696D02*
X406696Y5998D01*
X408696D01*
X409695Y4998D01*
Y1000D01*
X408696Y0D01*
X406696D01*
X405696Y1000D01*
Y4998D01*
X412694Y-1000D02*
X413694Y0D01*
Y1000D01*
X412694D01*
Y0D01*
X413694D01*
X412694Y-1000D01*
X411694Y-1999D01*
X417693Y4998D02*
X418692Y5998D01*
X420692D01*
X421691Y4998D01*
Y1000D01*
X420692Y0D01*
X418692D01*
X417693Y1000D01*
Y4998D01*
X431688Y0D02*
X429689Y1999D01*
Y3999D01*
X431688Y5998D01*
X434687Y0D02*
Y3999D01*
X435687D01*
X436686Y2999D01*
Y0D01*
Y2999D01*
X437686Y3999D01*
X438686Y2999D01*
Y0D01*
X440685D02*
Y3999D01*
X441685D01*
X442685Y2999D01*
Y0D01*
Y2999D01*
X443684Y3999D01*
X444684Y2999D01*
Y0D01*
X446683D02*
X448682Y1999D01*
Y3999D01*
X446683Y5998D01*
X1000Y398698D02*
X2000Y399698D01*
X3999D01*
X4999Y398698D01*
Y394700D01*
X3999Y393700D01*
X2000D01*
X1000Y394700D01*
Y398698D01*
X7998Y392700D02*
X8997Y393700D01*
Y394700D01*
X7998D01*
Y393700D01*
X8997D01*
X7998Y392700D01*
X6998Y391701D01*
X12996Y393700D02*
X14996D01*
X13996D01*
Y399698D01*
X12996Y398698D01*
X17995D02*
X18994Y399698D01*
X20993D01*
X21993Y398698D01*
Y394700D01*
X20993Y393700D01*
X18994D01*
X17995Y394700D01*
Y398698D01*
X23993D02*
X24992Y399698D01*
X26992D01*
X27991Y398698D01*
Y394700D01*
X26992Y393700D01*
X24992D01*
X23993Y394700D01*
Y398698D01*
X37988Y393700D02*
X35989Y395699D01*
Y397699D01*
X37988Y399698D01*
X40987Y393700D02*
Y397699D01*
X41987D01*
X42986Y396699D01*
Y393700D01*
Y396699D01*
X43986Y397699D01*
X44986Y396699D01*
Y393700D01*
X46985D02*
Y397699D01*
X47985D01*
X48985Y396699D01*
Y393700D01*
Y396699D01*
X49984Y397699D01*
X50984Y396699D01*
Y393700D01*
X52983D02*
X54983Y395699D01*
Y397699D01*
X52983Y399698D01*
D31*
X207500Y82000D02*
X215500D01*
X218000Y84500D01*
X242500Y81500D02*
X260000Y99000D01*
Y105500D01*
X78500Y167500D02*
X82500Y163500D01*
X54000Y167500D02*
X78500D01*
X54000Y170500D02*
X58500Y175000D01*
X54000Y167500D02*
Y170500D01*
X66000Y132500D02*
X67500Y134000D01*
X57500Y132500D02*
X66000D01*
X44000Y138000D02*
X46500Y135500D01*
X38902Y138000D02*
X44000D01*
X29000D02*
X38902D01*
X14098D02*
X29000D01*
X40157Y116500D02*
Y119500D01*
Y113500D02*
Y116500D01*
X29000Y127000D02*
Y138000D01*
Y127000D02*
X32000Y124000D01*
X44000D01*
X46000Y122000D01*
Y119500D02*
Y122000D01*
X43000Y116500D02*
X46000Y119500D01*
X40157Y116500D02*
X43000D01*
X38902Y81000D02*
X46000D01*
X48000Y83000D01*
Y93000D01*
X43500Y97500D02*
X48000Y93000D01*
X40181Y97500D02*
X43500D01*
D32*
X131500Y137000D02*
X132500Y136000D01*
X154500D01*
X160500Y130000D01*
Y111500D02*
Y130000D01*
D33*
X253000Y42000D02*
D03*
X243000D02*
D03*
X233000D02*
D03*
X223000D02*
D03*
X213000D02*
D03*
X203000D02*
D03*
D34*
X250000Y200000D02*
D03*
X200000Y10000D02*
D03*
X164000Y200000D02*
D03*
X180000Y10000D02*
D03*
D35*
X220000Y200000D02*
D03*
X210000D02*
D03*
X200000D02*
D03*
X190000D02*
D03*
X180000D02*
D03*
X240000D02*
D03*
X230000D02*
D03*
X250000Y10000D02*
D03*
X240000D02*
D03*
X230000D02*
D03*
X220000D02*
D03*
X210000D02*
D03*
X74000Y200000D02*
D03*
X84000D02*
D03*
X94000D02*
D03*
X104000D02*
D03*
X114000D02*
D03*
X124000D02*
D03*
X134000D02*
D03*
X144000D02*
D03*
X154000D02*
D03*
X160000Y10000D02*
D03*
X170000D02*
D03*
X110000D02*
D03*
X120000D02*
D03*
X130000D02*
D03*
X140000D02*
D03*
X150000D02*
D03*
D36*
X60000Y200000D02*
D03*
X55000Y10000D02*
D03*
X260000Y30000D02*
D03*
D37*
Y147000D02*
D03*
X265000Y137000D02*
D03*
Y97000D02*
D03*
X260000Y87000D02*
D03*
X265000Y77000D02*
D03*
Y57000D02*
D03*
X260000Y47000D02*
D03*
X265000Y37000D02*
D03*
Y17000D02*
D03*
X255000Y177000D02*
D03*
Y157000D02*
D03*
X250000Y147000D02*
D03*
Y47000D02*
D03*
Y27000D02*
D03*
X255000Y17000D02*
D03*
X240000Y167000D02*
D03*
Y147000D02*
D03*
Y127000D02*
D03*
Y27000D02*
D03*
X235000Y177000D02*
D03*
X230000Y167000D02*
D03*
Y147000D02*
D03*
Y127000D02*
D03*
X235000Y17000D02*
D03*
X225000Y177000D02*
D03*
X220000Y167000D02*
D03*
X225000Y157000D02*
D03*
X220000Y147000D02*
D03*
X225000Y137000D02*
D03*
X220000Y127000D02*
D03*
Y107000D02*
D03*
X225000Y77000D02*
D03*
Y17000D02*
D03*
X210000Y147000D02*
D03*
Y127000D02*
D03*
Y67000D02*
D03*
Y47000D02*
D03*
X215000Y17000D02*
D03*
X200000Y167000D02*
D03*
Y47000D02*
D03*
X195000Y177000D02*
D03*
X190000Y167000D02*
D03*
X195000Y157000D02*
D03*
Y137000D02*
D03*
Y57000D02*
D03*
X190000Y27000D02*
D03*
Y7000D02*
D03*
X185000Y177000D02*
D03*
Y157000D02*
D03*
Y57000D02*
D03*
X180000Y27000D02*
D03*
X185000Y17000D02*
D03*
X175000Y197000D02*
D03*
X170000Y167000D02*
D03*
Y147000D02*
D03*
Y67000D02*
D03*
X175000Y57000D02*
D03*
X170000Y27000D02*
D03*
X175000Y17000D02*
D03*
X165000Y177000D02*
D03*
X160000Y167000D02*
D03*
X165000Y157000D02*
D03*
Y57000D02*
D03*
X160000Y27000D02*
D03*
X165000Y17000D02*
D03*
X150000Y67000D02*
D03*
Y27000D02*
D03*
X155000Y17000D02*
D03*
X145000Y77000D02*
D03*
Y17000D02*
D03*
X130000Y167000D02*
D03*
Y147000D02*
D03*
X135000Y17000D02*
D03*
X120000Y187000D02*
D03*
X125000Y177000D02*
D03*
X120000Y167000D02*
D03*
Y47000D02*
D03*
X125000Y17000D02*
D03*
X110000Y187000D02*
D03*
X115000Y177000D02*
D03*
X110000Y167000D02*
D03*
X115000Y157000D02*
D03*
Y57000D02*
D03*
Y17000D02*
D03*
X100000Y187000D02*
D03*
X105000Y177000D02*
D03*
X100000Y147000D02*
D03*
Y107000D02*
D03*
X105000Y17000D02*
D03*
X100000Y7000D02*
D03*
X95000Y137000D02*
D03*
X90000Y107000D02*
D03*
X95000Y97000D02*
D03*
X90000Y47000D02*
D03*
X80000Y67000D02*
D03*
X85000Y57000D02*
D03*
X70000Y187000D02*
D03*
Y107000D02*
D03*
X75000Y97000D02*
D03*
X70000Y87000D02*
D03*
Y67000D02*
D03*
X75000Y57000D02*
D03*
X70000Y47000D02*
D03*
X75000Y37000D02*
D03*
X70000Y27000D02*
D03*
Y7000D02*
D03*
X60000Y187000D02*
D03*
Y107000D02*
D03*
X65000Y97000D02*
D03*
Y77000D02*
D03*
X60000Y67000D02*
D03*
Y47000D02*
D03*
X65000Y37000D02*
D03*
X60000Y27000D02*
D03*
X65000Y17000D02*
D03*
X50000Y167000D02*
D03*
X55000Y77000D02*
D03*
X50000Y67000D02*
D03*
Y47000D02*
D03*
X55000Y37000D02*
D03*
X50000Y27000D02*
D03*
X45000Y197000D02*
D03*
Y77000D02*
D03*
Y37000D02*
D03*
Y17000D02*
D03*
X35000Y37000D02*
D03*
X20000Y107000D02*
D03*
X25000Y37000D02*
D03*
X10000Y187000D02*
D03*
X15000Y177000D02*
D03*
X10000Y167000D02*
D03*
Y127000D02*
D03*
Y107000D02*
D03*
Y67000D02*
D03*
Y47000D02*
D03*
X15000Y37000D02*
D03*
X10000Y27000D02*
D03*
Y7000D02*
D03*
D38*
X98500Y169500D02*
D03*
X153000Y99500D02*
D03*
X131500Y137000D02*
D03*
X260000Y105500D02*
D03*
X262500Y109000D02*
D03*
X242500Y81500D02*
D03*
X82500Y163500D02*
D03*
X106000Y167500D02*
D03*
X110000Y151000D02*
D03*
X58500Y175000D02*
D03*
X54000Y167500D02*
D03*
X50900Y162500D02*
D03*
X51000Y156500D02*
D03*
X47000Y169500D02*
D03*
X67500Y134000D02*
D03*
X57500Y132500D02*
D03*
X46500Y135500D02*
D03*
X5500Y79500D02*
D03*
X87000Y32000D02*
D03*
X97500Y26000D02*
D03*
X107000Y26500D02*
D03*
X112000Y110000D02*
D03*
X123000Y128000D02*
D03*
X111500Y116000D02*
D03*
X160500Y111500D02*
D03*
X193000Y69500D02*
D03*
X207000Y77000D02*
D03*
X207500Y82000D02*
D03*
X218000Y84500D02*
D03*
X142000Y26500D02*
D03*
X136000Y44000D02*
D03*
X157000Y84500D02*
D03*
X159000Y103500D02*
D03*
X190000Y75500D02*
D03*
X186500Y104500D02*
D03*
X144500Y100500D02*
D03*
X89000Y26000D02*
D03*
X243500Y49000D02*
D03*
X235000Y159500D02*
D03*
X247500Y163000D02*
D03*
X243500Y192000D02*
D03*
X203500Y70000D02*
D03*
X187500Y70500D02*
D03*
X138500Y163000D02*
D03*
X134000Y157500D02*
D03*
X215000Y115500D02*
D03*
X150500Y94000D02*
D03*
X226000Y102500D02*
D03*
X131500Y177000D02*
D03*
X215500Y119000D02*
D03*
X217500Y112500D02*
D03*
X176000Y95000D02*
D03*
X226000Y83000D02*
D03*
X128000Y116500D02*
D03*
X125500Y139500D02*
D03*
X99000Y159000D02*
D03*
X90000Y135500D02*
D03*
X97000Y117000D02*
D03*
X95000Y107500D02*
D03*
X108000Y91500D02*
D03*
X139000Y90000D02*
D03*
X219000Y80000D02*
D03*
X215000Y106500D02*
D03*
X131000Y152500D02*
D03*
X99000Y164500D02*
D03*
X89000Y165000D02*
D03*
X201000Y100500D02*
D03*
X77500Y139000D02*
D03*
X103000Y117500D02*
D03*
X161500Y79500D02*
D03*
X169000Y85000D02*
D03*
X180000Y32500D02*
D03*
X86000Y134000D02*
D03*
X128500Y95000D02*
D03*
X113500D02*
D03*
X52500Y106500D02*
D03*
X80000Y130500D02*
D03*
X132000Y142500D02*
D03*
X149000D02*
D03*
X86500Y115500D02*
D03*
X108500Y127500D02*
D03*
X120000Y123000D02*
D03*
X121500Y119500D02*
D03*
X131500Y70500D02*
D03*
X110500D02*
D03*
X57000D02*
D03*
X180500Y107000D02*
D03*
X161500Y99500D02*
D03*
X174500Y103000D02*
D03*
X130500Y40500D02*
D03*
X79500Y160500D02*
D03*
X71500Y162000D02*
D03*
X125000Y106500D02*
D03*
X234000Y26000D02*
D03*
X201500D02*
D03*
X130500Y112500D02*
D03*
X181000Y129000D02*
D03*
X194500Y126000D02*
D03*
D39*
X0Y390000D02*
X390000D01*
Y225000D02*
Y390000D01*
Y0D02*
Y225000D01*
Y0D02*
X392700D01*
X0D02*
X392700D01*
X0D02*
Y393700D01*
D40*
X393700Y-1000D02*
Y1000D01*
X392700Y0D02*
X394700D01*
X0Y392700D02*
Y394700D01*
X-1000Y393700D02*
X1000D01*
D41*
X14098Y79772D02*
D03*
Y138000D02*
D03*
D42*
X38902Y70717D02*
D03*
Y79772D02*
D03*
Y88827D02*
D03*
Y128945D02*
D03*
Y138000D02*
D03*
Y147055D02*
D03*
D43*
X178858Y154957D02*
D03*
Y137240D02*
D03*
Y143146D02*
D03*
Y149051D02*
D03*
Y160862D02*
D03*
Y166768D02*
D03*
Y172673D02*
D03*
Y178579D02*
D03*
D44*
X185945Y183500D02*
D03*
X191850D02*
D03*
X197756D02*
D03*
X203661D02*
D03*
X209567D02*
D03*
X215472D02*
D03*
X221378D02*
D03*
X227284D02*
D03*
X233189D02*
D03*
X239094D02*
D03*
X245000D02*
D03*
X250905D02*
D03*
X256811D02*
D03*
Y132319D02*
D03*
X250905D02*
D03*
X245000D02*
D03*
X239094D02*
D03*
X233189D02*
D03*
X227284D02*
D03*
X221378D02*
D03*
X215472D02*
D03*
X209567D02*
D03*
X203661D02*
D03*
X197756D02*
D03*
X191850D02*
D03*
X185945D02*
D03*
M02*
